<svg width="163" height="41" viewBox="0 0 163 41" fill="none" xmlns="http://www.w3.org/2000/svg">
<mask id="path-1-inside-1_4051_66220" fill="white">
<path fill-rule="evenodd" clip-rule="evenodd" d="M6.00027 26.9286L0.637108 21.1823C0.278515 20.7981 0.278516 20.2019 0.637109 19.8177L6.00027 14.0714V12C6.00027 5.37259 11.3728 0 18.0003 0L151 0C157.628 0 163 5.37258 163 12V29C163 35.6274 157.628 41 151 41L18.0003 41C11.3728 41 6.00027 35.6274 6.00027 29V26.9286Z"/>
</mask>
<path d="M0.637108 21.1823L-0.0939469 21.8646H-0.0939469L0.637108 21.1823ZM6.00027 26.9286H7.00027V26.5344L6.73132 26.2462L6.00027 26.9286ZM0.637109 19.8177L1.36816 20.5L0.637109 19.8177ZM6.00027 14.0714L6.73132 14.7538L7.00027 14.4656V14.0714H6.00027ZM18.0003 0V1V0ZM18.0003 41V42V41ZM-0.0939469 21.8646L5.26921 27.6109L6.73132 26.2462L1.36816 20.5L-0.0939469 21.8646ZM-0.093946 19.1354C-0.811131 19.9038 -0.811134 21.0962 -0.0939469 21.8646L1.36816 20.5H1.36816L-0.093946 19.1354ZM5.26921 13.3891L-0.093946 19.1354L1.36816 20.5L6.73132 14.7538L5.26921 13.3891ZM7.00027 14.0714V12H5.00027V14.0714H7.00027ZM7.00027 12C7.00027 5.92487 11.9251 1 18.0003 1V-1C10.8206 -1 5.00027 4.8203 5.00027 12H7.00027ZM18.0003 1L151 1V-1L18.0003 -1V1ZM151 1C157.075 1 162 5.92487 162 12H164C164 4.8203 158.18 -1 151 -1V1ZM162 12V29H164V12H162ZM162 29C162 35.0751 157.075 40 151 40V42C158.18 42 164 36.1797 164 29H162ZM151 40L18.0003 40V42L151 42V40ZM18.0003 40C11.9251 40 7.00027 35.0751 7.00027 29H5.00027C5.00027 36.1797 10.8206 42 18.0003 42V40ZM7.00027 29V26.9286H5.00027V29H7.00027Z" fill="#F8F8F8" mask="url(#path-1-inside-1_4051_66220)"/>
</svg>
