<svg width="24" height="24" viewBox="0 0 24 24" fill="none" xmlns="http://www.w3.org/2000/svg">
<path d="M5.65625 17.1795V16.9836C5.65625 12.5341 5.65625 8.08472 5.65625 3.63495C5.65625 3.18946 5.84079 3 6.27293 3C9.06532 3 11.858 3 14.6504 3C15.0479 3 15.2394 3.18775 15.2394 3.58716C15.2404 5.89721 15.2401 8.20727 15.2401 10.5173C15.2401 10.5624 15.2401 10.6078 15.2401 10.6627C15.0852 10.6785 14.9371 10.6846 14.7919 10.7095C14.4435 10.7693 14.1579 10.9468 13.9387 11.2284C13.8752 11.3096 13.8122 11.3277 13.7127 11.3247C13.5149 11.3185 13.3163 11.3383 13.0944 11.3486C13.0944 11.3107 13.0957 11.2516 13.0944 11.1926C13.0867 10.9147 12.9105 10.7136 12.6499 10.6839C12.3963 10.6552 12.147 10.8188 12.1167 11.086C12.0796 11.4138 12.0272 11.7534 12.2138 12.0917C12.0052 12.302 11.789 12.5219 11.5707 12.7393C11.2881 13.0213 11.1005 13.3623 11.1159 13.7648C11.1259 14.0297 11.0468 14.1929 10.8656 14.3707C10.5957 14.6356 10.4859 14.99 10.4882 15.3771C10.4909 15.8492 10.4872 16.3216 10.4899 16.7938C10.4905 16.9177 10.5049 17.0416 10.5136 17.1788H5.65625V17.1795ZM9.95429 11.4564C9.95429 11.5472 9.95295 11.6384 9.95429 11.7292C9.95996 12.0306 10.1562 12.2409 10.4385 12.2498C10.7058 12.2583 10.9287 12.0603 10.9497 11.7729C10.9647 11.5694 10.9647 11.3632 10.9497 11.1598C10.9284 10.8645 10.6998 10.6668 10.4231 10.6829C10.1505 10.6989 9.95996 10.9085 9.95429 11.2007C9.95262 11.2861 9.95429 11.3711 9.95429 11.4564ZM9.95429 5.97675C9.95429 6.06175 9.95329 6.1471 9.95429 6.2321C9.95863 6.53933 10.1482 6.74893 10.4275 6.75713C10.7241 6.766 10.9354 6.57347 10.952 6.26453C10.9624 6.07199 10.9631 5.8781 10.951 5.6859C10.9327 5.39164 10.7061 5.18477 10.4341 5.1974C10.1512 5.21038 9.95929 5.41929 9.95429 5.72141C9.95295 5.80641 9.95429 5.89175 9.95429 5.97675ZM13.0947 5.99211C13.0947 5.90131 13.0961 5.8105 13.0947 5.7197C13.0891 5.41827 12.8962 5.20935 12.6132 5.19706C12.3482 5.18546 12.1197 5.38584 12.0993 5.6702C12.0846 5.87912 12.083 6.09111 12.1006 6.29969C12.126 6.59668 12.3456 6.77283 12.6389 6.75678C12.9005 6.74245 13.0881 6.53387 13.0944 6.2478C13.0964 6.1628 13.0944 6.07746 13.0944 5.99246L13.0947 5.99211ZM10.9677 8.7241C10.9627 8.72376 10.9581 8.72342 10.953 8.72274C10.953 8.62067 10.9614 8.51757 10.9514 8.41653C10.9227 8.11715 10.7158 7.93656 10.4235 7.9468C10.1512 7.95636 9.95963 8.16391 9.95529 8.45886C9.95262 8.65173 9.94895 8.84495 9.95729 9.03748C9.9683 9.28497 10.1458 9.46727 10.3898 9.49663C10.644 9.52735 10.865 9.39012 10.9237 9.14433C10.9561 9.00881 10.954 8.86441 10.9677 8.7241ZM13.0947 8.72786C13.0947 8.63705 13.0964 8.54625 13.0947 8.45544C13.0884 8.16869 12.9018 7.96148 12.6392 7.94748C12.3449 7.93212 12.1263 8.10656 12.101 8.40321C12.0833 8.61145 12.0846 8.82344 12.0996 9.03236C12.1203 9.32082 12.3409 9.51267 12.6129 9.50243C12.8965 9.49185 13.0891 9.28498 13.0947 8.98286C13.0964 8.89786 13.0947 8.81252 13.0947 8.72752V8.72786ZM7.81428 11.4595C7.81428 11.5674 7.80827 11.6756 7.81561 11.7828C7.83297 12.0439 8.02451 12.2334 8.27979 12.2494C8.52873 12.2651 8.76198 12.0931 8.78734 11.8364C8.81137 11.5957 8.81204 11.3489 8.78935 11.1079C8.76399 10.8389 8.53473 10.6665 8.27578 10.6832C8.02217 10.6996 7.83196 10.8908 7.81495 11.153C7.80827 11.2547 7.81395 11.3571 7.81428 11.4592V11.4595ZM7.81661 8.71728C7.81661 8.71728 7.81695 8.71728 7.81728 8.71728C7.81728 8.83641 7.80827 8.95624 7.81928 9.07435C7.84198 9.31877 8.02985 9.48741 8.28012 9.50209C8.52372 9.51642 8.75698 9.36452 8.78134 9.12692C8.8087 8.85895 8.8097 8.58278 8.78067 8.31514C8.75431 8.07174 8.52472 7.93212 8.25943 7.94817C8.02718 7.96216 7.83997 8.13968 7.81862 8.37727C7.80861 8.48958 7.81695 8.60394 7.81695 8.71728H7.81661ZM7.81194 5.97914C7.81194 5.97914 7.81261 5.97914 7.81294 5.97914C7.81294 6.08121 7.80794 6.18362 7.81395 6.28535C7.82996 6.55538 8.01483 6.74484 8.26811 6.75713C8.54608 6.77078 8.75965 6.6175 8.78801 6.34543C8.81271 6.11057 8.81337 5.86922 8.79168 5.63402C8.76632 5.35887 8.54508 5.18443 8.2868 5.19809C8.01416 5.21242 7.82729 5.40427 7.81261 5.69C7.80761 5.78627 7.81194 5.88288 7.81194 5.97914Z" fill="#627185"/>
<path d="M19.4775 13.822C19.4254 13.9415 19.3924 14.0436 19.3387 14.1327C19.278 14.2337 19.2055 14.33 19.1254 14.416C19.0374 14.5102 19.0257 14.5928 19.0754 14.7178C19.1261 14.8458 19.2115 14.8424 19.3123 14.8519C19.4391 14.8642 19.5663 14.8823 19.6911 14.909C19.9253 14.9588 20.0611 15.1223 20.0631 15.3623C20.0668 15.8515 20.0671 16.341 20.0631 16.8302C20.0611 17.0613 19.9223 17.2289 19.6997 17.2733C19.5476 17.3037 19.3924 17.3197 19.2379 17.3392C19.0831 17.3586 18.9863 17.5788 19.0801 17.7072C19.1632 17.8208 19.2523 17.9301 19.3353 18.0441C19.4949 18.2636 19.4845 18.4971 19.2986 18.6903C18.975 19.0269 18.6483 19.3608 18.3196 19.6922C18.1244 19.8892 17.8961 19.8988 17.6749 19.7281C17.5861 19.6598 17.493 19.5956 17.4119 19.5188C17.3258 19.4372 17.2511 19.4103 17.1316 19.4625C17.0165 19.5127 16.9945 19.5847 16.9874 19.6956C16.9784 19.837 16.9557 19.978 16.9277 20.1169C16.884 20.3337 16.7202 20.476 16.5029 20.4784C16.019 20.4835 15.5352 20.4832 15.0513 20.4784C14.8274 20.4764 14.6646 20.3347 14.6195 20.105C14.5892 19.9493 14.5758 19.7906 14.5564 19.6328C14.5364 19.4714 14.3219 19.3754 14.1937 19.4741C14.0826 19.5594 13.9761 19.6509 13.8647 19.7356C13.6491 19.8988 13.4232 19.8865 13.2333 19.695C12.9046 19.3635 12.5783 19.0296 12.2539 18.6934C12.0617 18.494 12.049 18.2721 12.2095 18.0492C12.2753 17.9577 12.3434 17.8676 12.4134 17.7795C12.4802 17.6959 12.5412 17.6269 12.4868 17.4959C12.4331 17.3665 12.356 17.3364 12.2349 17.3296C12.1024 17.3221 11.9699 17.2996 11.8395 17.2723C11.6272 17.2275 11.4894 17.0596 11.4874 16.8374C11.4834 16.3424 11.4834 15.8474 11.4871 15.3524C11.4888 15.1285 11.6219 14.9591 11.8348 14.9144C11.992 14.8813 12.1532 14.8676 12.3127 14.8465C12.4685 14.8257 12.5626 14.6048 12.4678 14.4758C12.3811 14.3576 12.287 14.245 12.2019 14.1258C12.0527 13.9169 12.0631 13.6909 12.2392 13.5073C12.5739 13.1577 12.9123 12.8116 13.2544 12.4695C13.4229 12.3009 13.6384 12.2882 13.8327 12.4251C13.9331 12.4961 14.0295 12.5736 14.1233 12.6539C14.2107 12.7286 14.2821 12.7856 14.416 12.7235C14.5398 12.6661 14.5558 12.5876 14.5628 12.4733C14.5711 12.3435 14.5915 12.2135 14.6172 12.0858C14.6659 11.8458 14.8257 11.7086 15.061 11.7069C15.5339 11.7038 16.0067 11.7038 16.4792 11.7069C16.7248 11.7083 16.886 11.8458 16.932 12.0947C16.9597 12.2452 16.9748 12.3982 16.9931 12.5501C17.0121 12.7078 17.2284 12.8068 17.3525 12.7115C17.4636 12.6265 17.5707 12.5357 17.6822 12.4504C17.9018 12.2824 18.1187 12.2917 18.3126 12.4862C18.6459 12.8211 18.9786 13.1567 19.3013 13.5025C19.3804 13.5872 19.4184 13.7114 19.4775 13.8217V13.822ZM15.7678 14.2269C14.8371 14.2201 13.9538 14.8854 13.9348 16.1065C13.9188 17.1316 14.781 17.985 15.7795 17.9772C16.7882 17.969 17.6255 17.1108 17.6168 16.0942C17.6075 15.0219 16.8169 14.2238 15.7678 14.2269Z" fill="#4E606E"/>
<path d="M4.64147 17.1831C4.22535 17.1831 3.82024 17.2002 3.41713 17.1773C3.14316 17.1616 2.97731 16.938 2.97731 16.6506C2.97631 14.291 2.97631 11.9315 2.97731 9.57193C2.97731 9.25684 3.17987 9.0428 3.4832 9.03939C3.86562 9.03495 4.24804 9.03836 4.64147 9.03836V17.1835V17.1831Z" fill="#627185"/>
<path d="M18.459 11.328C18.2174 11.328 17.9975 11.3304 17.778 11.326C17.7393 11.3253 17.6865 11.3082 17.6645 11.2796C17.3211 10.8303 16.8656 10.6501 16.3187 10.6801C16.298 10.6811 16.277 10.6729 16.2383 10.6658V10.4797C16.2383 8.96746 16.2383 7.45519 16.2383 5.94291C16.2383 5.73195 16.2723 5.7002 16.4729 5.76608C16.5643 5.79612 16.6574 5.8504 16.7255 5.91868C17.2484 6.44507 17.771 6.97215 18.2788 7.51322C18.374 7.61461 18.4527 7.78017 18.4544 7.91706C18.4681 9.04836 18.462 10.1797 18.4617 11.311C18.4617 11.3274 18.4557 11.3437 18.459 11.3277V11.328Z" fill="#627185"/>
<path d="M15.7799 16.943C15.3007 16.9451 14.9339 16.5719 14.9336 16.0821C14.9333 15.624 15.3294 15.2259 15.7815 15.23C16.231 15.2341 16.6118 15.6185 16.6184 16.0752C16.6254 16.5634 16.2607 16.941 15.7802 16.943H15.7799Z" fill="#4E606E"/>
</svg>
