<svg width="170" height="170" viewBox="0 0 170 170" fill="none" xmlns="http://www.w3.org/2000/svg">
<mask id="mask0_3546_87893" style="mask-type:alpha" maskUnits="userSpaceOnUse" x="34" y="0" width="136" height="170">
<path d="M73.8801 164.122C73.4881 166.912 75.4313 169.507 78.239 169.731C90.5121 170.71 102.873 169.013 114.46 164.731C127.645 159.86 139.415 151.795 148.718 141.258C158.021 130.722 164.566 118.043 167.767 104.357C170.967 90.6704 170.724 76.404 167.059 62.8347C163.394 49.2653 156.421 36.8167 146.764 26.6034C137.108 16.39 125.069 8.7307 111.727 4.31118C98.3839 -0.108346 84.1535 -1.15012 70.3094 1.27912C58.1426 3.41404 46.608 8.17127 36.4972 15.1968C34.1841 16.8041 33.8118 20.0246 35.5548 22.2371C37.2979 24.4496 40.4954 24.8143 42.8216 23.226C51.5976 17.2338 61.5672 13.169 72.0723 11.3256C84.2551 9.18789 96.7779 10.1047 108.519 13.9938C120.261 17.883 130.855 24.6232 139.353 33.611C147.85 42.5987 153.987 53.5535 157.212 65.4945C160.437 77.4355 160.651 89.99 157.835 102.034C155.018 114.078 149.258 125.235 141.072 134.507C132.885 143.779 122.527 150.877 110.925 155.164C100.92 158.86 90.2601 160.368 79.6606 159.609C76.8512 159.408 74.2721 161.333 73.8801 164.122Z" fill="#304FFD"/>
</mask>
<g mask="url(#mask0_3546_87893)">
<rect width="170" height="170" fill="#304FFD"/>
</g>
</svg>
