<svg width="24" height="24" viewBox="0 0 24 24" fill="none" xmlns="http://www.w3.org/2000/svg">
<path d="M11.3789 19.5446C11.3789 14.3624 11.3789 9.21329 11.3789 4.04443C13.3532 4.04443 15.3157 4.04443 17.3082 4.04443C17.3082 4.24431 17.3082 4.43273 17.3082 4.62052C17.3082 5.77651 17.3069 6.93186 17.3088 8.08785C17.3101 8.5901 17.5184 8.79825 18.0151 8.79889C19.3276 8.80016 20.6394 8.79953 21.975 8.79953C21.9838 8.89055 21.9988 8.97076 21.9988 9.05097C22.0001 12.3165 22.0007 15.5827 21.9988 18.8482C21.9988 19.318 21.7698 19.5548 21.3107 19.5548C18.0595 19.5567 14.8084 19.5561 11.5572 19.5555C11.5072 19.5555 11.4565 19.5497 11.3789 19.5446ZM16.1071 10.0077C15.1493 10.0077 14.1922 10.0064 13.2344 10.0083C12.7921 10.009 12.55 10.2235 12.5531 10.6042C12.5556 10.9727 12.8121 11.2044 13.245 11.2051C15.1499 11.2083 17.0542 11.2089 18.9591 11.2051C19.3832 11.2044 19.6497 10.9575 19.6479 10.594C19.646 10.2241 19.392 10.0096 18.9491 10.009C18.0013 10.0071 17.0542 10.0077 16.1071 10.0077ZM16.1052 13.5743C17.063 13.5743 18.0201 13.5756 18.9779 13.5737C19.3933 13.5724 19.6447 13.3503 19.6472 12.9906C19.6504 12.6373 19.3914 12.3802 18.9916 12.3789C17.0661 12.3732 15.1405 12.3738 13.215 12.3783C12.7921 12.3795 12.5425 12.6303 12.5525 13.0078C12.5619 13.3681 12.8052 13.5731 13.2319 13.5737C14.1903 13.575 15.1474 13.5743 16.1052 13.5743ZM16.1208 14.7819C15.1631 14.7819 14.2059 14.7813 13.2481 14.7825C12.8002 14.7832 12.5563 14.9894 12.5531 15.3644C12.55 15.7374 12.8034 15.978 13.2313 15.9786C15.1462 15.9825 17.0617 15.9831 18.9766 15.978C19.3945 15.9767 19.6591 15.7157 19.6472 15.3491C19.6354 14.9913 19.387 14.7825 18.9622 14.7819C18.0151 14.7813 17.068 14.7819 16.1208 14.7819ZM14.306 8.79953C14.7114 8.79953 15.1168 8.80398 15.5221 8.79825C15.86 8.79316 16.0946 8.58309 16.1202 8.28009C16.1496 7.93062 15.9513 7.62953 15.5991 7.61807C14.7583 7.5907 13.9156 7.5907 13.0749 7.61807C12.7233 7.62953 12.525 7.93062 12.5544 8.28009C12.5794 8.58309 12.8152 8.79252 13.1524 8.79825C13.5372 8.80462 13.9219 8.79953 14.306 8.79953Z" fill="#4E606E"/>
<path d="M3.95763 15.0474C3.77058 14.5713 3.60668 14.139 3.42651 13.7132C3.39961 13.6495 3.29951 13.5852 3.22882 13.5795C3.01112 13.5617 2.79154 13.5782 2.57259 13.5712C2.22789 13.561 1.99079 13.3478 1.98579 13.0021C1.97328 12.1963 1.9739 11.3897 1.98516 10.5832C1.99017 10.2369 2.23415 9.97148 2.56696 10.0205C3.19442 10.1134 3.54412 9.89637 3.66861 9.25408C3.71365 9.02237 3.85879 8.81104 3.98015 8.54177C3.80061 8.37627 3.60855 8.21331 3.43276 8.03316C3.14312 7.73525 3.13811 7.40424 3.4215 7.11142C3.94762 6.56717 4.47749 6.02609 5.01361 5.49202C5.29763 5.20939 5.60792 5.21575 5.89756 5.49011C5.99703 5.58368 6.094 5.68044 6.18533 5.78165C6.26978 5.87523 6.34548 5.97708 6.40116 6.04646C6.86909 5.8574 7.28573 5.69763 7.69299 5.51494C7.76931 5.48056 7.84 5.35707 7.85126 5.26668C7.87503 5.06807 7.85626 4.86437 7.85939 4.66322C7.86502 4.28065 8.07647 4.03876 8.44932 4.02984C9.01046 4.01648 9.57224 4.02666 10.1559 4.02666C10.1559 5.2374 10.1559 6.42967 10.1559 7.63849C8.70205 7.49845 7.4684 7.95105 6.49937 9.07075C5.78621 9.89446 5.44026 10.8779 5.49844 11.9633C5.63294 14.4764 7.76243 16.2276 10.1522 15.9379C10.1522 17.1309 10.1522 18.3212 10.1522 19.5498C9.55973 19.5498 8.95854 19.5695 8.35923 19.5415C8.05145 19.5275 7.82248 19.2646 7.86878 18.9552C7.96324 18.3193 7.75429 17.9571 7.11682 17.8336C6.88974 17.7897 6.68329 17.6369 6.42243 17.5122C6.25352 17.6987 6.08524 17.9017 5.89944 18.0863C5.61605 18.3671 5.29888 18.3721 5.01737 18.0914C4.47373 17.5497 3.93573 17.0023 3.40399 16.4485C3.14562 16.1798 3.15 15.8437 3.40774 15.5719C3.58728 15.3829 3.78559 15.2104 3.95763 15.0474Z" fill="#627185"/>
<path d="M10.1662 8.88759C10.1662 9.2899 10.1662 9.66929 10.1662 10.0741C9.47241 9.91945 8.85434 10.0226 8.34886 10.549C7.96851 10.9449 7.83088 11.4217 7.86028 11.9692C7.91784 13.0284 8.87435 13.6872 10.1568 13.5192C10.1568 13.9062 10.1568 14.2913 10.1568 14.6784C9.25408 15.0017 7.99979 14.5415 7.29726 13.6261C6.51903 12.6127 6.46211 11.2346 7.15463 10.1588C7.81399 9.13267 9.06516 8.59987 10.1662 8.88759Z" fill="#627185"/>
<path d="M18.5039 7.57377C18.5039 6.52982 18.5039 5.50496 18.5039 4.50684C19.5042 5.53042 20.512 6.56165 21.5004 7.57377C20.5558 7.57377 19.5449 7.57377 18.5039 7.57377Z" fill="#4E606E"/>
</svg>
