<svg width="79" height="77" viewBox="0 0 79 77" fill="none" xmlns="http://www.w3.org/2000/svg">
<path d="M49.0428 35.7006C46.5953 34.3734 43.9932 33.3623 41.4169 32.3131C39.9226 31.7064 38.4928 30.9986 37.2304 30.0127C34.7442 28.0662 35.2209 24.9062 38.1321 23.6549C38.9565 23.301 39.8196 23.1872 40.6955 23.1366C44.0705 22.9597 47.278 23.5664 50.3309 25.0073C51.8509 25.7278 52.3533 25.5003 52.8686 23.9456C53.4096 22.3024 53.8605 20.6339 54.3628 18.9781C54.6978 17.8658 54.2856 17.1327 53.2164 16.665C51.2584 15.8182 49.2489 15.2115 47.1363 14.8828C44.3796 14.4657 44.3796 14.4531 44.3668 11.7355C44.3539 7.90564 44.3539 7.90564 40.4379 7.90564C39.8711 7.90564 39.3043 7.893 38.7375 7.90564C36.9083 7.9562 36.5992 8.2722 36.5477 10.0797C36.5219 10.8886 36.5477 11.6976 36.5348 12.5192C36.5219 14.9207 36.509 14.8828 34.1646 15.7171C28.4967 17.7394 24.9929 21.5314 24.6193 27.5985C24.2844 32.9704 27.1441 36.598 31.6398 39.2398C34.4093 40.8703 37.4751 41.8309 40.4121 43.1076C41.5586 43.6005 42.6535 44.1693 43.6068 44.953C46.4278 47.2408 45.9125 51.0454 42.5633 52.4863C40.7728 53.2573 38.8792 53.4469 36.9341 53.2068C33.9327 52.8402 31.0601 52.0692 28.355 50.6915C26.7706 49.8825 26.3068 50.0974 25.7658 51.7785C25.3021 53.2321 24.8899 54.6983 24.4776 56.1645C23.9237 58.1363 24.1298 58.604 26.0492 59.5267C28.4967 60.6896 31.1116 61.2836 33.7781 61.7007C35.8649 62.0294 35.9293 62.1179 35.9551 64.2413C35.968 65.202 35.968 66.1752 35.9809 67.1359C35.9938 68.3493 36.5863 69.0571 37.8616 69.0824C39.3043 69.1077 40.7599 69.1077 42.2027 69.0698C43.3878 69.0445 43.9932 68.4125 43.9932 67.237C43.9932 65.9224 44.0576 64.5953 44.0061 63.2807C43.9417 61.9409 44.5342 61.2584 45.8481 60.9044C48.8753 60.0955 51.4516 58.5029 53.4354 56.1266C58.9487 49.5539 56.849 39.935 49.0428 35.7006Z" fill="#FF965D"/>
</svg>
