<svg width="24" height="24" viewBox="0 0 24 24" fill="none" xmlns="http://www.w3.org/2000/svg">
<path d="M20.001 19.8656H3.48438V12.1729H20.001V19.8656ZM12.8345 16.0262C12.8681 15.9786 12.8887 15.949 12.9098 15.9194C13.2468 15.4521 13.3032 14.9453 13.0556 14.4345C12.7943 13.8951 12.338 13.6172 11.7257 13.6121C11.4921 13.6103 11.2584 13.6117 11.0244 13.6117C10.7863 13.6117 10.5486 13.6117 10.3035 13.6117V18.4161H11.2702V16.5015C11.419 16.5015 11.5478 16.5008 11.6762 16.5015C12.045 16.5041 12.2251 16.6851 12.2258 17.0548C12.2266 17.5045 12.2258 17.9547 12.2258 18.4165H13.1995V18.2143C13.1995 17.8731 13.1914 17.5316 13.2017 17.1908C13.2147 16.7633 13.1442 16.3651 12.8345 16.0258V16.0262ZM9.29996 13.6282H6.88898V18.4169H9.29737V17.4636H7.86489V16.499H8.81163V15.5318H7.86784V14.5665H9.29996V13.6282ZM14.1891 13.6282V18.4172H15.1477V16.5169C15.402 16.5023 15.6301 16.5026 15.8545 16.4741C16.555 16.3849 17.0818 15.7852 17.0943 15.0769C17.1068 14.3708 16.5824 13.7061 15.8829 13.6388C15.3296 13.5858 14.7671 13.6282 14.1891 13.6282Z" fill="#4E606E"/>
<path d="M15.9592 4.65511C16.5059 5.19958 17.0444 5.73418 17.5799 6.27133C17.866 6.55801 17.8627 6.55947 17.6549 6.90136C17.4423 7.25093 17.2341 7.60306 17.0182 7.9508C16.9643 8.03747 16.9558 8.10511 17.0019 8.20092C17.1001 8.40349 17.1721 8.6185 17.2706 8.82107C17.302 8.88543 17.3751 8.95527 17.4423 8.97355C17.9166 9.10044 18.3946 9.21452 18.8711 9.33336C18.9298 9.34799 18.987 9.367 19.0427 9.38309V11.1927H14.1454C14.285 10.2413 14.0067 9.43685 13.2459 8.82546C12.7344 8.4141 12.1346 8.25503 11.4842 8.32122C10.1887 8.45359 9.07361 9.6822 9.346 11.1895H4.44284C4.44284 10.9887 4.44284 10.7898 4.44284 10.5909C4.44284 10.2497 4.45318 9.90781 4.43804 9.56702C4.43103 9.40869 4.49156 9.36152 4.63404 9.32898C5.10686 9.22074 5.57746 9.10227 6.04586 8.97685C6.11414 8.95856 6.19017 8.89201 6.22155 8.82802C6.32305 8.62033 6.41274 8.40605 6.49026 8.18848C6.51425 8.12157 6.51019 8.02138 6.47549 7.96104C6.22709 7.53359 5.96798 7.11235 5.71108 6.68964C5.66494 6.61395 5.62471 6.55435 5.71219 6.46842C6.31198 5.8819 6.9066 5.2899 7.50307 4.70046C7.51562 4.68802 7.53371 4.68181 7.55844 4.66718C8.02498 4.94362 8.49522 5.21896 8.96103 5.50162C9.04998 5.55573 9.11642 5.5572 9.21091 5.51185C9.40395 5.41934 9.60327 5.33634 9.80628 5.26833C9.92697 5.2281 9.98012 5.16009 10.0082 5.04271C10.1315 4.52823 10.2617 4.01558 10.3906 3.49707H13.1031C13.2293 3.99766 13.3618 4.49605 13.4774 4.99883C13.5128 5.15278 13.58 5.23688 13.7339 5.28405C13.9207 5.34146 14.1026 5.42044 14.278 5.50747C14.378 5.5572 14.4477 5.55647 14.5444 5.49759C15.0051 5.2164 15.4713 4.94508 15.9592 4.65585V4.65511Z" fill="#627185"/>
<path d="M11.7405 11.2037C11.3345 11.2037 10.9285 11.199 10.5225 11.2067C10.3989 11.2089 10.3535 11.165 10.3261 11.0498C10.1914 10.4772 10.4313 9.85482 10.923 9.52499C11.4342 9.18201 12.0798 9.1853 12.5854 9.5334C13.0693 9.86689 13.3011 10.4783 13.1708 11.0469C13.1413 11.1759 13.0848 11.2092 12.9578 11.2067C12.5522 11.199 12.1458 11.2037 11.7398 11.2037H11.7405Z" fill="#627185"/>
<path d="M11.2734 14.5717C11.4458 14.5717 11.5986 14.5655 11.7511 14.5732C12.0334 14.5874 12.2254 14.7849 12.2265 15.0515C12.2276 15.3177 12.0367 15.5162 11.7551 15.5308C11.5982 15.5389 11.4403 15.5323 11.2738 15.5323V14.5721L11.2734 14.5717Z" fill="#4E606E"/>
<path d="M15.1602 15.5171V14.5605C15.3801 14.5759 15.6001 14.5686 15.8094 14.6117C16.0087 14.6531 16.1346 14.8728 16.1228 15.075C16.111 15.2824 15.9678 15.4846 15.7684 15.5113C15.5721 15.5376 15.3698 15.5171 15.1602 15.5171Z" fill="#4E606E"/>
</svg>
