<svg width="8" height="3" viewBox="0 0 8 3" fill="none" xmlns="http://www.w3.org/2000/svg">
<path d="M7.79914 1.13604L7.64361 1.29446C6.67371 2.28265 5.37858 2.82707 3.99723 2.82707C2.60185 2.82419 1.30947 2.27852 0.34383 1.29171L0.195312 1.13906C0.268884 1.09519 0.34383 1.0527 0.418776 1.01172C0.421664 1.00884 0.424415 1.01035 0.424415 1.01035V1.00884C0.485197 0.974869 0.544604 0.941039 0.604011 0.90556C0.780719 0.79816 0.950414 0.679346 1.1087 0.549255C1.11007 0.550768 1.11007 0.55077 1.11158 0.552145C1.844 1.30147 2.8634 1.76669 3.99447 1.76957H4.00589C5.13696 1.76957 6.16049 1.30298 6.89579 0.553656L6.89717 0.552145C6.99756 0.635617 7.10221 0.71345 7.20961 0.785508C7.22088 0.793897 7.23078 0.80091 7.24206 0.808061C7.29294 0.842028 7.34533 0.874482 7.39759 0.907073C7.45548 0.942415 7.51503 0.976382 7.5743 1.00884C7.5842 1.01172 7.59135 1.01736 7.59974 1.02163C7.6663 1.05848 7.73409 1.09657 7.79914 1.13604Z" fill="#CC784A"/>
</svg>
