<svg width="12" height="8" viewBox="0 0 12 8" fill="none" xmlns="http://www.w3.org/2000/svg">
<path d="M6.00703 3.46372L6.00566 4.85635V4.85773L6.00428 5.34563V5.72876L6.00291 7.00119V7.00271L6.00153 7.00119H6.00016L5.9959 6.9983L0.435013 4.16781C0.433638 4.15928 0.43075 4.15076 0.429375 4.14223C0.402559 4.02919 0.378494 3.91464 0.357317 3.79871C0.328988 3.64607 0.306436 3.49054 0.289521 3.3335C0.28237 3.28413 0.278108 3.23449 0.273982 3.18512C0.268344 3.13272 0.264081 3.08184 0.261193 3.02959C0.254179 2.93484 0.249916 2.83858 0.247028 2.74245C0.245653 2.68029 0.244141 2.61814 0.244141 2.55598V0.866455C0.244141 0.89052 0.245516 0.914586 0.245516 0.938514C0.256792 1.34707 0.321837 1.79662 0.447665 2.25619C0.545301 2.60961 0.666728 2.93621 0.808232 3.22747V3.22885C1.1787 3.99949 1.675 4.52246 2.13155 4.60731C2.15988 4.61157 2.18945 4.61446 2.21777 4.61721C2.39448 4.63701 2.57972 4.64829 2.77059 4.64829C3.49172 4.64829 4.13214 4.06866 4.53506 3.83392C4.53795 3.83254 4.5407 3.83103 4.54359 3.82979C4.56476 3.817 4.58594 3.80422 4.60437 3.79156C4.61001 3.78744 4.61565 3.78455 4.62142 3.7818C4.96067 3.58804 5.44996 3.46496 5.99562 3.46372H6.00703Z" fill="#4E1E30"/>
<path d="M11.758 0.865051L11.7566 2.55458C11.7566 2.97868 11.717 3.39439 11.6436 3.79731C11.6139 3.95848 11.5799 4.11827 11.5403 4.27656L10.2353 6.16122L6.00213 6.99965H6.00076L5.99938 7.00117V6.99965L5.99512 3.46163H6.00653C6.5522 3.46315 7.04285 3.58609 7.38211 3.77971C7.38788 3.7826 7.39201 3.78535 7.39765 3.78961C7.41745 3.80226 7.43863 3.81505 7.45994 3.8277C7.46132 3.82908 7.4642 3.83059 7.46695 3.83197C7.87125 4.06657 8.51029 4.64675 9.23143 4.64675C9.4223 4.64675 9.60753 4.63547 9.78424 4.61567C9.81394 4.61278 9.84214 4.61003 9.87184 4.60577C10.3272 4.52092 10.8248 3.99781 11.1938 3.22731V3.22593C11.3352 2.93467 11.4567 2.60807 11.5544 2.25465C11.6816 1.78792 11.7481 1.33274 11.7565 0.918545C11.758 0.900393 11.758 0.883341 11.758 0.865051Z" fill="#4E1E30"/>
</svg>
