<svg width="26" height="17" viewBox="0 0 26 17" fill="none" xmlns="http://www.w3.org/2000/svg">
<path fill-rule="evenodd" clip-rule="evenodd" d="M25.1967 12.8322C21.8169 15.4436 17.584 16.9999 12.9993 16.9999C8.41445 16.9999 4.1815 15.4435 0.801758 12.8321C0.930918 12.2764 1.05371 11.7213 1.16664 11.2108C1.42319 10.051 1.62878 9.12161 1.74231 8.93835C3.16955 6.63389 4.94128 5.81439 6.49878 5.09397C8.44501 4.19375 10.0567 3.44825 10.2439 0.15343C10.2439 0.15343 11.7264 1.28913 12.9431 1.27827C14.1597 1.26741 15.7529 0.0784302 15.7529 0.0784302C15.9408 3.38206 17.5578 4.14599 19.5088 5.06775C21.0638 5.80242 22.831 6.63735 24.2561 8.93835C24.3695 9.12137 24.5749 10.0499 24.8313 11.2088C24.9443 11.7198 25.0673 12.2757 25.1967 12.8322Z" fill="#FFD7A3"/>
</svg>
