<svg width="170" height="170" viewBox="0 0 170 170" fill="none" xmlns="http://www.w3.org/2000/svg">
<mask id="mask0_3546_87890" style="mask-type:alpha" maskUnits="userSpaceOnUse" x="0" y="22" width="72" height="146">
<path d="M71.1255 163.686C70.6364 166.46 67.9863 168.327 65.2467 167.673C51.2694 164.333 38.3374 157.496 27.6843 147.769C15.7732 136.892 7.20263 122.852 2.9736 107.286C-1.25544 91.7206 -0.968349 75.2732 3.80134 59.8648C8.06729 46.0838 15.7615 33.6427 26.1272 23.6893C28.1589 21.7384 31.3897 22.0081 33.2152 24.1531C35.0408 26.2981 34.768 29.5048 32.7523 31.4722C23.8524 40.1591 17.2386 50.9494 13.5452 62.881C9.34785 76.4404 9.09521 90.9142 12.8168 104.612C16.5383 118.309 24.0804 130.665 34.5622 140.236C43.7857 148.659 54.9504 154.619 67.0225 157.608C69.7566 158.284 71.6146 160.912 71.1255 163.686Z" fill="#FF965D"/>
</mask>
<g mask="url(#mask0_3546_87890)">
<rect width="71" height="170" fill="#FF965D"/>
</g>
</svg>
