<svg width="24" height="24" viewBox="0 0 24 24" fill="none" xmlns="http://www.w3.org/2000/svg">
<mask id="mask0_214_23279" style="mask-type:luminance" maskUnits="userSpaceOnUse" x="0" y="0" width="24" height="24">
<path d="M23.665 0H0.207031V23.8695H23.665V0Z" fill="white"/>
</mask>
<g mask="url(#mask0_214_23279)">
<path d="M4.25 8.2666C6.03246 9.88736 7.75168 9.88736 9.50881 8.29233C9.52143 8.38239 9.54672 8.47241 9.54672 8.54959C9.54672 9.68155 9.54672 10.8135 9.54672 11.9583C9.54672 12.3056 9.48353 12.6143 9.21804 12.7944C8.93993 12.9874 8.68714 12.8716 8.43432 12.6658C7.99185 12.2927 7.53676 11.9455 7.10695 11.5724C6.94263 11.4309 6.82884 11.4438 6.66452 11.5724C6.22205 11.9583 5.75435 12.3185 5.31188 12.6915C5.07171 12.8845 4.81888 12.9745 4.56606 12.7815C4.32585 12.6015 4.25 12.3185 4.25 11.984C4.25 10.7749 4.25 9.55292 4.25 8.2666Z" fill="#627185"/>
<path d="M5.56576 9.50176C5.51519 9.52749 5.50257 9.52749 5.47729 9.54033C5.03482 9.93911 4.92107 9.92623 4.51654 9.51461C4.20049 9.19305 3.87182 8.85861 3.55579 8.53701C3.22711 8.20256 3.22711 8.02248 3.54314 7.6752C3.56843 7.63658 3.59371 7.59802 3.63163 7.55941C3.59371 7.54656 3.56843 7.53372 3.55579 7.53372C2.97429 7.48227 2.89844 7.40505 2.89844 6.81338C2.89844 6.35031 2.89844 5.88724 2.89844 5.43701C2.89844 4.97393 3.02485 4.8453 3.49258 4.81957C3.54314 4.81957 3.58107 4.80673 3.66956 4.80673C3.58107 4.70383 3.51786 4.63949 3.45465 4.5752C3.27767 4.36938 3.26503 4.12498 3.45465 3.91917C3.85918 3.49469 4.26371 3.08306 4.68086 2.67145C4.89578 2.46564 5.12333 2.4785 5.33821 2.67145C5.40144 2.7229 5.46463 2.78721 5.52785 2.85153C5.55314 2.8258 5.56576 2.81294 5.56576 2.81294C5.59104 2.19551 5.67955 2.10547 6.29896 2.10547C6.72876 2.10547 7.17119 2.10547 7.601 2.10547C8.10665 2.10547 8.23307 2.2341 8.23307 2.74862C8.23307 2.77435 8.23307 2.81294 8.24573 2.89012C8.3342 2.81294 8.38476 2.76149 8.44799 2.69717C8.68816 2.46564 8.9157 2.46564 9.15591 2.69717C9.53515 3.08306 9.91439 3.46896 10.2936 3.85485C10.5465 4.12498 10.5465 4.3565 10.2936 4.62665C10.2557 4.6781 10.2051 4.71667 10.1419 4.79385C10.281 4.80673 10.3948 4.80673 10.4959 4.81957C10.7361 4.8453 10.8878 5.01254 10.8878 5.25692C10.8878 5.86151 10.8878 6.46606 10.8878 7.07065C10.8878 7.31503 10.7361 7.48227 10.4959 7.508C10.3948 7.52084 10.2936 7.52084 10.1546 7.53372C10.2051 7.59802 10.2431 7.64947 10.281 7.68804C10.5591 7.98391 10.5591 8.20256 10.2683 8.49844C9.91439 8.85861 9.54777 9.23162 9.19381 9.59179C8.90308 9.88766 8.70082 9.88766 8.39742 9.59179C8.35948 9.55322 8.32158 9.51461 8.24573 9.45031C8.24573 9.56606 8.23307 9.6304 8.23307 9.70757C8.22045 10.042 8.06875 10.2349 7.75269 10.2349C7.18385 10.2478 6.62763 10.2478 6.05875 10.2349C5.74274 10.2349 5.57842 10.0291 5.56576 9.70757C5.56576 9.65612 5.56576 9.59179 5.56576 9.50176ZM6.89308 4.83246C6.15988 4.83246 5.55314 5.44989 5.55314 6.18307C5.55314 6.91629 6.17254 7.53372 6.89308 7.53372C7.62628 7.53372 8.22045 6.92913 8.22045 6.18307C8.23307 5.43701 7.63894 4.83246 6.89308 4.83246Z" fill="#627185"/>
<path d="M12.6581 14.9559C12.6581 14.107 12.6455 13.3095 12.6581 12.4991C12.6581 12.2032 12.9236 12.0103 13.2649 12.0103C14.9968 12.0103 16.716 12.0103 18.4478 12.0103C19.2695 12.0103 20.0912 12.0103 20.9129 12.0103C21.3174 12.0103 21.5197 12.2161 21.5197 12.6148C21.5197 15.3547 21.5197 18.0817 21.5197 20.8215C21.5197 21.2331 21.3048 21.4518 20.8876 21.4518C18.3467 21.4518 15.8058 21.4518 13.2649 21.4518C12.8604 21.4518 12.6455 21.2202 12.6328 20.8087C12.6328 20.3842 12.6328 19.9597 12.6328 19.5095C13.3154 19.5095 13.9602 19.5095 14.6175 19.5095C14.8577 19.5095 15.0979 19.5095 15.3254 19.5095C15.692 19.5095 15.9449 19.2908 15.9575 18.9692C15.9701 18.6476 15.692 18.3775 15.3381 18.3775C14.567 18.3647 13.7958 18.3775 13.0121 18.3775C12.8983 18.3775 12.7845 18.3775 12.6455 18.3775C12.6455 17.6057 12.6455 16.8596 12.6455 16.0621C12.7466 16.0621 12.8477 16.0621 12.9489 16.0621C13.7453 16.0621 14.5417 16.0621 15.3254 16.0621C15.692 16.0621 15.9449 15.8435 15.9449 15.5219C15.9575 15.2132 15.692 14.9559 15.3381 14.9431C14.5543 14.9302 13.7705 14.9431 12.9868 14.9431C12.9109 14.9559 12.7972 14.9559 12.6581 14.9559ZM18.8777 18.1717C18.4478 17.8501 18.1571 17.8501 17.9295 18.1202C17.7146 18.3775 17.7652 18.6862 18.0812 18.9949C18.1824 19.0978 18.2835 19.2136 18.3973 19.3165C18.7007 19.5995 18.9914 19.5995 19.2822 19.3036C19.6109 18.9821 19.9269 18.6476 20.2429 18.3132C20.521 18.0302 20.5337 17.6958 20.2808 17.4642C20.0533 17.2327 19.7246 17.2455 19.4592 17.5157C19.2695 17.7215 19.0799 17.9401 18.8777 18.1717ZM18.8777 14.7244C18.8018 14.6729 18.7765 14.6472 18.7386 14.6215C18.4478 14.4157 18.1445 14.4285 17.9422 14.6729C17.7399 14.9173 17.7652 15.2132 18.018 15.4833C18.1445 15.6119 18.2709 15.7406 18.3973 15.8692C18.7007 16.165 18.9914 16.165 19.2822 15.8692C19.6109 15.5348 19.9395 15.2003 20.2682 14.8659C20.5337 14.5958 20.5463 14.2742 20.3061 14.0426C20.0786 13.7983 19.7373 13.824 19.4718 14.0941C19.2695 14.2871 19.0799 14.4929 18.8777 14.7244Z" fill="#4E606E"/>
<path d="M20.4052 4.52357C19.7478 4.69077 19.141 4.84512 18.5216 5.01237C17.9654 5.15384 17.4218 5.34681 16.853 5.43683C16.5496 5.48828 16.2209 5.4111 15.9175 5.33392C14.6913 5.02521 13.4651 4.69077 12.2515 4.38209C11.847 4.27919 11.6953 4.11195 11.6953 3.79037C11.6953 3.48165 11.847 3.3273 12.2389 3.22439C13.5915 2.86423 14.9567 2.50406 16.3094 2.15675C16.499 2.1053 16.7265 2.1053 16.9162 2.15675C18.2941 2.50406 19.672 2.87709 21.0499 3.23725C21.3912 3.3273 21.5303 3.50738 21.5303 3.86755C21.5303 4.49784 21.5303 5.141 21.5303 5.77127C21.5303 6.14432 21.3153 6.3887 20.9867 6.3887C20.6454 6.3887 20.4178 6.15717 20.4052 5.77127C20.3925 5.35965 20.4052 4.97376 20.4052 4.52357Z" fill="#627185"/>
<path d="M13.9211 5.97656C14.6417 6.15665 15.337 6.32389 16.0196 6.51682C16.4115 6.6326 16.7907 6.6326 17.1826 6.5297C17.8273 6.36246 18.4594 6.19526 19.1041 6.02802C19.1546 6.01517 19.2179 6.01517 19.3316 6.00229C19.2684 7.05707 19.496 8.11185 19.1041 9.11517C18.6869 10.2085 17.6882 10.826 16.4747 10.8002C15.4254 10.7745 14.4521 10.0542 14.0855 9.01227C14.0096 8.78073 13.9338 8.52347 13.9338 8.27909C13.9085 7.53303 13.9211 6.77408 13.9211 5.97656Z" fill="#627185"/>
<path d="M9.14453 17.9135C9.14453 16.9616 9.14453 16.0097 9.14453 15.0707C9.14453 14.6591 9.35941 14.4404 9.7766 14.4404C10.08 14.4404 10.396 14.4404 10.6994 14.4404C11.0913 14.4533 11.3441 14.672 11.3441 15.0579C11.3441 17.0002 11.3441 18.9297 11.3441 20.872C11.3441 21.2321 11.1039 21.4637 10.7247 21.4637C10.396 21.4766 10.0673 21.4766 9.73866 21.4637C9.34679 21.4508 9.14453 21.245 9.14453 20.8591C9.14453 19.8815 9.14453 18.8911 9.14453 17.9135Z" fill="#4E606E"/>
<path d="M8.01771 18.7369C8.01771 19.4187 8.01771 20.1004 8.01771 20.7822C8.01771 21.271 7.82811 21.4511 7.33507 21.4639C7.03168 21.4639 6.74095 21.4639 6.43756 21.4639C6.05832 21.4511 5.81811 21.2196 5.81811 20.8465C5.81811 19.4187 5.80549 18.0038 5.81811 16.576C5.81811 16.2158 6.05832 15.9971 6.41227 15.9843C6.75357 15.9714 7.08225 15.9714 7.42358 15.9843C7.80283 15.9971 8.00509 16.2029 8.00509 16.576C8.01771 17.2963 8.01771 18.0166 8.01771 18.7369Z" fill="#4E606E"/>
<path d="M4.69345 19.5099C4.69345 19.9472 4.69345 20.3717 4.69345 20.8091C4.69345 21.2335 4.47853 21.4522 4.04874 21.4651C3.73271 21.4651 3.41667 21.4779 3.10064 21.4651C2.73404 21.4522 2.5065 21.2335 2.49386 20.8605C2.48121 19.9601 2.48121 19.0597 2.49386 18.1721C2.49386 17.7991 2.73404 17.5933 3.11328 17.5933C3.42931 17.5933 3.74535 17.5933 4.06138 17.5933C4.47853 17.5933 4.68079 17.7991 4.69345 18.2235C4.69345 18.648 4.69345 19.0725 4.69345 19.5099Z" fill="#4E606E"/>
</g>
</svg>
