<svg width="24" height="24" viewBox="0 0 24 24" fill="none" xmlns="http://www.w3.org/2000/svg">
<path d="M10.9845 6.98391C10.9845 7.27917 10.9828 7.5442 10.9849 7.80922C10.9874 8.11666 11.0831 8.22964 11.3853 8.2939C11.5109 8.32078 11.6352 8.3506 11.7861 8.38504C11.6924 8.52952 11.612 8.64964 11.5361 8.77271C11.4035 8.98817 11.4114 9.14315 11.5842 9.32207C11.9224 9.67235 12.2652 10.0176 12.6113 10.3599C12.7787 10.5254 12.9304 10.5317 13.1339 10.4015C13.2508 10.3271 13.3661 10.2507 13.4833 10.1764C13.4937 10.1696 13.5099 10.173 13.5343 10.1709C13.5654 10.3187 13.599 10.467 13.6268 10.6165C13.6674 10.8337 13.7979 10.9542 14.011 10.9571C14.5084 10.9643 15.0057 10.9643 15.5031 10.9567C15.7166 10.9534 15.8467 10.829 15.8881 10.6148C15.9159 10.472 15.9433 10.3288 15.9793 10.1402C16.1194 10.2331 16.2367 10.3103 16.3536 10.3876C16.5824 10.5388 16.7324 10.5283 16.9252 10.336C17.2596 10.0021 17.5925 9.66605 17.9224 9.32711C18.1027 9.14189 18.1122 8.98313 17.9692 8.76263C17.8938 8.6467 17.8175 8.53162 17.7226 8.38756C17.8909 8.3506 18.0347 8.3212 18.1777 8.28718C18.4181 8.23006 18.5159 8.11036 18.5197 7.86046C18.5234 7.58116 18.5205 7.30143 18.5205 7.02549C19.3565 6.83649 19.9782 7.19811 19.9741 8.05702C19.9591 11.0878 19.9683 14.1189 19.9683 17.1501C19.9683 17.2257 19.9683 17.3013 19.9683 17.3929H4.14062C4.14062 17.3168 4.14062 17.2425 4.14062 17.1686C4.14062 14.1164 4.14062 11.0647 4.14062 8.0125C4.14062 7.35183 4.50371 6.98391 5.15319 6.98391C7.01834 6.98349 8.88348 6.98391 10.7486 6.98391C10.8166 6.98391 10.8846 6.98391 10.9845 6.98391ZM7.40131 11.3771C7.34453 11.4023 7.3006 11.4221 7.25708 11.441C6.39952 11.8127 5.82423 12.441 5.56974 13.357C5.40395 13.9539 5.47068 14.5658 5.474 15.1723C5.47524 15.381 5.64559 15.5079 5.8777 15.5083C7.76937 15.5108 9.66104 15.5108 11.5531 15.5083C11.8217 15.5083 11.9622 15.3647 11.9664 15.0921C11.9722 14.7284 11.9846 14.3634 11.9614 14.0009C11.8835 12.7837 11.2771 11.9353 10.1812 11.4406C10.1348 11.4196 10.0896 11.3952 10.0407 11.3708C10.8241 10.3603 10.4419 9.27503 9.86828 8.79161C9.17776 8.21032 8.20374 8.22292 7.53561 8.82017C6.95161 9.34181 6.6478 10.4132 7.40214 11.3771H7.40131Z" fill="#4E606E"/>
<path d="M12.054 18.0928C14.8998 18.0928 17.7452 18.0916 20.591 18.0941C21.0685 18.0945 20.9968 18.0155 20.9955 18.5208C20.9939 19.1882 20.5898 19.7119 19.9772 19.8497C19.8574 19.8766 19.7305 19.8799 19.607 19.8799C14.572 19.8812 9.5369 19.8816 4.50184 19.8808C3.6534 19.8808 3.11085 19.326 3.1121 18.4582C3.11251 18.0428 3.05241 18.0937 3.47559 18.0932C6.33507 18.092 9.19455 18.0924 12.054 18.0924V18.0928Z" fill="#4E606E"/>
<path d="M12.229 8.94783C12.2443 8.92263 12.2733 8.87559 12.3023 8.82813C12.3819 8.69835 12.5361 8.56101 12.5245 8.44047C12.5042 8.23425 12.3964 8.02928 12.2903 7.84406C12.2517 7.77644 12.1158 7.75502 12.0196 7.73444C11.652 7.6559 11.6512 7.65926 11.6512 7.2758C11.6512 7.1078 11.6582 6.9398 11.6491 6.77221C11.6421 6.64789 11.691 6.57943 11.8083 6.58279C12.2095 6.59371 12.3823 6.35179 12.488 6.00025C12.5286 5.86585 12.5365 5.76925 12.4495 5.6571C12.3608 5.54286 12.2882 5.41602 12.2223 5.31564C12.4706 5.05818 12.7056 4.81458 12.9481 4.56342C13.0194 4.61004 13.0927 4.66128 13.1694 4.70622C13.2747 4.76838 13.3953 4.89018 13.4869 4.87212C13.6921 4.83096 13.8997 4.7436 14.073 4.62516C14.1501 4.57224 14.1633 4.40004 14.1753 4.27907C14.1973 4.05941 14.2831 3.95945 14.5165 3.99179C14.686 4.01531 14.863 4.01321 15.0329 3.99179C15.2327 3.96701 15.2965 4.05941 15.3234 4.23707C15.3437 4.3719 15.3516 4.5588 15.437 4.62264C15.6045 4.74696 15.8204 4.8066 16.021 4.87968C16.0587 4.89354 16.1225 4.8528 16.1673 4.82466C16.3016 4.74024 16.4326 4.65036 16.5698 4.55922C16.8048 4.81584 17.0323 5.0649 17.2773 5.33286C17.2271 5.40972 17.1538 5.53572 17.0667 5.6508C16.9822 5.76253 16.9544 5.87047 17.029 5.99647C17.0464 6.02587 17.0605 6.05989 17.0676 6.09349C17.1343 6.40555 17.3133 6.57355 17.6391 6.56851C17.8115 6.56599 17.8733 6.65545 17.8592 6.83395C17.8422 7.04942 17.8484 7.2674 17.8575 7.48412C17.8629 7.6118 17.8244 7.6958 17.6942 7.69034C17.2959 7.67354 17.131 7.91462 17.0282 8.25945C16.9863 8.40057 16.9764 8.50767 17.0688 8.62569C17.1542 8.73489 17.2251 8.85585 17.2992 8.96673C17.0572 9.21285 16.8193 9.45393 16.5673 9.71014C16.518 9.6778 16.4463 9.64672 16.3944 9.59548C16.171 9.37371 15.9497 9.39513 15.6712 9.51525C15.4453 9.6127 15.3599 9.745 15.3263 9.96802C15.2799 10.2759 15.2716 10.2746 14.9736 10.2746C14.7734 10.2746 14.5724 10.2847 14.3735 10.2679C14.3158 10.2633 14.2189 10.1835 14.2172 10.136C14.2043 9.7366 14.0017 9.5266 13.6274 9.43335C13.5026 9.40227 13.4135 9.38421 13.3078 9.46737C13.1939 9.55726 13.0674 9.63034 12.9419 9.71392C12.7089 9.46359 12.4781 9.21579 12.229 8.94783ZM16.3306 7.12922C16.3273 6.24343 15.6148 5.5227 14.7481 5.52816C13.884 5.53362 13.1706 6.26527 13.1735 7.1435C13.176 8.0234 13.8927 8.74413 14.7618 8.74161C15.6318 8.73909 16.3339 8.01752 16.3306 7.12922Z" fill="#627185"/>
<path d="M11.2197 14.7459H6.23973C6.03498 13.3288 6.70478 12.2767 7.85619 12.0655C8.41449 11.963 9.01839 11.9731 9.58083 12.0642C10.5196 12.2162 11.1575 13.0214 11.2176 13.9891C11.2325 14.2318 11.2197 14.4763 11.2197 14.7455V14.7459Z" fill="#627185"/>
<path d="M8.70356 11.1875C8.12827 11.1824 7.69307 10.7255 7.69928 10.1328C7.7055 9.55952 8.15272 9.116 8.72304 9.11768C9.30082 9.11936 9.74307 9.57464 9.73975 10.1631C9.73602 10.746 9.28466 11.1925 8.70356 11.1875Z" fill="#627185"/>
</svg>
