<svg width="24" height="25" viewBox="0 0 24 25" fill="none" xmlns="http://www.w3.org/2000/svg">
<path d="M7.91295 17.7284C7.77061 17.4785 7.63245 17.2371 7.49578 16.9953C7.00916 16.1357 6.52452 15.2748 6.0347 14.4169C5.98053 14.3221 5.98422 14.2783 6.08568 14.2207C6.855 13.7826 7.61768 13.3325 8.38872 12.8972C8.77634 12.6782 9.18588 12.5152 9.64269 12.5007C9.99756 12.4894 10.3174 12.6167 10.6435 12.7268C11.3264 12.9572 12.008 13.1921 12.6949 13.4103C12.9791 13.5007 13.2733 13.5635 13.5666 13.6201C14.2532 13.7528 14.5857 14.5302 14.1973 15.1111C14.0234 15.3709 13.6814 15.4999 13.3738 15.4182C12.685 15.2347 11.9965 15.0498 11.3079 14.8646C11.1067 14.8104 10.9508 14.8865 10.8996 15.067C10.8533 15.2303 10.9617 15.3817 11.1572 15.4337C11.8659 15.6218 12.5712 15.8245 13.2839 15.9956C13.7762 16.1138 14.2067 15.97 14.5529 15.59C14.6022 15.5359 14.6726 15.4982 14.7386 15.4625C15.059 15.2894 15.3863 15.1283 15.7017 14.9471C16.6791 14.3854 17.6499 13.8122 18.6283 13.2522C19.0181 13.0291 19.4314 12.8617 19.8897 12.8371C20.3691 12.8112 20.7277 13.0028 20.9048 13.3818C21.1163 13.8341 20.972 14.4563 20.5065 14.739C18.5131 15.9505 16.5302 17.179 14.5443 18.4031C13.9414 18.7747 13.3061 18.8343 12.6294 18.6461C11.6268 18.3674 10.6199 18.1046 9.61486 17.8348C9.21912 17.7284 8.82461 17.6186 8.42739 17.5176C8.37124 17.5033 8.29785 17.5183 8.24318 17.5435C8.13261 17.5944 8.02943 17.6617 7.91245 17.7281L7.91295 17.7284Z" fill="#4E606E"/>
<path d="M4.53151 14.5835C4.76854 14.6064 4.91752 14.7195 5.02641 14.897C5.36733 15.4524 5.71247 16.0054 6.05603 16.5594C6.66773 17.5453 7.28154 18.5302 7.88798 19.5187C7.94994 19.6196 7.99397 19.742 7.99951 19.8563C8.00847 20.038 7.8943 20.1747 7.72266 20.2645C7.40309 20.4317 7.08327 20.5987 6.76001 20.7599C6.46629 20.9065 6.17046 20.8304 6.00487 20.5641C5.03274 19.0009 4.06192 17.4367 3.09295 15.8716C2.91445 15.5833 2.99645 15.3206 3.30968 15.1557C3.62133 14.9919 3.93431 14.8297 4.25044 14.6735C4.33666 14.6309 4.43712 14.6129 4.53125 14.5835H4.53151ZM3.95144 15.7843C3.9525 15.9662 4.11624 16.1123 4.31398 16.1072C4.50725 16.1024 4.66229 15.9573 4.6615 15.7814C4.66097 15.6038 4.50646 15.4623 4.31082 15.4604C4.10885 15.4582 3.95013 15.6012 3.95118 15.7843H3.95144Z" fill="#4E606E"/>
<path d="M12.4951 11.4579C11.4725 11.4579 10.4502 11.4582 9.42763 11.4579C9.07411 11.4579 8.93834 11.287 9.02569 10.954C9.48682 9.19186 11.294 8.04834 13.1268 8.39563C14.6301 8.6802 15.5714 9.58427 15.9822 11.0182C16.0556 11.275 15.8967 11.457 15.6096 11.4576C14.5712 11.4591 13.5335 11.4579 12.4951 11.4579Z" fill="#627185"/>
<path d="M8.99974 9.29972C8.83908 9.59198 8.67629 9.86079 8.53847 10.1456C8.36214 10.5101 8.25061 10.9064 8.1898 11.319C8.17386 11.4276 8.13642 11.4588 8.04268 11.4585C6.8044 11.4548 5.56612 11.4566 4.32784 11.4554C4.06973 11.4554 3.95102 11.281 4.01874 10.9987C4.35413 9.59908 5.1338 8.71489 6.35137 8.41399C7.32276 8.17389 8.19856 8.47726 8.95061 9.23923C8.97026 9.25929 8.98672 9.28337 9 9.30003L8.99974 9.29972Z" fill="#627185"/>
<path d="M18.2584 11.4537C17.7657 11.4537 17.2727 11.4509 16.78 11.4565C16.6935 11.4574 16.6561 11.4259 16.6397 11.2943C16.5552 10.6136 16.3585 10.0043 16.0624 9.46268C15.9773 9.30727 15.9747 9.3051 16.0828 9.17503C16.639 8.50487 17.2765 8.21134 17.9924 8.38035C19.0194 8.62289 19.6727 9.50037 19.979 10.9365C20.0447 11.2448 19.9562 11.4654 19.7154 11.4583C19.2299 11.4435 18.744 11.454 18.2582 11.454L18.2584 11.4537Z" fill="#627185"/>
<path d="M14 5.74693C13.9887 6.61167 13.308 7.30706 12.4884 7.29124C11.6486 7.27515 10.9889 6.57294 11.0001 5.70711C11.0114 4.85083 11.6966 4.15626 12.5199 4.16662C13.3434 4.17698 14.011 4.88982 13.9997 5.74693H14Z" fill="#627185"/>
<path d="M8.99973 5.73353C8.9979 6.59604 8.32628 7.29259 7.49765 7.2915C6.66456 7.29041 5.9953 6.58649 6.00002 5.71552C6.00449 4.85274 6.67952 4.15946 7.50867 4.16656C8.34229 4.17365 9.00183 4.86666 9 5.73353H8.99973Z" fill="#627185"/>
<path d="M16 5.73516C15.9956 4.8732 16.6622 4.17282 17.4928 4.16655C18.3174 4.16027 18.9958 4.86037 19 5.72151C19.0042 6.58047 18.3305 7.28822 17.5059 7.29149C16.6792 7.2945 16.0045 6.59712 16 5.73489V5.73516Z" fill="#627185"/>
</svg>
