<svg width="24" height="24" viewBox="0 0 24 24" fill="none" xmlns="http://www.w3.org/2000/svg">
<path d="M16.4996 19.313C16.1302 19.313 15.7801 19.3134 15.43 19.313C14.7298 19.312 14.2504 18.8329 14.25 18.1327C14.2497 16.3515 14.25 14.5704 14.25 12.7893V12.5727H13.1024C12.9892 13.0041 12.6619 13.1921 12.25 13.2579C12.0647 13.2874 11.9958 13.3886 11.9115 13.5475C11.7811 13.7932 11.8215 13.9749 11.9737 14.1795C12.1554 14.4242 12.2029 14.704 12.1013 14.9947C12.0654 15.097 12.0074 15.2 11.9343 15.2791C11.7438 15.4857 11.5477 15.6882 11.3385 15.8756C11.0802 16.1069 10.7751 16.1403 10.4521 16.0281C10.4029 16.0109 10.3484 15.9912 10.3125 15.9564C10.0471 15.6998 9.76524 15.7417 9.48053 15.9104C9.42851 15.941 9.38105 16.0007 9.36032 16.0577C9.31638 16.1779 9.29388 16.3055 9.25838 16.4289C9.14731 16.8127 8.82639 17.0581 8.4292 17.0619C8.18315 17.0644 7.9371 17.0644 7.69105 17.0619C7.30405 17.0577 6.97997 16.8117 6.8689 16.4412C6.86398 16.4243 6.8587 16.4071 6.8573 16.3898C6.8348 16.0556 6.66538 15.8559 6.33427 15.774C6.2348 15.7494 6.1666 15.7424 6.07873 15.7961C5.85096 15.9357 5.63303 16.0988 5.34164 16.0879C5.11387 16.0795 4.91773 16.0074 4.75569 15.8492C4.57537 15.6735 4.39646 15.4956 4.22141 15.3149C3.949 15.0333 3.89698 14.64 4.08187 14.2941C4.09031 14.2786 4.09558 14.2604 4.10718 14.2481C4.36693 13.9844 4.32405 13.7015 4.15322 13.4167C4.12194 13.3647 4.06219 13.3173 4.00524 13.2965C3.88503 13.2529 3.75744 13.2308 3.63406 13.1953C3.25058 13.0842 3.00523 12.7619 3.00172 12.3654C2.99961 12.1193 2.99926 11.8732 3.00172 11.6272C3.00558 11.2405 3.25269 10.9154 3.62281 10.8057C3.63406 10.8025 3.64566 10.7997 3.65726 10.799C4.007 10.7783 4.21895 10.5941 4.28855 10.2535C4.30296 10.1835 4.29874 10.0974 4.26992 10.0334C4.21544 9.91144 4.13178 9.80282 4.06992 9.68365C3.89839 9.35358 3.95533 8.96059 4.21403 8.69238C4.38873 8.511 4.56764 8.33314 4.74831 8.15773C5.02845 7.88601 5.42248 7.83399 5.76906 8.01818C5.78453 8.02626 5.80316 8.03154 5.81511 8.04349C6.07873 8.30291 6.36133 8.26143 6.64605 8.08954C6.69772 8.05825 6.74482 7.9985 6.76556 7.94155C6.8095 7.82133 6.83199 7.69373 6.86714 7.57035C6.97681 7.18861 7.30089 6.94149 7.69703 6.93833C7.94308 6.93622 8.18913 6.93587 8.43517 6.93833C8.81409 6.9422 9.13817 7.18333 9.25241 7.54258C9.25768 7.5591 9.26225 7.57668 9.26295 7.59425C9.28088 7.95631 9.48369 8.15773 9.82535 8.23155C9.88545 8.24456 9.96068 8.2428 10.0145 8.21749C10.1354 8.16019 10.2454 8.07969 10.3638 8.01607C10.7016 7.83539 11.0946 7.88706 11.3702 8.15105C11.5519 8.3254 11.7298 8.50397 11.9048 8.68535C12.1716 8.96164 12.2264 9.35007 12.0521 9.69139C12.0415 9.71213 12.0342 9.73673 12.0183 9.75255C11.7582 10.0165 11.8032 10.2995 11.973 10.5839C12.0039 10.6356 12.0651 10.6781 12.1217 10.7034C12.1951 10.7364 12.2774 10.7523 12.3575 10.7681C12.735 10.8419 12.9909 11.0521 13.1048 11.431H14.2504V11.224C14.2504 9.44287 14.2504 7.66174 14.2504 5.88062C14.2504 5.16599 14.7252 4.68864 15.4353 4.68793C15.7808 4.68793 16.1263 4.68793 16.4999 4.68793C16.4999 4.51569 16.4999 4.34872 16.4999 4.18175C16.501 3.47943 16.9773 3.00137 17.6775 3.00067C18.398 2.99996 19.1186 2.99961 19.8392 3.00067C20.5162 3.00172 20.9974 3.48505 20.9984 4.16488C20.9995 4.89146 20.9998 5.61804 20.9984 6.34427C20.997 7.01144 20.5123 7.49759 19.8469 7.49899C19.1147 7.5004 18.3822 7.5004 17.65 7.49899C16.9857 7.49759 16.5021 7.01004 16.4999 6.34286C16.4996 6.17378 16.4999 6.00471 16.4999 5.82368H15.3839V11.4233H16.4999C16.4999 11.2598 16.4999 11.0925 16.4999 10.9249C16.501 10.2331 16.9794 9.75079 17.6662 9.75009C18.3928 9.74939 19.1193 9.74904 19.8455 9.75009C20.5116 9.75115 20.997 10.2366 20.9984 10.9031C20.9998 11.6353 21.0002 12.3678 20.9984 13.1C20.997 13.757 20.5112 14.2467 19.8585 14.2484C19.1204 14.2505 18.3822 14.2502 17.6441 14.2484C16.9903 14.247 16.5031 13.7581 16.5003 13.1039C16.4996 12.9295 16.5003 12.7548 16.5003 12.571H15.3885V18.1752H16.5003C16.5003 17.9931 16.4992 17.8131 16.5003 17.6335C16.5042 16.9913 16.9934 16.502 17.6374 16.5002C18.3755 16.4985 19.1137 16.4985 19.8518 16.5002C20.5077 16.5016 20.9967 16.9878 20.9984 17.6416C21.0005 18.3798 21.0005 19.1179 20.9984 19.8561C20.9967 20.5103 20.5084 20.9971 19.8525 20.9985C19.1144 21.0003 18.3762 21.0007 17.6381 20.9985C16.9942 20.9968 16.5042 20.5071 16.5003 19.8656C16.4992 19.6902 16.5003 19.5148 16.5003 19.3116L16.4996 19.313ZM8.04466 13.964C9.12868 13.97 10.025 13.0768 10.025 11.9906C10.025 10.934 9.1445 10.0506 8.0784 10.0376C7.00739 10.0246 6.10509 10.9157 6.09877 11.9928C6.09244 13.0585 6.98067 13.9584 8.04466 13.964Z" fill="#4E606E"/>
<path d="M9 11.9983C9.00126 12.5384 8.53536 13.0033 7.99608 13C7.46058 12.9966 7.00936 12.5493 7.00014 12.0118C6.99091 11.4721 7.44884 11.0059 7.99315 11C8.53327 10.9946 8.99832 11.4558 8.99958 11.9983H9Z" fill="#4E606E"/>
</svg>
