<svg width="12" height="18" viewBox="0 0 12 18" fill="none" xmlns="http://www.w3.org/2000/svg">
<path d="M11.757 6.25571V10.5553C11.757 10.6174 11.7556 10.6796 11.7541 10.7417C11.7527 10.7926 11.7514 10.8421 11.7485 10.8931C11.7471 10.9384 11.7442 10.9836 11.74 11.0289C11.7386 11.0613 11.7357 11.0939 11.7329 11.1264C11.7314 11.1463 11.7301 11.1645 11.7272 11.1844C11.7244 11.2197 11.7215 11.2565 11.7159 11.2918C11.7102 11.3596 11.7017 11.4262 11.6918 11.4939C11.6904 11.511 11.6876 11.5279 11.6848 11.5448C11.6805 11.5788 11.6749 11.6128 11.6693 11.6466V11.6509C11.6609 11.7002 11.6524 11.7484 11.6438 11.7979C11.631 11.8657 11.6184 11.9336 11.6042 12C11.6028 12.0029 11.6028 12.0058 11.6015 12.0087C11.6001 12.0184 11.5986 12.0285 11.5958 12.0384C11.5945 12.0413 11.5945 12.044 11.5929 12.0469C11.5859 12.0838 11.5774 12.119 11.5689 12.1543C11.5661 12.1698 11.5632 12.1855 11.5576 12.2011C11.5533 12.2265 11.5462 12.2518 11.5407 12.2774C11.5364 12.2915 11.5337 12.3071 11.5279 12.3211C11.525 12.3339 11.5209 12.3467 11.518 12.358C11.4883 12.4739 11.4543 12.5871 11.419 12.7001C11.4019 12.7539 11.385 12.8061 11.3667 12.8599C11.3654 12.8655 11.3625 12.8712 11.3611 12.8768C11.3442 12.9249 11.3271 12.9729 11.3102 13.0211C11.3046 13.0352 11.2989 13.0492 11.2933 13.0648C11.2762 13.11 11.2593 13.1553 11.241 13.2005C11.2199 13.2555 11.1972 13.3093 11.1746 13.3632C11.1548 13.4113 11.1336 13.4592 11.1125 13.5073C11.1097 13.516 11.1055 13.5229 11.1026 13.5314C11.0785 13.5823 11.0559 13.6331 11.0319 13.6828C11.0078 13.735 10.9824 13.7874 10.9556 13.8398C10.9047 13.943 10.8495 14.0462 10.7944 14.1465L10.7181 14.2822C10.5002 14.6569 10.2586 15.0088 9.99556 15.3341C9.96022 15.3807 9.9235 15.4259 9.88527 15.4697C9.83301 15.5333 9.77924 15.5955 9.72548 15.6563C9.67734 15.71 9.62935 15.7637 9.57985 15.8161C9.44412 15.9617 9.3055 16.1002 9.16413 16.2304C9.13581 16.2586 9.10624 16.2842 9.07654 16.311C9.02841 16.3547 8.98041 16.3972 8.93091 16.4382C8.89281 16.4721 8.85321 16.5046 8.81347 16.5372C8.71171 16.6205 8.60994 16.7011 8.50667 16.7761C8.46431 16.8086 8.42045 16.8397 8.37658 16.8694C8.30589 16.9203 8.2337 16.9684 8.16164 17.0152C8.12204 17.042 8.08106 17.0674 8.04008 17.0915C7.89582 17.1805 7.75019 17.2626 7.60594 17.3333C7.5706 17.3517 7.53525 17.3687 7.49991 17.3857C7.46457 17.4026 7.42785 17.4196 7.38962 17.4365C7.34301 17.4577 7.29625 17.4775 7.24963 17.4959C7.2312 17.5043 7.21292 17.5115 7.19449 17.5171C7.13934 17.5398 7.08283 17.5609 7.02768 17.5793C6.95851 17.6049 6.88769 17.626 6.81852 17.6457C6.77039 17.6599 6.72102 17.6725 6.67289 17.6838C6.67 17.6853 6.66725 17.6867 6.66299 17.6867C6.61486 17.6981 6.56686 17.7094 6.51873 17.7179C6.50608 17.7208 6.49329 17.7235 6.48064 17.725C6.44104 17.7321 6.40143 17.7392 6.36183 17.7435C6.30531 17.752 6.24865 17.759 6.19213 17.7618C6.17233 17.7647 6.15404 17.766 6.13424 17.766C6.08899 17.7688 6.04375 17.7703 5.99988 17.7703H5.99562C5.95189 17.7703 5.90802 17.7688 5.86416 17.766C5.84724 17.766 5.83019 17.7647 5.81327 17.7618C5.77367 17.7604 5.73269 17.7561 5.6902 17.7505C5.68181 17.7505 5.67191 17.7491 5.66338 17.7476C5.61113 17.7406 5.55873 17.7321 5.5051 17.7222C5.45986 17.715 5.41462 17.7051 5.36786 17.6938C5.12611 17.6387 4.87734 17.5552 4.62568 17.4437C4.41075 17.3489 4.19306 17.2344 3.97675 17.1016C3.86797 17.0351 3.75906 16.9645 3.65152 16.8895C3.59775 16.8513 3.54412 16.813 3.49035 16.7734C3.32203 16.6504 3.15522 16.5161 2.9913 16.3719C2.94606 16.3309 2.90082 16.2899 2.85557 16.2476C2.81033 16.2066 2.76509 16.1641 2.72122 16.1231C2.61093 16.0171 2.50353 15.907 2.39888 15.7924C2.3579 15.7485 2.31692 15.7034 2.27581 15.6567C2.16277 15.5295 2.05248 15.398 1.94783 15.2608C1.90685 15.2114 1.86862 15.1605 1.83053 15.1095C1.68765 14.92 1.55206 14.7221 1.42472 14.517C1.39075 14.4619 1.35679 14.4054 1.32433 14.3501C1.28473 14.2837 1.24663 14.2158 1.2084 14.148C1.06704 13.8935 0.936948 13.6292 0.82391 13.3562C0.806858 13.3166 0.789943 13.277 0.775779 13.2375C0.753226 13.1866 0.733424 13.1342 0.714996 13.0834C0.686668 13.0084 0.659853 12.9335 0.634412 12.8585C0.608971 12.7836 0.584906 12.7071 0.560841 12.6309C0.538288 12.5574 0.517111 12.4839 0.497309 12.409C0.474618 12.3298 0.45344 12.2492 0.435013 12.1672C0.433638 12.1587 0.43075 12.1502 0.429375 12.1416C0.402559 12.0286 0.378494 11.9141 0.357317 11.7981C0.328988 11.6455 0.306436 11.49 0.289521 11.3329C0.28237 11.2835 0.278108 11.2339 0.273982 11.1845C0.268344 11.1321 0.264081 11.0813 0.261193 11.029C0.254179 10.9343 0.249916 10.838 0.247028 10.7419C0.245653 10.6797 0.244141 10.6176 0.244141 10.5554V6.25571C0.244141 3.07869 2.81872 0.50275 5.99562 0.5H6.0014C6.43966 0.5 6.86665 0.549368 7.27659 0.641366C7.65132 0.726075 8.01188 0.847777 8.35389 1.00179C8.82048 1.21095 9.25448 1.4798 9.64475 1.80076C9.97287 2.06933 10.2711 2.37186 10.5313 2.70561C11.2892 3.67124 11.7457 4.88441 11.7556 6.20483C11.757 6.22174 11.757 6.23866 11.757 6.25571Z" fill="#FFE1B2"/>
</svg>
