<svg width="40" height="40" viewBox="0 0 40 40" fill="none" xmlns="http://www.w3.org/2000/svg">
<path d="M20 40C31.0457 40 40 31.0457 40 20C40 8.95431 31.0457 0 20 0C8.95431 0 0 8.95431 0 20C0 31.0457 8.95431 40 20 40Z" fill="#EFEFF2"/>
<path d="M20.0942 28.567C20.0627 28.567 20.0312 28.5985 19.9998 28.5985C19.9683 28.5985 19.9368 28.567 19.9053 28.567H20.0942Z" fill="#84DBFF"/>
<path d="M35.5278 32.5985C31.8742 37.1024 26.2679 40 20.0002 40C13.7325 40 8.1262 37.1024 4.47266 32.5985C7.08683 29.1024 11.0868 27.3701 14.3624 26.5197C14.1105 28.5985 15.1813 31.3701 15.2128 31.3071C16.3152 28.7874 20.0002 28.567 20.0002 28.567C20.0002 28.567 23.6853 28.7874 24.7561 31.3071C24.7876 31.3701 25.89 28.5985 25.6065 26.5197C28.9136 27.3701 32.9451 29.1024 35.5278 32.5985Z" fill="#22CCE2"/>
<path d="M24.504 24.567C24.504 24.567 24.504 24.567 24.504 24.5985C24.504 24.9134 24.3465 26.9292 20.0945 28.5355H19.9055C15.6536 26.9292 15.4961 24.9134 15.4961 24.5985C15.4961 24.567 15.4961 24.567 15.4961 24.567C15.4961 24.1575 15.5906 23.7481 15.6851 23.3386C16.9134 24.8819 18.3937 25.9213 20 25.9213C21.6063 25.9213 23.0867 24.8819 24.315 23.3386C24.4095 23.7481 24.504 24.1575 24.504 24.567Z" fill="#FFD7A3"/>
<path d="M24.5039 24.567C24.5039 24.567 24.7244 26.8347 20 28.5985C20 28.5985 23.685 28.8189 24.7559 31.3386C24.8189 31.4016 26.9291 25.9213 24.5039 24.567Z" fill="#148A99"/>
<path d="M15.496 24.567C13.0708 25.9213 15.1811 31.4016 15.2441 31.3071C16.3464 28.7874 20 28.567 20 28.567C15.2756 26.8347 15.496 24.567 15.496 24.567Z" fill="#148A99"/>
<path d="M26.6146 16.5984C26.3312 18.5511 25.4808 20.3779 24.0634 21.7637C23.78 22.0472 23.528 22.2677 23.213 22.4881L22.7091 20.8818H17.2918L16.7878 22.4881C15.78 21.7322 13.6697 19.622 13.6382 17.6377C12.7564 6.33067 21.4178 8.72437 21.4178 8.72437C27.2445 8.31492 27.0556 13.4488 26.6146 16.5984Z" fill="#FFE1B2"/>
<path d="M27.7801 18.6456C27.3392 19.37 26.7408 19.874 26.1738 20.063C26.3943 19.559 26.5833 19.0236 26.7408 18.4882C26.7408 18.4882 26.7408 18.4882 26.7408 18.4567C26.8667 17.9842 26.9927 17.5118 27.1187 17.0393H27.0872C27.2132 16.5669 27.3392 16.0945 27.4337 15.622C27.5596 15.622 27.6856 15.685 27.8116 15.748C28.5045 16.1889 28.473 17.4803 27.7801 18.6456Z" fill="#FFE1B2"/>
<path d="M13.8274 20.0629C13.2605 19.874 12.6621 19.37 12.2211 18.6456C11.4967 17.4803 11.4967 16.1889 12.1896 15.7795C12.2526 15.748 12.2841 15.7165 12.3471 15.7165C12.7251 17.1968 13.166 18.2992 13.2605 18.5196C13.418 19.0236 13.607 19.559 13.8274 20.0629Z" fill="#FFE1B2"/>
<path d="M23.4331 5.57482C23.6851 2.67719 19.0866 2.86616 19.0866 2.86616C12.126 3.87404 11.3701 10.3622 11.3701 10.3622L12.315 9.22837C10.8347 12.4725 13.0709 18.0473 13.2599 18.4882C14.4252 22.3622 17.0079 25.9213 20 25.9213C22.9922 25.9213 25.5748 22.3622 26.7402 18.4882C26.7402 18.4882 26.7402 18.4882 26.7402 18.4567C26.8662 17.9843 26.9922 17.5118 27.0866 17.0394H27.0551C27.6851 14.5197 28.378 11.9685 28.378 11.9685C30.1733 2.92916 23.4331 5.57482 23.4331 5.57482ZM26.6142 16.5984C26.3307 18.5512 25.4803 20.378 24.063 21.7638C23.7796 22.0473 23.4961 22.2677 23.2126 22.4882L22.7087 20.9134H17.2914L16.7874 22.5197C15.7796 21.7638 14.9292 20.7244 14.2363 19.5276C13.9213 18.8977 13.7323 18.2362 13.6378 17.6693C12.7559 6.36223 21.4174 8.75593 21.4174 8.75593C27.2441 8.31498 27.0551 13.4488 26.6142 16.5984Z" fill="#324A5E"/>
<path d="M23.4331 5.57482C23.6851 2.67719 19.0866 2.86616 19.0866 2.86616C12.126 3.87404 11.3701 10.3622 11.3701 10.3622L12.315 9.22837C10.8347 12.4725 13.0709 18.0473 13.2599 18.4882C14.4252 22.3622 17.0079 25.9213 20 25.9213C22.9922 25.9213 25.5748 22.3622 26.7402 18.4882C26.7402 18.4882 26.7402 18.4882 26.7402 18.4567C26.8662 17.9843 26.9922 17.5118 27.0866 17.0394H27.0551C27.6851 14.5197 28.378 11.9685 28.378 11.9685C30.1733 2.92916 23.4331 5.57482 23.4331 5.57482ZM26.6142 16.5984C26.3307 18.5512 25.4803 20.378 24.063 21.7638C23.7796 22.0473 23.4961 22.2677 23.2126 22.4882L22.7087 20.9134H17.2914L16.7874 22.5197C15.7796 21.7638 14.9292 20.7244 14.2363 19.5276C13.9213 18.8977 13.7323 18.2362 13.6378 17.6693C12.7559 6.36223 21.4174 8.75593 21.4174 8.75593C27.2441 8.31498 27.0551 13.4488 26.6142 16.5984Z" fill="#324A5E"/>
<path d="M23.4331 5.57482C23.6851 2.67719 19.0866 2.86616 19.0866 2.86616C12.126 3.87404 11.3701 10.3622 11.3701 10.3622L12.315 9.22837C10.8347 12.4725 13.0709 18.0473 13.2599 18.4882C14.4252 22.3622 17.0079 25.9213 20 25.9213C22.9922 25.9213 25.5748 22.3622 26.7402 18.4882C26.7402 18.4882 26.7402 18.4882 26.7402 18.4567C26.8662 17.9843 26.9922 17.5118 27.0866 17.0394H27.0551C27.6851 14.5197 28.378 11.9685 28.378 11.9685C30.1733 2.92916 23.4331 5.57482 23.4331 5.57482ZM26.6142 16.5984C26.3307 18.5512 25.4803 20.378 24.063 21.7638C23.7796 22.0473 23.4961 22.2677 23.2126 22.4882L22.7087 20.9134H17.2914L16.7874 22.5197C15.7796 21.7638 13.6693 19.6536 13.6378 17.6693C12.7559 6.36223 21.4174 8.75593 21.4174 8.75593C27.2441 8.31498 27.0551 13.4488 26.6142 16.5984Z" fill="#1F0951"/>
<path d="M17.7949 21.9843C18.3304 22.5827 19.1178 22.9921 19.9996 22.9921C20.8815 22.9921 21.6689 22.6142 22.2044 21.9843H17.7949Z" fill="white"/>
</svg>
