<svg width="158" height="68" viewBox="0 0 158 68" fill="none" xmlns="http://www.w3.org/2000/svg">
<mask id="path-1-inside-1_4051_66462" fill="white">
<path fill-rule="evenodd" clip-rule="evenodd" d="M85.9286 62L80.1823 67.3631C79.7981 67.7217 79.2019 67.7217 78.8177 67.3631L73.0714 62H12C5.37259 62 0 56.6274 0 50V12C0 5.37254 5.37259 -4.57764e-05 12 -4.57764e-05L146 -4.57764e-05C152.627 -4.57764e-05 158 5.37254 158 12V50C158 56.6274 152.627 62 146 62L85.9286 62Z"/>
</mask>
<path d="M80.1823 67.3631L80.8646 68.0942V68.0942L80.1823 67.3631ZM85.9286 62V61H85.5344L85.2462 61.2689L85.9286 62ZM78.8177 67.3631L78.1354 68.0942V68.0942L78.8177 67.3631ZM73.0714 62L73.7538 61.2689L73.4656 61H73.0714V62ZM80.8646 68.0942L86.6109 62.731L85.2462 61.2689L79.5 66.6321L80.8646 68.0942ZM78.1354 68.0942C78.9038 68.8114 80.0962 68.8114 80.8646 68.0942L79.5 66.6321V66.6321L78.1354 68.0942ZM72.3891 62.731L78.1354 68.0942L79.5 66.6321L73.7538 61.2689L72.3891 62.731ZM73.0714 61H12V63H73.0714V61ZM12 61C5.92488 61 1 56.0751 1 50H-1C-1 57.1797 4.8203 63 12 63V61ZM1 50V12H-1V50H1ZM1 12C1 5.92482 5.92488 0.999954 12 0.999954V-1.00005C4.8203 -1.00005 -1 4.82026 -1 12H1ZM12 0.999954L146 0.999954V-1.00005L12 -1.00005V0.999954ZM146 0.999954C152.075 0.999954 157 5.92482 157 12H159C159 4.82026 153.18 -1.00005 146 -1.00005V0.999954ZM157 12V50H159V12H157ZM157 50C157 56.0751 152.075 61 146 61V63C153.18 63 159 57.1797 159 50H157ZM146 61L85.9286 61V63L146 63V61Z" fill="#F8F8F8" mask="url(#path-1-inside-1_4051_66462)"/>
</svg>
