<svg width="20" height="10" viewBox="0 0 20 10" fill="none" xmlns="http://www.w3.org/2000/svg">
<path fill-rule="evenodd" clip-rule="evenodd" d="M19.1947 6.83743C16.6522 8.81799 13.4594 9.99979 9.99953 9.99979C6.53753 9.99979 3.34306 8.81661 0.799805 6.83395C0.936566 6.11881 1.06501 5.34929 1.1781 4.67178C1.34559 3.66832 1.47939 2.86671 1.55662 2.74258C2.15494 1.78064 3.39098 1.43932 4.54177 1.12152C5.14883 0.953888 5.73216 0.792802 6.18566 0.550624L6.18606 0.551118C8.62098 8.36231 11.6672 7.85682 13.7109 0.442017C14.1532 0.679529 14.7648 0.844361 15.4047 1.01685C16.6667 1.35699 18.0391 1.72689 18.4418 2.74258C18.4883 2.85978 18.5936 3.47218 18.7326 4.28019C18.8638 5.04237 19.0249 5.97859 19.1947 6.83743ZM6.18583 0.550533C6.18577 0.550563 6.18572 0.550594 6.18566 0.550624L6.18559 0.550533H6.18583ZM6.18583 0.550533C6.18586 0.550514 6.1859 0.550494 6.18594 0.550474V0.550533H6.18583Z" fill="#304FFD"/>
</svg>
