<svg width="26" height="13" viewBox="0 0 26 13" fill="none" xmlns="http://www.w3.org/2000/svg">
<path fill-rule="evenodd" clip-rule="evenodd" d="M25.26 8.78338C21.8699 11.4242 17.6129 12.9999 12.9997 12.9999C8.3837 12.9999 4.1244 11.4223 0.733398 8.77875C0.915747 7.82522 1.08701 6.7992 1.23779 5.89585C1.46112 4.55791 1.63952 3.48909 1.74249 3.32359C2.54025 2.041 4.18829 1.5859 5.72269 1.16218C6.53209 0.93866 7.30987 0.723878 7.91454 0.400974L7.91507 0.401633C11.1616 10.8166 15.2232 10.1426 17.9482 0.256165C18.5379 0.572848 19.3533 0.792625 20.2066 1.02261C21.8892 1.47612 23.7191 1.96933 24.256 3.32359C24.318 3.47985 24.4585 4.29638 24.6439 5.37372C24.8187 6.38996 25.0335 7.63826 25.26 8.78338ZM7.91476 0.400854C7.91469 0.400894 7.91461 0.400934 7.91454 0.400974L7.91444 0.400854H7.91476ZM7.91476 0.400854C7.91481 0.400827 7.91486 0.400801 7.91491 0.400775V0.400854H7.91476Z" fill="#304FFD"/>
</svg>
