<svg width="12" height="8" viewBox="0 0 12 8" fill="none" xmlns="http://www.w3.org/2000/svg">
<path d="M11.757 0.555298C11.757 0.617455 11.7556 0.679612 11.7541 0.741769C11.7527 0.79265 11.7514 0.842157 11.7485 0.893175C11.7471 0.938418 11.7442 0.983661 11.74 1.0289C11.7386 1.06136 11.7357 1.09395 11.7329 1.1264C11.7314 1.14634 11.7301 1.16449 11.7272 1.18443C11.7244 1.21978 11.7215 1.25649 11.7159 1.29183C11.7087 1.35963 11.7017 1.42743 11.6918 1.49398C11.6904 1.51104 11.6876 1.52795 11.6848 1.54486C11.6805 1.57883 11.6749 1.6128 11.6693 1.64663C11.6623 1.69751 11.6524 1.74839 11.6438 1.79803C11.6326 1.85744 11.6211 1.91533 11.6085 1.97323C11.607 1.98602 11.6042 1.99729 11.6013 2.00871C11.6 2.01847 11.5971 2.02851 11.5957 2.03841C11.5943 2.0413 11.5943 2.04405 11.5928 2.04694C11.5928 2.05395 11.5914 2.05973 11.5901 2.06536C11.583 2.09507 11.5773 2.12477 11.5689 2.15434C11.5661 2.16988 11.5632 2.18555 11.5576 2.20109C11.5518 2.22928 11.5448 2.2561 11.5364 2.28305C11.5351 2.29584 11.5322 2.30863 11.5279 2.32114C11.525 2.33393 11.5209 2.34672 11.518 2.358C11.4883 2.47392 11.4543 2.5871 11.419 2.70014C11.4019 2.75391 11.385 2.80616 11.3667 2.85993C11.3654 2.86557 11.3625 2.87121 11.3611 2.87685C11.3442 2.92498 11.3271 2.97297 11.3102 3.0211C11.3046 3.03527 11.2989 3.04929 11.2933 3.06483C11.2762 3.11008 11.2593 3.15532 11.241 3.20056C11.2199 3.25557 11.1972 3.30934 11.1746 3.36324C11.1548 3.41137 11.1336 3.45923 11.1125 3.50736C11.1097 3.51602 11.1055 3.5229 11.1026 3.53143C11.0785 3.58231 11.0559 3.63319 11.0319 3.68283C11.0078 3.73509 10.9824 3.78748 10.9556 3.83987C10.9047 3.94301 10.8495 4.04629 10.7944 4.14654L10.7181 4.28226C10.5002 4.657 10.2586 5.0089 9.99556 5.33413C9.96022 5.38074 9.9235 5.42599 9.88527 5.46972C9.83301 5.53339 9.77924 5.59554 9.72548 5.65633C9.67734 5.7101 9.62935 5.76373 9.57985 5.81612C9.44412 5.96175 9.3055 6.10023 9.16413 6.23046C9.13581 6.25865 9.10624 6.28423 9.07654 6.31104C9.02841 6.35477 8.98041 6.39726 8.93091 6.43824C8.89281 6.47221 8.85321 6.50466 8.81347 6.53726C8.71171 6.62059 8.60994 6.70118 8.50667 6.77612C8.46431 6.80871 8.42045 6.83979 8.37658 6.8695C8.30589 6.92038 8.2337 6.96851 8.16164 7.01526C8.12204 7.04208 8.08106 7.06752 8.04008 7.09158C7.89582 7.18056 7.75019 7.26266 7.60594 7.33334C7.5706 7.35177 7.53525 7.36882 7.49991 7.38573C7.46457 7.40265 7.42785 7.4197 7.38962 7.43661C7.34301 7.45779 7.29625 7.47759 7.24963 7.49602C7.2312 7.50441 7.21292 7.51156 7.19449 7.5172C7.13934 7.53989 7.08283 7.56093 7.02768 7.57936C6.95851 7.60493 6.88769 7.62611 6.81852 7.64577C6.77039 7.65994 6.72102 7.67259 6.67289 7.68387C6.67 7.68538 6.66725 7.68675 6.66299 7.68675C6.61486 7.69817 6.56686 7.70944 6.51873 7.71797C6.50608 7.72086 6.49329 7.72361 6.48064 7.72512C6.44104 7.73214 6.40143 7.73929 6.36183 7.74355C6.30531 7.75208 6.24865 7.75909 6.19213 7.76184C6.17233 7.76473 6.15404 7.7661 6.13424 7.7661C6.08899 7.76885 6.04375 7.77036 5.99988 7.77036H5.99562C5.95189 7.77036 5.90802 7.76885 5.86416 7.7661C5.84724 7.7661 5.83019 7.76473 5.81327 7.76184C5.77367 7.76046 5.73269 7.7562 5.6902 7.75056C5.68181 7.75056 5.67191 7.74919 5.66338 7.74767C5.61113 7.74066 5.55873 7.73214 5.5051 7.72223C5.45986 7.71508 5.41462 7.70518 5.36786 7.69391C5.12611 7.63876 4.87734 7.55529 4.62568 7.44376C4.41075 7.34901 4.19306 7.23446 3.97675 7.10162C3.86797 7.03658 3.76043 6.96589 3.65152 6.88957C3.59775 6.85134 3.54412 6.81311 3.49035 6.77351C3.32203 6.65043 3.15522 6.51622 2.9913 6.37196C2.94606 6.33098 2.90082 6.29 2.85557 6.24765C2.81033 6.20667 2.76509 6.16417 2.72122 6.12319C2.61093 6.01717 2.50353 5.90702 2.39888 5.79247C2.3579 5.7486 2.31692 5.7035 2.27581 5.65674C2.16277 5.52954 2.05248 5.39807 1.94783 5.26083C1.90685 5.21146 1.86862 5.16058 1.83053 5.10956C1.68765 4.92006 1.55206 4.72218 1.42472 4.517C1.39075 4.462 1.35679 4.40548 1.32433 4.3502C1.28473 4.28378 1.24663 4.21584 1.2084 4.14805C1.06704 3.89351 0.936948 3.6292 0.82391 3.35623C0.806858 3.31662 0.789943 3.27702 0.775779 3.23755C0.753226 3.18667 0.733424 3.13428 0.714996 3.0834C0.686668 3.00845 0.659853 2.9335 0.634412 2.85856C0.608971 2.78361 0.584906 2.70715 0.560841 2.63097C0.538288 2.5574 0.517111 2.48396 0.497309 2.40902C0.474618 2.32981 0.45344 2.24922 0.435013 2.16726C0.433638 2.15874 0.43075 2.15021 0.429375 2.14169C0.402559 2.02865 0.378494 1.9141 0.357317 1.79817C0.328988 1.64553 0.306436 1.49 0.289521 1.33295C0.28237 1.28358 0.278108 1.23394 0.273982 1.18457C0.268344 1.13218 0.264081 1.0813 0.261193 1.02904C0.254179 0.934293 0.249916 0.838031 0.247028 0.741907C0.245653 0.679749 0.244141 0.617593 0.244141 0.555435L1.16316 2.3624L2.7424 3.05094L4.60987 3.21899H4.61125L5.99535 3.34482H6.00387L7.29886 3.46212C7.29886 3.46212 7.29886 3.46074 7.30024 3.46212L10.1888 3.72244L11.757 0.555298Z" fill="#4E1E30"/>
</svg>
