<svg width="24" height="24" viewBox="0 0 24 24" fill="none" xmlns="http://www.w3.org/2000/svg">
<path d="M6 13.435C7.17825 12.9848 8.33849 12.5276 9.51298 12.1034C9.7704 12.0102 10.0781 12.0088 10.3633 12.0075C11.9505 11.9986 13.5378 11.9979 15.125 12.004C15.6751 12.0061 16.0579 12.2583 16.2177 12.6873C16.3836 13.1335 16.2808 13.607 15.88 13.8551C15.6459 13.9997 15.3367 14.071 15.0508 14.1101C14.5952 14.1724 14.1307 14.1752 13.6714 14.2136C13.1881 14.2547 12.9637 14.4548 13.0042 14.7879C13.0447 15.1154 13.2826 15.2648 13.7464 15.2333C14.331 15.1936 14.9179 15.1662 15.4973 15.0908C16.3311 14.9825 16.9067 14.537 17.2294 13.8359C17.3179 13.6434 17.4388 13.5597 17.6489 13.509C18.623 13.2733 19.5926 13.0224 20.5638 12.7778C21.1709 12.625 21.691 12.8278 21.9071 13.2986C22.136 13.7989 21.9371 14.2677 21.363 14.5521C19.3472 15.552 17.3239 16.5389 15.3157 17.5504C14.3858 18.0192 13.4492 18.0158 12.4654 17.7355C11.5986 17.4887 10.7197 17.2777 9.84244 17.0659C9.70435 17.0323 9.52274 17.0446 9.39366 17.0995C8.72723 17.3805 8.07132 17.6813 7.35686 18C6.90808 16.4923 6.46755 15.0099 6 13.435Z" fill="#627185"/>
<path d="M9.00679 7C12.6886 7 16.321 7 19.9871 7C19.9871 8.01154 20.024 9.01024 19.973 10.0049C19.9439 10.5733 19.4285 10.9908 18.8596 10.9932C15.9548 11.002 13.0501 11.0028 10.1453 10.9924C9.53164 10.99 9.02957 10.5011 9.01307 9.88369C8.98793 8.93638 9.00679 7.98826 9.00679 7Z" fill="#4E606E"/>
<path d="M12.1341 3.85965C12.1341 3.49189 12.1301 3.16374 12.1348 2.8356C12.1419 2.31986 12.5329 2.00658 13.1852 2.00349C14.0632 1.99915 14.9404 1.99853 15.8185 2.00349C16.4471 2.0072 16.8405 2.32234 16.8523 2.81765C16.8601 3.14703 16.8609 3.47703 16.8664 3.80703C16.8664 3.81446 16.8829 3.82188 16.9286 3.85965C17.4903 3.85965 18.0898 3.85841 18.6886 3.85965C19.5296 3.86213 19.9962 4.23051 19.9993 4.89423C20.0009 5.25456 19.9993 5.6149 19.9993 6C16.3377 6 12.6911 6 9.02006 6C9.02006 5.53132 8.96578 5.04777 9.0358 4.57537C9.10189 4.13269 9.60148 3.86584 10.1971 3.86027C10.8241 3.85532 11.4519 3.85965 12.1341 3.85965ZM13.3291 3.83736C14.1261 3.83736 14.8901 3.83736 15.6414 3.83736C15.6414 3.52222 15.6414 3.23061 15.6414 2.94643C14.8547 2.94643 14.1002 2.94643 13.3291 2.94643C13.3291 3.24733 13.3291 3.53151 13.3291 3.83736Z" fill="#4E606E"/>
<path d="M2.0072 22C2.0072 20.1107 2.0072 18.2513 2.0072 16.392C2.0072 16.049 2.02381 15.7046 2.00166 15.3622C1.98742 15.1449 2.06258 15.0265 2.31182 14.9381C3.09828 14.6596 3.87129 14.3551 4.65222 14.0659C5.02567 13.9277 5.22347 14.0021 5.33187 14.3345C5.8786 16.0144 6.41741 17.6956 6.96177 19.3755C7.04326 19.6261 7.01082 19.8269 6.70304 19.9625C5.19024 20.6292 3.68061 21.3013 2.1694 21.9707C2.13617 21.9847 2.09423 21.9847 2.0072 22Z" fill="#627185"/>
</svg>
