<svg width="60" height="60" viewBox="0 0 60 60" fill="none" xmlns="http://www.w3.org/2000/svg">
<path d="M38.3423 10.6296C39.5194 10.6767 40.7175 10.6061 41.871 10.7944C45.4914 11.3856 48.2119 14.4854 48.2982 18.1424C48.3767 21.4148 48.3191 24.6872 48.3218 27.9623C48.3218 28.0329 48.3034 28.1009 48.2799 28.25C46.0041 26.5157 43.5164 25.9324 40.7802 26.623C39.0145 27.0703 37.581 28.0512 36.4118 29.4429C34.3531 31.8939 33.3878 36.6496 36.8329 40.5132C36.4327 40.7957 36.0246 41.0651 35.6349 41.3607C33.6756 42.8465 32.2866 44.7587 31.4913 47.0816C31.0493 48.3738 31.1173 49.6687 31.6143 50.94C31.664 51.0655 31.7137 51.1885 31.7608 51.314C31.766 51.3271 31.7582 51.3428 31.7503 51.4213C31.6117 51.4317 31.4573 51.4501 31.3056 51.4501C26.0294 51.4527 20.7533 51.4605 15.4745 51.4474C10.9386 51.437 7.50917 48.0024 7.50394 43.4586C7.49348 35.1794 7.49348 26.8976 7.50394 18.6185C7.50917 14.0747 10.9412 10.6532 15.4797 10.6323C16.1363 10.6296 16.7955 10.627 17.452 10.6244L17.4416 10.6113C17.4442 12.1338 17.4442 13.6562 17.4494 15.1786C17.452 16.1831 18.0903 16.8894 18.9954 16.9025C19.9214 16.9155 20.5832 16.2014 20.5858 15.1786C20.5911 13.6562 20.5911 12.1338 20.5937 10.6113L20.5832 10.6244C25.4592 10.6244 30.3377 10.6244 35.2137 10.6244L35.2032 10.6113C35.2137 12.0736 35.2189 13.5359 35.2346 14.9981C35.2372 15.2205 35.2477 15.448 35.2922 15.6652C35.4465 16.4316 36.1502 16.9574 36.9219 16.9025C37.7197 16.8449 38.3527 16.2171 38.3606 15.4062C38.3763 13.8079 38.3606 12.2122 38.358 10.6139C38.3553 10.6166 38.3423 10.6296 38.3423 10.6296ZM22.6994 35.7497C23.356 35.7497 24.0152 35.7497 24.6718 35.7497C25.7626 35.7497 26.8534 35.7654 27.9442 35.7418C28.8179 35.7209 29.4771 35.0277 29.4771 34.188C29.4771 33.3431 28.8205 32.6682 27.9495 32.6211C27.8161 32.6133 27.68 32.6185 27.5466 32.6185C24.3056 32.6185 21.0619 32.6185 17.8209 32.6185C17.6273 32.6185 17.4311 32.6107 17.2402 32.6394C16.628 32.7336 16.1964 33.0711 15.9845 33.6544C15.77 34.2404 15.8904 34.7792 16.3011 35.2396C16.6411 35.6163 17.0858 35.7549 17.5907 35.7549C19.2936 35.7445 20.9965 35.7497 22.6994 35.7497ZM20.6774 27.379C21.708 27.379 22.7387 27.3842 23.7693 27.379C24.8 27.3737 25.5193 26.7145 25.5089 25.7964C25.501 24.8939 24.7895 24.2504 23.7824 24.2478C21.7211 24.2426 19.6624 24.2426 17.6011 24.2478C16.5862 24.2504 15.893 24.8887 15.8878 25.8042C15.8825 26.7093 16.5914 27.3711 17.5881 27.379C18.6161 27.3842 19.6467 27.379 20.6774 27.379Z" fill="#91D9FF"/>
<path d="M43.911 41.0024C44.3714 41.094 44.8396 41.1646 45.2948 41.2823C48.6353 42.1586 50.9607 44.2121 52.2164 47.4217C53.213 49.9696 51.5101 52.4415 48.7713 52.4651C44.8841 52.4965 40.9996 52.5069 37.1124 52.4965C34.2768 52.4886 32.5373 49.8963 33.649 47.2909C35.1401 43.7935 37.7795 41.7087 41.5515 41.0887C41.6535 41.073 41.7582 41.0547 41.8602 41.0312C41.8863 41.026 41.9073 41.0024 42.0041 40.937C40.1573 40.5891 38.6976 39.6971 37.6905 38.1694C36.686 36.647 36.3904 34.9729 36.8299 33.1967C37.5414 30.3323 40.1259 28.3678 43.0556 28.4332C46.0168 28.4986 48.46 30.5495 49.08 33.4975C49.3154 34.6197 49.2186 35.7288 48.8393 36.8066C48.4548 37.9026 47.7956 38.8103 46.9036 39.5558C46.0272 40.2883 45.0123 40.7121 43.911 41.0024Z" fill="#2C7BE5"/>
<path d="M17.4548 10.6295C17.4522 10.109 17.4417 9.58581 17.4522 9.06526C17.4679 8.18371 18.1558 7.50359 19.0191 7.50098C19.8771 7.50098 20.5703 8.18633 20.5886 9.06526C20.5991 9.58581 20.586 10.109 20.586 10.6295L20.5964 10.6165C19.5449 10.6165 18.4959 10.6165 17.4443 10.6165L17.4548 10.6295Z" fill="#91D9FF"/>
<path d="M35.2139 10.6293C35.2191 10.1088 35.2087 9.58558 35.2348 9.06503C35.2845 8.13901 35.983 7.47459 36.854 7.50075C37.7147 7.5269 38.3529 8.19656 38.3686 9.1095C38.3765 9.61436 38.3529 10.1218 38.3451 10.6267L38.3582 10.6162C37.3066 10.6162 36.2576 10.6162 35.2061 10.6162L35.2139 10.6293Z" fill="#91D9FF"/>
</svg>
