<svg width="1502" height="1549" viewBox="0 0 1502 1549" fill="none" xmlns="http://www.w3.org/2000/svg">
<path d="M1325.56 1548.52H175.99C78.7899 1548.52 0 1469.73 0 1372.53V175.99C0 78.79 78.7899 0 175.99 0H1325.57C1422.77 0 1501.56 78.79 1501.56 175.99V1372.52C1501.56 1469.72 1422.76 1548.52 1325.56 1548.52Z" fill="white"/>
<path d="M1298.24 1474H203.31C137.22 1474 83.6399 1420.42 83.6399 1354.33C83.6399 1288.24 137.22 1234.66 203.31 1234.66H1298.24C1364.33 1234.66 1417.91 1288.24 1417.91 1354.33C1417.91 1420.42 1364.33 1474 1298.24 1474Z" fill="#34A9BC"/>
<path d="M381.7 1302.12H396.81V1337.42H435.45V1302.12H450.6V1385.51H435.45V1350.09H396.81V1385.51H381.7V1302.12Z" fill="white"/>
<path d="M463.65 1354.61C463.65 1335.31 475.34 1322.16 493.25 1322.16C508.64 1322.16 521.83 1331.81 521.83 1353.76V1358.28H478.26C478.38 1368.99 484.69 1375.26 494.22 1375.26C500.57 1375.26 505.46 1372.49 507.45 1367.2L521.21 1368.75C518.6 1379.62 508.59 1386.75 494.01 1386.75C475.17 1386.74 463.65 1374.24 463.65 1354.61ZM492.85 1305.06L484.58 1315.48H471.67V1314.91L487.06 1297.32H498.58L514.01 1314.91V1315.48H501.1L492.85 1305.06ZM507.71 1348.34C507.63 1339.83 501.93 1333.64 493.46 1333.64C484.66 1333.64 478.76 1340.36 478.31 1348.34H507.71ZM484.29 1400.01C484.29 1395.57 488.12 1391.99 492.84 1391.99C497.52 1391.99 501.35 1395.57 501.35 1400.01C501.35 1404.41 497.52 1407.99 492.84 1407.99C488.12 1407.99 484.29 1404.41 484.29 1400.01Z" fill="white"/>
<path d="M593.98 1334.37H581.64V1366.7C581.64 1372.65 584.61 1373.95 588.32 1373.95C590.15 1373.95 591.82 1373.58 592.64 1373.38L595.12 1384.9C593.53 1385.43 590.64 1386.24 586.45 1386.37C575.37 1386.7 566.82 1380.91 566.91 1369.15V1334.38H558.03V1322.98H566.91V1308H581.65V1322.98H593.99V1334.37H593.98Z" fill="white"/>
<path d="M622.35 1385.51H607.61V1302.12H622.02V1333.6H622.75C625.64 1326.51 631.75 1322.16 641.36 1322.16C654.35 1322.16 662.9 1330.59 662.9 1345.7V1385.52H648.16V1347.98C648.16 1339.55 643.6 1334.62 635.86 1334.62C627.96 1334.62 622.34 1339.83 622.34 1348.87V1385.51H622.35Z" fill="white"/>
<path d="M675.19 1354.49C675.19 1335.11 686.84 1322.16 705.16 1322.16C723.48 1322.16 735.13 1335.11 735.13 1354.49C735.13 1373.83 723.48 1386.74 705.16 1386.74C686.84 1386.74 675.19 1373.83 675.19 1354.49ZM700.52 1302.41H709.72L726.29 1315.81H714.03L705.19 1308.32L696.31 1315.81H684.01L700.52 1302.41ZM720.19 1354.45C720.19 1343.01 715.22 1333.85 705.25 1333.85C695.11 1333.85 690.14 1343.01 690.14 1354.45C690.14 1365.89 695.11 1374.93 705.25 1374.93C715.22 1374.93 720.19 1365.89 720.19 1354.45ZM730.98 1292.64H743.93L731.35 1307.67H721.94L730.98 1292.64Z" fill="white"/>
<path d="M762.32 1385.51H747.58V1322.97H761.67V1333.6H762.4C765.25 1326.64 771.68 1322.16 781.05 1322.16C793.96 1322.16 802.51 1330.71 802.47 1345.7V1385.52H787.73V1347.98C787.73 1339.63 783.17 1334.62 775.56 1334.62C767.78 1334.62 762.33 1339.83 762.33 1348.87V1385.51H762.32Z" fill="white"/>
<path d="M817.08 1394.47L830.35 1391.25C832.14 1394.91 836.05 1399.11 844.93 1399.11C853.32 1399.11 859.43 1395.32 859.43 1386.12V1374.27H858.7C856.42 1378.87 851.41 1384.61 840.7 1384.61C826.29 1384.61 814.92 1374.43 814.92 1354.03C814.92 1333.47 826.28 1322.15 840.74 1322.15C851.77 1322.15 856.46 1328.79 858.7 1333.31H859.51V1322.97H874.05V1386.53C874.05 1402.53 861.59 1410.27 844.69 1410.27C828.76 1410.27 819.76 1403.23 817.08 1394.47ZM859.51 1353.96C859.51 1342.11 854.3 1334.25 844.81 1334.25C835 1334.25 829.95 1342.6 829.95 1353.96C829.95 1365.48 835.08 1373.06 844.81 1373.06C854.21 1373.06 859.51 1365.89 859.51 1353.96Z" fill="white"/>
<path d="M918.29 1302.12H972.53V1314.78H933.4V1337.42H969.72V1350.08H933.4V1372.84H972.86V1385.5H918.3V1302.12H918.29Z" fill="white"/>
<path d="M987.95 1302.12H1019.22C1038.36 1302.12 1048.62 1312.87 1048.62 1328.79C1048.62 1340.11 1043.45 1348.5 1033.64 1352.45L1051.68 1385.51H1034.82L1018.45 1354.97H1003.06V1385.51H987.95V1302.12ZM1016.98 1342.44C1028.18 1342.44 1033.23 1337.68 1033.23 1328.8C1033.23 1319.92 1028.18 1314.75 1016.9 1314.75H1003.06V1342.44H1016.98Z" fill="white"/>
<path d="M1062.53 1302.12H1093.8C1112.98 1302.12 1123.2 1313.81 1123.2 1329.73C1123.2 1345.77 1112.86 1357.34 1093.6 1357.34H1077.64V1385.52H1062.53V1302.12ZM1091.57 1344.92C1102.81 1344.92 1107.82 1338.61 1107.82 1329.73C1107.82 1320.85 1102.81 1314.75 1091.49 1314.75H1077.65V1344.92H1091.57Z" fill="white"/>
<path d="M1275.1 717.28C1299.6 685.18 1314.16 645.09 1314.16 601.6C1314.16 496.19 1228.71 410.75 1123.31 410.75C1063.02 410.75 1009.28 438.71 974.3 482.37C933.4 378.27 832 304.57 713.38 304.57C595.54 304.57 494.7 377.32 453.28 480.34C428.37 466.86 399.86 459.19 369.55 459.19C272.23 459.19 193.33 538.09 193.33 635.41C193.33 675.57 206.77 712.59 229.39 742.22C126.74 743.82 44.02 827.52 44.02 930.56C44.02 972.5 57.7299 1011.24 80.9099 1042.54H211.3H1211.62H1435.9C1461 1008.64 1475.86 966.68 1475.86 921.26C1475.86 809.67 1386.27 719.02 1275.1 717.28Z" fill="#E5E6F3"/>
<path d="M284.17 900.82H1258.9" stroke="#18BECA" stroke-width="2" stroke-miterlimit="10"/>
<path d="M427.94 568.86L624.58 900.82L745.1 431.42" stroke="#18BECA" stroke-width="2" stroke-miterlimit="10"/>
<path d="M1089.75 600.57L624.58 900.82" stroke="#18BECA" stroke-width="2" stroke-miterlimit="10"/>
<path d="M1256.3 1025.22C1322.86 1025.22 1376.82 971.262 1376.82 904.7C1376.82 838.139 1322.86 784.18 1256.3 784.18C1189.74 784.18 1135.78 838.139 1135.78 904.7C1135.78 971.262 1189.74 1025.22 1256.3 1025.22Z" fill="white"/>
<path d="M1256.3 792.64C1318.19 792.64 1368.36 842.81 1368.36 904.7C1368.36 966.59 1318.19 1016.76 1256.3 1016.76C1194.41 1016.76 1144.24 966.59 1144.24 904.7C1144.24 842.81 1194.41 792.64 1256.3 792.64ZM1256.3 775.73C1185.18 775.73 1127.32 833.59 1127.32 904.71C1127.32 975.83 1185.18 1033.69 1256.3 1033.69C1327.42 1033.69 1385.28 975.83 1385.28 904.71C1385.28 833.59 1327.42 775.73 1256.3 775.73Z" fill="#18BECA"/>
<path d="M1198.68 926.91V885.68H1314.97V926.91" stroke="#18BECA" stroke-width="1.9733" stroke-miterlimit="10"/>
<path d="M1255.77 837.04V990.34" stroke="#18BECA" stroke-width="1.9733" stroke-miterlimit="10"/>
<path d="M1183.42 920.7C1183.42 928.55 1189.78 934.91 1197.63 934.91C1205.48 934.91 1211.84 928.55 1211.84 920.7C1211.84 912.85 1205.48 906.49 1197.63 906.49C1189.78 906.49 1183.42 912.85 1183.42 920.7Z" fill="#F16B81"/>
<path d="M1217.67 977.32V952.62C1217.67 944.9 1211.41 938.64 1203.69 938.64H1191.57C1183.85 938.64 1177.59 944.9 1177.59 952.62V977.32H1217.67Z" fill="#2B2871"/>
<path d="M1300.77 920.7C1300.77 928.55 1307.13 934.91 1314.98 934.91C1322.83 934.91 1329.19 928.55 1329.19 920.7C1329.19 912.85 1322.83 906.49 1314.98 906.49C1307.13 906.49 1300.77 912.85 1300.77 920.7Z" fill="#F16B81"/>
<path d="M1335.02 977.32V952.62C1335.02 944.9 1328.76 938.64 1321.04 938.64H1308.92C1301.2 938.64 1294.94 944.9 1294.94 952.62V977.32H1335.02Z" fill="#2B2871"/>
<path d="M1241.56 940.78C1241.56 948.63 1247.92 954.99 1255.77 954.99C1263.62 954.99 1269.98 948.63 1269.98 940.78C1269.98 932.93 1263.62 926.57 1255.77 926.57C1247.92 926.57 1241.56 932.94 1241.56 940.78Z" fill="#F16B81"/>
<path d="M1275.81 997.4V972.7C1275.81 964.98 1269.55 958.72 1261.83 958.72H1249.71C1241.99 958.72 1235.73 964.98 1235.73 972.7V997.4H1275.81Z" fill="#2B2871"/>
<path d="M1241.56 816.04C1241.56 823.89 1247.92 830.25 1255.77 830.25C1263.62 830.25 1269.98 823.89 1269.98 816.04C1269.98 808.19 1263.62 801.83 1255.77 801.83C1247.92 801.83 1241.56 808.19 1241.56 816.04Z" fill="#F16B81"/>
<path d="M1275.81 872.66V847.96C1275.81 840.24 1269.55 833.98 1261.83 833.98H1249.71C1241.99 833.98 1235.73 840.24 1235.73 847.96V872.66H1275.81Z" fill="#2B2871"/>
<path d="M1081.29 721.09C1147.85 721.09 1201.81 667.132 1201.81 600.57C1201.81 534.009 1147.85 480.05 1081.29 480.05C1014.73 480.05 960.77 534.009 960.77 600.57C960.77 667.132 1014.73 721.09 1081.29 721.09Z" fill="white"/>
<path d="M1081.29 488.51C1143.18 488.51 1193.35 538.68 1193.35 600.57C1193.35 662.46 1143.18 712.63 1081.29 712.63C1019.4 712.63 969.229 662.46 969.229 600.57C969.229 538.68 1019.4 488.51 1081.29 488.51ZM1081.29 471.6C1010.17 471.6 952.31 529.46 952.31 600.58C952.31 671.7 1010.17 729.56 1081.29 729.56C1152.41 729.56 1210.27 671.7 1210.27 600.58C1210.27 529.46 1152.41 471.6 1081.29 471.6Z" fill="#18BECA"/>
<path d="M1108.78 536.14H1013.63V670.35H1108.78V536.14Z" fill="#EB7F37"/>
<path d="M1127.81 518.11H1032.66V652.32H1127.81V518.11Z" fill="#F9A767"/>
<path d="M1127.58 587.725L1121.94 593.038L1207.93 684.358L1213.57 679.045L1127.58 587.725Z" fill="#2B2871"/>
<path d="M1215.73 671.71C1219.64 675.86 1219.44 682.4 1215.29 686.31C1211.14 690.22 1204.6 690.02 1200.69 685.87L1163.3 646.12C1159.39 641.97 1159.59 635.43 1163.74 631.52C1167.89 627.61 1174.43 627.81 1178.34 631.96L1215.73 671.71Z" fill="#F16B81"/>
<path d="M1158.6 619.779C1174.92 601.146 1173.03 572.818 1154.4 556.505C1135.77 540.193 1107.44 542.074 1091.13 560.707C1074.82 579.339 1076.7 607.668 1095.33 623.98C1113.96 640.293 1142.29 638.412 1158.6 619.779Z" fill="#18BECA"/>
<mask id="mask0_266_6031" style="mask-type:luminance" maskUnits="userSpaceOnUse" x="1083" y="542" width="91" height="91">
<path d="M1173.05 583.218C1170.65 558.571 1148.72 540.536 1124.07 542.937C1099.43 545.337 1081.39 567.262 1083.79 591.91C1086.19 616.557 1108.12 634.591 1132.77 632.191C1157.41 629.791 1175.45 607.865 1173.05 583.218Z" fill="white"/>
</mask>
<g mask="url(#mask0_266_6031)">
<path d="M1173.94 515.048L1057.07 639.337L1073 654.318L1189.87 530.029L1173.94 515.048Z" fill="white"/>
</g>
<mask id="mask1_266_6031" style="mask-type:luminance" maskUnits="userSpaceOnUse" x="1079" y="560" width="90" height="91">
<path d="M1168.53 601.176C1166.13 576.529 1144.21 558.494 1119.56 560.894C1094.91 563.294 1076.88 585.22 1079.28 609.867C1081.68 634.514 1103.61 652.549 1128.25 650.149C1152.9 647.749 1170.93 625.823 1168.53 601.176Z" fill="white"/>
</mask>
<g mask="url(#mask1_266_6031)">
<path d="M1196.38 532.968L1079.51 657.258L1087.56 664.827L1204.43 540.538L1196.38 532.968Z" fill="white"/>
</g>
<mask id="mask2_266_6031" style="mask-type:luminance" maskUnits="userSpaceOnUse" x="1096" y="532" width="91" height="91">
<path d="M1185.98 572.939C1183.58 548.292 1161.66 530.258 1137.01 532.658C1112.36 535.058 1094.33 556.984 1096.73 581.631C1099.13 606.278 1121.05 624.313 1145.7 621.913C1170.35 619.513 1188.38 597.587 1185.98 572.939Z" fill="white"/>
</mask>
<g mask="url(#mask2_266_6031)">
<path d="M1174.54 500.77L1057.67 625.06L1061.45 628.615L1178.32 504.325L1174.54 500.77Z" fill="white"/>
</g>
<path d="M1158.64 626.1C1138.88 644.7 1107.67 643.76 1089.07 624.01C1070.47 604.25 1071.41 573.04 1091.16 554.44C1110.92 535.84 1142.13 536.78 1160.73 556.53C1179.33 576.28 1178.39 607.5 1158.64 626.1ZM1097.16 560.81C1080.91 576.11 1080.14 601.77 1095.44 618.01C1110.74 634.25 1136.4 635.03 1152.64 619.73C1168.88 604.43 1169.66 578.77 1154.36 562.53C1139.06 546.28 1113.4 545.51 1097.16 560.81Z" fill="#2B2871"/>
<path d="M747.22 568.86C813.781 568.86 867.74 514.901 867.74 448.34C867.74 381.778 813.781 327.82 747.22 327.82C680.658 327.82 626.7 381.778 626.7 448.34C626.7 514.901 680.658 568.86 747.22 568.86Z" fill="white"/>
<path d="M747.22 336.28C809.11 336.28 859.28 386.45 859.28 448.34C859.28 510.23 809.11 560.4 747.22 560.4C685.33 560.4 635.16 510.23 635.16 448.34C635.16 386.45 685.33 336.28 747.22 336.28ZM747.22 319.36C676.1 319.36 618.24 377.22 618.24 448.34C618.24 519.46 676.1 577.32 747.22 577.32C818.34 577.32 876.2 519.46 876.2 448.34C876.2 377.22 818.33 319.36 747.22 319.36Z" fill="#18BECA"/>
<path d="M747.29 362.62C747.11 362.62 746.92 362.61 746.74 362.61C699.39 362.61 661.01 400.99 661.01 448.34C661.01 495.69 699.39 534.07 746.74 534.07C746.92 534.07 747.11 534.06 747.29 534.06V362.62Z" fill="#F16B81"/>
<path d="M747.15 534.05C747.33 534.05 747.52 534.06 747.7 534.06C795.05 534.06 833.43 495.68 833.43 448.33C833.43 400.98 795.05 362.6 747.7 362.6C747.52 362.6 747.33 362.61 747.15 362.61V534.05Z" fill="#F9A767"/>
<path d="M747.15 534.05C747.33 534.05 747.52 534.06 747.7 534.06C795.05 534.06 833.43 495.68 833.43 448.33C833.43 448.24 833.42 448.15 833.42 448.06H747.15V534.05Z" fill="#18BECA"/>
<path d="M747.15 448.06V534.05C747.33 534.05 747.52 534.06 747.7 534.06C771.8 534.06 793.57 524.1 809.14 508.09L747.15 448.06Z" fill="#625EA9"/>
<path d="M654.99 594.42L771.53 496.97" stroke="#2B2871" stroke-miterlimit="10"/>
<path d="M771.53 504.37C775.617 504.37 778.93 501.057 778.93 496.97C778.93 492.883 775.617 489.57 771.53 489.57C767.443 489.57 764.13 492.883 764.13 496.97C764.13 501.057 767.443 504.37 771.53 504.37Z" fill="white" stroke="#2B2871" stroke-miterlimit="10"/>
<path d="M686.25 598.46C686.25 604.3 681.52 609.03 675.68 609.03H596.39C590.55 609.03 585.82 604.3 585.82 598.46V582.6C585.82 576.76 590.55 572.03 596.39 572.03H675.68C681.52 572.03 686.25 576.76 686.25 582.6V598.46Z" fill="#2B2871"/>
<path d="M600.62 584.71H671.45" stroke="white" stroke-miterlimit="10" stroke-linecap="round" stroke-linejoin="round"/>
<path d="M600.62 595.28H671.45" stroke="white" stroke-miterlimit="10" stroke-linecap="round" stroke-linejoin="round"/>
<path d="M961.21 445.74L811.7 472.65" stroke="#2B2871" stroke-miterlimit="10"/>
<path d="M811.7 480.05C815.787 480.05 819.1 476.737 819.1 472.65C819.1 468.563 815.787 465.25 811.7 465.25C807.613 465.25 804.3 468.563 804.3 472.65C804.3 476.737 807.613 480.05 811.7 480.05Z" fill="white" stroke="#2B2871" stroke-miterlimit="10"/>
<path d="M1021.38 459.97C1021.38 465.81 1016.65 470.54 1010.81 470.54H931.52C925.68 470.54 920.95 465.81 920.95 459.97V444.11C920.95 438.27 925.68 433.54 931.52 433.54H1010.81C1016.65 433.54 1021.38 438.27 1021.38 444.11V459.97Z" fill="#2B2871"/>
<path d="M935.75 446.22H1006.58" stroke="white" stroke-miterlimit="10" stroke-linecap="round" stroke-linejoin="round"/>
<path d="M935.75 456.79H1006.58" stroke="white" stroke-miterlimit="10" stroke-linecap="round" stroke-linejoin="round"/>
<path d="M928.81 333.21L807.06 424.05" stroke="#2B2871" stroke-miterlimit="10"/>
<path d="M814.08 426.4C815.38 422.52 813.28 418.33 809.41 417.04C805.53 415.74 801.34 417.84 800.05 421.71C798.75 425.59 800.85 429.78 804.72 431.07C808.59 432.37 812.78 430.28 814.08 426.4Z" fill="white" stroke="#2B2871" stroke-miterlimit="10"/>
<path d="M1008.69 352.14C1008.69 357.98 1003.96 362.71 998.12 362.71H918.83C912.99 362.71 908.26 357.98 908.26 352.14V336.28C908.26 330.44 912.99 325.71 918.83 325.71H998.12C1003.96 325.71 1008.69 330.44 1008.69 336.28V352.14Z" fill="#2B2871"/>
<path d="M923.06 338.39H993.89" stroke="white" stroke-miterlimit="10" stroke-linecap="round" stroke-linejoin="round"/>
<path d="M923.06 348.96H993.89" stroke="white" stroke-miterlimit="10" stroke-linecap="round" stroke-linejoin="round"/>
<path d="M591.98 336.05L724.72 409.93" stroke="#2B2871" stroke-miterlimit="10"/>
<path d="M723.98 402.56C719.91 402.97 716.95 406.59 717.35 410.66C717.76 414.73 721.38 417.69 725.45 417.29C729.52 416.88 732.48 413.26 732.08 409.19C731.67 405.12 728.05 402.16 723.98 402.56Z" fill="white" stroke="#2B2871" stroke-miterlimit="10"/>
<path d="M611.18 348.97C611.18 354.81 606.45 359.54 600.61 359.54H521.32C515.48 359.54 510.75 354.81 510.75 348.97V333.11C510.75 327.27 515.48 322.54 521.32 322.54H600.61C606.45 322.54 611.18 327.27 611.18 333.11V348.97Z" fill="#2B2871"/>
<path d="M525.55 335.22H596.38" stroke="white" stroke-miterlimit="10" stroke-linecap="round" stroke-linejoin="round"/>
<path d="M525.55 345.79H596.38" stroke="white" stroke-miterlimit="10" stroke-linecap="round" stroke-linejoin="round"/>
<path d="M436.4 689.38C502.961 689.38 556.92 635.421 556.92 568.86C556.92 502.298 502.961 448.34 436.4 448.34C369.839 448.34 315.88 502.298 315.88 568.86C315.88 635.421 369.839 689.38 436.4 689.38Z" fill="white"/>
<path d="M436.4 456.8C498.29 456.8 548.46 506.97 548.46 568.86C548.46 630.75 498.29 680.92 436.4 680.92C374.51 680.92 324.34 630.75 324.34 568.86C324.34 506.97 374.51 456.8 436.4 456.8ZM436.4 439.88C365.28 439.88 307.42 497.74 307.42 568.86C307.42 639.98 365.28 697.84 436.4 697.84C507.52 697.84 565.38 639.98 565.38 568.86C565.38 497.74 507.52 439.88 436.4 439.88Z" fill="#18BECA"/>
<path d="M270.96 1010.76C337.521 1010.76 391.48 956.801 391.48 890.24C391.48 823.678 337.521 769.72 270.96 769.72C204.399 769.72 150.44 823.678 150.44 890.24C150.44 956.801 204.399 1010.76 270.96 1010.76Z" fill="white"/>
<path d="M270.96 778.18C332.85 778.18 383.02 828.35 383.02 890.24C383.02 952.13 332.85 1002.3 270.96 1002.3C209.07 1002.3 158.9 952.13 158.9 890.24C158.9 828.35 209.07 778.18 270.96 778.18ZM270.96 761.27C199.84 761.27 141.98 819.13 141.98 890.25C141.98 961.37 199.84 1019.23 270.96 1019.23C342.08 1019.23 399.94 961.37 399.94 890.25C399.94 819.13 342.08 761.27 270.96 761.27Z" fill="#18BECA"/>
<path d="M228.14 911.39H200.65V954.73H228.14V911.39Z" fill="#F9A767"/>
<path d="M265.49 881.79H238V954.74H265.49V881.79Z" fill="#F16B81"/>
<path d="M302.85 897.65H275.36V954.74H302.85V897.65Z" fill="#18BECA"/>
<path d="M340.2 841.61H312.71V954.73H340.2V841.61Z" fill="#625EA9"/>
<path d="M195.37 955.79H343.37" stroke="#2B2871" stroke-miterlimit="10" stroke-linecap="round" stroke-linejoin="round"/>
<path d="M295.2 829.79L251.7 865.56L242.03 849.13L189.02 887.07" stroke="#2B2871" stroke-width="3.6579" stroke-miterlimit="10"/>
<path d="M274.49 827.8L311.45 813.65L297.11 850.54L291.42 832.68L274.49 827.8Z" fill="#2B2871"/>
<path d="M1041.14 1042.48V914.28C1041.14 897.18 1027.28 883.33 1010.19 883.33H866.77C849.67 883.33 835.82 897.19 835.82 914.28V1042.48H1041.14Z" fill="#2B2871"/>
<path d="M1042.17 1042.48V908.09C1042.17 894.41 1031.08 883.33 1017.41 883.33C1003.73 883.33 992.65 894.42 992.65 908.09V1042.48H1042.17Z" fill="#131139"/>
<path d="M883.74 740.68H831.24V854.71H883.74V740.68Z" fill="#F9A767"/>
<path d="M831.24 835.71H840.38C862.48 835.71 880.71 819.34 883.74 798.08V740.68H831.24V835.71Z" fill="#EB7F37"/>
<path d="M837.43 746.75C837.43 765.82 852.89 781.29 871.97 781.29C891.04 781.29 906.51 765.83 906.51 746.75V669.6C906.51 650.53 891.05 635.06 871.97 635.06C852.9 635.06 837.43 650.52 837.43 669.6V746.75Z" fill="#2B2871"/>
<path d="M884.23 776.5C884.23 800.72 864.6 820.35 840.38 820.35H818.45C794.23 820.35 774.6 800.72 774.6 776.5V672.35C774.6 648.13 794.23 650.42 818.45 650.42H840.38C864.6 650.42 884.23 648.13 884.23 672.35V776.5Z" fill="#F9A767"/>
<path d="M887.795 740.175C897.581 737.856 903.634 728.043 901.315 718.258C898.996 708.472 889.183 702.42 879.397 704.739C869.611 707.058 863.559 716.871 865.878 726.656C868.197 736.442 878.01 742.495 887.795 740.175Z" fill="#F9A767"/>
<path d="M780.8 681.12H883.13C891.5 681.12 899.29 678.73 905.94 674.67C903.8 652.45 894.75 635.08 871.97 635.08H737.1C737.03 635.9 736.99 636.75 736.97 637.65C737.17 661.68 756.71 681.12 780.8 681.12Z" fill="#2B2871"/>
<path d="M898.26 681.65C898.26 669.06 897.61 658.85 885.02 658.85H865.16C852.57 658.85 842.36 669.06 842.36 681.65C842.36 694.24 852.57 704.45 865.16 704.45H870.65V733.07H884.65V704.45H885.02C897.61 704.45 902.31 694.24 902.31 681.65H898.26Z" fill="#2B2871"/>
<path d="M773.65 680.21C794.084 680.21 810.65 663.644 810.65 643.21C810.65 622.775 794.084 606.21 773.65 606.21C753.215 606.21 736.65 622.775 736.65 643.21C736.65 663.644 753.215 680.21 773.65 680.21Z" fill="#2B2871"/>
<path d="M784.26 726.01C784.26 732 789.12 736.86 795.11 736.86C801.1 736.86 805.96 732 805.96 726.01" stroke="#131139" stroke-width="1.4911" stroke-miterlimit="10" stroke-linecap="round" stroke-linejoin="round"/>
<path d="M832.19 726.01C832.19 732 837.05 736.86 843.04 736.86C849.03 736.86 853.89 732 853.89 726.01" stroke="#131139" stroke-width="1.4911" stroke-miterlimit="10" stroke-linecap="round" stroke-linejoin="round"/>
<path d="M819.19 727.82L804.49 757.66H819.19V727.82Z" fill="#EB7F37"/>
<path d="M795.54 766.4C796 782.29 808.99 795.03 824.99 795.03C840.99 795.03 853.98 782.28 854.44 766.4H795.54Z" fill="white"/>
<path d="M928.04 853.41H900.37V839.58H817.37V853.41H789.7C764.23 853.41 743.59 874.06 743.59 899.52V1042.47H974.16V899.53C974.15 874.06 953.51 853.41 928.04 853.41Z" fill="#F16B81"/>
<path d="M818.4 1041.78H974.15V936.76H900.15L818.4 1041.78Z" fill="#ED4A68"/>
<path d="M777.52 855.05C757.96 860.39 743.59 878.28 743.59 899.53V1042.48H777.52V855.05Z" fill="#ED4A68"/>
<path d="M900.37 936.42V984.84H740.12C725.48 984.84 713.6 1001.32 713.6 1015.97C713.6 1030.61 725.47 1042.49 740.12 1042.49H934.95C949.6 1042.49 961.47 1030.62 961.47 1015.97V936.42H900.37Z" fill="#F9A767"/>
<path d="M961.47 936.42H900.37V950.25H961.47V936.42Z" fill="#EB7F37"/>
<path d="M777.61 984.83H740.13C725.49 984.83 713.61 1001.31 713.61 1015.96C713.61 1030.6 725.48 1042.48 740.13 1042.48H777.61V984.83Z" fill="#EB7F37"/>
<path d="M864.94 1024.65H760.14V852.96C760.14 846.8 755.15 841.81 748.99 841.81H492.26C486.1 841.81 481.11 846.8 481.11 852.96V1031.33C481.11 1037.49 486.1 1042.48 492.26 1042.48H577.3H748.99H864.93C869.86 1042.48 873.85 1038.49 873.85 1033.56C873.85 1028.63 869.86 1024.65 864.94 1024.65Z" fill="#2B2871"/>
<path d="M864.94 1024.65H760.14V852.96C760.14 846.8 755.15 841.81 748.99 841.81H743.63V1042.48H748.99H864.93C869.86 1042.48 873.85 1038.49 873.85 1033.56C873.85 1028.63 869.86 1024.65 864.94 1024.65Z" fill="#131139"/>
<path d="M667.7 956.58C668.74 952.81 669.35 948.9 669.53 944.98L661.57 944.62C661.6 943.93 661.62 943.24 661.62 942.55C661.62 939.89 661.39 937.26 660.94 934.68L668.78 933.3C668.1 929.43 666.98 925.63 665.45 922.01L658.12 925.09C656.83 922.03 655.2 919.11 653.24 916.38L659.71 911.75C657.43 908.57 654.8 905.63 651.88 903.03L646.58 908.97C644.07 906.72 641.35 904.79 638.46 903.18L642.32 896.23C638.88 894.32 635.23 892.8 631.46 891.7L629.24 899.34C626.06 898.42 622.77 897.85 619.4 897.64L619.88 889.69C618.8 889.62 617.71 889.59 616.63 889.59C612.7 889.59 608.78 890.02 604.98 890.88L606.73 898.64C603.46 899.37 600.29 900.47 597.29 901.9L593.87 894.73C590.34 896.42 586.98 898.5 583.9 900.93L588.83 907.18C587.44 908.28 586.11 909.46 584.84 910.73C583.74 911.83 582.7 912.98 581.73 914.18L575.55 909.16C573.08 912.2 570.94 915.53 569.2 919.03L576.32 922.56C574.84 925.55 573.69 928.7 572.91 931.95L565.18 930.08C564.26 933.88 563.77 937.79 563.71 941.72L571.67 941.84C571.67 942.07 571.66 942.3 571.66 942.53C571.66 945.67 571.98 948.76 572.61 951.76L564.82 953.39C565.62 957.24 566.86 961 568.5 964.57L575.73 961.26C577.11 964.28 578.83 967.14 580.88 969.81L574.55 974.64C576.92 977.75 579.65 980.6 582.64 983.12L587.76 977.02C590.34 979.19 593.12 981.04 596.06 982.56L592.42 989.63C595.91 991.43 599.61 992.84 603.41 993.82L605.4 986.12C608.6 986.94 611.91 987.41 615.28 987.51L615.04 995.47C615.58 995.49 616.12 995.49 616.66 995.49C620.04 995.49 623.42 995.17 626.71 994.53L625.2 986.72C628.5 986.09 631.69 985.1 634.74 983.76L637.94 991.04C641.53 989.46 644.94 987.48 648.1 985.15L643.37 978.75C645.16 977.43 646.86 975.96 648.46 974.36C649.23 973.59 649.97 972.79 650.68 971.97L656.7 977.18C659.27 974.22 661.5 970.96 663.35 967.51L656.34 963.76C657.92 960.82 659.16 957.71 660.04 954.48L667.7 956.58ZM616.62 968.79C602.12 968.79 590.37 957.04 590.37 942.54C590.37 928.04 602.12 916.29 616.62 916.29C631.12 916.29 642.87 928.04 642.87 942.54C642.86 957.04 631.11 968.79 616.62 968.79Z" fill="#18BECA"/>
<path d="M505.35 498.21H418.82C411.23 498.21 405.08 504.3 405.08 511.82V538.79C405.08 546.31 411.23 552.4 418.82 552.4H481.73L503.98 572.82V552.4H505.35C512.94 552.4 519.09 546.31 519.09 538.79V511.82C519.09 504.31 512.94 498.21 505.35 498.21Z" fill="#F16B81" stroke="#F16B81" stroke-width="0.6684" stroke-miterlimit="10" stroke-linecap="round" stroke-linejoin="round"/>
<path d="M444.68 525.17C444.68 528.19 442.21 530.63 439.17 530.63C436.13 530.63 433.66 528.18 433.66 525.17C433.66 522.15 436.13 519.71 439.17 519.71C442.22 519.71 444.68 522.16 444.68 525.17Z" fill="white"/>
<path d="M467.6 525.17C467.6 528.19 465.13 530.63 462.09 530.63C459.05 530.63 456.58 528.18 456.58 525.17C456.58 522.15 459.05 519.71 462.09 519.71C465.13 519.71 467.6 522.16 467.6 525.17Z" fill="white"/>
<path d="M490.51 525.17C490.51 528.19 488.04 530.63 485 530.63C481.96 530.63 479.49 528.18 479.49 525.17C479.49 522.15 481.96 519.71 485 519.71C488.04 519.71 490.51 522.16 490.51 525.17Z" fill="white"/>
<path d="M484.41 597.4H416.34C410.37 597.4 405.54 602.19 405.54 608.11V629.32C405.54 635.23 410.38 640.03 416.34 640.03H465.83L483.33 656.09V640.03H484.41C490.38 640.03 495.21 635.24 495.21 629.32V608.11C495.22 602.2 490.38 597.4 484.41 597.4Z" fill="#F9A767" stroke="#F9A767" stroke-width="0.5258" stroke-miterlimit="10" stroke-linecap="round" stroke-linejoin="round"/>
<path d="M427.46 621.86C430.503 621.86 432.97 619.415 432.97 616.4C432.97 613.384 430.503 610.94 427.46 610.94C424.417 610.94 421.95 613.384 421.95 616.4C421.95 619.415 424.417 621.86 427.46 621.86Z" fill="white"/>
<path d="M455.89 616.4C455.89 619.42 453.42 621.86 450.38 621.86C447.34 621.86 444.87 619.41 444.87 616.4C444.87 613.38 447.34 610.94 450.38 610.94C453.42 610.94 455.89 613.38 455.89 616.4Z" fill="white"/>
<path d="M473.29 621.86C476.333 621.86 478.8 619.415 478.8 616.4C478.8 613.384 476.333 610.94 473.29 610.94C470.247 610.94 467.78 613.384 467.78 616.4C467.78 619.415 470.247 621.86 473.29 621.86Z" fill="white"/>
<path d="M353.85 537.51H440.38C447.97 537.51 454.12 543.6 454.12 551.12V578.09C454.12 585.61 447.97 591.7 440.38 591.7H377.47L355.22 612.12V591.7H353.85C346.26 591.7 340.11 585.61 340.11 578.09V551.12C340.11 543.6 346.26 537.51 353.85 537.51Z" fill="#18BECA" stroke="#18BECA" stroke-width="0.6684" stroke-miterlimit="10" stroke-linecap="round" stroke-linejoin="round"/>
<path d="M414.52 564.47C414.52 567.49 416.99 569.93 420.03 569.93C423.07 569.93 425.54 567.48 425.54 564.47C425.54 561.45 423.07 559.01 420.03 559.01C416.98 559.01 414.52 561.45 414.52 564.47Z" fill="white"/>
<path d="M391.6 564.47C391.6 567.49 394.07 569.93 397.11 569.93C400.15 569.93 402.62 567.48 402.62 564.47C402.62 561.45 400.15 559.01 397.11 559.01C394.07 559.01 391.6 561.45 391.6 564.47Z" fill="white"/>
<path d="M368.69 564.47C368.69 567.49 371.16 569.93 374.2 569.93C377.24 569.93 379.71 567.48 379.71 564.47C379.71 561.45 377.24 559.01 374.2 559.01C371.16 559.01 368.69 561.45 368.69 564.47Z" fill="white"/>
</svg>
