<svg width="1518" height="1549" viewBox="0 0 1518 1549" fill="none" xmlns="http://www.w3.org/2000/svg">
<path d="M1325.57 1548.52H175.99C78.79 1548.52 0 1469.73 0 1372.53V175.99C0 78.79 78.79 0 175.99 0H1325.57C1422.77 0 1501.56 78.79 1501.56 175.99V1372.52C1501.56 1469.72 1422.77 1548.52 1325.57 1548.52Z" fill="white"/>
<path d="M1298.24 1474H203.32C137.23 1474 83.6499 1420.42 83.6499 1354.33C83.6499 1288.24 137.23 1234.66 203.32 1234.66H1298.25C1364.34 1234.66 1417.92 1288.24 1417.92 1354.33C1417.91 1420.42 1364.34 1474 1298.24 1474Z" fill="#34A9BC"/>
<path d="M417.43 1330.26C415.68 1320.28 407.74 1314.54 397.6 1314.54C383.96 1314.54 374.35 1325 374.35 1343.82C374.35 1362.96 384.04 1373.1 397.56 1373.1C407.54 1373.1 415.52 1367.6 417.43 1357.83L432.66 1357.91C430.34 1373.83 417.19 1386.66 397.36 1386.66C375.37 1386.66 359.17 1370.74 359.17 1343.82C359.17 1316.86 375.58 1300.98 397.36 1300.98C415.85 1300.98 430.1 1311.73 432.66 1330.26H417.43Z" fill="white"/>
<path d="M509.49 1318.98C509.49 1328.43 506.6 1335.19 499.84 1338.32C502 1342.92 503.14 1348.38 503.14 1354.48C503.14 1373.82 491.49 1386.73 473.17 1386.73C454.85 1386.73 443.2 1373.82 443.2 1354.48C443.2 1335.1 454.85 1322.15 473.17 1322.15C482.7 1322.15 490.44 1325.65 495.65 1331.76C498.87 1329.52 499.64 1325 499.64 1318.97H509.49V1318.98ZM488.19 1354.45C488.19 1343.01 483.22 1333.85 473.25 1333.85C463.11 1333.85 458.14 1343.01 458.14 1354.45C458.14 1365.89 463.11 1374.93 473.25 1374.93C483.22 1374.93 488.19 1365.89 488.19 1354.45Z" fill="white"/>
<path d="M581.5 1340.97C580.36 1336.86 576.78 1333.15 569.98 1333.15C563.83 1333.15 559.15 1336.08 559.19 1340.32C559.15 1343.94 561.67 1346.14 568.03 1347.57L578.7 1349.85C590.51 1352.42 596.25 1357.87 596.29 1366.79C596.25 1378.64 585.21 1386.74 569.58 1386.74C554.23 1386.74 544.58 1379.94 542.75 1368.46L557.12 1367.08C558.38 1372.7 562.78 1375.63 569.54 1375.63C576.54 1375.63 581.19 1372.41 581.19 1368.14C581.19 1364.6 578.5 1362.28 572.76 1361.01L562.09 1358.77C550.08 1356.29 544.46 1350.26 544.5 1341.14C544.46 1329.58 554.72 1322.16 569.79 1322.16C584.45 1322.16 592.92 1328.92 594.95 1339.51L581.5 1340.97Z" fill="white"/>
<path d="M672.05 1318.98C672.05 1328.43 669.16 1335.19 662.4 1338.32C664.56 1342.92 665.7 1348.38 665.7 1354.48C665.7 1373.82 654.05 1386.73 635.73 1386.73C617.41 1386.73 605.76 1373.82 605.76 1354.48C605.76 1335.1 617.41 1322.15 635.73 1322.15C645.26 1322.15 652.99 1325.65 658.21 1331.76C661.43 1329.52 662.2 1325 662.2 1318.97H672.05V1318.98ZM650.76 1354.45C650.76 1343.01 645.79 1333.85 635.82 1333.85C625.68 1333.85 620.71 1343.01 620.71 1354.45C620.71 1365.89 625.68 1374.93 635.82 1374.93C645.79 1374.93 650.76 1365.89 650.76 1354.45ZM630.15 1314.18L629.58 1306.36C635.32 1306.12 637.48 1304.85 637.44 1302.57C637.48 1299.64 633.86 1298.66 629.13 1298.66L629.5 1291.37C642.94 1291.37 650.02 1295.52 649.98 1302.28C650.02 1307.45 645.75 1309.77 641.39 1310.42V1314.17H630.15V1314.18Z" fill="white"/>
<path d="M741.67 1385.51H725.38L703.11 1322.97H718.83L733.2 1369.43H733.85L748.26 1322.97H763.94L741.67 1385.51Z" fill="white"/>
<path d="M769.35 1367.97C769.35 1353.88 780.95 1350.26 793.09 1348.95C804.13 1347.77 808.56 1347.57 808.56 1343.33V1343.09C808.56 1336.94 804.81 1333.44 797.97 1333.44C790.76 1333.44 786.61 1337.1 785.14 1341.38L771.38 1339.43C774.64 1328.03 784.74 1322.17 797.89 1322.17C809.82 1322.17 823.3 1327.14 823.3 1343.67V1385.53H809.13V1376.94H808.64C805.95 1382.19 800.09 1386.79 790.28 1386.79C778.34 1386.78 769.35 1380.26 769.35 1367.97ZM798.54 1305.06L790.27 1315.48H777.36V1314.91L792.75 1297.32H804.27L819.7 1314.91V1315.48H806.79L798.54 1305.06ZM808.6 1363.08V1355.71C806.69 1357.26 798.95 1358.23 795.08 1358.76C788.48 1359.7 783.56 1362.06 783.56 1367.72C783.56 1373.14 787.96 1375.95 794.11 1375.95C802.98 1375.95 808.6 1370.04 808.6 1363.08ZM789.42 1400.01C789.42 1395.57 793.25 1391.99 797.97 1391.99C802.65 1391.99 806.48 1395.57 806.48 1400.01C806.48 1404.41 802.65 1407.99 797.97 1407.99C793.25 1407.99 789.42 1404.41 789.42 1400.01Z" fill="white"/>
<path d="M869.38 1334.37H857.05V1366.7C857.05 1372.65 860.02 1373.95 863.73 1373.95C865.56 1373.95 867.23 1373.58 868.05 1373.38L870.53 1384.9C868.94 1385.43 866.05 1386.24 861.86 1386.37C850.78 1386.7 842.23 1380.91 842.32 1369.15V1334.38H833.44V1322.98H842.32V1308H857.05V1322.98H869.39V1334.37H869.38Z" fill="white"/>
<path d="M907.49 1354.49C907.49 1335.39 919.05 1322.16 937.38 1322.16C952.65 1322.16 963.24 1331.08 964.25 1344.64H950.16C949.02 1338.61 944.66 1334.05 937.58 1334.05C928.5 1334.05 922.43 1341.62 922.43 1354.25C922.43 1367.04 928.38 1374.73 937.58 1374.73C944.05 1374.73 948.9 1370.86 950.16 1364.14H964.25C963.19 1377.41 953.17 1386.74 937.46 1386.74C918.77 1386.74 907.49 1373.42 907.49 1354.49Z" fill="white"/>
<path d="M991.11 1385.51H976.37V1302.12H990.78V1333.6H991.51C994.4 1326.51 1000.51 1322.16 1010.12 1322.16C1023.11 1322.16 1031.66 1330.59 1031.66 1345.7V1385.52H1016.92V1347.98C1016.92 1339.55 1012.36 1334.62 1004.62 1334.62C996.72 1334.62 991.1 1339.83 991.1 1348.87V1385.51H991.11Z" fill="white"/>
<path d="M1043.71 1367.97C1043.71 1353.88 1055.31 1350.26 1067.45 1348.95C1078.48 1347.77 1082.92 1347.57 1082.92 1343.33V1343.09C1082.92 1336.94 1079.17 1333.44 1072.33 1333.44C1065.12 1333.44 1060.97 1337.1 1059.5 1341.38L1045.74 1339.43C1049 1328.03 1059.1 1322.17 1072.25 1322.17C1084.18 1322.17 1097.66 1327.14 1097.66 1343.67V1385.53H1083.49V1376.94H1083C1080.31 1382.19 1074.45 1386.79 1064.64 1386.79C1052.71 1386.78 1043.71 1380.26 1043.71 1367.97ZM1068.26 1302.41H1077.46L1094.03 1315.81H1081.77L1072.93 1308.32L1064.05 1315.81H1051.75L1068.26 1302.41ZM1082.96 1363.08V1355.71C1081.05 1357.26 1073.31 1358.23 1069.44 1358.76C1062.84 1359.7 1057.92 1362.06 1057.92 1367.72C1057.92 1373.14 1062.32 1375.95 1068.47 1375.95C1077.34 1375.95 1082.96 1370.04 1082.96 1363.08ZM1098.72 1292.64H1111.67L1099.09 1307.67H1089.68L1098.72 1292.64Z" fill="white"/>
<path d="M1143.75 1334.37H1131.41V1366.7C1131.41 1372.65 1134.38 1373.95 1138.09 1373.95C1139.92 1373.95 1141.59 1373.58 1142.41 1373.38L1144.89 1384.9C1143.3 1385.43 1140.41 1386.24 1136.22 1386.37C1125.14 1386.7 1116.59 1380.91 1116.68 1369.15V1334.38H1107.8V1322.98H1116.68V1308H1131.42V1322.98H1143.76V1334.37H1143.75Z" fill="white"/>
<path d="M459.54 889.6C458.97 889.63 458.39 889.67 457.82 889.7C458.39 889.66 458.97 889.63 459.54 889.6Z" fill="#D84263"/>
<path d="M1182.46 799.68C1183.15 794.03 1183.54 788.3 1183.54 782.47C1183.54 704.57 1120.39 641.43 1042.5 641.43C1022.89 641.43 1004.23 645.44 987.26 652.67C951.78 563.01 864.33 499.57 762.04 499.57C665.92 499.57 582.88 555.58 543.78 636.73C525.44 626.25 504.22 620.23 481.59 620.23C412.25 620.23 356.04 676.44 356.04 745.78C356.04 777.33 367.71 806.14 386.92 828.2C314.93 830.81 257.36 889.95 257.36 962.58C257.36 992.53 267.15 1020.19 283.71 1042.55H622.07H1091.15H1305.11C1313.54 1021.65 1318.19 998.82 1318.19 974.9C1318.19 890.58 1260.51 819.75 1182.46 799.68Z" fill="#E5E6F3"/>
<path d="M1106.01 754.93C1104.08 754.93 1103.24 754.08 1103.24 752.16V748H1092.68C1090.75 748 1089.91 747.15 1089.91 745.23V736.21C1089.91 734.28 1090.76 733.44 1092.68 733.44H1113.42C1114.73 733.44 1115.42 732.44 1115.42 731.2C1115.42 729.43 1114.73 728.73 1113.42 728.58L1101.86 726.96C1094.61 725.88 1089.91 722.8 1089.91 714.16V706.06C1089.91 698.04 1094.84 693.42 1103.25 692.65V688.33C1103.25 686.4 1104.1 685.56 1106.02 685.56H1117.2C1119.13 685.56 1119.98 686.41 1119.98 688.33V692.49H1127.46C1129.39 692.49 1130.24 693.34 1130.24 695.26V704.43C1130.24 706.36 1129.39 707.21 1127.46 707.21H1109.5C1108.19 707.21 1107.42 708.14 1107.42 709.52C1107.42 710.91 1108.19 711.83 1109.5 711.99L1120.99 713.53C1128.24 714.61 1133.02 717.69 1133.02 726.33V734.42C1133.02 742.28 1128.16 746.99 1119.99 747.83V752.15C1119.99 754.08 1119.14 754.92 1117.21 754.92H1106.01V754.93Z" fill="#F16B81" stroke="#F16B81" stroke-width="0.6908" stroke-miterlimit="10"/>
<path d="M488.18 886.65L492.38 889.53C494.11 887.01 495.4 884.24 496.22 881.29L491.32 879.93C491.54 879.14 491.72 878.33 491.86 877.5C492.2 875.41 492.24 873.34 492.01 871.34L497.07 870.78C496.73 867.75 495.9 864.81 494.59 862.04L489.98 864.22C488.74 861.6 487.01 859.24 484.89 857.27L488.36 853.53C486.12 851.45 483.57 849.76 480.78 848.53L478.71 853.18C476.98 852.41 475.12 851.84 473.17 851.52L473.99 846.5C470.97 846.01 467.92 846.01 464.92 846.52L465.76 851.55C462.87 852.04 460.13 853.08 457.69 854.59L455.02 850.24C452.42 851.83 450.12 853.83 448.17 856.17L452.09 859.43C450.27 861.62 448.84 864.18 447.94 867L443.09 865.46C442.68 866.74 442.37 868.06 442.15 869.39C441.88 871.05 441.76 872.74 441.79 874.42L446.88 874.32C446.94 877.28 447.58 880.13 448.7 882.76L444.01 884.77C445.21 887.57 446.85 890.14 448.89 892.4L452.68 888.99C454.6 891.12 456.92 892.91 459.56 894.2L457.33 898.78C459.76 899.97 462.35 900.79 465.03 901.23C465.36 901.28 465.69 901.33 466.02 901.37L466.66 896.32C469.62 896.7 472.53 896.48 475.27 895.75L476.57 900.68C479.51 899.9 482.3 898.65 484.84 896.96L482.02 892.71C484.43 891.1 486.53 889.05 488.18 886.65ZM455.21 871.51C456.5 863.62 463.97 858.25 471.85 859.54C479.74 860.83 485.11 868.3 483.82 876.18C482.53 884.07 475.06 889.44 467.17 888.15C459.29 886.87 453.92 879.4 455.21 871.51Z" fill="#18BECA"/>
<path d="M961.76 506.32L968.35 510.85C971.06 506.9 973.09 502.55 974.38 497.92L966.68 495.78C967.03 494.54 967.31 493.27 967.52 491.97C968.06 488.69 968.11 485.45 967.76 482.3L975.71 481.42C975.18 476.66 973.87 472.05 971.83 467.7L964.59 471.11C962.65 467 959.94 463.29 956.61 460.2L962.05 454.34C958.53 451.07 954.53 448.43 950.15 446.49L946.91 453.79C944.19 452.58 941.28 451.69 938.21 451.19L939.5 443.31C934.76 442.53 929.97 442.54 925.26 443.33L926.59 451.22C922.05 451.99 917.76 453.62 913.92 455.98L909.73 449.16C905.65 451.66 902.04 454.8 898.99 458.47L905.15 463.58C902.29 467.02 900.05 471.03 898.64 475.46L891.03 473.05C890.39 475.06 889.9 477.13 889.56 479.22C889.13 481.83 888.94 484.48 888.99 487.11L896.98 486.96C897.07 491.6 898.07 496.08 899.84 500.2L892.48 503.35C894.36 507.74 896.94 511.77 900.13 515.33L906.08 509.98C909.09 513.33 912.73 516.12 916.88 518.15L913.37 525.33C917.18 527.19 921.24 528.48 925.45 529.17C925.96 529.25 926.48 529.33 927 529.4L928.01 521.47C932.66 522.06 937.23 521.72 941.52 520.58L943.56 528.31C948.18 527.09 952.55 525.13 956.54 522.47L952.11 515.8C955.88 513.3 959.16 510.09 961.76 506.32ZM910.02 482.57C912.04 470.19 923.76 461.77 936.14 463.79C948.52 465.81 956.94 477.53 954.92 489.91C952.9 502.29 941.18 510.71 928.8 508.69C916.42 506.66 908 494.94 910.02 482.57Z" fill="#18BECA"/>
<path d="M823.36 371.68C822.84 371.61 822.32 371.54 821.8 371.45C817.55 370.75 813.44 369.45 809.59 367.57L809.17 367.37L812.68 360.19C808.84 358.25 805.4 355.65 802.47 352.46L796.51 357.81L796.2 357.47C792.97 353.87 790.37 349.8 788.47 345.36L788.29 344.93L795.65 341.78C793.99 337.78 793.08 333.57 792.94 329.26L784.94 329.41L784.93 328.95C784.88 326.29 785.07 323.61 785.5 320.98C785.84 318.87 786.35 316.77 786.99 314.75L787.13 314.31L794.75 316.73C796.11 312.63 798.18 308.86 800.91 305.49L794.75 300.38L795.05 300.02C798.13 296.31 801.79 293.14 805.91 290.61L806.3 290.37L810.49 297.2C814.21 294.98 818.23 293.47 822.47 292.69L821.14 284.8L821.6 284.72C823.99 284.32 826.43 284.11 828.85 284.11C831.22 284.11 833.62 284.31 835.98 284.69L836.44 284.76L835.15 292.64C837.88 293.12 840.54 293.92 843.08 295.01L846.32 287.71L846.74 287.9C851.16 289.86 855.21 292.54 858.77 295.84L859.11 296.15L853.66 302.02C856.78 305 859.32 308.46 861.21 312.34L868.45 308.92L868.65 309.34C870.72 313.73 872.04 318.39 872.58 323.2L872.63 323.66L864.68 324.54C864.99 327.66 864.89 330.8 864.39 333.88C864.21 335 863.96 336.15 863.66 337.29L871.36 339.43L871.24 339.88C869.94 344.55 867.89 348.95 865.15 352.94L864.89 353.32L858.29 348.79C855.81 352.3 852.74 355.32 849.17 357.76L853.6 364.43L853.21 364.69C849.17 367.37 844.76 369.36 840.09 370.59L839.64 370.71L837.6 362.97C834.76 363.68 831.83 364.05 828.9 364.05C827.54 364.05 826.17 363.97 824.82 363.82L823.81 371.75L823.36 371.68ZM828.88 305.78C817.92 305.78 808.67 313.64 806.9 324.47C804.92 336.6 813.17 348.08 825.29 350.06C826.48 350.26 827.7 350.35 828.9 350.35C839.86 350.35 849.11 342.49 850.88 331.66C852.86 319.53 844.61 308.05 832.48 306.07C831.29 305.88 830.08 305.78 828.88 305.78Z" fill="#18BECA"/>
<path d="M828.85 284.56C831.2 284.56 833.56 284.75 835.91 285.14L834.62 293.02C837.69 293.52 840.6 294.41 843.32 295.62L846.56 288.32C850.94 290.26 854.94 292.91 858.46 296.17L853.02 302.03C856.35 305.13 859.06 308.83 861 312.94L868.24 309.53C870.29 313.87 871.6 318.49 872.12 323.25L864.17 324.13C864.52 327.28 864.47 330.52 863.93 333.8C863.72 335.1 863.43 336.37 863.09 337.61L870.79 339.75C869.5 344.38 867.48 348.72 864.76 352.68L858.17 348.15C855.58 351.92 852.29 355.13 848.52 357.63L852.95 364.3C848.96 366.95 844.59 368.92 839.97 370.14L837.93 362.41C835.03 363.18 832 363.59 828.9 363.59C827.42 363.59 825.92 363.5 824.42 363.31L823.41 371.24C822.9 371.17 822.38 371.1 821.86 371.02C817.65 370.33 813.59 369.04 809.78 367.18L813.29 360C809.15 357.97 805.5 355.18 802.5 351.83L796.55 357.18C793.35 353.62 790.78 349.59 788.9 345.2L796.26 342.05C794.49 337.93 793.49 333.45 793.4 328.81L785.41 328.96C785.36 326.33 785.55 323.68 785.98 321.07C786.32 318.98 786.82 316.91 787.45 314.9L795.06 317.32C796.47 312.89 798.71 308.88 801.57 305.44L795.41 300.33C798.46 296.65 802.08 293.52 806.15 291.02L810.34 297.84C814.18 295.48 818.47 293.84 823.01 293.08L821.68 285.19C824.05 284.76 826.45 284.56 828.85 284.56ZM828.9 350.81C839.84 350.81 849.51 342.87 851.34 331.73C853.36 319.35 844.94 307.63 832.56 305.61C831.32 305.41 830.09 305.31 828.88 305.31C817.94 305.31 808.27 313.25 806.44 324.39C804.42 336.77 812.84 348.49 825.22 350.51C826.45 350.72 827.68 350.81 828.9 350.81ZM828.85 283.64C826.4 283.64 823.93 283.85 821.52 284.25L820.61 284.4L820.76 285.31L821.93 292.3C817.95 293.08 814.16 294.5 810.64 296.55L806.93 290.51L806.45 289.72L805.66 290.2C801.5 292.76 797.81 295.96 794.69 299.71L794.1 300.42L794.81 301.01L800.26 305.54C797.73 308.74 795.78 312.3 794.46 316.13L787.72 313.99L786.84 313.71L786.56 314.59C785.91 316.64 785.4 318.76 785.06 320.89C784.62 323.55 784.43 326.26 784.48 328.95L784.5 329.88L785.43 329.86L792.51 329.72C792.69 333.78 793.55 337.74 795.06 341.52L788.54 344.31L787.69 344.67L788.05 345.52C789.97 350.01 792.6 354.12 795.86 357.75L796.48 358.44L797.17 357.82L802.44 353.08C805.24 356.05 808.47 358.49 812.06 360.37L808.95 366.73L808.54 367.56L809.37 367.97C813.26 369.87 817.41 371.19 821.71 371.89C822.23 371.98 822.76 372.05 823.29 372.12L824.21 372.24L824.33 371.32L825.22 364.3C826.44 364.42 827.68 364.49 828.9 364.49C831.72 364.49 834.52 364.16 837.27 363.51L839.08 370.36L839.32 371.26L840.22 371.02C844.94 369.77 849.4 367.77 853.48 365.06L854.25 364.55L853.74 363.78L849.82 357.87C853.15 355.53 856.04 352.7 858.42 349.42L864.26 353.43L865.02 353.95L865.54 353.19C868.31 349.15 870.38 344.71 871.7 339.99L871.95 339.1L871.06 338.85L864.25 336.96C864.51 335.95 864.72 334.94 864.88 333.94C865.36 330.97 865.48 327.95 865.22 324.94L872.26 324.16L873.18 324.06L873.08 323.14C872.54 318.28 871.2 313.57 869.11 309.13L868.71 308.29L867.87 308.69L861.46 311.71C859.63 308.08 857.25 304.82 854.35 301.98L859.17 296.79L859.8 296.11L859.12 295.48C855.53 292.14 851.44 289.45 846.97 287.46L846.12 287.08L845.74 287.93L842.87 294.39C840.56 293.43 838.16 292.72 835.7 292.25L836.84 285.28L836.99 284.37L836.08 284.22C833.67 283.83 831.25 283.64 828.85 283.64ZM828.9 349.89C827.72 349.89 826.54 349.79 825.37 349.6C813.5 347.66 805.41 336.42 807.36 324.54C809.09 313.94 818.15 306.24 828.88 306.24C830.06 306.24 831.25 306.34 832.41 306.53C838.15 307.47 843.19 310.6 846.6 315.33C850.01 320.06 851.37 325.84 850.43 331.58C848.69 342.19 839.64 349.89 828.9 349.89Z" fill="#18BECA"/>
<path d="M816.16 411.09L828.73 412.65C829.66 405.11 829.34 397.52 827.77 390.08L815.39 392.69C814.97 390.69 814.45 388.7 813.8 386.71C812.16 381.71 809.87 377.11 807.08 372.93L817.61 365.89C813.39 359.58 808.19 354.05 802.14 349.44L794.45 359.52C788.72 355.16 782.2 351.92 775.26 350L778.64 337.78C771.31 335.75 763.75 334.96 756.17 335.42L756.94 348.05C752.23 348.33 747.49 349.21 742.81 350.74L738.87 338.72C731.64 341.09 724.91 344.59 718.87 349.14L726.49 359.26C720.67 363.65 715.83 369.08 712.15 375.2L701.28 368.66C697.37 375.16 694.57 382.2 692.97 389.59L705.36 392.29C703.85 399.21 703.62 406.48 704.88 413.75L692.41 415.91C692.98 419.19 693.8 422.47 694.84 425.66C696.14 429.64 697.81 433.51 699.8 437.17L710.93 431.12C714.44 437.58 719.12 443.15 724.62 447.65L716.57 457.45C722.42 462.25 728.98 466.04 736.07 468.71L740.54 456.84C747.21 459.36 754.38 460.63 761.68 460.45L761.99 473.11C768.7 472.95 775.36 471.8 781.78 469.69C782.56 469.43 783.35 469.16 784.12 468.88L779.75 457C786.72 454.44 792.89 450.62 798.1 445.89L806.62 455.28C812.23 450.19 816.94 444.25 820.62 437.6L809.52 431.46C812.99 425.2 815.26 418.28 816.16 411.09ZM728.44 414.66C722.68 397.08 732.3 378.09 749.88 372.33C767.46 366.57 786.45 376.19 792.21 393.77C797.97 411.35 788.35 430.34 770.77 436.1C753.19 441.86 734.2 432.24 728.44 414.66Z" fill="#F16B81"/>
<path d="M692.83 619.04L700.84 620.03C701.43 615.23 701.23 610.39 700.23 605.64L692.34 607.3C692.07 606.03 691.74 604.76 691.32 603.49C690.28 600.3 688.82 597.37 687.04 594.71L693.75 590.22C691.06 586.2 687.75 582.67 683.89 579.73L678.99 586.15C675.34 583.37 671.18 581.31 666.76 580.08L668.91 572.29C664.24 571 659.42 570.49 654.59 570.79L655.08 578.84C652.08 579.02 649.06 579.58 646.07 580.56L643.56 572.9C638.95 574.41 634.66 576.64 630.81 579.54L635.66 585.99C631.95 588.79 628.87 592.25 626.52 596.15L619.59 591.98C617.1 596.12 615.32 600.61 614.29 605.32L622.18 607.04C621.22 611.45 621.07 616.08 621.87 620.71L613.92 622.09C614.28 624.18 614.8 626.27 615.47 628.3C616.3 630.84 617.36 633.3 618.63 635.63L625.72 631.78C627.96 635.9 630.94 639.44 634.44 642.31L629.31 648.56C633.04 651.62 637.22 654.04 641.74 655.74L644.59 648.18C648.84 649.78 653.41 650.59 658.06 650.48L658.26 658.55C662.54 658.45 666.78 657.71 670.87 656.37C671.37 656.21 671.87 656.03 672.36 655.85L669.58 648.28C674.02 646.65 677.95 644.22 681.27 641.2L686.7 647.18C690.27 643.94 693.27 640.15 695.62 635.91L688.55 632C690.8 628.03 692.25 623.63 692.83 619.04ZM636.93 621.32C633.26 610.12 639.39 598.02 650.59 594.35C661.79 590.68 673.89 596.81 677.56 608.01C681.23 619.21 675.1 631.31 663.9 634.98C652.7 638.65 640.6 632.52 636.93 621.32Z" fill="white"/>
<path d="M1124.47 892.84L1130.16 893.54C1130.58 890.13 1130.44 886.69 1129.73 883.32L1124.12 884.5C1123.93 883.6 1123.69 882.69 1123.4 881.79C1122.66 879.53 1121.62 877.44 1120.36 875.55L1125.13 872.36C1123.22 869.5 1120.86 867 1118.13 864.91L1114.65 869.47C1112.06 867.5 1109.11 866.03 1105.96 865.16L1107.49 859.63C1104.17 858.71 1100.75 858.35 1097.32 858.56L1097.67 864.28C1095.54 864.41 1093.39 864.81 1091.27 865.5L1089.49 860.06C1086.22 861.13 1083.17 862.72 1080.44 864.78L1083.89 869.36C1081.26 871.35 1079.06 873.81 1077.4 876.58L1072.48 873.62C1070.71 876.56 1069.44 879.75 1068.72 883.1L1074.33 884.32C1073.64 887.45 1073.54 890.75 1074.11 894.03L1068.47 895.01C1068.73 896.5 1069.1 897.98 1069.57 899.42C1070.16 901.22 1070.92 902.97 1071.82 904.63L1076.86 901.89C1078.45 904.81 1080.57 907.33 1083.06 909.37L1079.42 913.81C1082.07 915.98 1085.04 917.7 1088.25 918.91L1090.27 913.54C1093.29 914.68 1096.54 915.25 1099.84 915.18L1099.98 920.91C1103.02 920.84 1106.03 920.32 1108.94 919.36C1109.29 919.24 1109.65 919.12 1110 918.99L1108.02 913.61C1111.17 912.45 1113.97 910.72 1116.33 908.58L1120.18 912.83C1122.72 910.53 1124.85 907.83 1126.52 904.83L1121.5 902.05C1123.03 899.22 1124.06 896.09 1124.47 892.84ZM1084.76 894.45C1082.15 886.49 1086.51 877.9 1094.47 875.29C1102.43 872.68 1111.02 877.04 1113.63 885C1116.24 892.96 1111.88 901.55 1103.92 904.16C1095.96 906.77 1087.36 902.41 1084.76 894.45Z" fill="white"/>
<path d="M1094.2 939.75L1097.08 940.11C1097.29 938.38 1097.22 936.64 1096.86 934.94L1094.02 935.54C1093.92 935.08 1093.8 934.62 1093.66 934.17C1093.28 933.02 1092.76 931.97 1092.12 931.01L1094.53 929.4C1093.56 927.95 1092.37 926.69 1090.98 925.63L1089.22 927.94C1087.91 926.94 1086.41 926.2 1084.82 925.76L1085.59 922.96C1083.91 922.5 1082.18 922.31 1080.44 922.42L1080.62 925.31C1079.54 925.37 1078.45 925.58 1077.38 925.93L1076.48 923.18C1074.82 923.72 1073.28 924.53 1071.9 925.57L1073.65 927.89C1072.32 928.9 1071.21 930.14 1070.36 931.54L1067.87 930.04C1066.97 931.53 1066.33 933.14 1065.96 934.84L1068.8 935.46C1068.45 937.05 1068.4 938.71 1068.69 940.38L1065.83 940.87C1065.96 941.62 1066.15 942.37 1066.39 943.1C1066.69 944.01 1067.07 944.9 1067.53 945.74L1070.08 944.35C1070.89 945.83 1071.96 947.11 1073.22 948.14L1071.38 950.39C1072.72 951.49 1074.22 952.36 1075.85 952.97L1076.87 950.25C1078.4 950.83 1080.04 951.12 1081.72 951.08L1081.79 953.98C1083.33 953.94 1084.85 953.68 1086.33 953.2C1086.51 953.14 1086.69 953.08 1086.87 953.01L1085.87 950.29C1087.47 949.7 1088.88 948.83 1090.08 947.74L1092.03 949.89C1093.32 948.72 1094.39 947.36 1095.24 945.84L1092.7 944.43C1093.47 942.98 1093.99 941.4 1094.2 939.75ZM1074.09 940.57C1072.77 936.54 1074.97 932.19 1079 930.87C1083.03 929.55 1087.38 931.75 1088.7 935.78C1090.02 939.81 1087.82 944.16 1083.79 945.48C1079.77 946.8 1075.41 944.6 1074.09 940.57Z" fill="white"/>
<path d="M790.59 1023.29L796.31 1022.41" stroke="#625EA9" stroke-width="2.8932" stroke-linecap="round" stroke-linejoin="round"/>
<path d="M807.72 1020.65L1235.3 954.75" stroke="#625EA9" stroke-width="2.8932" stroke-linecap="round" stroke-linejoin="round" stroke-dasharray="11.54 11.54"/>
<path d="M1241 953.87L1246.72 952.99" stroke="#625EA9" stroke-width="2.8932" stroke-linecap="round" stroke-linejoin="round"/>
<path d="M1243.32 1016.48C1278.87 1016.48 1307.69 987.661 1307.69 952.11C1307.69 916.56 1278.87 887.74 1243.32 887.74C1207.77 887.74 1178.95 916.56 1178.95 952.11C1178.95 987.661 1207.77 1016.48 1243.32 1016.48Z" fill="white" stroke="#625EA9" stroke-width="6.7509" stroke-miterlimit="10"/>
<path d="M1283.37 971.96C1283.37 973.7 1281.96 975.1 1280.23 975.1H1208.31C1206.57 975.1 1205.17 973.69 1205.17 971.96V927.97C1205.17 926.23 1206.58 924.83 1208.31 924.83H1280.23C1281.97 924.83 1283.37 926.24 1283.37 927.97V971.96Z" fill="#18BECA"/>
<path d="M1283.37 927.97C1283.37 926.34 1282.13 925.02 1280.54 924.86L1243.57 953.26L1206.96 925.14C1205.9 925.64 1205.16 926.72 1205.16 927.97V929.04L1243.57 958.54L1283.37 927.97Z" fill="white"/>
<path d="M1348.44 709.85L1343.26 712.43" stroke="#625EA9" stroke-width="2.8932" stroke-linecap="round" stroke-linejoin="round"/>
<path d="M1332.9 717.59L737.35 1014.33" stroke="#625EA9" stroke-width="2.8932" stroke-linecap="round" stroke-linejoin="round" stroke-dasharray="11.57 11.57"/>
<path d="M732.17 1016.91L726.99 1019.49" stroke="#625EA9" stroke-width="2.8932" stroke-linecap="round" stroke-linejoin="round"/>
<path d="M1433.15 794.623C1479.95 747.819 1479.95 671.935 1433.15 625.131C1386.34 578.327 1310.46 578.327 1263.65 625.131C1216.85 671.935 1216.85 747.819 1263.65 794.623C1310.46 841.427 1386.34 841.427 1433.15 794.623Z" fill="white" stroke="#625EA9" stroke-width="6.7509" stroke-miterlimit="10"/>
<path d="M769.76 1019.97L773.16 1015.29" stroke="#625EA9" stroke-width="2.8932" stroke-linecap="round" stroke-linejoin="round"/>
<path d="M780.04 1005.84L1106.5 556.62" stroke="#625EA9" stroke-width="2.8932" stroke-linecap="round" stroke-linejoin="round" stroke-dasharray="11.69 11.69"/>
<path d="M1109.93 551.89L1113.33 547.21" stroke="#625EA9" stroke-width="2.8932" stroke-linecap="round" stroke-linejoin="round"/>
<path d="M1187.91 621.864C1229.13 580.652 1229.13 513.835 1187.91 472.623C1146.7 431.411 1079.88 431.411 1038.67 472.623C997.462 513.835 997.462 580.652 1038.67 621.863C1079.89 663.075 1146.7 663.075 1187.91 621.864Z" fill="white" stroke="#625EA9" stroke-width="6.7509" stroke-miterlimit="10"/>
<path d="M1170.12 495.6H1107.45V574.99H1170.12V495.6Z" fill="#F9A767"/>
<path d="M1098.05 519.19V577.68" stroke="#18BECA" stroke-width="1.9899" stroke-miterlimit="10" stroke-linecap="round" stroke-linejoin="round"/>
<path d="M1119.26 519.19V577.68" stroke="#18BECA" stroke-width="1.9899" stroke-miterlimit="10" stroke-linecap="round" stroke-linejoin="round"/>
<path d="M1140.46 522.84V577.68" stroke="#18BECA" stroke-width="1.9899" stroke-miterlimit="10" stroke-linecap="round" stroke-linejoin="round"/>
<path d="M1161.66 525.77V577.68" stroke="#18BECA" stroke-width="1.9899" stroke-miterlimit="10" stroke-linecap="round" stroke-linejoin="round"/>
<path d="M1084.52 539.6H1179.21" stroke="#18BECA" stroke-width="1.9899" stroke-miterlimit="10" stroke-linecap="round" stroke-linejoin="round"/>
<path d="M1089.64 558.98H1179.21" stroke="#18BECA" stroke-width="1.9899" stroke-miterlimit="10" stroke-linecap="round" stroke-linejoin="round"/>
<path d="M1043.47 499.53H1065.98L1097.36 576.68H1179.75V526.99L1072.52 512.6" stroke="#18BECA" stroke-width="2.6532" stroke-miterlimit="10" stroke-linecap="round" stroke-linejoin="round"/>
<path d="M1096.95 577.68L1085.59 597.61H1167.98" stroke="#18BECA" stroke-width="2.6532" stroke-miterlimit="10" stroke-linecap="round" stroke-linejoin="round"/>
<path d="M1062.59 495.6H1043.48C1041.31 495.6 1039.56 497.36 1039.56 499.52C1039.56 501.69 1041.32 503.44 1043.48 503.44H1062.59V495.6Z" fill="#F16B81"/>
<path d="M1086.72 607.29C1086.72 611.53 1090.16 614.97 1094.4 614.97C1098.64 614.97 1102.08 611.53 1102.08 607.29C1102.08 603.05 1098.64 599.61 1094.4 599.61C1090.15 599.61 1086.72 603.05 1086.72 607.29Z" fill="#2B2871"/>
<path d="M1094.39 610.49C1096.16 610.49 1097.59 609.057 1097.59 607.29C1097.59 605.522 1096.16 604.09 1094.39 604.09C1092.62 604.09 1091.19 605.522 1091.19 607.29C1091.19 609.057 1092.62 610.49 1094.39 610.49Z" fill="#9EA1D1"/>
<path d="M1151.43 607.29C1151.43 611.53 1154.87 614.97 1159.11 614.97C1163.35 614.97 1166.79 611.53 1166.79 607.29C1166.79 603.05 1163.35 599.61 1159.11 599.61C1154.86 599.61 1151.43 603.05 1151.43 607.29Z" fill="#2B2871"/>
<path d="M1159.1 610.49C1160.87 610.49 1162.3 609.057 1162.3 607.29C1162.3 605.522 1160.87 604.09 1159.1 604.09C1157.33 604.09 1155.9 605.522 1155.9 607.29C1155.9 609.057 1157.33 610.49 1159.1 610.49Z" fill="#9EA1D1"/>
<path d="M832.53 608.78L831.6 614.49" stroke="#625EA9" stroke-width="2.8932" stroke-linecap="round" stroke-linejoin="round"/>
<path d="M829.72 626.09L770.26 991.42" stroke="#625EA9" stroke-width="2.8932" stroke-linecap="round" stroke-linejoin="round" stroke-dasharray="11.75 11.75"/>
<path d="M769.32 997.22L768.39 1002.93" stroke="#625EA9" stroke-width="2.8932" stroke-linecap="round" stroke-linejoin="round"/>
<path d="M888.921 651.133C918.995 621.059 918.994 572.299 888.92 542.225C858.846 512.151 810.087 512.151 780.013 542.225C749.939 572.299 749.939 621.059 780.013 651.133C810.087 681.207 858.847 681.207 888.921 651.133Z" fill="white" stroke="#625EA9" stroke-width="6.7509" stroke-miterlimit="10"/>
<path d="M869.78 582.06C869.78 562.34 853.79 546.35 834.07 546.35C814.35 546.35 798.36 562.34 798.36 582.06C798.36 596.43 806.85 608.8 819.08 614.47V631.88C819.08 640.16 825.79 646.87 834.07 646.87C842.35 646.87 849.06 640.16 849.06 631.88V614.47C861.3 608.8 869.78 596.42 869.78 582.06Z" fill="#F9A767"/>
<path d="M826.58 623.94V589.55H841.57V623.94" stroke="white" stroke-width="0.6708" stroke-miterlimit="10" stroke-linecap="round" stroke-linejoin="round"/>
<path d="M817.85 623.05V637.47C817.85 646.31 825.01 653.47 833.85 653.47C842.69 653.47 849.85 646.31 849.85 637.47V623.05H817.85Z" fill="#2B2871"/>
<path d="M817.32 628.34H850.83" stroke="#625EA9" stroke-width="2.0124" stroke-miterlimit="10" stroke-linecap="round" stroke-linejoin="round"/>
<path d="M817.32 635.84H850.83" stroke="#625EA9" stroke-width="2.0124" stroke-miterlimit="10" stroke-linecap="round" stroke-linejoin="round"/>
<path d="M771.93 997.47L769.05 992.45" stroke="#625EA9" stroke-width="2.8932" stroke-linecap="round" stroke-linejoin="round"/>
<path d="M763.23 982.31L475.26 480.53" stroke="#625EA9" stroke-width="2.8932" stroke-linecap="round" stroke-linejoin="round" stroke-dasharray="11.69 11.69"/>
<path d="M472.35 475.46L469.47 470.44" stroke="#625EA9" stroke-width="2.8932" stroke-linecap="round" stroke-linejoin="round"/>
<path d="M553.929 554.956C600.592 508.293 600.593 432.637 553.929 385.973C507.266 339.31 431.61 339.31 384.946 385.973C338.283 432.637 338.283 508.293 384.946 554.956C431.61 601.62 507.266 601.62 553.929 554.956Z" fill="white" stroke="#625EA9" stroke-width="6.7509" stroke-miterlimit="10"/>
<path d="M468.17 385.1C421.27 385.8 383.45 424.02 383.45 471.09C383.45 518.16 421.26 556.38 468.17 557.08V385.1Z" fill="#F16B81" stroke="#F16B81" stroke-width="0.9644" stroke-miterlimit="10"/>
<path d="M469.47 557.59C469.21 557.59 468.96 557.58 468.7 557.57C468.52 557.56 468.34 557.56 468.16 557.55C467.9 557.55 467.68 557.33 467.68 557.07V385.1C467.68 384.84 467.89 384.62 468.16 384.62C468.34 384.62 468.53 384.61 468.71 384.6C468.96 384.59 469.21 384.58 469.47 384.58C517.17 384.58 555.97 423.39 555.97 471.08C555.97 518.77 517.17 557.59 469.47 557.59Z" fill="#F9A767"/>
<path d="M469.47 385.07C516.98 385.07 555.49 423.58 555.49 471.09C555.49 518.6 516.98 557.11 469.47 557.11C469.03 557.11 468.6 557.08 468.17 557.08V385.1C468.6 385.1 469.03 385.07 469.47 385.07ZM469.47 384.11C469.21 384.11 468.95 384.12 468.7 384.13C468.52 384.14 468.34 384.14 468.16 384.15C467.63 384.16 467.21 384.59 467.21 385.11V557.09C467.21 557.62 467.63 558.05 468.16 558.05C468.34 558.05 468.52 558.06 468.7 558.07C468.96 558.08 469.22 558.09 469.47 558.09C517.43 558.09 556.46 519.07 556.46 471.1C556.45 423.13 517.43 384.11 469.47 384.11Z" fill="white"/>
<path d="M468.17 471.04C468.08 471.04 467.98 471.01 467.9 470.96C467.77 470.87 467.69 470.72 467.69 470.56V383.8C467.69 383.54 467.9 383.32 468.17 383.32C468.36 383.32 468.54 383.31 468.72 383.3C468.97 383.29 469.22 383.28 469.48 383.28C504.98 383.28 536.48 404.57 549.74 437.52C549.84 437.77 549.72 438.05 549.47 438.15L468.35 471C468.29 471.03 468.23 471.04 468.17 471.04Z" fill="#625EA9"/>
<path d="M469.47 383.77C505.63 383.77 536.56 406.09 549.28 437.71L468.16 470.56V383.8C468.6 383.79 469.03 383.77 469.47 383.77ZM469.47 382.8C469.21 382.8 468.95 382.81 468.69 382.82C468.51 382.83 468.33 382.83 468.15 382.84C467.62 382.85 467.2 383.28 467.2 383.8V470.56C467.2 470.88 467.36 471.18 467.63 471.36C467.79 471.47 467.98 471.52 468.17 471.52C468.29 471.52 468.42 471.5 468.53 471.45L549.65 438.6C550.14 438.4 550.38 437.84 550.18 437.35C543.77 421.43 532.89 407.86 518.72 398.09C504.19 388.09 487.16 382.8 469.47 382.8Z" fill="white"/>
<path d="M468.17 471.04C468.1 471.04 468.03 471.03 467.97 471C467.8 470.92 467.69 470.75 467.69 470.56V385.1C467.69 384.84 467.9 384.62 468.17 384.62C468.35 384.62 468.54 384.61 468.72 384.6C468.97 384.59 469.22 384.58 469.48 384.58C494.28 384.58 517.92 395.27 534.36 413.9C534.45 414 534.49 414.12 534.48 414.25C534.47 414.38 534.41 414.5 534.31 414.58L468.49 470.91C468.39 471 468.28 471.04 468.17 471.04Z" fill="#18BECA"/>
<path d="M469.47 385.07C495.17 385.07 518.23 396.36 533.99 414.23L468.17 470.56V385.1C468.6 385.1 469.03 385.07 469.47 385.07ZM469.47 384.11C469.21 384.11 468.95 384.12 468.69 384.13C468.51 384.14 468.33 384.14 468.15 384.15C467.62 384.16 467.2 384.59 467.2 385.11V470.56C467.2 470.94 467.42 471.28 467.76 471.44C467.89 471.5 468.03 471.53 468.16 471.53C468.39 471.53 468.61 471.45 468.79 471.3L534.61 414.97C534.81 414.8 534.93 414.56 534.94 414.3C534.96 414.04 534.87 413.79 534.7 413.59C518.18 394.85 494.4 384.11 469.47 384.11Z" fill="white"/>
<path d="M240.57 634.68L245.2 638.15" stroke="#625EA9" stroke-width="2.8932" stroke-linecap="round" stroke-linejoin="round"/>
<path d="M254.46 645.09L731.29 1002.49" stroke="#625EA9" stroke-width="2.8932" stroke-linecap="round" stroke-linejoin="round" stroke-dasharray="11.57 11.57"/>
<path d="M735.92 1005.96L740.55 1009.43" stroke="#625EA9" stroke-width="2.8932" stroke-linecap="round" stroke-linejoin="round"/>
<path d="M289.74 891.59L295.3 893.19" stroke="#625EA9" stroke-width="2.8932" stroke-miterlimit="10"/>
<path d="M306.26 896.35L760.99 1027.47" stroke="#625EA9" stroke-width="2.8932" stroke-miterlimit="10" stroke-dasharray="11.4 11.4"/>
<path d="M766.47 1029.05L772.03 1030.65" stroke="#625EA9" stroke-width="2.8932" stroke-miterlimit="10"/>
<path d="M371.058 967.049C413.812 924.294 413.812 854.976 371.058 812.222C328.304 769.468 258.986 769.468 216.232 812.222C173.477 854.976 173.477 924.294 216.232 967.049C258.986 1009.8 328.304 1009.8 371.058 967.049Z" fill="white"/>
<mask id="mask0_266_6032" style="mask-type:luminance" maskUnits="userSpaceOnUse" x="180" y="782" width="220" height="220">
<path d="M367.122 969.023C409.876 926.269 409.876 856.95 367.122 814.196C324.368 771.442 255.049 771.442 212.295 814.196C169.541 856.95 169.541 926.269 212.295 969.023C255.049 1011.78 324.368 1011.78 367.122 969.023Z" fill="white"/>
</mask>
<g mask="url(#mask0_266_6032)">
<path d="M322.279 919.77H307.069V881.7H272.459V919.77H257.249C239.729 919.77 225.529 933.97 225.529 951.49V971.58H354.019V951.5C353.999 933.98 339.799 919.77 322.279 919.77Z" fill="#ED7393"/>
<path d="M272.449 913.81C277.799 915.94 283.639 917.13 289.759 917.13C295.879 917.13 301.709 915.94 307.069 913.81V881.7H272.459V913.81H272.449Z" fill="#F05C79"/>
<path d="M322.279 919.77H315.119C315.119 919.95 315.149 920.119 315.149 920.299C315.149 934.899 303.309 946.74 288.709 946.74C274.109 946.74 262.269 934.899 262.269 920.299C262.269 920.119 262.289 919.95 262.299 919.77H257.249C239.729 919.77 225.529 933.97 225.529 951.49V1023.41H354.019V951.5C353.999 933.98 339.799 919.77 322.279 919.77Z" fill="#18BECA" stroke="#18BECA" stroke-width="0.9644" stroke-miterlimit="10"/>
<path d="M289.76 907.08C315.601 907.08 336.55 886.131 336.55 860.29C336.55 834.449 315.601 813.5 289.76 813.5C263.918 813.5 242.97 834.449 242.97 860.29C242.97 886.131 263.918 907.08 289.76 907.08Z" fill="#ED7393"/>
<path d="M342.9 860.29C342.9 830.94 319.11 807.15 289.76 807.15C260.41 807.15 236.62 830.94 236.62 860.29" stroke="#2B2871" stroke-width="3.1022" stroke-miterlimit="10"/>
<path d="M217.85 860.29C217.85 873.55 227.45 884.3 239.3 884.3C251.15 884.3 248.65 873.55 248.65 860.29C248.65 847.03 251.14 836.28 239.3 836.28C227.45 836.28 217.85 847.03 217.85 860.29Z" fill="#2B2871"/>
<path d="M363.079 860.29C363.079 873.55 353.48 884.3 341.63 884.3C329.78 884.3 332.28 873.55 332.28 860.29C332.28 847.03 329.79 836.28 341.63 836.28C353.47 836.28 363.079 847.03 363.079 860.29Z" fill="#2B2871"/>
</g>
<path d="M367.122 969.023C409.876 926.269 409.876 856.95 367.122 814.196C324.368 771.442 255.049 771.442 212.295 814.196C169.541 856.95 169.541 926.269 212.295 969.023C255.049 1011.78 324.368 1011.78 367.122 969.023Z" stroke="#625EA9" stroke-width="6.7509" stroke-miterlimit="10"/>
<path d="M965.18 1014.32C965.18 1019.99 960.59 1024.58 954.92 1024.58H581.52C575.85 1024.58 571.26 1019.99 571.26 1014.32V793.26C571.26 787.59 575.85 783 581.52 783H954.92C960.59 783 965.18 787.59 965.18 793.26V1014.32Z" fill="#FFF3EA"/>
<path d="M954.92 1030.5H581.52C572.6 1030.5 565.34 1023.24 565.34 1014.32V793.26C565.34 784.34 572.6 777.08 581.52 777.08H954.92C963.84 777.08 971.1 784.34 971.1 793.26V1014.32C971.1 1023.24 963.84 1030.5 954.92 1030.5ZM588.39 793.15C586.09 793.15 584.21 795.02 584.21 797.33V1010.26C584.21 1012.56 586.08 1014.44 588.39 1014.44H948.05C950.35 1014.44 952.23 1012.57 952.23 1010.26V797.32C952.23 795.02 950.36 793.14 948.05 793.14H588.39V793.15Z" fill="#121041"/>
<path d="M484.79 1009.88C484.26 1011.51 483.96 1013.25 483.96 1015.06V1025.84C483.96 1035.06 491.44 1042.54 500.66 1042.54H1035.79C1045.01 1042.54 1052.49 1035.06 1052.49 1025.84V1015.06C1052.49 1013.25 1052.19 1011.51 1051.66 1009.88H484.79Z" fill="#362F82"/>
<path d="M702.14 1009.88V1020.99C702.14 1027.07 707.07 1032 713.15 1032H823.3C829.38 1032 834.31 1027.07 834.31 1020.99V1009.88H702.14Z" fill="#121041"/>
<path opacity="0.2" d="M400.03 718.55H349.449V582.55C349.449 576.95 344.89 572.39 339.29 572.39H104.86C99.2596 572.39 94.6995 576.95 94.6995 582.55V718.55H44.1196C43.7896 719.57 43.5996 720.67 43.5996 721.8V728.57C43.5996 734.36 48.2896 739.06 54.0896 739.06H390.05C395.84 739.06 400.54 734.37 400.54 728.57V721.8C400.55 720.66 400.36 719.57 400.03 718.55Z" fill="#2B2871"/>
<path d="M335.4 711C335.4 714.56 332.52 717.44 328.96 717.44H94.5298C90.9698 717.44 88.0898 714.56 88.0898 711V572.211C88.0898 568.651 90.9698 565.771 94.5298 565.771H328.96C332.52 565.771 335.4 568.651 335.4 572.211V711Z" fill="#FFF3EA"/>
<path d="M328.96 721.15H94.53C88.93 721.15 84.3701 716.59 84.3701 710.99V572.21C84.3701 566.61 88.93 562.05 94.53 562.05H328.96C334.56 562.05 339.12 566.61 339.12 572.21V711C339.12 716.6 334.56 721.15 328.96 721.15ZM98.8501 572.14C97.4001 572.14 96.23 573.32 96.23 574.76V708.44C96.23 709.89 97.4101 711.06 98.8501 711.06H324.65C326.1 711.06 327.27 709.88 327.27 708.44V574.76C327.27 573.31 326.09 572.14 324.65 572.14H98.8501Z" fill="#BA2A4C"/>
<path d="M33.7998 708.21C33.4698 709.23 33.2798 710.33 33.2798 711.46V718.23C33.2798 724.02 37.9698 728.72 43.7698 728.72H379.73C385.52 728.72 390.22 724.03 390.22 718.23V711.46C390.22 710.32 390.03 709.23 389.7 708.21H33.7998Z" fill="#F1617C"/>
<path d="M170.25 708.21V715.18C170.25 719 173.35 722.09 177.17 722.09H246.32C250.14 722.09 253.24 718.99 253.24 715.18V708.21H170.25Z" fill="#BA2A4C"/>
<path d="M192.53 734.26L199.87 719.77L207.2 734.26H192.53Z" fill="#18BECA"/>
<path d="M224.11 556.14L216.78 570.64L209.439 556.14H224.11Z" fill="#18BECA"/>
<path opacity="0.2" d="M873.64 885.28H854.7V832.65C854.7 820.74 845.01 811.04 833.1 811.04H658.32C646.41 811.04 636.72 820.73 636.72 832.65V912.85C636.72 924.76 646.41 934.46 658.32 934.46H720.02V973.65C720.02 983.99 728.43 992.4 738.77 992.4H873.65C883.99 992.4 892.4 983.99 892.4 973.65V904.04C892.4 893.69 883.98 885.28 873.64 885.28Z" fill="#2B2871"/>
<path d="M847.2 911.6C847.2 918.52 841.59 924.13 834.67 924.13H641.69C634.77 924.13 629.16 918.52 629.16 911.6V820.12C629.16 813.2 634.77 807.59 641.69 807.59H834.67C841.59 807.59 847.2 813.2 847.2 820.12V911.6Z" fill="white" stroke="#18BECA" stroke-width="2" stroke-miterlimit="10"/>
<path d="M847.2 826.61V820.12C847.2 813.2 841.59 807.59 834.67 807.59H641.69C634.77 807.59 629.16 813.2 629.16 820.12V826.61H847.2Z" fill="#18BECA"/>
<path d="M643.56 820.84C645.835 820.84 647.68 818.995 647.68 816.72C647.68 814.444 645.835 812.6 643.56 812.6C641.284 812.6 639.44 814.444 639.44 816.72C639.44 818.995 641.284 820.84 643.56 820.84Z" fill="white"/>
<path d="M657.99 820.84C660.265 820.84 662.11 818.995 662.11 816.72C662.11 814.444 660.265 812.6 657.99 812.6C655.714 812.6 653.87 814.444 653.87 816.72C653.87 818.995 655.714 820.84 657.99 820.84Z" fill="white"/>
<path d="M672.43 820.84C674.705 820.84 676.55 818.995 676.55 816.72C676.55 814.444 674.705 812.6 672.43 812.6C670.154 812.6 668.31 814.444 668.31 816.72C668.31 818.995 670.154 820.84 672.43 820.84Z" fill="white"/>
<path d="M709.54 833.92H640.23V914.04H709.54V833.92Z" fill="#E5E6F3"/>
<path d="M834.08 833.92H721.06V861.25H834.08V833.92Z" fill="#E5E6F3"/>
<path d="M834.08 868.56H721.06V895.89H834.08V868.56Z" fill="#E5E6F3"/>
<path d="M884.79 970.59C884.79 977.51 879.18 983.12 872.26 983.12H716.87C709.95 983.12 704.34 977.51 704.34 970.59V890.39C704.34 883.47 709.95 877.86 716.87 877.86H872.26C879.18 877.86 884.79 883.47 884.79 890.39V970.59Z" fill="white" stroke="#F16B81" stroke-width="2" stroke-miterlimit="10"/>
<path d="M883.29 896.99V890.5C883.29 883.58 877.68 877.97 870.76 877.97H717.56C710.64 877.97 705.03 883.58 705.03 890.5V896.99H883.29Z" fill="#F16B81"/>
<path d="M719.44 891.219C721.715 891.219 723.56 889.375 723.56 887.099C723.56 884.824 721.715 882.979 719.44 882.979C717.165 882.979 715.32 884.824 715.32 887.099C715.32 889.375 717.165 891.219 719.44 891.219Z" fill="white"/>
<path d="M733.87 891.219C736.145 891.219 737.99 889.375 737.99 887.099C737.99 884.824 736.145 882.979 733.87 882.979C731.594 882.979 729.75 884.824 729.75 887.099C729.75 889.375 731.594 891.219 733.87 891.219Z" fill="white"/>
<path d="M748.3 891.219C750.575 891.219 752.42 889.375 752.42 887.099C752.42 884.824 750.575 882.979 748.3 882.979C746.024 882.979 744.18 884.824 744.18 887.099C744.18 889.375 746.024 891.219 748.3 891.219Z" fill="white"/>
<path d="M873.77 902.38H799.41V972.57H873.77V902.38Z" fill="#E5E6F3"/>
<path d="M715.44 910.73H791.05" stroke="#9EA1D1" stroke-width="2" stroke-miterlimit="10" stroke-linecap="round" stroke-linejoin="round"/>
<path d="M715.44 925.04H791.05" stroke="#9EA1D1" stroke-width="2" stroke-miterlimit="10" stroke-linecap="round" stroke-linejoin="round"/>
<path d="M715.44 939.35H791.05" stroke="#9EA1D1" stroke-width="2" stroke-miterlimit="10" stroke-linecap="round" stroke-linejoin="round"/>
<path d="M715.44 953.66H791.05" stroke="#9EA1D1" stroke-width="2" stroke-miterlimit="10" stroke-linecap="round" stroke-linejoin="round"/>
<path d="M715.44 967.97H752.2" stroke="#9EA1D1" stroke-width="2" stroke-miterlimit="10" stroke-linecap="round" stroke-linejoin="round"/>
<path d="M1342.82 665.68L1320.86 624.07L1376.34 626.38L1355.53 666.83L1342.82 665.68Z" fill="#F9A767"/>
<path d="M1331.91 645L1342.82 665.68L1355.53 666.84L1369.89 638.91C1357.2 640.73 1344.52 642.67 1331.91 645Z" fill="#EB7F37"/>
<path d="M1367.53 653.561H1331.4V667.571H1367.53V653.561Z" fill="#2B2871"/>
<path d="M1292.57 770.05C1292.57 782.27 1302.47 792.17 1314.69 792.17H1382.52C1394.74 792.17 1404.64 782.27 1404.64 770.05V681.58C1404.64 669.36 1394.74 659.46 1382.52 659.46H1314.69C1302.48 659.46 1292.57 669.36 1292.57 681.58V770.05Z" fill="#F9A767"/>
<path d="M1382.51 774.471H1314.68C1302.47 774.471 1292.56 764.571 1292.56 752.351V770.041C1292.56 782.261 1302.46 792.161 1314.68 792.161H1382.51C1394.73 792.161 1404.63 782.261 1404.63 770.041V752.351C1404.63 764.571 1394.73 774.471 1382.51 774.471Z" fill="#EB7F37"/>
<path d="M1343.19 752.03C1341.27 752.03 1340.43 751.19 1340.43 749.27V745.13H1329.93C1328.01 745.13 1327.17 744.29 1327.17 742.37V733.4C1327.17 731.48 1328.01 730.64 1329.93 730.64H1350.56C1351.86 730.64 1352.55 729.64 1352.55 728.42C1352.55 726.66 1351.86 725.97 1350.56 725.81L1339.06 724.2C1331.85 723.13 1327.18 720.06 1327.18 711.47V703.42C1327.18 695.45 1332.09 690.84 1340.44 690.08V685.79C1340.44 683.87 1341.28 683.03 1343.2 683.03H1354.32C1356.24 683.03 1357.08 683.87 1357.08 685.79V689.93H1364.52C1366.44 689.93 1367.28 690.77 1367.28 692.69V701.81C1367.28 703.73 1366.44 704.57 1364.52 704.57H1346.65C1345.35 704.57 1344.58 705.49 1344.58 706.87C1344.58 708.25 1345.35 709.17 1346.65 709.32L1358.08 710.85C1365.29 711.92 1370.04 714.99 1370.04 723.58V731.63C1370.04 739.45 1365.21 744.13 1357.08 744.97V749.26C1357.08 751.18 1356.24 752.02 1354.32 752.02H1343.19V752.03Z" fill="#2B2871"/>
</svg>
