<svg width="24" height="24" viewBox="0 0 24 24" fill="none" xmlns="http://www.w3.org/2000/svg">
<path d="M13.3592 16.202C13.3279 16.2158 13.2942 16.2312 13.2603 16.2456C13.0787 16.3215 12.8995 16.4041 12.7143 16.4702C12.6301 16.5003 12.5857 16.5442 12.555 16.627C12.4156 17.001 12.413 17 12.0081 17C11.6061 17 11.6025 17.0013 11.4608 16.627C11.4269 16.537 11.3749 16.4971 11.2878 16.4666C11.1199 16.408 10.9524 16.3432 10.795 16.2616C10.6958 16.2102 10.6171 16.2112 10.5185 16.2557C10.1779 16.41 10.1756 16.408 9.91376 16.1444C9.81156 16.0416 9.65646 15.9456 9.63132 15.8242C9.60781 15.7109 9.73189 15.5707 9.77597 15.4371C9.7936 15.3838 9.78609 15.3117 9.76584 15.2574C9.69695 15.0727 9.6225 14.8897 9.53859 14.7115C9.51018 14.651 9.45695 14.5891 9.39883 14.558C9.27965 14.4941 9.09909 14.4836 9.0377 14.3897C8.9724 14.2891 9.0119 14.1179 9.01125 13.9774C9.00962 13.5953 9.00897 13.5904 9.3639 13.4597C9.47393 13.4191 9.52226 13.3572 9.55654 13.2472C9.60944 13.0776 9.6976 12.9195 9.75833 12.7518C9.78087 12.6896 9.78707 12.6087 9.76813 12.5465C9.72862 12.4168 9.60748 12.2816 9.63066 12.1719C9.65548 12.0544 9.8047 11.9614 9.90429 11.8621C10.1756 11.5914 10.1776 11.5897 10.5319 11.7498C10.6213 11.7901 10.6906 11.7891 10.7807 11.7433C10.9387 11.6631 11.1062 11.5989 11.2737 11.5396C11.3638 11.5079 11.4229 11.4682 11.4595 11.372C11.6012 10.9987 11.6051 11 12.0071 11C12.4133 11 12.4166 10.9987 12.5537 11.3723C12.587 11.4627 12.6396 11.5029 12.7271 11.5337C12.9034 11.5963 13.0774 11.668 13.2456 11.7502C13.3266 11.7898 13.3883 11.7904 13.4686 11.7541C13.8366 11.5891 13.8386 11.5907 14.1187 11.873C14.2141 11.9692 14.3571 12.0599 14.3806 12.1735C14.4028 12.2796 14.3016 12.4162 14.2431 12.5334C14.2003 12.6198 14.2163 12.6863 14.2565 12.7692C14.3381 12.9381 14.3976 13.1179 14.4776 13.2875C14.5056 13.3474 14.5572 13.4162 14.615 13.4394C14.9984 13.595 15 13.5914 15 13.9971C15 14.4041 14.9987 14.4005 14.618 14.556C14.5598 14.5799 14.5066 14.647 14.4782 14.7073C14.3963 14.8815 14.3355 15.0655 14.251 15.2384C14.2118 15.3189 14.1971 15.3844 14.2438 15.4607C14.251 15.4725 14.2555 15.4862 14.2611 15.4993C14.409 15.8379 14.3894 15.8215 14.1468 16.1081C13.9355 16.3576 13.7347 16.4456 13.4552 16.2417C13.4304 16.224 13.3961 16.2171 13.3592 16.202ZM13.4157 14.0016C13.4167 13.2151 12.7832 12.5802 12.0015 12.5845C11.2257 12.5884 10.5942 13.2227 10.5939 13.998C10.5936 14.779 11.2368 15.4227 12.0117 15.4162C12.7917 15.4096 13.4147 14.7823 13.4157 14.0016Z" fill="#4E606E"/>
<path d="M11.9881 9.99916C10.9651 9.99916 9.94167 9.99996 8.91862 9.99916C8.32748 9.99876 7.9981 9.63574 8.00174 8.98092C8.00392 8.60829 7.98501 8.23005 8.03518 7.86462C8.1497 7.0289 8.60088 6.47655 9.30945 6.16435C9.64573 6.01626 9.90313 5.99224 10.2431 6.29043C11.3468 7.25904 12.929 7.15217 13.9779 6.10872C14.0927 5.99464 14.1844 5.97463 14.3301 6.02867C14.7522 6.18476 15.1612 6.35487 15.4713 6.73231C15.8069 7.14017 15.9825 7.61646 15.9956 8.16361C16.0029 8.4634 15.9996 8.76359 15.9967 9.06338C15.9916 9.61092 15.6469 9.99596 15.1492 9.99796C14.0949 10.002 13.0413 9.99876 11.9881 9.99916Z" fill="#627185"/>
<path d="M18.4961 20.9999C17.3611 20.9999 16.2261 21.0002 15.0911 20.9999C14.3437 20.9996 13.9848 20.7428 14.0005 20.1895C14.0102 19.8452 14.0039 19.4913 14.1126 19.1607C14.2798 18.6524 14.7699 18.328 15.4258 18.1215C15.8198 17.9976 16.0958 18.0035 16.4635 18.228C17.7039 18.984 19.5927 18.8992 20.8017 18.0743C20.927 17.9889 21.0252 17.9868 21.1737 18.0197C21.7781 18.1532 22.3058 18.3624 22.6515 18.7685C22.8695 19.024 22.9914 19.301 22.9969 19.6031C23.0011 19.8356 23.0007 20.0685 22.9977 20.3013C22.9922 20.7102 22.597 20.9937 22.0277 20.9999C22.0138 21.0002 21.9994 20.9999 21.9854 20.9999C20.8225 20.9999 19.6595 20.9999 18.4961 20.9999Z" fill="#627185"/>
<path d="M5.47587 20.9995C4.32876 20.9995 3.18165 21.0001 2.03454 20.9992C1.37374 20.9985 0.996017 20.7245 1.00151 20.2412C1.00489 19.942 0.980806 19.6375 1.04841 19.3451C1.18572 18.7489 1.68048 18.3553 2.4393 18.1179C2.82928 17.9959 3.09968 18.0083 3.45713 18.2252C4.69845 18.9786 6.60016 18.8975 7.79037 18.0787C7.91078 17.9959 8.00627 17.9838 8.15964 18.0176C8.83143 18.1657 9.41787 18.4034 9.72376 18.8879C9.86235 19.1074 9.93164 19.3572 9.97727 19.599C10.0191 19.8222 9.99121 20.0531 9.98699 20.2806C9.97938 20.7161 9.59575 20.9976 9.00254 20.9988C7.8267 21.001 6.65129 20.9995 5.47587 20.9995Z" fill="#627185"/>
<path d="M11.8972 5.99698C10.762 5.94487 9.9514 5.06869 10.0023 3.92672C10.0612 2.60365 11.1009 1.92485 12.16 2.00661C13.3354 2.09748 14.04 3.00722 13.9982 4.06808C13.9454 5.4019 12.9022 6.05008 11.8972 5.99698Z" fill="#627185"/>
<path d="M5.49299 18C4.07099 17.9966 2.9698 16.9153 3.00063 15.4986C3.03771 13.7867 4.33181 12.9855 5.52091 13.0002C6.94083 13.0174 8.00952 14.0932 7.99994 15.5167C7.98994 16.9464 6.92333 18.0033 5.49299 18Z" fill="#627185"/>
<path d="M18.5082 17.9999C17.0772 18.0024 16.0084 16.9428 16 15.5134C15.9917 14.0819 17.0709 13.0059 18.5065 13C19.71 12.995 20.9958 13.8085 21 15.5008C21.0042 17.1764 19.728 18.0091 18.5082 17.9999Z" fill="#627185"/>
<path d="M6.28559 9.93825C6.35419 9.89565 6.39618 9.86504 6.44234 9.84134C6.5869 9.76694 6.73243 9.78734 6.83629 9.89355C6.93406 9.99375 6.95906 10.1624 6.85745 10.2656C6.62954 10.4963 6.39265 10.7207 6.14423 10.9322C6.01569 11.0414 5.85157 11.0132 5.71245 10.8866C5.5134 10.7054 5.31722 10.5215 5.12329 10.3355C4.97039 10.1885 4.96045 10.0241 5.08931 9.89505C5.20952 9.77444 5.38389 9.77144 5.55058 9.88755C5.56725 9.89925 5.5836 9.91155 5.63424 9.94815C5.63424 9.86744 5.63424 9.81194 5.63424 9.75674C5.63424 8.15732 5.6336 6.5579 5.63456 4.95848C5.63488 4.51865 5.88683 4.17542 6.3029 4.05181C6.39842 4.02361 6.50132 4.00621 6.60101 4.00471C6.94784 3.99871 7.29531 3.99871 7.64214 4.00321C7.83094 4.00561 7.9582 4.09411 7.9909 4.23633C8.02231 4.37344 7.9723 4.48894 7.8428 4.55585C7.77709 4.58975 7.69054 4.59995 7.61329 4.60115C7.29307 4.60595 6.97252 4.60025 6.6523 4.60445C6.40067 4.60805 6.27662 4.72506 6.27662 4.95758C6.27533 6.5819 6.27597 8.20622 6.2763 9.83084C6.27662 9.85844 6.2811 9.88665 6.28559 9.93825Z" fill="#4E606E"/>
<path d="M18.3632 9.94784C18.4302 9.89986 18.4619 9.87347 18.4974 9.85218C18.6339 9.77121 18.8017 9.78981 18.9071 9.89566C19.0118 10.0006 19.0384 10.1581 18.9327 10.2657C18.7056 10.4969 18.4686 10.7206 18.2207 10.9323C18.0929 11.0415 17.9276 11.013 17.7892 10.8868C17.5907 10.7056 17.395 10.5212 17.2009 10.3359C17.059 10.2003 17.042 10.0306 17.1522 9.90526C17.2665 9.77511 17.4347 9.76342 17.6105 9.87407C17.6368 9.89056 17.6618 9.90826 17.7056 9.93765C17.7124 9.88757 17.7217 9.85158 17.7217 9.81589C17.7223 8.20224 17.7226 6.58889 17.7217 4.97523C17.7217 4.72363 17.6 4.60908 17.3299 4.60668C17.01 4.60368 16.6897 4.60728 16.3694 4.60518C16.1449 4.60368 16.0039 4.48973 16.0001 4.3137C15.9962 4.13767 16.1356 4.00992 16.3562 4.00662C16.7082 4.00122 17.0612 3.99373 17.4126 4.00932C17.9792 4.03451 18.3594 4.41626 18.3629 4.94614C18.3658 5.37587 18.3635 5.8053 18.3635 6.23503C18.3635 7.40906 18.3635 8.58309 18.3635 9.75682C18.3632 9.8102 18.3632 9.86328 18.3632 9.94784Z" fill="#4E606E"/>
</svg>
