<svg width="24" height="24" viewBox="0 0 24 24" fill="none" xmlns="http://www.w3.org/2000/svg">
<path d="M21.9943 11.8254C21.9943 11.9541 21.9943 12.054 21.9943 12.154C21.9943 14.0846 21.9949 16.0159 21.9937 17.9465C21.9931 19.2773 21.031 20.2441 19.6678 20.246C14.5557 20.2533 9.4436 20.2527 4.33147 20.246C2.96707 20.2441 2.00125 19.2785 2.00062 17.9514C1.99938 16.0208 2.00062 14.0895 2 12.1589C2 12.0577 2 11.9565 2 11.8169C2.75029 12.0613 3.47435 12.2979 4.19841 12.5332C6.60797 13.3159 9.01753 14.0987 11.4277 14.8796C11.8144 15.0052 12.203 14.9991 12.5891 14.8735C15.6084 13.8944 18.6277 12.9148 21.6476 11.9358C21.7544 11.9016 21.8619 11.8681 21.9943 11.8254Z" fill="#627185"/>
<path d="M2.05314 10.5382C2.05314 9.74328 1.98254 8.96542 2.07063 8.20524C2.18246 7.23962 3.13079 6.47212 4.13597 6.45505C5.51037 6.43188 6.88476 6.4453 8.25916 6.44347C8.3816 6.44347 8.50467 6.44347 8.6721 6.44347C8.6721 6.18316 8.67022 5.95334 8.67272 5.72352C8.68272 4.65853 9.33368 4.01234 10.4163 4.00503C11.4677 3.99832 12.5198 3.99832 13.5712 4.00503C14.6551 4.01173 15.3061 4.6567 15.3173 5.72108C15.3198 5.94359 15.3179 6.16609 15.3179 6.44347C15.4591 6.44347 15.5784 6.44347 15.6978 6.44347C16.9891 6.44347 18.2816 6.47639 19.5711 6.43493C20.9779 6.38982 22.0568 7.50419 21.9969 8.80631C21.9706 9.37386 21.9925 9.94324 21.9925 10.5321C21.1603 10.8034 20.3363 11.0728 19.5117 11.3411C17.1421 12.1122 14.7713 12.8797 12.4036 13.6564C12.1243 13.7478 11.8719 13.7496 11.5908 13.6576C8.5053 12.6475 5.41603 11.6471 2.32802 10.6431C2.22119 10.6071 2.11686 10.5626 2.05314 10.5382ZM13.6493 6.4264C13.6493 6.14049 13.6493 5.89177 13.6493 5.63756C12.5316 5.63756 11.4371 5.63756 10.3414 5.63756C10.3414 5.91311 10.3414 6.16183 10.3414 6.4264C11.4515 6.4264 12.5391 6.4264 13.6493 6.4264Z" fill="#4E606E"/>
</svg>
