<svg width="24" height="24" viewBox="0 0 24 24" fill="none" xmlns="http://www.w3.org/2000/svg">
<path d="M20.9998 6.43039C21.0034 6.3328 20.9613 6.30211 20.7959 6.30262C19.7387 6.30714 18.6816 6.30513 17.6245 6.30463C17.5542 6.30463 17.4835 6.3006 17.4096 6.29809V4.10221C17.6432 4.10221 17.8674 4.09618 18.0901 4.10423C18.2488 4.10976 18.3044 4.0831 18.3008 3.98047C18.2893 3.69523 18.2888 3.40949 18.3008 3.12426C18.3049 3.02113 18.2472 3.0005 18.0901 3.00101C16.4144 3.00402 14.7387 3.00302 13.063 3.00302C10.6788 3.00302 8.2945 3.00402 5.91076 3C5.73492 3 5.69382 3.03119 5.69799 3.13331C5.70891 3.41201 5.70163 3.69071 5.70163 3.9689C5.70163 4.10221 5.70215 4.10221 5.92325 4.10221H6.5876V6.30513H5.043C4.41924 6.30513 3.79495 6.30563 3.17066 6.30463C3.07286 6.30413 2.99846 6.30362 3.00002 6.38814C3.00627 6.70104 3.00419 7.01395 3.00106 7.32685C3.00054 7.38471 3.03488 7.40936 3.12904 7.40483C3.17951 7.40231 3.23049 7.40332 3.28095 7.40483C3.48125 7.40936 3.68154 7.41489 3.88131 7.41992C3.88807 7.54267 3.90004 7.66542 3.90004 7.78867C3.90108 9.81451 3.90056 11.8403 3.90056 13.8657V14H9.30481V11.2689H14.6981V13.9995H20.0977V9.00709C20.0977 8.51207 20.1024 8.01656 20.0935 7.52154C20.092 7.42244 20.1445 7.39728 20.2938 7.40282C20.4676 7.40936 20.6429 7.3998 20.8167 7.40584C20.9545 7.41087 21.0019 7.38471 20.9993 7.29717C20.9909 7.00841 20.9894 6.71915 20.9998 6.43039ZM5.71723 7.96776H7.48969V9.04432H5.71723V7.96776ZM7.33206 11.2603C6.84355 11.2553 6.35557 11.2578 5.86706 11.2588C5.77654 11.2588 5.70163 11.2593 5.70267 11.1813C5.70683 10.8553 5.70527 10.5289 5.70683 10.2029C5.70683 10.1898 5.71775 10.1772 5.72452 10.1616H7.49697V10.3895C7.49697 10.6436 7.49385 10.8976 7.49906 11.1517C7.50062 11.2276 7.47252 11.2618 7.33206 11.2603ZM13.7398 6.448H12.51V7.63674H11.4898V6.448H10.26V5.46099H11.4898V4.27175H12.51V5.46099H13.7398V6.448ZM18.2784 11.2583H17.8373C17.4445 11.2583 17.0517 11.2573 16.6589 11.2588C16.5627 11.2593 16.4987 11.2523 16.4997 11.1778C16.5044 10.8548 16.5023 10.5324 16.5034 10.2094C16.5034 10.1963 16.5106 10.1833 16.5174 10.1601H18.2784V11.2583ZM18.2795 9.05035H16.5169V7.96524H18.2795V9.05035Z" fill="#627185"/>
<path d="M3.66442 14.8963H6.00031C7.36335 14.8963 8.02354 15.4395 8.02354 16.3647C8.02354 16.8825 7.8066 17.4257 7.09439 17.6973V17.7141C7.97152 17.9349 8.34453 18.4949 8.34453 19.242C8.34453 20.2181 7.69319 20.9231 6.31298 20.9231H3.66494V14.8963H3.66442ZM5.86973 17.3159C6.3213 17.3159 6.58195 17.1205 6.58195 16.7218C6.58195 16.3739 6.39102 16.1358 5.7917 16.1358H5.07948V17.3159H5.86973ZM6.06951 19.6927C6.55593 19.6927 6.84207 19.4719 6.84207 19.0477C6.84207 18.6403 6.55541 18.3941 6.01696 18.3941H5.07948V19.6932H6.06951V19.6927Z" fill="#4E606E"/>
<path d="M9.0916 18.4104V14.8958H10.5504V18.3255C10.5504 19.064 10.9151 19.6754 11.6356 19.6754C12.2781 19.6754 12.7468 19.1831 12.7468 18.3255V14.8958H14.1967V18.4104C14.1967 19.9811 13.2764 20.9994 11.6351 20.9994C10.116 20.9999 9.0916 20.0828 9.0916 18.4104Z" fill="#4E606E"/>
<path d="M15.2393 14.8963H16.7069V17.3921H18.8779V14.8963H20.3367V20.9236H18.8779V18.6485H16.7069V20.9236H15.2393V14.8963Z" fill="#4E606E"/>
</svg>
