<svg width="24" height="24" viewBox="0 0 24 24" fill="none" xmlns="http://www.w3.org/2000/svg">
<path d="M8 13.9868C8 10.3157 8 6.66512 8 3C10.6678 3 13.3255 3 16 3C16 6.65608 16 10.3107 16 13.9878C15.9427 13.9903 15.8825 13.9954 15.8218 13.9954C15.2553 13.9959 14.6892 13.9893 14.1232 13.9994C13.9517 14.0024 13.9132 13.9462 13.9141 13.7895C13.9204 12.7845 13.9175 11.7791 13.917 10.7742C13.917 10.3594 13.8029 10.2479 13.3809 10.2474C12.456 10.2469 11.531 10.2469 10.6061 10.2474C10.2097 10.2479 10.0892 10.3659 10.0892 10.7556C10.0883 11.7671 10.0859 12.778 10.0921 13.7895C10.0931 13.9462 10.0546 14.0029 9.88306 13.9999C9.31704 13.9893 8.75053 13.9964 8.1845 13.9959C8.1291 13.9949 8.0737 13.9903 8 13.9868ZM12.0229 5.09773C11.4944 5.09773 10.9665 5.09672 10.438 5.09823C10.1644 5.09873 10.0912 5.16954 10.0902 5.43622C10.0883 5.92035 10.0883 6.40397 10.0902 6.8881C10.0912 7.15829 10.161 7.22609 10.437 7.22659C11.4809 7.2276 12.5248 7.2276 13.5687 7.22659C13.8448 7.22609 13.9161 7.15779 13.917 6.88961C13.9189 6.40548 13.9189 5.92185 13.917 5.43772C13.9161 5.17105 13.8419 5.09923 13.5702 5.09823C13.0543 5.09672 12.5383 5.09773 12.0229 5.09773Z" fill="#627185"/>
<path d="M17.0023 5C17.5965 5.13202 18.1372 5.25259 18.6773 5.37316C19.3456 5.52209 20.0114 5.67867 20.6833 5.81669C20.9186 5.86525 21.0005 5.94053 21 6.13475C20.9897 8.49973 20.9933 10.8647 20.9933 13.2297C20.9933 13.4353 20.9876 13.6416 20.9954 13.8472C20.9995 13.9585 20.9495 14.0005 20.7976 14C19.5995 13.9967 18.4018 13.9967 17.2037 14C17.058 14.0005 16.9895 13.9662 17.0013 13.8505C17.009 13.7763 17.0023 13.701 17.0023 13.6257C17.0023 10.8363 17.0023 8.04692 17.0023 5.2575C17.0023 5.1844 17.0023 5.11129 17.0023 5Z" fill="#627185"/>
<path d="M6.98092 5C6.98608 5.08029 6.99433 5.14583 6.99433 5.21137C6.99484 8.06024 6.99278 10.9091 7 13.7574C7.00051 13.9431 6.94587 14.0021 6.68913 13.9999C5.54878 13.9885 4.40843 13.9917 3.26808 13.9983C3.07011 13.9994 2.99949 13.9628 3 13.8022C3.00619 11.2221 3.00516 8.64192 3.00103 6.06177C3.00103 5.9296 3.04537 5.86788 3.22632 5.82801C4.42338 5.56748 5.61632 5.29494 6.8108 5.02676C6.85616 5.01693 6.90308 5.01202 6.98092 5Z" fill="#627185"/>
<path d="M2.99988 14.8962H5.33578C6.69883 14.8962 7.35902 15.4394 7.35902 16.3646C7.35902 16.8824 7.14208 17.4257 6.42986 17.6973V17.7141C7.307 17.9348 7.68001 18.4954 7.68001 19.2421C7.68001 20.2182 7.02866 20.9231 5.64845 20.9231H2.99988V14.8962ZM5.2052 17.3158C5.65678 17.3158 5.91742 17.1205 5.91742 16.7217C5.91742 16.3738 5.72649 16.1358 5.12716 16.1358H4.41495V17.3158H5.2052ZM5.40498 19.6927C5.89141 19.6927 6.17754 19.472 6.17754 19.0478C6.17754 18.6403 5.89089 18.3941 5.35243 18.3941H4.41495V19.6932H5.40498V19.6927Z" fill="#4E606E"/>
<path d="M8.50512 14.8962H9.96389L11.6745 18.0966H11.6916L13.3845 14.8962H14.8521V20.9236H13.4105V17.6042H13.3934L12.1432 19.8112H11.214L9.96389 17.5956H9.93788V20.9231H8.50512V14.8962Z" fill="#4E606E"/>
<path d="M15.8947 18.4109V14.8962H17.3535V18.326C17.3535 19.0645 17.7182 19.6759 18.4387 19.6759C19.0812 19.6759 19.55 19.1836 19.55 18.326V14.8962H20.9999V18.4109C20.9999 19.9816 20.0796 20.9999 18.4382 20.9999C16.9191 20.9999 15.8947 20.0834 15.8947 18.4109Z" fill="#4E606E"/>
</svg>
