<svg width="19" height="19" viewBox="0 0 19 19" fill="none" xmlns="http://www.w3.org/2000/svg">
<path d="M12.6669 4.29198C12.6669 4.64189 12.664 4.99217 12.6677 5.34208C12.6738 5.93324 13.0674 6.33097 13.6579 6.33495C14.3517 6.33966 15.0458 6.33531 15.7395 6.33676C16.2254 6.33785 16.4756 6.5954 16.4651 7.07825C16.4068 9.80873 13.9331 11.8104 11.2099 11.3312C9.2453 10.9852 7.76477 9.35304 7.6098 7.36115C7.45048 5.3189 8.65512 3.43821 10.5412 2.78837C11.0057 2.62826 11.484 2.53771 11.9768 2.53517C12.3903 2.533 12.6601 2.7909 12.6655 3.20529C12.6702 3.56752 12.6666 3.92975 12.6666 4.29162C12.6666 4.29198 12.6669 4.29198 12.6669 4.29198Z" fill="#4E606E"/>
<path d="M5.68704 16.4682C4.41977 16.4682 3.16264 16.4682 1.89355 16.4682C1.89355 16.3904 1.89355 16.3244 1.89355 16.2585C1.89355 13.5135 1.89355 10.7686 1.89355 8.0236C1.89355 7.35167 2.27482 6.97133 2.94792 6.97096C3.53304 6.9706 4.11779 6.96988 4.70291 6.97133C5.29093 6.97277 5.69464 7.37268 5.695 7.95876C5.69609 10.74 5.69573 13.5212 5.69537 16.3023C5.695 16.3549 5.68993 16.4078 5.68704 16.4682Z" fill="#4E606E"/>
<path d="M0 19C0 18.5845 0 18.1817 0 17.7629C6.32766 17.7629 12.651 17.7629 18.9884 17.7629C18.9884 18.1697 18.9884 18.5769 18.9884 19C12.6669 19 6.34395 19 0 19Z" fill="#627185"/>
<path d="M16.47 5.07003C15.8671 5.07003 15.2643 5.07112 14.6614 5.06967C14.2841 5.06895 14.0756 4.91391 13.9869 4.5477C13.9503 4.39701 13.9355 4.23763 13.9347 4.08223C13.9304 2.96041 13.9315 1.83859 13.9329 0.716764C13.9336 0.24152 14.1922 -0.00950487 14.6636 0.000275309C17.0359 0.0480895 18.9567 1.97116 18.9998 4.34195C19.0082 4.80452 18.7569 5.0675 18.297 5.06931C17.688 5.07184 17.079 5.07003 16.47 5.07003Z" fill="#4E606E"/>
<path d="M11.3855 16.4723C10.1186 16.4723 8.87162 16.4723 7.6058 16.4723C7.60218 16.4013 7.59639 16.3376 7.59639 16.2735C7.59566 15.2176 7.5953 14.1617 7.59639 13.1058C7.59711 12.4208 7.97693 12.0423 8.66017 12.0419C9.25108 12.0415 9.84235 12.0397 10.4333 12.0426C10.9691 12.0452 11.3884 12.4338 11.3942 12.9681C11.4062 14.1023 11.3989 15.2368 11.3986 16.3709C11.3986 16.4002 11.3913 16.4289 11.3855 16.4723Z" fill="#4E606E"/>
<path d="M8.85684 0.0134277C8.85684 0.429991 8.85684 0.832428 8.85684 1.2508C5.90736 1.2508 2.96367 1.2508 0.00585938 1.2508C0.00585938 0.843294 0.00585938 0.436149 0.00585938 0.0134277C2.94846 0.0134277 5.89251 0.0134277 8.85684 0.0134277Z" fill="#627185"/>
<path d="M17.0962 16.4688C15.8286 16.4688 14.5707 16.4688 13.3038 16.4688C13.3038 15.8968 13.2821 15.3354 13.3107 14.7764C13.3335 14.3302 13.7271 13.964 14.1782 13.9524C14.8593 13.9346 15.5418 13.9343 16.2229 13.9527C16.6751 13.9647 17.0658 14.3298 17.089 14.7782C17.1183 15.3364 17.0962 15.8979 17.0962 16.4688Z" fill="#4E606E"/>
<path d="M5.69083 2.54858C5.69083 2.96587 5.69083 3.36903 5.69083 3.78741C3.79717 3.78741 1.90821 3.78741 0.00585938 3.78741C0.00585938 3.37809 0.00585938 2.97094 0.00585938 2.54858C1.89518 2.54858 3.7845 2.54858 5.69083 2.54858Z" fill="#627185"/>
</svg>
