<svg width="60" height="60" viewBox="0 0 60 60" fill="none" xmlns="http://www.w3.org/2000/svg">
<path d="M43.1344 39.1276C43.6373 39.2278 44.1469 39.3034 44.6431 39.4347C48.2859 40.3916 50.8182 42.6302 52.1867 46.126C53.2726 48.9031 51.4168 51.5979 48.4327 51.6224C44.1958 51.6557 39.9612 51.6669 35.7243 51.6557C32.6312 51.6468 30.7376 48.823 31.9503 45.9814C33.577 42.1695 36.4542 39.8953 40.5642 39.2189C40.6777 39.2011 40.789 39.181 40.9003 39.1565C40.927 39.1499 40.9514 39.1254 41.056 39.0542C39.0422 38.6759 37.4534 37.7035 36.3541 36.039C35.2593 34.3812 34.9366 32.5543 35.4172 30.6183C36.1939 27.4963 39.011 25.3534 42.2042 25.4246C45.4331 25.498 48.0967 27.7322 48.771 30.9454C49.0291 32.1693 48.92 33.3776 48.5106 34.5525C48.0923 35.7475 47.3735 36.7377 46.4011 37.5499C45.4442 38.3488 44.3338 38.8116 43.1344 39.1276Z" fill="#2C7BE5"/>
<path d="M18.2051 9.28759C18.2051 9.47451 18.2051 9.61025 18.2051 9.74599C18.2051 11.8666 18.2051 13.9895 18.2051 16.1102C18.2051 17.0136 18.6991 17.5099 19.5981 17.5099C21.7321 17.5121 23.8661 17.5099 25.9979 17.5099C26.1337 17.5099 26.2672 17.5099 26.4341 17.5099C26.4407 17.6812 26.4541 17.8147 26.4541 17.9505C26.4541 22.4076 26.4563 26.8626 26.4541 31.3197C26.4519 33.4292 25.0433 34.8267 22.9271 34.8267C18.9239 34.8267 14.9206 34.8289 10.9152 34.8267C9.16171 34.8245 7.83991 33.7185 7.53505 32.0029C7.5039 31.8315 7.50167 31.6535 7.50167 31.4777C7.49944 25.1892 7.49944 18.9006 7.50167 12.6121C7.50167 10.7384 8.9414 9.29426 10.8128 9.28981C13.1471 9.28314 15.4814 9.28759 17.8157 9.28759C17.9292 9.28759 18.0404 9.28759 18.2051 9.28759ZM16.9545 22.4699C18.0093 22.4699 19.0618 22.4721 20.1166 22.4699C20.9377 22.4677 21.5163 21.9448 21.5096 21.2149C21.5029 20.4984 20.9355 19.9932 20.1277 19.9932C18.0338 19.991 15.9376 19.991 13.8436 19.9932C13.0047 19.9932 12.4506 20.4961 12.4573 21.2416C12.464 21.967 13.0225 22.4677 13.8325 22.4699C14.8717 22.4699 15.9131 22.4699 16.9545 22.4699ZM16.9545 27.4011C18.0071 27.4011 19.0596 27.4033 20.1121 27.4011C20.9511 27.3988 21.5163 26.8937 21.5074 26.1594C21.4985 25.4384 20.9422 24.9466 20.121 24.9466C18.016 24.9444 15.9109 24.9444 13.8036 24.9488C13.6545 24.9488 13.5009 24.9577 13.3585 24.9956C12.7533 25.158 12.3816 25.7232 12.4618 26.3396C12.5419 26.9493 13.0336 27.3922 13.6812 27.4011C14.7738 27.4077 15.8642 27.3988 16.9545 27.4011Z" fill="#2C7BE5"/>
<path d="M35.7712 13.4529C36.1784 13.849 36.5989 14.2339 36.9906 14.6456C37.4023 15.0773 37.4779 15.6381 37.2309 16.1588C36.9973 16.6528 36.4832 16.9843 35.9358 16.8953C35.631 16.8464 35.2883 16.7106 35.0702 16.5014C33.873 15.3488 32.7025 14.1672 31.5343 12.9811C30.9468 12.3847 30.949 11.6037 31.5321 11.0095C32.6892 9.83462 33.8574 8.66859 35.0301 7.50924C35.6043 6.9418 36.4387 6.9329 36.9728 7.46251C37.5113 7.99434 37.4979 8.81323 36.9327 9.40292C36.5745 9.77676 36.2073 10.1417 35.8446 10.5111C35.829 10.5267 35.829 10.5623 35.8134 10.6179C36.3275 10.6602 36.8393 10.6891 37.3466 10.747C42.3534 11.3367 46.2765 15.7315 46.3055 20.7761C46.3099 21.664 45.7803 22.2782 44.997 22.296C44.2249 22.3116 43.6663 21.7085 43.6307 20.8251C43.475 16.7462 40.5043 13.6531 36.4432 13.3461C36.2429 13.3305 36.0426 13.3438 35.8401 13.3438C35.8201 13.3817 35.7956 13.4173 35.7712 13.4529Z" fill="#91D9FF"/>
<path d="M21.8232 49.4374C20.7773 49.275 19.8071 49.2082 18.8836 48.9679C14.4643 47.8197 11.2955 43.7675 11.2443 39.2748C11.2332 38.3268 11.7205 37.7238 12.5172 37.6926C13.3472 37.6615 13.8812 38.2356 13.9191 39.1991C14.0593 42.8507 16.5293 45.7747 20.1053 46.4934C20.6349 46.6003 21.1823 46.6114 21.7208 46.667C21.7408 46.6314 21.7586 46.5936 21.7786 46.558C21.4026 46.1797 21.0265 45.7969 20.646 45.4231C20.2811 45.0626 20.1053 44.6354 20.2165 44.1258C20.4368 43.12 21.6429 42.6861 22.395 43.3981C23.6723 44.6042 24.9051 45.8615 26.1268 47.1276C26.5941 47.6127 26.5919 48.356 26.1179 48.8455C24.8962 50.1095 23.6523 51.3556 22.3884 52.5773C21.8632 53.0846 21.0866 53.0179 20.5792 52.5105C20.0741 52.0054 20.0385 51.2043 20.5414 50.6636C20.9375 50.2341 21.3848 49.8513 21.8232 49.4374Z" fill="#91D9FF"/>
<path d="M20.7065 10.124C22.331 11.7551 23.9532 13.3818 25.5732 15.0062C23.9866 15.0062 22.3577 15.0062 20.7065 15.0062C20.7065 13.3707 20.7065 11.7395 20.7065 10.124Z" fill="#2C7BE5"/>
</svg>
