<svg width="24" height="24" viewBox="0 0 24 24" fill="none" xmlns="http://www.w3.org/2000/svg">
<path d="M11.9907 8.40845C11.1196 8.40845 10.2481 8.40903 9.37697 8.40845C8.87359 8.40815 8.59311 8.14334 8.59621 7.66568C8.59806 7.39386 8.58196 7.11795 8.62469 6.85138C8.7222 6.24175 9.10639 5.83883 9.70976 5.6111C9.99613 5.50307 10.2153 5.48555 10.5048 5.70307C11.4446 6.40963 12.7919 6.33168 13.6851 5.57052C13.7829 5.4873 13.8609 5.47271 13.9851 5.51212C14.3445 5.62599 14.6928 5.75008 14.9568 6.0254C15.2426 6.32292 15.3921 6.67036 15.4032 7.06948C15.4094 7.28816 15.4067 7.50714 15.4042 7.72582C15.3998 8.12524 15.1064 8.40611 14.6825 8.40757C13.7848 8.41049 12.8876 8.40815 11.9907 8.40845Z" fill="#627185"/>
<path d="M11.9018 5.58258C10.817 5.53587 10.0424 4.75047 10.091 3.72683C10.1474 2.54086 11.1408 1.9324 12.1528 2.00568C13.276 2.08714 13.9493 2.90261 13.9094 3.85355C13.8589 5.04916 12.8621 5.63017 11.9018 5.58258Z" fill="#627185"/>
<path d="M11.9907 21.9995C11.1196 21.9995 10.2481 22.0001 9.37697 21.9995C8.87359 21.9992 8.59311 21.7344 8.59621 21.2567C8.59806 20.9849 8.58196 20.709 8.62469 20.4424C8.7222 19.8328 9.10639 19.4299 9.70976 19.2022C9.99613 19.0941 10.2153 19.0766 10.5048 19.2941C11.4446 20.0007 12.7919 19.9227 13.6851 19.1616C13.7829 19.0784 13.8609 19.0638 13.9851 19.1032C14.3445 19.2171 14.6928 19.3411 14.9568 19.6165C15.2426 19.914 15.3921 20.2614 15.4032 20.6605C15.4094 20.8792 15.4067 21.0982 15.4042 21.3169C15.3998 21.7163 15.1064 21.9972 14.6825 21.9986C13.7848 22.0016 12.8876 21.9992 11.9907 21.9995Z" fill="#627185"/>
<path d="M11.9018 19.1736C10.817 19.1269 10.0424 18.3415 10.091 17.3179C10.1474 16.1319 11.1408 15.5235 12.1528 15.5967C13.276 15.6782 13.9493 16.4937 13.9094 17.4446C13.8589 18.6402 12.8621 19.2212 11.9018 19.1736Z" fill="#627185"/>
<path d="M5.27956 14.9777C4.43905 14.9777 3.59854 14.9783 2.75803 14.9775C2.27385 14.9769 1.99708 14.7191 2.00111 14.2645C2.00358 13.983 1.98594 13.6966 2.03547 13.4216C2.13608 12.8607 2.4986 12.4905 3.05461 12.2671C3.34035 12.1524 3.53848 12.164 3.80038 12.3681C4.70993 13.0767 6.10335 13.0005 6.97543 12.2303C7.06366 12.1524 7.13363 12.141 7.24601 12.1728C7.73824 12.3121 8.16794 12.5357 8.39207 12.9915C8.49361 13.1979 8.54438 13.4329 8.57782 13.6604C8.60847 13.8703 8.58804 14.0875 8.58494 14.3015C8.57937 14.7112 8.29827 14.976 7.86362 14.9772C7.00206 14.9792 6.14081 14.9777 5.27956 14.9777Z" fill="#627185"/>
<path d="M5.28597 12.2577C4.22937 12.2554 3.41115 11.5024 3.43406 10.5159C3.46162 9.32375 4.42317 8.7658 5.30671 8.77602C6.36176 8.78799 7.15583 9.53718 7.14871 10.5284C7.14128 11.524 6.34876 12.2601 5.28597 12.2577Z" fill="#627185"/>
<path d="M18.705 14.9737C17.8747 14.9737 17.0445 14.974 16.2142 14.9737C15.6674 14.9734 15.4049 14.732 15.4164 14.2117C15.4235 13.8879 15.4189 13.555 15.4984 13.2441C15.6207 12.7661 15.9792 12.461 16.459 12.2669C16.7473 12.1504 16.9491 12.1559 17.2181 12.367C18.1255 13.078 19.5072 12.9982 20.3916 12.2225C20.4833 12.1422 20.5551 12.1402 20.6638 12.1711C21.1058 12.2966 21.4919 12.4934 21.7448 12.8753C21.9042 13.1156 21.9934 13.3761 21.9974 13.6601C22.0005 13.8788 22.0002 14.0978 21.998 14.3168C21.994 14.7013 21.7049 14.9679 21.2885 14.9737C21.2783 14.974 21.2677 14.9737 21.2575 14.9737C20.4068 14.9737 19.5561 14.9737 18.705 14.9737Z" fill="#627185"/>
<path d="M18.7102 12.2537C17.6487 12.2554 16.8558 11.5176 16.8496 10.5223C16.8435 9.52551 17.644 8.77632 18.709 8.77223C19.6018 8.76873 20.5556 9.33515 20.5587 10.5135C20.5618 11.6802 19.6151 12.2601 18.7102 12.2537Z" fill="#627185"/>
<path d="M12 15C11.4476 15 11 14.6759 11 14.2759V9.72414C11 9.32414 11.4476 9 12 9C12.5524 9 13 9.32414 13 9.72414V14.2759C13 14.6759 12.5524 15 12 15Z" fill="#4E606E"/>
<path d="M9 12C9 11.4476 9.32414 11 9.72414 11H14.2759C14.6759 11 15 11.4476 15 12C15 12.5524 14.6759 13 14.2759 13H9.72414C9.32414 13 9 12.5524 9 12Z" fill="#4E606E"/>
</svg>
