<svg width="24" height="24" viewBox="0 0 24 24" fill="none" xmlns="http://www.w3.org/2000/svg">
<g clip-path="url(#clip0_397_1735)">
<path d="M14.9094 20.0002C12.9613 20.0002 11.0342 20.0002 9.07457 20.0002C9.07457 19.9188 9.07457 19.8458 9.07457 19.7724C9.07457 19.012 9.07815 18.2515 9.0702 17.4914C9.06901 17.3846 9.03838 17.2603 8.97474 17.1758C8.87053 17.0371 8.67206 17.0477 8.52132 17.1865C8.26358 17.4238 8.01221 17.6675 7.76044 17.9104C7.3086 18.3458 6.76251 18.569 6.12135 18.5713C5.24632 18.5743 4.37169 18.5743 3.49666 18.5709C3.09255 18.5694 2.75686 18.3321 2.65742 17.9907C2.55361 17.6348 2.68765 17.2622 3.02255 17.0873C3.17767 17.0063 3.37256 16.961 3.54995 16.9584C4.4047 16.9454 5.25984 16.9485 6.11498 16.9557C6.30312 16.9572 6.43874 16.899 6.56801 16.7705C7.29429 16.0496 8.01698 15.3253 8.76354 14.6241C9.04474 14.3599 9.38163 14.1485 9.70181 13.9245C10.0598 13.6743 10.4782 13.7663 10.8771 13.7663C10.9205 13.7663 10.9742 13.8435 11.0056 13.8945C11.2299 14.2603 11.4487 14.6295 11.6714 14.9964C11.8699 15.3226 12.1288 15.3222 12.3285 14.9945C12.5449 14.6386 12.7628 14.2835 12.97 13.923C13.0385 13.8044 13.12 13.7682 13.262 13.75C13.9047 13.6679 14.4198 13.912 14.8637 14.3127C15.5041 14.8907 16.1277 15.4857 16.753 16.0789C16.9976 16.3108 17.2299 16.5546 17.4613 16.7987C17.5679 16.9112 17.6888 16.9553 17.8464 16.9546C18.7277 16.9504 19.6095 16.9492 20.4909 16.9538C21.0756 16.9568 21.4634 17.407 21.3504 17.9386C21.2789 18.2751 20.973 18.5599 20.5955 18.5633C19.5821 18.5724 18.5682 18.5686 17.5552 18.5405C17.0592 18.5268 16.646 18.2857 16.2928 17.9599C16.035 17.7222 15.7841 17.4785 15.5323 17.2352C15.4193 17.1264 15.2992 17.0386 15.129 17.1021C14.9512 17.1682 14.921 17.3131 14.9214 17.4755C14.923 18.2675 14.9222 19.0595 14.9214 19.8515C14.9222 19.8945 14.915 19.9378 14.9094 20.0002Z" fill="#627185"/>
<path d="M12.0061 8.21071C13.436 8.21527 14.5966 9.33238 14.5902 10.6989C14.5839 12.0609 13.4018 13.1811 11.9819 13.17C10.5576 13.159 9.39774 12.0312 9.40729 10.6666C9.41763 9.31147 10.587 8.20614 12.0061 8.21071Z" fill="#627185"/>
<path d="M7.23238 4.00001C8.59067 3.99583 9.69002 5.04868 9.69281 6.35591C9.69559 7.62663 8.57873 8.69507 7.24988 8.69317C5.88325 8.69127 4.77713 7.63994 4.77832 6.3445C4.77951 5.05439 5.87887 4.00419 7.23238 4.00001ZM6.77657 6.64944C6.66401 6.51522 6.57372 6.38899 6.46355 6.28138C6.31639 6.13804 6.10916 6.13727 5.98865 6.26275C5.87092 6.38518 5.88364 6.56237 6.02882 6.70153C6.20621 6.8715 6.38758 7.03804 6.57014 7.20305C6.76941 7.38252 6.92692 7.37872 7.11306 7.18252C7.38432 6.89697 7.64961 6.60648 7.91689 6.3175C8.06605 6.15667 8.22196 6.00077 8.35998 5.83195C8.46936 5.69849 8.44032 5.52016 8.30827 5.42473C8.16628 5.32245 8.02468 5.33651 7.89581 5.45096C7.84769 5.49393 7.80672 5.54412 7.76257 5.59127C7.45114 5.92549 7.13971 6.25971 6.77657 6.64944Z" fill="#4E606E"/>
<path d="M16.7826 4.00049C18.154 4.0195 19.2374 5.07806 19.2211 6.38262C19.2052 7.6598 18.0772 8.71228 16.7452 8.69288C15.3766 8.67311 14.2903 7.61075 14.3078 6.30847C14.3245 5.02939 15.4474 3.98186 16.7826 4.00049ZM16.3458 6.60429C16.2011 6.47159 16.0861 6.3579 15.9612 6.25486C15.8184 6.13699 15.6303 6.14688 15.517 6.26627C15.4016 6.38794 15.4008 6.5465 15.5321 6.67463C15.7309 6.86893 15.9354 7.0579 16.1446 7.24231C16.2858 7.36665 16.4596 7.36855 16.5873 7.23433C17.0236 6.77615 17.4544 6.31342 17.8799 5.84612C18.0032 5.71075 17.9826 5.55068 17.8549 5.43851C17.7216 5.3214 17.5542 5.32672 17.4142 5.46323C17.2897 5.58528 17.1747 5.71646 17.0558 5.84345C16.8231 6.09288 16.5909 6.34155 16.3458 6.60429Z" fill="#4E606E"/>
<path d="M2 12.6842C2.00199 11.396 3.10851 10.3371 4.45367 10.3359C5.81672 10.3348 6.9121 11.3968 6.90972 12.7169C6.90733 13.9915 5.7849 15.0416 4.4294 15.0371C3.10413 15.0333 1.99801 13.9618 2 12.6842ZM4.03962 12.9443C3.90717 12.8234 3.79898 12.7215 3.68762 12.6226C3.51818 12.4724 3.34834 12.4648 3.2151 12.5987C3.08663 12.728 3.09976 12.8991 3.25806 13.0515C3.4263 13.2131 3.59972 13.3698 3.77154 13.528C3.99189 13.731 4.13985 13.7302 4.3423 13.5146C4.71856 13.1139 5.09244 12.7112 5.46472 12.3067C5.67394 12.0797 5.69581 11.9131 5.54348 11.7785C5.38597 11.639 5.21017 11.6838 4.9926 11.9184C4.68117 12.2542 4.36935 12.5896 4.03962 12.9443Z" fill="#4E606E"/>
<path d="M21.9998 12.6783C22.0209 13.9491 20.9136 15.0179 19.5565 15.0373C18.2539 15.0559 17.1076 13.9977 17.0901 12.7612C17.0714 11.424 18.1441 10.3536 19.5195 10.3361C20.8682 10.3194 21.9779 11.3673 21.9998 12.6783ZM19.1476 12.9232C19.1074 12.9095 19.0923 12.9084 19.0836 12.9008C18.9821 12.8103 18.8831 12.7171 18.7809 12.6274C18.6051 12.473 18.448 12.4631 18.31 12.5943C18.1696 12.7278 18.1823 12.8939 18.3537 13.0582C18.522 13.2194 18.6954 13.3753 18.8668 13.5331C19.084 13.7323 19.2347 13.7262 19.4356 13.5103C19.8178 13.0993 20.1992 12.6878 20.5807 12.2757C20.62 12.2331 20.6618 12.1909 20.6912 12.1422C20.7716 12.0091 20.7489 11.8833 20.6324 11.7821C20.5091 11.6749 20.3667 11.6643 20.2366 11.7677C20.1459 11.8399 20.0704 11.9301 19.9912 12.0148C19.71 12.3164 19.43 12.619 19.1476 12.9232Z" fill="#4E606E"/>
</g>
<defs>
<clipPath id="clip0_397_1735">
<rect width="20" height="16" fill="white" transform="translate(2 4)"/>
</clipPath>
</defs>
</svg>
