<svg width="24" height="24" viewBox="0 0 24 24" fill="none" xmlns="http://www.w3.org/2000/svg">
<path d="M12.7639 21.9998C11.2011 20.8062 10.3171 19.2658 10.0981 17.3161C10.0267 17.3161 9.9582 17.3161 9.89001 17.3161C8.39048 17.3161 6.89059 17.3165 5.39106 17.3154C5.31513 17.3154 5.23745 17.3169 5.16398 17.3008C4.85957 17.234 4.6673 16.9636 4.70069 16.659C4.73303 16.3625 4.97065 16.1443 5.27752 16.1429C5.92183 16.1393 6.56615 16.1418 7.21081 16.1418C8.10716 16.1418 9.00351 16.1418 9.8995 16.1418C9.96242 16.1418 10.0257 16.1418 10.1027 16.1418C10.1765 15.3204 10.3993 14.5564 10.7698 13.7925C10.6735 13.7925 10.6078 13.7925 10.5421 13.7925C8.79647 13.7925 7.05053 13.7935 5.30494 13.7914C4.85219 13.7907 4.57028 13.3742 4.7478 12.9728C4.85254 12.7364 5.04623 12.6289 5.29615 12.6267C5.67121 12.6235 6.04592 12.6257 6.42098 12.6257C8.06111 12.6257 9.7016 12.6239 11.3417 12.6289C11.4785 12.6292 11.5681 12.5842 11.6563 12.4824C12.649 11.3378 13.8884 10.6252 15.3672 10.377C15.8537 10.2952 16.3578 10.3202 16.8537 10.297C16.8935 10.2952 16.9335 10.2967 16.9996 10.2967C16.9996 10.2274 16.9996 10.1645 16.9996 10.1013C16.9996 8.01802 17.0007 5.93475 16.9993 3.85148C16.9986 2.75466 16.2541 2 15.177 2C12.5239 2 9.86998 2 7.21644 2C7.15211 2 7.08814 2 6.99569 2C6.99569 2.07679 6.99569 2.14536 6.99569 2.21393C6.99569 3.5829 6.98304 4.95223 7.00237 6.32083C7.00975 6.84192 6.73628 7.08764 6.26244 7.08086C4.92109 7.06228 3.57973 7.07443 2.23803 7.07443C2.16843 7.07443 2.09848 7.07443 2.00849 7.07443C2.00533 7.14657 2.00041 7.20907 2.00041 7.27193C2.00005 11.5692 1.9997 15.8668 2.00041 20.1641C2.00076 21.2452 2.74947 21.9995 3.8177 21.9998C6.72327 22.0002 9.62884 21.9998 12.5344 21.9998C12.5928 21.9998 12.6511 21.9998 12.7639 21.9998ZM9.49597 9.10805C9.87666 9.10805 10.2577 9.10805 10.6384 9.10805C11.6577 9.10805 12.6771 9.10591 13.6965 9.10913C14.1517 9.11055 14.4375 9.55092 14.2424 9.94879C14.1225 10.1934 13.9144 10.2849 13.6508 10.2845C11.3192 10.2824 8.98734 10.2831 6.65578 10.2834C6.2048 10.2834 5.75346 10.2845 5.30248 10.2831C5.04341 10.2824 4.84868 10.1667 4.74463 9.92415C4.57274 9.52342 4.86168 9.10984 5.31302 9.10948C6.70746 9.10698 8.10189 9.10805 9.49597 9.10805Z" fill="#627185"/>
<path d="M11 16.5047C11.0015 19.5458 13.4697 22.0037 16.5183 22C19.5311 21.9963 22.0004 19.519 22 16.5002C21.9996 13.4594 19.5307 10.9966 16.4858 11C13.4514 11.0034 10.9985 13.4647 11 16.5047ZM15.8894 15.8879C15.8894 15.7996 15.8894 15.7329 15.8894 15.6662C15.8894 15.1386 15.8875 14.6113 15.8901 14.0836C15.892 13.7166 16.1565 13.4389 16.4963 13.4389C16.8331 13.4389 17.1084 13.7188 17.1106 14.081C17.1151 14.8755 17.1151 15.6699 17.1106 16.464C17.1084 16.8453 16.8439 17.1087 16.4646 17.1117C15.9434 17.1162 15.4222 17.1158 14.901 17.1117C14.5366 17.1087 14.2591 16.8419 14.2554 16.5032C14.2516 16.1547 14.5307 15.8905 14.9092 15.8879C15.2255 15.8861 15.5418 15.8879 15.8894 15.8879Z" fill="#4E606E"/>
<path d="M6 2C4.66025 3.34016 3.33115 4.66885 2 6C3.32132 6 4.65329 6 6 6C6 4.66189 6 3.32992 6 2Z" fill="#627185"/>
</svg>
