<svg width="24" height="24" viewBox="0 0 24 24" fill="none" xmlns="http://www.w3.org/2000/svg">
<path d="M17.9719 16.2486H17.74C16.7251 16.2486 15.7106 16.2494 14.6961 16.2486C13.6038 16.2473 12.8881 15.4795 12.8857 14.3053C12.8837 13.3043 12.8837 12.3032 12.8869 11.3022C12.8877 11.1372 12.8925 10.9687 12.923 10.808C13.0876 9.94432 13.7632 9.36929 14.6332 9.36237C15.6677 9.3546 16.7026 9.36064 17.7372 9.36021H17.9731V7.43334H17.728C16.2793 7.43334 14.8306 7.43377 13.3824 7.43334C12.9041 7.43334 12.6971 7.2117 12.6971 6.70018C12.6967 5.13751 12.6971 3.57441 12.6971 2.01174V1.72746H12.4259C10.1029 1.72443 7.77992 1.72227 5.45692 1.71839C4.97429 1.71752 4.76562 1.93916 4.76562 2.46537V11.4366C4.86896 11.431 4.97309 11.4279 5.07803 11.4279H5.08764C6.42056 11.4305 7.70262 11.9239 8.72995 12.7949C9.34154 12.7949 9.95233 12.7953 10.5639 12.7962C10.9308 12.7966 11.1799 13.045 11.1819 13.4032C11.1835 13.7683 10.9436 14.0063 10.5671 14.0076C10.3192 14.0085 10.0717 14.0085 9.82376 14.0085C9.83978 14.0309 9.855 14.0534 9.87022 14.0763C10.1117 14.4375 10.3164 14.8229 10.4814 15.2277C10.5215 15.2277 10.5619 15.2281 10.602 15.2281C10.8331 15.229 11.0173 15.334 11.1226 15.5621C11.2192 15.7712 11.2063 15.9816 11.0866 16.1777C11.0217 16.2849 10.9376 16.3579 10.8395 16.3993C10.936 16.8603 10.9845 17.3325 10.9841 17.8095C10.9837 18.6477 10.8323 19.4681 10.5407 20.2311C12.8024 20.2328 15.0641 20.2354 17.3259 20.2371C17.758 20.2375 17.9835 19.9991 17.9839 19.5376C17.9847 18.5077 17.9847 17.4777 17.9839 16.4477C17.9839 16.3855 17.9767 16.3233 17.9719 16.2486ZM10.5599 11.5822C9.98677 11.5835 9.41363 11.5826 8.84049 11.5826C8.26735 11.5826 7.69421 11.5835 7.12107 11.5822C6.74058 11.5817 6.48425 11.3333 6.48665 10.9717C6.48905 10.62 6.74378 10.372 7.11146 10.3716C8.26455 10.3703 9.41764 10.3699 10.5707 10.372C10.94 10.3725 11.1843 10.6205 11.1819 10.9829C11.1795 11.3428 10.934 11.5813 10.5599 11.5822ZM10.5419 9.15845C9.40842 9.15932 8.27496 9.15932 7.14189 9.15845C6.74698 9.15845 6.48585 8.91219 6.48665 8.54496C6.48745 8.18119 6.73737 7.94703 7.12948 7.94616C7.69621 7.94487 8.26254 7.94573 8.82928 7.94573C9.40282 7.94573 9.97596 7.94487 10.5495 7.94616C10.942 7.94703 11.1847 8.18205 11.1819 8.5536C11.1787 8.91954 10.928 9.15845 10.5419 9.15845ZM10.5611 6.72653C9.40762 6.72869 8.25373 6.73042 7.10024 6.72567C6.61201 6.72394 6.33005 6.23012 6.56795 5.80716C6.69131 5.58769 6.88036 5.50992 7.10985 5.51078C7.6902 5.51294 8.27015 5.51122 8.8501 5.51122C9.42364 5.51122 9.99718 5.50862 10.5703 5.51251C10.9448 5.51467 11.1843 5.75877 11.1819 6.12341C11.1791 6.48373 10.9348 6.72567 10.5611 6.72653ZM9.98517 16.446H9.96715C10.0701 16.8863 10.1233 17.3433 10.1229 17.8091C10.1225 18.6628 9.94271 19.4867 9.60227 20.2302H9.61829C9.96234 19.4819 10.1426 18.6563 10.143 17.8091C10.1434 17.3468 10.0905 16.8897 9.98517 16.446ZM9.18814 14.6068C9.04595 14.3943 8.89095 14.1942 8.72394 14.008H8.71272C9.03995 14.3766 9.3139 14.7866 9.53058 15.2264H9.5462C9.44006 15.0117 9.32031 14.8051 9.18814 14.6068Z" fill="#627185"/>
<path d="M19.3046 10.5776C19.3046 10.1503 19.3098 9.75546 19.303 9.36058C19.2981 9.08192 19.3875 8.86417 19.6254 8.74363C19.8717 8.61921 20.0892 8.68876 20.2862 8.88318C21.4437 10.0246 22.6052 11.1622 23.7615 12.3049C24.0843 12.6242 24.0787 12.9866 23.7523 13.3085C22.6048 14.4404 21.4553 15.5702 20.305 16.6995C20.0671 16.9333 19.8413 16.9817 19.6138 16.8538C19.4051 16.7367 19.3042 16.5466 19.3046 16.2926C19.3054 15.8834 19.3046 15.4743 19.3046 15.0345C19.212 15.0345 19.1347 15.0345 19.0574 15.0345C17.6092 15.0345 16.1609 15.0345 14.7126 15.0345C14.2152 15.0345 14.0125 14.8137 14.0121 14.2724C14.0117 13.2714 14.0113 12.2703 14.0125 11.2697C14.0129 10.8079 14.224 10.5785 14.6509 10.5781C16.1124 10.5768 17.5743 10.5776 19.0358 10.5776C19.1147 10.5776 19.194 10.5776 19.3046 10.5776Z" fill="#4E606E"/>
<path d="M13.8311 6.20414C13.8311 4.70282 13.8311 3.22267 13.8311 1.67383C13.9881 1.77147 14.131 1.82331 14.2276 1.92657C15.4167 3.19805 16.601 4.47514 17.7798 5.75785C17.8807 5.86759 17.9356 6.02614 18.0353 6.20414C16.5958 6.20414 15.2209 6.20414 13.8311 6.20414Z" fill="#627185"/>
<path d="M9.98533 16.4459H9.96731C10.0702 16.8861 10.1235 17.3432 10.1231 17.809C10.1227 18.6627 9.94288 19.4866 9.60244 20.2301H9.61846C9.96251 19.4818 10.1427 18.6562 10.1431 17.809C10.1435 17.3467 10.0907 16.8896 9.98533 16.4459ZM8.72411 14.0079H8.71289C9.04011 14.3765 9.31407 14.7865 9.53075 15.2263H9.54637C9.44023 15.0116 9.32048 14.805 9.1883 14.6067C9.04612 14.3942 8.89112 14.1941 8.72411 14.0079Z" fill="#4E606E"/>
<path d="M10.1227 17.809C10.1231 17.3432 10.0698 16.8861 9.96688 16.4459H9.9849C9.95927 16.3375 9.93043 16.2303 9.89839 16.1236C9.80587 15.8125 9.68812 15.5127 9.54593 15.2263H9.53031C9.31363 14.7864 9.03968 14.3764 8.71246 14.0079H8.72367C7.77845 12.952 6.46435 12.3381 5.08577 12.3351H5.07776C5.06615 12.3351 5.05493 12.3351 5.04332 12.3355C5.04252 12.3351 5.04171 12.3351 5.04091 12.3355C2.25852 12.3567 0.000400517 14.802 0 17.8046C0 20.8168 2.26853 23.2699 5.05774 23.2738H5.06294C6.77796 23.2738 8.36481 22.3535 9.30723 20.8125C9.42258 20.6245 9.52631 20.4301 9.61803 20.2301H9.60201C9.94245 19.4865 10.1223 18.6627 10.1227 17.809ZM6.49439 18.8865C6.22004 18.8882 5.94608 18.8903 5.67173 18.8903C5.40258 18.8903 5.13383 18.889 4.86469 18.8865C4.85908 18.8865 4.85347 18.8865 4.84786 18.886C4.46136 18.8744 4.19342 18.5806 4.19102 18.158C4.18661 17.2655 4.18661 16.3724 4.19182 15.479C4.19222 15.2755 4.26471 15.0954 4.38086 14.9657C4.49661 14.8361 4.65602 14.7571 4.83184 14.7571C4.83745 14.7571 4.84226 14.7571 4.84786 14.7579C5.19431 14.767 5.46146 15.0759 5.46386 15.482C5.46426 15.5222 5.46426 15.5624 5.46426 15.6026C5.46626 16.1551 5.46426 16.7086 5.46426 17.2611V17.51C5.68655 17.51 5.89722 17.5096 6.10228 17.5096C6.23125 17.5096 6.35862 17.51 6.48598 17.5109C6.54846 17.5113 6.60854 17.5191 6.66541 17.5342C6.9654 17.6107 7.17087 17.8725 7.16766 18.2021C7.16366 18.5832 6.87408 18.883 6.49439 18.8865Z" fill="#4E606E"/>
</svg>
