<svg width="25" height="24" viewBox="0 0 25 24" fill="none" xmlns="http://www.w3.org/2000/svg">
<path d="M17.4113 17.931C16.9176 17.4538 16.4148 16.9695 15.9287 16.5012C15.2836 15.88 14.6166 15.2377 13.9616 14.6035C13.5203 14.1763 13.4277 13.7181 13.4277 13.4093C13.4281 13.0981 13.5223 12.6361 13.9715 12.2022C14.9878 11.2201 16.0757 10.1717 17.3942 8.90405C17.6311 8.67597 17.8859 8.53022 18.1542 8.46889V7.59942H17.9109C16.4732 7.59942 15.0355 7.59984 13.5983 7.59942C13.1237 7.59942 12.9182 7.38395 12.9182 6.88663C12.9178 5.36736 12.9182 3.84768 12.9182 2.32842V2.05204H12.6491C10.3437 2.0491 8.03831 2.047 5.73293 2.04322C5.25396 2.04238 5.04688 2.25785 5.04688 2.76945V11.336H5.05085C6.01514 11.3381 6.97425 11.5885 7.82367 12.0593C8.20127 12.2689 8.55781 12.5218 8.88573 12.812C9.52409 12.8116 10.1624 12.8125 10.8012 12.8133C11.1653 12.8137 11.4125 13.0552 11.4145 13.4035C11.4161 13.7584 11.178 13.9898 10.8044 13.9911C10.5098 13.9919 10.2157 13.9919 9.92117 13.9919C10.1724 14.3632 10.3838 14.7597 10.5532 15.1764C10.6486 15.1768 10.7436 15.1773 10.839 15.1777C11.0683 15.1785 11.2511 15.2806 11.3557 15.5024C11.4515 15.7057 11.4387 15.9102 11.3199 16.1009C11.2209 16.2605 11.0774 16.342 10.9077 16.3576C10.9956 16.7931 11.0397 17.2384 11.0393 17.687C11.0389 18.501 10.8926 19.2982 10.6108 20.0412C12.911 20.0438 15.2112 20.0459 17.5118 20.0475C17.9407 20.048 18.1645 19.8161 18.1649 19.3675C18.1653 19.0285 18.1653 18.6892 18.1653 18.3502C17.9407 18.3023 17.6752 18.186 17.4113 17.931ZM10.7972 11.633C10.2284 11.6343 9.65963 11.6334 9.09083 11.6334C8.52204 11.6334 7.95325 11.6343 7.38445 11.633C7.00685 11.6326 6.75246 11.3911 6.75485 11.0395C6.75723 10.6976 7.01003 10.4565 7.37491 10.4561C8.51926 10.4548 9.6636 10.4544 10.8079 10.4565C11.1744 10.4569 11.4169 10.698 11.4145 11.0504C11.4121 11.4003 11.1685 11.6322 10.7972 11.633ZM10.7793 9.27662C9.65446 9.27746 8.52959 9.27746 7.40512 9.27662C7.01321 9.27662 6.75405 9.0372 6.75485 8.68017C6.75564 8.3265 7.00367 8.09884 7.3928 8.098C7.95523 8.09674 8.51727 8.09758 9.0797 8.09758C9.6489 8.09758 10.2177 8.09674 10.7869 8.098C11.1764 8.09884 11.4173 8.32734 11.4145 8.68857C11.4113 9.04434 11.1625 9.27662 10.7793 9.27662ZM10.7984 6.91225C9.65366 6.91435 8.50853 6.91603 7.36378 6.91141C6.87926 6.90973 6.59943 6.42963 6.83553 6.01842C6.95796 5.80504 7.14557 5.72943 7.37332 5.73027C7.94927 5.73237 8.52482 5.73069 9.10037 5.73069C9.66956 5.73069 10.2388 5.72817 10.8075 5.73195C11.1792 5.73405 11.4169 5.97137 11.4145 6.32588C11.4117 6.67619 11.1693 6.91141 10.7984 6.91225Z" fill="#627185"/>
<path d="M9.82332 16.0485C9.66274 15.5201 9.42544 15.024 9.11819 14.5738C8.17775 13.1944 6.6566 12.3686 5.0472 12.3652H5.03925C2.26126 12.3652 0.00039748 14.7506 0 17.6829C0 20.6113 2.25133 22.9963 5.01938 23.0001H5.02454C6.72655 23.0001 8.30137 22.1054 9.23664 20.6071C9.7784 19.7406 10.0654 18.7308 10.0658 17.6871C10.0662 17.128 9.98469 16.5765 9.82332 16.0485ZM6.44514 18.7346C6.17286 18.7363 5.90099 18.7384 5.62871 18.7384C5.36161 18.7384 5.0949 18.7371 4.82779 18.7346C4.82223 18.7346 4.81666 18.7346 4.8111 18.7342C4.42753 18.7229 4.16161 18.4372 4.15923 18.0264C4.15486 17.1587 4.15486 16.2905 4.16002 15.4218C4.16042 15.224 4.23237 15.0488 4.34763 14.9228C4.46251 14.7968 4.6207 14.7199 4.7952 14.7199C4.80076 14.7199 4.80553 14.7199 4.8111 14.7208C5.15492 14.7296 5.42004 15.0299 5.42242 15.4248C5.42282 15.4638 5.42282 15.5029 5.42282 15.5419C5.4248 16.0792 5.42282 16.6172 5.42282 17.1545V17.3964C5.64342 17.3964 5.85249 17.396 6.056 17.396C6.18399 17.396 6.31039 17.3964 6.43679 17.3972C6.4988 17.3977 6.55842 17.4052 6.61486 17.4199C6.91257 17.4943 7.11648 17.7488 7.1133 18.0693C7.10933 18.4398 6.82195 18.7313 6.44514 18.7346Z" fill="#4E606E"/>
<path d="M24.2547 14.8975C24.2543 15.3465 24.0448 15.5696 23.6211 15.57C22.9382 15.5704 22.2553 15.5708 21.5725 15.5708C20.8292 15.5708 20.0859 15.5704 19.343 15.5704H19.0032C19.0032 15.9858 18.998 16.3697 19.0047 16.7536C19.0095 17.0246 18.9209 17.2363 18.6848 17.3534C18.6013 17.3946 18.521 17.4139 18.4439 17.4139C18.3469 17.4139 18.2543 17.3833 18.1661 17.3274C18.1192 17.2976 18.0735 17.261 18.0289 17.2178C16.8802 16.108 15.7275 15.0025 14.58 13.8911C14.2592 13.5807 14.2652 13.2283 14.5891 12.9154C15.7279 11.8149 16.8687 10.7161 18.0103 9.61852C18.0587 9.57148 18.1072 9.53242 18.1549 9.50092C18.2555 9.43455 18.3545 9.40137 18.4526 9.40137C18.5341 9.40137 18.6152 9.42405 18.6963 9.46857C18.9034 9.5824 19.0036 9.76722 19.0032 10.0142C19.0024 10.412 19.0028 10.8097 19.0028 11.2369H21.712C22.3281 11.2369 22.9442 11.2369 23.5599 11.2373C24.0535 11.2373 24.2551 11.452 24.2551 11.9783C24.2555 12.9515 24.2559 13.9243 24.2547 14.8975Z" fill="#4E606E"/>
<path d="M14.0439 6.40448C14.0439 4.94486 14.0439 3.50582 14.0439 2C14.1998 2.09493 14.3417 2.14533 14.4375 2.24572C15.6176 3.48188 16.7929 4.7235 17.9627 5.97058C18.0629 6.07727 18.1173 6.23142 18.2163 6.40448C16.7877 6.40448 15.4232 6.40448 14.0439 6.40448Z" fill="#627185"/>
</svg>
