<svg width="259" height="158" viewBox="0 0 259 158" fill="none" xmlns="http://www.w3.org/2000/svg">
<path d="M256.573 147.625H2.42708C1.08664 147.625 0 148.714 0 150.057V155.568C0 156.911 1.08664 158 2.42708 158H256.573C257.913 158 259 156.911 259 155.568V150.057C259 148.714 257.913 147.625 256.573 147.625Z" fill="#DFE5FF"/>
<path d="M214.063 123.133C214.063 123.133 206.454 108.63 213.489 93.5742C219.578 107.64 214.063 123.133 214.063 123.133Z" fill="#7891FF"/>
<path d="M215.552 119.398C215.552 119.398 227.746 108.484 226.423 91.9141C215.799 102.959 215.552 119.398 215.552 119.398Z" fill="#7891FF"/>
<path d="M217.87 102.049C217.87 102.049 210.262 87.5462 217.296 72.4902C223.386 86.5561 217.87 102.049 217.87 102.049Z" fill="#7891FF"/>
<path d="M219.353 98.3138C219.353 98.3138 231.546 87.4004 230.224 70.8301C219.6 81.8745 219.353 98.3138 219.353 98.3138Z" fill="#7891FF"/>
<path d="M222.427 76.7852C222.427 76.7852 214.818 62.2825 221.853 47.2266C227.942 61.2924 222.427 76.7852 222.427 76.7852Z" fill="#7891FF"/>
<path d="M223.328 73.8079C223.328 73.8079 235.521 62.8945 234.199 46.3242C223.575 57.3687 223.328 73.8079 223.328 73.8079Z" fill="#7891FF"/>
<path d="M226.125 54.4569C226.125 54.4569 235.674 41.1555 230.798 25.2695C222.819 38.3525 226.125 54.4569 226.125 54.4569Z" fill="#7891FF"/>
<path d="M230.325 30.5254L227.506 46.9719C227.506 46.9719 217.129 112.481 212.733 128.811" fill="#7891FF"/>
<path d="M230.325 30.5254L227.506 46.9719C227.506 46.9719 217.129 112.481 212.733 128.811" stroke="#343C62" stroke-width="0.43" stroke-miterlimit="10"/>
<path d="M218.314 141.08C218.314 141.08 212.798 125.653 221.86 111.732C225.929 126.512 218.314 141.08 218.314 141.08Z" fill="#7891FF"/>
<path d="M220.297 137.585C220.297 137.585 233.893 128.477 234.889 111.893C222.833 121.343 220.297 137.585 220.297 137.585Z" fill="#7891FF"/>
<path d="M225.013 120.73C225.013 120.73 219.498 105.303 228.56 91.3828C232.629 106.162 225.013 120.73 225.013 120.73Z" fill="#7891FF"/>
<path d="M226.663 117.607C226.663 117.607 240.259 108.499 241.255 91.9141C229.199 101.364 226.663 117.607 226.663 117.607Z" fill="#7891FF"/>
<path d="M233.043 96.3553C233.043 96.3553 227.528 80.928 236.589 67.0078C240.659 81.7871 233.043 96.3553 233.043 96.3553Z" fill="#7891FF"/>
<path d="M233.959 94.5286C233.959 94.5286 247.555 85.4208 248.55 68.8359C236.495 78.286 233.959 94.5286 233.959 94.5286Z" fill="#7891FF"/>
<path d="M239.808 74.7618C239.808 74.7618 251.115 62.9238 248.499 46.5137C238.777 58.3517 239.808 74.7618 239.808 74.7618Z" fill="#7891FF"/>
<path d="M247.511 50.082L242.221 67.5405C242.221 67.5405 222.826 130.961 216.199 146.519" fill="#7891FF"/>
<path d="M247.511 50.082L242.221 67.5405C242.221 67.5405 222.826 130.961 216.199 146.519" stroke="#343C62" stroke-width="0.43" stroke-miterlimit="10"/>
<path d="M221.533 54.0566L223.24 73.0513" stroke="#343C62" stroke-width="0.43" stroke-miterlimit="10"/>
<path d="M231.851 53.125L222.826 75.5051" stroke="#343C62" stroke-width="0.43" stroke-miterlimit="10"/>
<path d="M213.43 100.105L214.31 122.107L224.098 99.4863" fill="#7891FF"/>
<path d="M213.43 100.105L214.31 122.107L224.098 99.4863" stroke="#343C62" stroke-width="0.43" stroke-miterlimit="10"/>
<path d="M227.339 98.3145L225.5 119.712L237.396 99.4866" fill="#7891FF"/>
<path d="M227.339 98.3145L225.5 119.712L237.396 99.4866" stroke="#343C62" stroke-width="0.43" stroke-miterlimit="10"/>
<path d="M221.038 117.717L218.931 139.449L231.851 118.343" fill="#7891FF"/>
<path d="M221.038 117.717L218.931 139.449L231.851 118.343" stroke="#343C62" stroke-width="0.43" stroke-miterlimit="10"/>
<path d="M216.206 20.3789H42.7937V138.228H216.206V20.3789Z" fill="#DFE5FF" stroke="#BDCAFE" stroke-width="0.85" stroke-miterlimit="10"/>
<path d="M216.206 31.2422H42.7937V138.228H216.206V31.2422Z" fill="#BDCAFE" stroke="#BDCAFE" stroke-width="0.85" stroke-miterlimit="10"/>
<path d="M132.603 24.0547H47.3354V27.411H132.603V24.0547Z" fill="#BDCAFE" stroke="#BDCAFE" stroke-width="0.85" stroke-miterlimit="10"/>
<path d="M211.665 24.0547H208.315V27.411H211.665V24.0547Z" fill="#8097FD"/>
<path d="M206.244 24.0547H202.894V27.411H206.244V24.0547Z" fill="#8097FD"/>
<path d="M200.83 24.0547H197.48V27.411H200.83V24.0547Z" fill="#8097FD"/>
<path d="M154.294 110.125H57.7051V128.326H154.294V110.125Z" fill="#DFE5FF" stroke="#BDCAFE" stroke-width="0.85" stroke-miterlimit="10"/>
<path d="M153.611 49.4785H60.5681V105.618H153.611V49.4785Z" fill="white"/>
<path d="M153.008 50.0836V105.015H61.1714V50.0836H153.008ZM154.214 48.875H59.9651V106.223H154.214V48.875Z" fill="#8097FD"/>
<mask id="mask0_317_213" style="mask-type:luminance" maskUnits="userSpaceOnUse" x="61" y="50" width="93" height="56">
<path d="M153.008 50.084H61.1714V105.015H153.008V50.084Z" fill="white"/>
</mask>
<g mask="url(#mask0_317_213)">
<g opacity="0.5">
<path d="M135.343 55.4131C133.061 54.8889 130.634 55.02 128.432 55.7917C126.041 56.6289 123.418 58.3763 124.602 61.9364C126.63 68.0447 119.058 69.2605 119.058 79.1765C119.058 89.0925 139.223 89.3473 145.24 82.3726C151.257 75.3979 141.672 70.7312 141.388 64.9723C141.156 60.2036 140.24 56.5343 135.328 55.4131H135.343Z" fill="#252A40"/>
<path d="M111.653 82.4602V88.3428L122.902 83.6978L121.543 76.8906L111.653 82.4602Z" fill="#EABBAB"/>
<path d="M129.297 72.5215L121.543 76.8898L122.902 83.697L127.865 81.6512L129.297 72.5215Z" fill="#8097FD"/>
<path d="M80.1738 137.471H125.256L118.905 56.541H73.8154L80.1738 137.471Z" fill="#BDCAFE"/>
<path d="M113.259 139.276H64.7466L72.8126 56.541H117.903L113.259 139.276Z" fill="#E8EDFF"/>
<path d="M110.992 67.1123H77.7249L77.9647 64.5059H111.232L110.992 67.1123Z" fill="#A4B5FD"/>
<path d="M110.505 72.4993H81.0603L81.2565 70.3516H110.701L110.505 72.4993Z" fill="#BECCFD"/>
<path d="M79.28 72.4993H77.238L77.4342 70.3516H79.4762L79.28 72.4993Z" fill="#BECCFD"/>
<path d="M110.069 77.2761H80.6243L80.8205 75.1211H110.265L110.069 77.2761Z" fill="#BECCFD"/>
<path d="M78.8439 77.2761H76.802L76.9982 75.1211H79.0401L78.8439 77.2761Z" fill="#BECCFD"/>
<path d="M109.488 82.9038H76.2207L76.4605 80.3047H109.727L109.488 82.9038Z" fill="#A4B5FD"/>
<path d="M109.001 88.2981H79.5562L79.7524 86.1504H109.197L109.001 88.2981Z" fill="#BECCFD"/>
<path d="M77.7758 88.2981H75.7339L75.9301 86.1504H77.972L77.7758 88.2981Z" fill="#BECCFD"/>
<path d="M108.565 93.0749H79.1201L79.3163 90.9199H108.761L108.565 93.0749Z" fill="#BECCFD"/>
<path d="M77.3398 93.0749H75.2979L75.4941 90.9199H77.536L77.3398 93.0749Z" fill="#BECCFD"/>
<path d="M108.129 97.843H78.6841L78.8803 95.6953H108.325L108.129 97.843Z" fill="#BECCFD"/>
<path d="M76.9038 97.843H74.8618L75.058 95.6953H77.1L76.9038 97.843Z" fill="#BECCFD"/>
<path d="M133.758 71.6411C128.025 71.5174 123.011 76.0822 122.691 82.1177C122.677 82.4016 122.669 82.6929 122.669 82.9914C122.669 91.342 125.264 101.964 125.264 101.964L138.533 102.103L141.548 79.4458C141.868 75.5362 139.092 72.0561 135.379 71.7285C134.863 71.6848 134.325 71.6557 133.766 71.6411H133.758Z" fill="#8097FD"/>
<path d="M130.002 71.6347C130.002 71.6347 128.01 72.0424 128.01 74.2702C128.01 76.7092 131.121 75.122 131.121 75.122C131.121 75.122 131.796 77.2771 134.035 76.1996C136.273 75.1221 137.712 71.4309 135.19 71.0596C132.668 70.681 130.161 71.6347 130.161 71.6347" fill="#CBD4FD"/>
<path d="M130.002 66.5371H135.19V71.2257C135.19 73.0604 133.7 74.5529 131.869 74.5529C130.837 74.5529 130.002 73.7156 130.002 72.6818V66.5371Z" fill="#EABBAB"/>
<path d="M131.905 69.9596C129.275 69.9596 127.117 67.7973 127.117 65.1617V61.7763C127.117 59.1408 129.275 56.9785 131.905 56.9785C134.536 56.9785 136.694 59.1408 136.694 61.7763V65.1617C136.694 67.7973 134.536 69.9596 131.905 69.9596Z" fill="#EABBAB"/>
<path d="M136.694 65.4969C137.461 65.4969 138.082 64.7993 138.082 63.9389C138.082 63.0784 137.461 62.3809 136.694 62.3809C135.928 62.3809 135.306 63.0784 135.306 63.9389C135.306 64.7993 135.928 65.4969 136.694 65.4969Z" fill="#EABBAB"/>
<path d="M138.526 102.103L125.257 101.965C125.257 101.965 117.503 115.31 122.662 150.7C143.409 150.7 141.89 150.86 141.89 150.86C141.89 150.86 148.554 120.705 138.518 102.11L138.526 102.103Z" fill="#252A40"/>
<path d="M124.588 60.3209C124.588 60.3209 126.732 64.529 134.638 59.2943C142.544 54.0597 123.861 55.4211 124.588 60.3209Z" fill="#252A40"/>
<path d="M129.82 63.2168C129.82 63.2168 128.12 66.5949 129.82 66.3255Z" fill="#DDA090"/>
<path d="M129.587 67.1055H132.654C132.654 67.1055 132.458 68.0374 131.121 68.0374C129.784 68.0374 129.587 67.1055 129.587 67.1055Z" fill="white"/>
<path d="M136.527 62.9474C136.527 62.9474 136.026 62.9474 136.026 63.8502C136.571 63.8502 136.571 64.5491 136.571 64.5491C136.571 64.5491 137.239 64.4472 137.239 63.6827C137.239 62.9183 136.534 62.9474 136.534 62.9474H136.527Z" fill="#DDA090"/>
<path d="M139.426 73.8688C136.687 72.2161 134.761 77.3852 133.497 83.2678L141.192 85.3209C141.955 79.9844 141.628 75.1938 139.426 73.8688Z" fill="#8097FD"/>
<path d="M133.497 83.2676C132.094 89.7836 131.506 97.1805 131.506 97.1805C131.506 97.1805 117.903 92.9433 113.092 91.9968L112.322 91.4726C111.515 90.9266 110.665 90.4534 109.771 90.1039C109.132 89.8491 108.507 89.6817 108.332 89.8709C108.027 90.1913 108.848 90.599 109.284 90.7883C109.197 90.7956 109.11 90.8028 109.03 90.8174C107.969 90.6718 105.215 90.2058 104.931 90.7373C104.488 91.5673 107.148 94.2829 112.358 94.0499C112.358 94.0499 125.896 101.316 132 103.056C135.786 104.133 139.942 94.0135 141.192 85.3279L133.497 83.2749V83.2676Z" fill="#EABBAB"/>
</g>
</g>
<path d="M107.09 91.5685C115.088 91.5685 121.572 84.7364 121.572 76.3087C121.572 67.8809 115.088 61.0488 107.09 61.0488C99.0912 61.0488 92.6072 67.8809 92.6072 76.3087C92.6072 84.7364 99.0912 91.5685 107.09 91.5685Z" fill="white"/>
<path d="M102.679 76.3093V68.1406L109.401 72.225L116.115 76.3093L109.401 80.3936L102.679 84.4852V76.3093Z" fill="#43538B"/>
<path d="M153.008 98.6289H61.1714V105.655H153.008V98.6289Z" fill="#8097FD"/>
<path d="M153.008 100.945H61.1714V103.472H153.008V100.945Z" fill="#E8EDFF"/>
<path d="M106.058 100.945H61.1714V103.472H106.058V100.945Z" fill="#43538B"/>
<path d="M151.264 113.438H60.7354V117.267H151.264V113.438Z" fill="#A9BCFF"/>
<path d="M201.295 50.084H160.493V128.327H201.295V50.084Z" fill="#DFE5FF" stroke="#BDCAFE" stroke-width="0.85" stroke-miterlimit="10"/>
<path d="M202.901 41.1426H57.7051V45.2924H202.901V41.1426Z" fill="#8097FD"/>
<path d="M197.684 54.459H164.097V56.9562H197.684V54.459Z" fill="#617EFC"/>
<path d="M197.691 60.0723H167.963V62.1399H197.691V60.0723Z" fill="#A9BCFF"/>
<path d="M166.161 60.0723H164.097V62.1399H166.161V60.0723Z" fill="#617EFC"/>
<path d="M197.691 64.6523H167.963V66.72H197.691V64.6523Z" fill="#A9BCFF"/>
<path d="M166.161 64.6523H164.097V66.72H166.161V64.6523Z" fill="#617EFC"/>
<path d="M197.691 69.2383H167.963V71.3059H197.691V69.2383Z" fill="#A9BCFF"/>
<path d="M166.161 69.2383H164.097V71.3059H166.161V69.2383Z" fill="#617EFC"/>
<path d="M197.684 75.5059H164.097V78.0031H197.684V75.5059Z" fill="#617EFC"/>
<path d="M197.691 81.1191H167.963V83.1868H197.691V81.1191Z" fill="#A9BCFF"/>
<path d="M166.161 81.1191H164.097V83.1868H166.161V81.1191Z" fill="#617EFC"/>
<path d="M197.691 85.7051H167.963V87.7727H197.691V85.7051Z" fill="#A9BCFF"/>
<path d="M166.161 85.7051H164.097V87.7727H166.161V85.7051Z" fill="#617EFC"/>
<path d="M197.691 90.2852H167.963V92.3528H197.691V90.2852Z" fill="#A9BCFF"/>
<path d="M166.161 90.2852H164.097V92.3528H166.161V90.2852Z" fill="#617EFC"/>
<path d="M197.684 96.5977H164.097V99.0949H197.684V96.5977Z" fill="#617EFC"/>
<path d="M197.691 102.203H167.963V104.271H197.691V102.203Z" fill="#A9BCFF"/>
<path d="M166.161 102.203H164.097V104.271H166.161V102.203Z" fill="#617EFC"/>
<path d="M197.691 106.791H167.963V108.859H197.691V106.791Z" fill="#A9BCFF"/>
<path d="M166.161 106.791H164.097V108.859H166.161V106.791Z" fill="#617EFC"/>
<path d="M197.691 111.369H167.963V113.437H197.691V111.369Z" fill="#A9BCFF"/>
<path d="M166.161 111.369H164.097V113.437H166.161V111.369Z" fill="#617EFC"/>
<path d="M189.574 117.719H172.214C170.724 117.719 169.51 118.927 169.51 120.427C169.51 121.92 170.717 123.135 172.214 123.135H189.574C191.064 123.135 192.277 121.927 192.277 120.427C192.277 118.935 191.071 117.719 189.574 117.719Z" fill="#A9BCFF"/>
<path d="M73.7426 54.5455C72.1004 54.1887 70.3491 54.2761 68.7649 54.8003C67.0427 55.3754 65.1534 56.5694 66.0036 59.0157C67.4642 63.2019 62.0142 64.0319 62.0142 70.8246C62.0142 77.6172 76.5476 77.792 80.8858 73.016C85.224 68.24 78.3134 65.0366 78.1099 61.0906C77.9428 57.8217 77.2815 55.3099 73.7426 54.5382V54.5455Z" fill="#252A40"/>
<path d="M56.6658 73.08V77.1061L64.7754 73.9246L63.7944 69.2578L56.6658 73.08Z" fill="#EABBAB"/>
<path d="M69.3825 66.2734L63.7944 69.2584L64.7754 73.9252L68.3507 72.5201L69.3825 66.2734Z" fill="#8097FD"/>
<path d="M22.1416 152.809H20.6665L24.0964 110.771H25.5788L22.1416 152.809Z" fill="#343C62"/>
<path d="M53.4976 152.809H52.0225L55.4523 110.771H56.9348L53.4976 152.809Z" fill="#343C62"/>
<path d="M69.9057 152.809H68.4306L64.9934 110.771H66.4758L69.9057 152.809Z" fill="#343C62"/>
<path d="M33.9791 110.772H66.4759L61.8906 55.3164H29.4011L33.9791 110.772Z" fill="#BDCAFE"/>
<path d="M57.8285 112.009H22.8611L28.6817 55.3164H61.1712L57.8285 112.009Z" fill="#E8EDFF"/>
<path d="M56.1933 62.5611H32.2205L32.3876 60.7773H56.3677L56.1933 62.5611Z" fill="#A4B5FD"/>
<path d="M55.8374 66.2519H34.6187L34.764 64.7812H55.9828L55.8374 66.2519Z" fill="#BECCFD"/>
<path d="M33.3396 66.2519H31.8645L32.0098 64.7812H33.4777L33.3396 66.2519Z" fill="#BECCFD"/>
<path d="M55.5249 69.5287H34.3062L34.4515 68.0508H55.6703L55.5249 69.5287Z" fill="#BECCFD"/>
<path d="M33.0271 69.5287H31.552L31.6901 68.0508H33.1652L33.0271 69.5287Z" fill="#BECCFD"/>
<path d="M55.1106 73.3872H31.1377L31.3048 71.6035H55.2777L55.1106 73.3872Z" fill="#A4B5FD"/>
<path d="M54.7547 77.0781H33.5359L33.6812 75.6074H54.8927L54.7547 77.0781Z" fill="#BECCFD"/>
<path d="M32.2496 77.0781H30.7817L30.9198 75.6074H32.3949L32.2496 77.0781Z" fill="#BECCFD"/>
<path d="M54.4422 80.3476H33.2234L33.3615 78.877H54.5802L54.4422 80.3476Z" fill="#BECCFD"/>
<path d="M31.9371 80.3476H30.4692L30.6073 78.877H32.0824L31.9371 80.3476Z" fill="#BECCFD"/>
<path d="M54.1297 83.6244H32.9109L33.049 82.1465H54.2677L54.1297 83.6244Z" fill="#BECCFD"/>
<path d="M31.6246 83.6244H30.1567L30.2948 82.1465H31.7627L31.6246 83.6244Z" fill="#BECCFD"/>
<path d="M72.5945 65.6635C68.4597 65.5834 64.8481 68.7068 64.6156 72.8421C64.6011 73.0386 64.6011 73.2352 64.6011 73.4391C64.6011 79.1615 66.4686 86.4347 66.4686 86.4347L76.0316 86.5293L78.2044 71.0001C78.4296 68.3209 76.4313 65.9402 73.7571 65.7145C73.3865 65.6854 73.0014 65.6635 72.5945 65.6562V65.6635Z" fill="#8097FD"/>
<path d="M69.8913 65.6629C69.8913 65.6629 68.4597 65.9396 68.4597 67.4685C68.4597 69.1357 70.6979 68.0509 70.6979 68.0509C70.6979 68.0509 71.1847 69.5216 72.7979 68.7862C74.4112 68.0509 75.4503 65.5173 73.6336 65.2625C71.8169 65.0077 70.0075 65.6556 70.0075 65.6556" fill="#CBD4FD"/>
<path d="M71.2427 67.6652C72.5653 67.6652 73.6335 66.595 73.6335 65.27V62.1758H69.8911V66.3184C69.8911 67.061 70.4942 67.6652 71.2355 67.6652H71.2427Z" fill="#EABBAB"/>
<path d="M74.7164 59.0734C74.7164 57.1635 73.171 55.6152 71.2647 55.6152C69.3584 55.6152 67.813 57.1635 67.813 59.0734V61.0537C67.813 62.9637 69.3584 64.5119 71.2647 64.5119C73.171 64.5119 74.7164 62.9637 74.7164 61.0537V59.0734Z" fill="#EABBAB"/>
<path d="M75.7118 60.3833C75.7118 60.973 75.2612 61.4462 74.7162 61.4462C74.1712 61.4462 73.7207 60.9657 73.7207 60.3833C73.7207 59.8008 74.1712 59.3203 74.7162 59.3203C75.2612 59.3203 75.7118 59.8008 75.7118 60.3833Z" fill="#EABBAB"/>
<path d="M65.0442 90.7812C65.0442 90.7812 64.7899 102.874 64.7899 122.903C64.7899 142.931 65.4729 151.034 65.4729 151.034C65.4729 151.034 60.8804 151.296 60.8804 152.811H67.3768L72.8123 90.7812H65.0442Z" fill="#EABBAB"/>
<path d="M68.4524 90.7812C71.5407 115.782 73.9097 134.26 78.277 151.034C78.277 151.034 73.6844 151.296 73.6844 152.811H80.1809L76.9472 90.7812H68.4524Z" fill="#EABBAB"/>
<path d="M76.0316 86.5361L66.4686 86.4414C66.4686 86.4414 60.8805 95.5857 64.601 119.837C79.5559 119.837 78.4587 119.946 78.4587 119.946C78.4587 119.946 83.2619 99.2841 76.0316 86.5433V86.5361Z" fill="#252A40"/>
<path d="M65.989 57.9098C65.989 57.9098 67.5368 60.7929 73.2339 57.2036C78.931 53.6143 65.4658 54.5535 65.989 57.9098Z" fill="#252A40"/>
<path d="M69.7604 59.8887C69.7604 59.8887 68.5323 62.2039 69.7604 62.0146Z" fill="#DDA090"/>
<path d="M69.5933 62.5605H71.8023C71.8023 62.5605 71.6643 63.1939 70.6978 63.1939C69.7313 63.1939 69.5933 62.5605 69.5933 62.5605Z" fill="white"/>
<path d="M74.6436 59.8375C74.6436 59.8375 74.2803 59.8375 74.2803 60.4563C74.6727 60.4563 74.6727 60.9296 74.6727 60.9296C74.6727 60.9296 75.1523 60.8568 75.1523 60.3326C75.1523 59.8084 74.6436 59.8302 74.6436 59.8302V59.8375Z" fill="#DDA090"/>
<path d="M64.4848 151.129V152.075H67.4496V152.811H60.8805C60.8805 152.811 60.7425 151.129 64.4848 151.129Z" fill="#8097FD"/>
<path d="M77.2087 151.129V152.075H80.1372L80.1735 152.811H73.6044C73.6044 152.811 73.4663 151.129 77.2087 151.129Z" fill="#8097FD"/>
<path d="M76.6857 67.1912C74.7091 66.0627 73.3212 69.601 72.4128 73.6344L77.9573 75.0395C78.5096 71.3848 78.2698 68.1013 76.6857 67.1912Z" fill="#8097FD"/>
<path d="M72.4128 73.6348C71.4028 78.0977 70.974 83.1649 70.974 83.1649C70.974 83.1649 61.1712 80.26 57.705 79.612L57.1528 79.2553C56.5714 78.884 55.961 78.5564 55.3143 78.3161C54.8492 78.1414 54.4059 78.0249 54.2751 78.1559C54.0571 78.3743 54.653 78.6583 54.9655 78.782C54.9001 78.782 54.8419 78.7966 54.7838 78.7966C54.0208 78.6947 52.0297 78.3816 51.8263 78.7456C51.5065 79.3135 53.4177 81.1773 57.1818 81.0171C57.1818 81.0171 66.9337 85.997 71.3374 87.1837C74.0624 87.919 77.0635 80.988 77.9646 75.0399L72.4201 73.6348H72.4128Z" fill="#EABBAB"/>
<path d="M165.448 26.0504L137.907 20.1386V7.95117H165.448V26.0504Z" fill="#343C62"/>
<path d="M192.989 20.1386L165.448 26.0504V7.95117H192.989V20.1386Z" fill="#252A40"/>
<path d="M129.5 7.95025L165.448 0L201.397 7.95025L165.448 15.9005L129.5 7.95025Z" fill="#43538B"/>
<path d="M165.448 7.80469L147.296 11.889L146.184 27.4401" stroke="#8097FD" stroke-width="0.85" stroke-miterlimit="10"/>
<path d="M146.977 28.2637C147.187 28.0598 147.325 27.7686 147.325 27.4483C147.325 26.8221 146.817 26.3125 146.192 26.3125C145.567 26.3125 145.058 26.8221 145.058 27.4483C145.058 27.7686 145.196 28.0598 145.407 28.2637L144.164 31.7073H148.219L146.977 28.2637Z" fill="#617EFC"/>
<path d="M220.69 88.9746H192.139C190.152 88.9746 188.542 90.5881 188.542 92.5784V149.009C188.542 151 190.152 152.613 192.139 152.613H220.69C222.677 152.613 224.287 151 224.287 149.009V92.5784C224.287 90.5881 222.677 88.9746 220.69 88.9746Z" fill="#343C62"/>
<path d="M221.46 95.2871H191.362V146.301H221.46V95.2871Z" fill="#607DFB"/>
<path d="M199.587 109.557H202.647C203.09 107.067 205.255 105.174 207.871 105.174C210.487 105.174 212.653 107.067 213.096 109.557H213.234C215.153 109.557 216.722 111.129 216.722 113.051C216.722 114.973 215.153 116.546 213.234 116.546H199.587C197.669 116.546 196.099 114.973 196.099 113.051C196.099 111.129 197.669 109.557 199.587 109.557Z" fill="white"/>
<path d="M197.916 123.811H199.645V128.557H202.559V129.926H197.923V123.811H197.916Z" fill="white"/>
<path d="M208.751 129.926L208.736 126.686L207.167 129.322H206.396L204.834 126.774V129.926H203.235V123.811H204.66L206.803 127.342L208.896 123.811H210.32L210.335 129.926H208.751Z" fill="white"/>
<path d="M212.261 129.861C211.795 129.738 211.418 129.577 211.127 129.374L211.694 128.099C211.97 128.281 212.282 128.427 212.646 128.536C213.009 128.645 213.358 128.704 213.707 128.704C214.368 128.704 214.702 128.536 214.702 128.209C214.702 128.034 214.608 127.903 214.419 127.823C214.23 127.735 213.925 127.648 213.51 127.553C213.053 127.451 212.667 127.35 212.362 127.233C212.057 127.117 211.788 126.935 211.57 126.687C211.352 126.44 211.236 126.097 211.236 125.675C211.236 125.304 211.338 124.969 211.541 124.663C211.745 124.365 212.05 124.124 212.449 123.95C212.856 123.775 213.351 123.688 213.939 123.688C214.339 123.688 214.739 123.731 215.124 123.826C215.509 123.92 215.858 124.052 216.156 124.226L215.625 125.508C215.044 125.195 214.477 125.034 213.932 125.034C213.59 125.034 213.336 125.085 213.183 125.187C213.024 125.289 212.951 125.42 212.951 125.588C212.951 125.755 213.045 125.872 213.227 125.952C213.416 126.032 213.714 126.119 214.128 126.207C214.593 126.308 214.978 126.41 215.284 126.527C215.589 126.643 215.85 126.818 216.076 127.066C216.301 127.313 216.41 127.648 216.41 128.078C216.41 128.442 216.308 128.777 216.105 129.075C215.901 129.374 215.596 129.607 215.189 129.789C214.782 129.963 214.288 130.058 213.707 130.058C213.212 130.058 212.733 130 212.268 129.876L212.261 129.861Z" fill="white"/>
<path d="M152.797 138.547H112.409V149.424H152.797V138.547Z" fill="#343C62"/>
<path d="M109.495 145.324H155.718C159.141 145.324 161.917 148.105 161.917 151.534C161.917 152.124 161.437 152.605 160.848 152.605H104.364C103.776 152.605 103.296 152.124 103.296 151.534C103.296 148.105 106.072 145.324 109.495 145.324Z" fill="#4A5477"/>
</svg>
