<svg width="87" height="78" viewBox="0 0 87 78" fill="none" xmlns="http://www.w3.org/2000/svg">
<g clip-path="url(#clip0_320_214)">
<path d="M42.0289 22.5774C28.9092 22.5774 15.7895 22.5774 2.67107 22.5774C1.28101 22.5774 0.451808 22.0549 0.114786 20.941C0.0308487 20.6632 0.0105002 20.3561 0.0105002 20.063C0.00414125 15.6879 -0.00730478 11.3129 0.0105002 6.93786C0.0270333 3.04328 3.02716 0.0101952 6.90228 0.00764643C31.2976 -0.00254881 55.6929 -0.00254881 80.0869 0.00764643C83.9684 0.00892084 86.9889 3.03309 86.9914 6.92512C87.0029 28.3122 87.0029 49.6993 86.9914 71.0863C86.9889 74.944 83.9735 77.9898 80.1391 77.9911C55.7234 78.0038 31.3065 78.0038 6.89084 77.9911C3.04751 77.9898 0.0181308 74.958 0.0130437 71.1118C-0.00348943 57.5203 0.00414125 43.9275 0.0079566 30.3347C0.0079566 29.0437 0.793917 28.0573 1.90291 27.9108C3.13527 27.7476 4.16795 28.3861 4.48844 29.5586C4.58637 29.9192 4.58382 30.3143 4.58382 30.6928C4.58891 44.0511 4.58764 57.4107 4.58891 70.769C4.58891 72.1263 5.14595 72.9737 6.27275 73.3025C6.55127 73.3841 6.8565 73.4019 7.15028 73.4019C31.3752 73.4058 55.6013 73.407 79.8262 73.4045C81.5202 73.4045 82.4143 72.4767 82.4156 70.7308C82.4168 54.9294 82.413 39.1281 82.4308 23.3267C82.4308 22.6972 82.2388 22.5634 81.6423 22.5646C68.4387 22.5812 55.2338 22.5774 42.0301 22.5774H42.0289ZM59.3353 9.0024C54.3969 9.0024 49.4599 9.0024 44.5216 9.0024C44.0548 9.0024 43.5868 8.97946 43.1239 9.0177C41.5049 9.14768 40.5307 10.8452 41.2531 12.2955C41.7198 13.2322 42.5376 13.5826 43.555 13.5826C54.0663 13.5775 64.5788 13.5801 75.0901 13.5788C75.2592 13.5788 75.4297 13.575 75.5975 13.5533C77.027 13.3736 77.9211 11.9845 77.495 10.6094C77.1745 9.57334 76.3441 9.00622 75.1028 9.00622C69.8465 9.0024 64.5915 9.00495 59.3353 9.00368V9.0024ZM22.1268 11.2747C22.1217 10.041 21.0814 9.00495 19.8503 9.00622C18.595 9.00622 17.5484 10.0755 17.5674 11.3358C17.5865 12.5733 18.6306 13.5813 19.8744 13.566C21.1119 13.5508 22.1319 12.5121 22.1255 11.2747H22.1268ZM28.0495 13.566C29.2818 13.5559 30.3056 12.5223 30.3056 11.2874C30.3056 10.0449 29.2933 9.03936 28.0355 9.03299C26.7497 9.02662 25.7374 10.0487 25.759 11.3333C25.7793 12.5771 26.8044 13.5762 28.0495 13.566ZM13.9352 11.304C13.9441 10.0487 12.9572 9.05083 11.6905 9.03426C10.4366 9.01769 9.40769 10.0092 9.38861 11.2543C9.36826 12.5134 10.4124 13.5711 11.6715 13.566C12.9127 13.5622 13.9276 12.5491 13.9365 11.304H13.9352Z" fill="#4E606E"/>
<path d="M61.6342 66.5077H62.9976C63.0141 66.2133 63.0408 65.9444 63.0408 65.6767C63.0433 61.2801 63.0421 56.8846 63.0433 52.4879C63.0433 52.233 63.037 51.9782 63.051 51.7233C63.1286 50.2985 64.0239 49.3898 65.4559 49.3746C67.9359 49.3478 70.4159 49.3452 72.8946 49.3746C74.4118 49.3937 75.297 50.3788 75.2995 51.9871C75.3071 56.5533 75.311 61.1195 75.2919 65.6857C75.2893 66.2566 75.3809 66.5191 76.0359 66.6173C77.2771 66.8033 77.9868 67.8585 77.8736 69.1138C77.768 70.2837 76.8396 71.1236 75.5768 71.1261C70.1513 71.1401 64.7259 71.1414 59.3005 71.1414C51.4803 71.1414 43.6589 71.1363 35.8387 71.1274C35.461 71.1274 35.0642 71.1274 34.7081 71.0216C33.6754 70.7132 33.0484 69.7472 33.1311 68.6818C33.2163 67.5845 33.9628 66.7179 35.0934 66.5918C35.6899 66.5255 35.7458 66.2643 35.742 65.7787C35.723 63.8671 35.7293 61.9555 35.7357 60.0439C35.742 58.2431 36.6374 57.3562 38.4446 57.3536C40.7554 57.3511 43.0649 57.3485 45.3758 57.3536C47.0685 57.3574 47.9753 58.2444 47.9893 59.9394C48.0058 61.9147 48.0173 63.89 47.9804 65.8641C47.9689 66.4733 48.2246 66.5408 48.7333 66.5523C49.2801 66.5637 49.4035 66.3637 49.401 65.8526C49.3806 62.7303 49.3882 59.608 49.3933 56.487C49.3959 54.7181 50.2352 53.8503 51.9903 53.8375C54.3215 53.821 56.6526 53.8222 58.9851 53.8362C60.7796 53.8464 61.6304 54.713 61.6329 56.5049C61.6368 59.5634 61.6342 62.622 61.6342 65.6793C61.6342 65.9304 61.6342 66.1827 61.6342 66.5038V66.5077ZM70.7135 60.2745C70.7135 58.3846 70.7046 56.4947 70.7198 54.6047C70.7236 54.1561 70.599 53.9344 70.1094 53.956C69.4747 53.9841 68.8376 53.9764 68.203 53.9586C67.796 53.9458 67.6319 54.1051 67.6319 54.5168C67.6396 58.3604 67.6396 62.204 67.6319 66.0476C67.6319 66.4516 67.8163 66.5548 68.1788 66.5446C68.7931 66.5268 69.4112 66.5026 70.0216 66.551C70.6079 66.5982 70.7325 66.3573 70.7236 65.8182C70.6957 63.9716 70.7135 62.1237 70.7122 60.2758L70.7135 60.2745ZM54.029 66.5332C54.9548 66.5332 55.84 66.5484 56.7226 66.514C56.8345 66.5102 57.0291 66.2451 57.0304 66.0999C57.0494 63.7052 57.0405 61.3106 57.0482 58.9148C57.0494 58.5541 56.9019 58.4305 56.556 58.4381C55.9214 58.4521 55.2855 58.4713 54.6534 58.4318C54.1231 58.3986 53.9654 58.5898 53.9705 59.1148C53.9946 61.382 53.9794 63.6504 53.9832 65.9176C53.9832 66.1037 54.0099 66.2885 54.029 66.5319V66.5332ZM43.402 64.2838C43.402 63.6683 43.3943 63.0528 43.4045 62.4359C43.4096 62.0919 43.2824 61.9338 42.92 61.9427C42.2205 61.9593 41.521 61.958 40.8228 61.9427C40.4756 61.9351 40.3217 62.0574 40.3243 62.4181C40.3344 63.6288 40.3344 64.8382 40.3243 66.0489C40.3217 66.3968 40.4451 66.5497 40.8063 66.5408C41.5057 66.5255 42.2052 66.5217 42.9034 66.5421C43.3066 66.5548 43.416 66.3649 43.4083 66.003C43.3943 65.4295 43.4045 64.856 43.4032 64.2826L43.402 64.2838Z" fill="#4E606E"/>
<path d="M38.1572 52.023C36.3793 51.9491 34.6229 50.8964 33.6487 48.7848C32.6898 46.7062 32.9238 44.6544 34.3876 42.869C35.8833 41.044 37.8634 40.445 40.1488 40.9828C40.6092 41.0912 40.8903 41.0262 41.2069 40.6974C42.1798 39.6906 43.1718 38.7017 44.1753 37.7255C44.4551 37.4527 44.511 37.1902 44.4156 36.8181C43.6259 33.7085 45.3784 30.6653 48.4014 29.8738C51.3697 29.0965 54.4271 30.8297 55.2054 33.8704C55.4382 34.7778 55.311 35.7998 55.2232 36.7569C55.1838 37.1889 55.1902 37.4922 55.5272 37.7573C55.5768 37.7968 55.6251 37.8402 55.6633 37.8911C56.3958 38.861 57.2225 39.4306 58.5553 39.0011C59.1149 38.8202 59.8055 39.0674 60.4375 39.0802C60.6626 39.0853 60.9577 39.0432 61.1052 38.9017C63.2253 36.8831 65.3313 34.8504 67.4171 32.7973C67.5633 32.6533 67.6091 32.3016 67.5608 32.0773C66.8816 28.8989 68.479 26.0162 71.4741 25.1942C73.7455 24.571 75.7472 25.1547 77.267 26.9593C78.8186 28.8021 79.0857 30.9227 78.011 33.0853C76.9491 35.22 75.1342 36.2408 72.7471 36.1974C72.4304 36.1924 72.0832 36.2025 71.8073 36.0777C71.0951 35.7565 70.6487 36.0509 70.1501 36.5466C68.3607 38.327 66.5357 40.0704 64.712 41.815C64.3928 42.1209 64.2694 42.3719 64.4106 42.8575C65.0808 45.1718 64.5441 47.2185 62.7229 48.7975C60.9195 50.3612 58.8173 50.6339 56.6718 49.6157C54.4983 48.5847 53.4567 46.7508 53.4491 44.3396C53.4491 44.109 53.4466 43.8515 53.5394 43.6502C53.954 42.7555 53.6106 42.1273 52.8895 41.606C52.8221 41.5576 52.7598 41.4939 52.7102 41.4263C52.2345 40.793 51.7106 40.6094 50.8648 40.8197C50.1005 41.0096 49.2281 40.863 48.4205 40.7458C47.9461 40.677 47.6371 40.7292 47.3026 41.0797C46.3653 42.061 45.4013 43.0181 44.4245 43.9611C44.113 44.2632 44.0227 44.5435 44.1384 44.9717C45.1011 48.5605 42.4202 52.0307 38.1585 52.023H38.1572ZM73.0027 31.5956C73.5598 31.5968 74.0125 31.1584 74.0214 30.6054C74.0316 30.0255 73.5649 29.5667 72.9773 29.5782C72.419 29.5897 71.97 30.0446 71.9764 30.5913C71.9828 31.1036 72.4838 31.5943 73.0027 31.5956ZM50.8305 35.313C50.8305 34.7676 50.3777 34.2999 49.836 34.2884C49.2891 34.2769 48.8313 34.7191 48.8173 35.2748C48.802 35.8597 49.2586 36.3338 49.8309 36.3274C50.365 36.3223 50.8292 35.8508 50.8305 35.313ZM39.7253 46.4016C39.7189 45.8651 39.2497 45.3948 38.7193 45.3948C38.1674 45.3948 37.7273 45.8383 37.7223 46.4016C37.7172 47.0044 38.1559 47.439 38.7549 47.4237C39.3222 47.4084 39.7317 46.9789 39.724 46.4029L39.7253 46.4016ZM59.0793 43.5457C58.568 43.538 58.0517 44.0236 58.0364 44.527C58.0199 45.0558 58.4777 45.5337 59.0233 45.5554C59.6109 45.5796 60.0853 45.131 60.0865 44.5525C60.0878 44.0248 59.6172 43.5533 59.0793 43.5457Z" fill="#4E606E"/>
<path d="M12.5396 47.0724C10.8482 44.8702 10.1945 42.3698 10.7286 39.6171C11.1305 37.5488 12.1797 35.8245 13.7987 34.4749C17.1015 31.7196 21.8809 31.6929 25.2206 34.429C27.1257 35.9902 28.2207 38.0241 28.47 40.4875C28.7192 42.9433 28.0261 45.1378 26.5203 47.1004C26.65 47.2164 26.7352 47.3082 26.8357 47.3795C29.4569 49.2465 30.7833 51.7979 30.8189 55.0132C30.8418 57.0293 30.8406 59.0467 30.8189 61.0628C30.8011 62.7068 29.8778 63.6155 28.2283 63.618C22.4455 63.6269 16.6627 63.6256 10.8799 63.618C9.15923 63.6155 8.24355 62.6966 8.23592 60.9863C8.22829 59.076 8.23592 57.1657 8.23337 55.2553C8.22829 51.9444 9.52677 49.3 12.2382 47.3744C12.3069 47.326 12.3743 47.2737 12.4379 47.2177C12.4684 47.1909 12.4862 47.1501 12.5396 47.0711V47.0724ZM19.4861 59.025C21.5197 59.025 23.5532 59.0238 25.5868 59.0263C25.9226 59.0263 26.2405 59.0365 26.2316 58.5573C26.2049 57.0943 26.2799 55.6211 26.1388 54.1683C25.9455 52.1726 24.1383 50.5299 22.1403 50.4598C20.4056 50.3999 18.6658 50.4024 16.9311 50.4598C15.0183 50.5235 13.2404 52.0171 12.9847 53.9108C12.7876 55.3726 12.8817 56.8726 12.8143 58.3534C12.7889 58.8951 12.9987 59.0391 13.5113 59.034C15.5029 59.011 17.4945 59.025 19.4848 59.025H19.4861ZM19.5421 45.7585C22.0246 45.7559 23.9513 43.8354 23.9348 41.3783C23.9182 38.9582 21.9839 37.0148 19.5688 36.9944C17.1498 36.974 15.1455 38.9582 15.1341 41.3834C15.1226 43.8214 17.0773 45.761 19.5408 45.7585H19.5421Z" fill="#4E606E"/>
</g>
<defs>
<clipPath id="clip0_320_214">
<rect width="87" height="78" fill="white"/>
</clipPath>
</defs>
</svg>
