<svg width="24" height="24" viewBox="0 0 24 24" fill="none" xmlns="http://www.w3.org/2000/svg">
<path d="M15.4626 16.1443C14.9175 16.1219 14.4579 16.2199 14.052 16.517C13.4591 16.9515 13.131 17.5377 13.1262 18.3037C13.1226 18.946 13.1256 19.5884 13.1256 20.2495C13.3109 20.2588 13.4669 20.2663 13.6456 20.2751C13.6456 20.8438 13.6456 21.41 13.6456 21.9961C10.106 21.9961 6.56467 21.9961 3.0006 21.9961C3 15.359 3 8.71878 3 2.05981C6.16899 2.05981 9.33141 2.05981 12.5416 2.05981C12.5416 2.17842 12.5416 2.29828 12.5416 2.41751C12.5416 3.94695 12.547 5.47638 12.5363 7.00519C12.5345 7.26114 12.5996 7.34167 12.8512 7.33979C14.3054 7.32793 15.7596 7.33418 17.2138 7.33418C17.3322 7.33418 17.4505 7.33418 17.5904 7.33418C17.5904 7.5252 17.5904 7.69625 17.5904 7.87041C17.2874 7.93659 16.9712 7.97404 16.6747 8.07455C14.9749 8.65323 14.1285 10.4692 14.6671 12.3076C14.8756 13.0199 15.055 13.7428 15.2098 14.4701C15.3239 15.0044 15.3759 15.5525 15.4626 16.1443ZM7.68296 4.39829C6.33993 4.39517 5.24734 5.5207 5.24017 6.91467C5.233 8.33049 6.31722 9.47164 7.671 9.47351C9.0212 9.47538 10.1359 8.31926 10.1263 6.92654C10.1162 5.53818 9.01821 4.40078 7.68296 4.39829ZM13.116 10.87C10.476 10.87 7.86585 10.87 5.2581 10.87C5.2581 11.2658 5.2581 11.6353 5.2581 12.0049C7.88797 12.0049 10.4987 12.0049 13.116 12.0049C13.116 11.6178 13.116 11.2558 13.116 10.87ZM13.1124 13.2397C10.4736 13.2397 7.86406 13.2397 5.25571 13.2397C5.25571 13.6255 5.25571 13.9857 5.25571 14.3621C7.88139 14.3621 10.4909 14.3621 13.1124 14.3621C13.1124 13.9794 13.1124 13.6186 13.1124 13.2397ZM5.25332 16.7024C7.31896 16.7024 9.36189 16.7024 11.4383 16.7024C11.4383 16.4159 11.4192 16.1468 11.4437 15.8815C11.4694 15.5962 11.3624 15.5363 11.1066 15.5382C9.2561 15.5488 7.40622 15.5438 5.55575 15.5444C5.45893 15.5444 5.3627 15.5544 5.25332 15.5607C5.25332 15.9471 5.25332 16.3073 5.25332 16.7024ZM5.25332 19.054C7.00995 19.054 8.74447 19.054 10.4706 19.054C10.4706 18.6595 10.4706 18.2905 10.4706 17.9229C8.72056 17.9229 6.99381 17.9229 5.25332 17.9229C5.25332 18.3043 5.25332 18.6651 5.25332 19.054Z" fill="#627185"/>
<path d="M16.5847 16.1452C16.5387 15.7718 16.5219 15.4085 16.446 15.0596C16.2034 13.9403 15.9296 12.8285 15.6864 11.7092C15.5041 10.8702 15.7127 10.1329 16.3486 9.5792C16.9636 9.04358 17.6743 8.92872 18.4125 9.27643C19.156 9.62664 19.5684 10.2465 19.5857 11.1049C19.5923 11.4195 19.5427 11.7485 19.4542 12.05C19.0825 13.3116 18.8057 14.5907 18.6772 15.9054C18.6689 15.9916 18.5583 16.1339 18.4925 16.1358C17.8668 16.152 17.2404 16.1452 16.5847 16.1452Z" fill="#4E606E"/>
<path d="M14.2581 19.0591C14.2581 18.742 14.2318 18.4399 14.2641 18.144C14.3167 17.667 14.7303 17.3268 15.2402 17.3243C16.5151 17.3181 17.7893 17.3218 19.0642 17.3218C19.3732 17.3218 19.6817 17.3168 19.9901 17.3237C20.5405 17.3356 20.9141 17.6664 20.984 18.2364C21.0163 18.4998 20.9894 18.7713 20.9894 19.0591C18.7475 19.0591 16.5216 19.0591 14.2581 19.0591Z" fill="#4E606E"/>
<path d="M14.8154 21.9999C14.8154 21.4237 14.8154 20.8669 14.8154 20.2876C16.6755 20.2876 18.5289 20.2876 20.4003 20.2876C20.4003 20.855 20.4003 21.4194 20.4003 21.9999C18.5433 21.9999 16.6964 21.9999 14.8154 21.9999Z" fill="#4E606E"/>
<path d="M17.6589 6.14321C16.2992 6.14321 15.0075 6.14321 13.6914 6.14321C13.6914 4.78295 13.6914 3.42768 13.6914 2C13.8259 2.06742 13.9622 2.09738 14.0452 2.18353C15.1976 3.37587 16.3446 4.57382 17.4862 5.77677C17.5639 5.85917 17.5908 5.99338 17.6589 6.14321Z" fill="#627185"/>
</svg>
