<svg width="24" height="24" viewBox="0 0 24 24" fill="none" xmlns="http://www.w3.org/2000/svg">
<path d="M13.064 21.9945C10.8192 21.9945 8.57356 21.9852 6.32876 21.9999C5.64033 22.0046 5.13566 21.7536 4.75884 21.25C4.12461 20.4031 3.82824 19.4354 3.61485 18.4484C2.89763 15.1308 2.89086 11.7846 3.17453 8.42828C3.30578 6.87022 3.54033 5.3292 4.14493 3.85868C4.31682 3.44108 4.56324 3.0413 4.83336 2.66786C5.16445 2.21075 5.65473 1.99846 6.27372 2.00001C10.2984 2.00776 14.3223 2.00388 18.347 2.00388C19.9009 2.00388 20.9805 2.97467 20.983 4.40412C20.9907 8.05949 20.9924 11.7141 20.9746 15.3694C20.9729 15.7468 20.8721 16.1388 20.7341 16.4967C20.4005 17.3606 19.9474 17.6295 18.9618 17.6295C15.7568 17.6295 12.5509 17.6279 9.34582 17.6333C9.06723 17.6341 8.77763 17.645 8.51344 17.717C7.87836 17.889 7.49816 18.4011 7.5388 18.9652C7.58114 19.5633 8.02655 20.0266 8.68872 20.1343C8.93683 20.1746 9.19425 20.1839 9.44743 20.1839C12.9632 20.187 16.4799 20.1963 19.9957 20.1785C20.8823 20.1738 21.0864 20.7185 20.9703 21.3274C20.8891 21.7528 20.5122 21.993 19.9712 21.9937C17.6671 21.9953 15.3655 21.9945 13.064 21.9945ZM11.7456 9.81667C11.5762 10.8742 11.4052 11.89 11.2545 12.908C11.1554 13.5743 11.2553 14.1933 11.8387 14.6799C12.3976 15.1455 13.0759 15.2005 13.7787 15.1626C14.6746 15.1138 15.7847 14.2886 15.9219 13.5805C16.0108 13.1234 15.7076 12.7763 15.2301 12.86C15.0395 12.8933 14.8465 13.0816 14.7262 13.2443C14.4637 13.6006 14.1072 13.7959 13.7431 13.699C13.285 13.5774 13.3113 13.2404 13.3561 12.9119C13.5306 11.6482 13.7152 10.3854 13.8896 9.12093C13.9802 8.46702 13.5932 8.06104 12.8616 8.04864C12.1986 8.03702 11.5356 8.04089 10.8717 8.04709C10.4229 8.05097 10.1223 8.27255 10.052 8.6305C9.97074 9.04732 10.168 9.36575 10.616 9.50366C10.9742 9.61445 11.3391 9.70433 11.7456 9.81667ZM11.5026 5.69644C11.4924 6.40071 12.1402 7.00115 12.9184 7.01045C13.6881 7.01897 14.3579 6.41775 14.3587 5.71658C14.3596 5.02936 13.7279 4.44596 12.9615 4.42582C12.1876 4.40567 11.5127 4.99295 11.5026 5.69644Z" fill="#4E606E"/>
</svg>
