<svg width="60" height="60" viewBox="0 0 60 60" fill="none" xmlns="http://www.w3.org/2000/svg">
<path d="M28.9853 30.5245C22.6701 30.544 17.4648 25.3944 17.4454 19.1069C17.4259 12.6887 22.5254 7.53635 28.9269 7.50019C35.2589 7.46402 40.4697 12.6553 40.478 19.0068C40.4864 25.3332 35.3257 30.505 28.9853 30.5245Z" fill="#91D9FF"/>
<path d="M31.8176 50.4328C31.6507 50.4328 31.4921 50.4328 31.3336 50.4328C24.665 50.4328 17.9992 50.4328 11.3306 50.4328C8.9825 50.4328 7.49411 48.9444 7.50245 46.588C7.50802 45.3193 7.44403 44.034 7.61373 42.7849C7.90863 40.5815 9.22177 38.9345 10.8771 37.5435C12.7578 35.9633 14.9389 34.92 17.248 34.1494C21.9441 32.5803 26.7793 32.0962 31.7064 32.4245C31.7898 32.4301 31.8733 32.4468 31.94 32.4579C27.2745 38.4087 27.2272 44.3567 31.8176 50.4328Z" fill="#91D9FF"/>
<path d="M52.5053 41.4997C52.5136 47.5534 47.5977 52.486 41.5384 52.4999C35.4652 52.5138 30.5242 47.5757 30.5298 41.4997C30.5326 35.4431 35.4512 30.5328 41.5189 30.5244C47.5671 30.5133 52.4941 35.4375 52.5053 41.4997ZM43.6416 41.4663C43.8141 41.3494 43.956 41.2826 44.0617 41.1797C44.646 40.6038 45.2413 40.0335 45.7977 39.4298C46.3792 38.7983 46.3514 37.8691 45.7699 37.2793C45.1773 36.6728 44.2398 36.6505 43.586 37.2348C43.3523 37.4434 43.1325 37.6688 42.9155 37.8941C42.4648 38.3615 42.0169 38.8344 41.5106 39.3658C40.7678 38.598 40.1223 37.8941 39.4352 37.232C38.8092 36.631 37.8438 36.6756 37.254 37.2848C36.6781 37.8802 36.667 38.8094 37.2373 39.4381C37.4293 39.6496 37.6324 39.8471 37.8355 40.0446C38.3223 40.5204 38.812 40.9961 39.3378 41.5024C38.6367 42.1952 37.9634 42.7933 37.3737 43.4638C37.1066 43.767 36.9035 44.1982 36.8395 44.5989C36.7366 45.222 37.1539 45.8063 37.7298 46.0678C38.3307 46.3404 39.0012 46.2264 39.5075 45.7284C40.178 45.069 40.8262 44.3902 41.4772 43.7281C41.5551 43.7809 41.5829 43.7948 41.6024 43.8143C42.2172 44.4264 42.8293 45.0384 43.4469 45.6477C44.1619 46.3543 45.1217 46.3933 45.7643 45.7506C46.4042 45.108 46.368 44.1482 45.6558 43.4332C45.0215 42.8044 44.3761 42.184 43.6416 41.4663Z" fill="#2C7BE5"/>
</svg>
