<svg width="60" height="60" viewBox="0 0 60 60" fill="none" xmlns="http://www.w3.org/2000/svg">
<path d="M18.3648 28.8701C21.3534 31.9067 24.9451 33.5451 29.2 33.5481C33.4578 33.5511 37.0495 31.9187 40.0261 28.8971C43.4828 30.7185 45.6403 33.428 45.9793 37.4068C46.0273 37.9829 46.0123 37.9679 45.4452 38.0369C44.314 38.172 43.3658 38.6731 42.5616 39.4802C41.1214 40.9355 39.6661 42.3758 38.2228 43.8281C38.1298 43.9211 38.0788 44.0562 37.9497 44.2722C37.4876 43.7801 37.1456 43.393 36.7795 43.0269C34.7301 40.9835 31.6455 41.0135 29.7461 43.087C28.1258 44.8543 28.1018 47.6419 29.7191 49.4212C30.4212 50.1924 31.1804 50.9125 31.9095 51.6567C32.0085 51.7557 32.0986 51.8667 32.2456 52.0287C32.0475 52.0437 31.9335 52.0617 31.8195 52.0617C27.0275 52.0617 22.2356 52.0708 17.4436 52.0588C15.3942 52.0527 13.8189 51.1736 12.9127 49.3072C12.6337 48.7371 12.4596 48.0559 12.4506 47.4198C12.4056 44.1282 12.3456 40.8305 12.4596 37.5419C12.5677 34.3822 14.0409 31.8707 16.6065 30.0163C17.1646 29.6113 17.7647 29.2602 18.3648 28.8701Z" fill="#91D9FF"/>
<path d="M29.1971 7.5C35.5733 7.497 40.7554 12.616 40.7614 18.9263C40.7674 25.2305 35.5823 30.3796 29.221 30.3856C22.8568 30.3916 17.6597 25.2515 17.6567 18.9503C17.6507 12.64 22.8268 7.506 29.1971 7.5Z" fill="#91D9FF"/>
<path d="M47.6055 43.0215C47.5034 43.2105 47.3744 43.6456 47.0954 43.9277C44.4368 46.6222 41.7573 49.2988 39.0718 51.9663C38.3516 52.6834 37.4364 52.6744 36.7193 51.9633C35.21 50.466 33.7037 48.9597 32.2064 47.4504C31.5313 46.7692 31.5223 45.785 32.1584 45.1519C32.8035 44.5128 33.7667 44.5308 34.4538 45.2089C35.492 46.2321 36.5303 47.2583 37.5445 48.3056C37.8085 48.5786 37.9525 48.6026 38.2346 48.3206C40.407 46.1241 42.5945 43.9427 44.7819 41.7582C45.382 41.1611 46.1892 41.0291 46.8253 41.4222C47.3324 41.7342 47.5845 42.1963 47.6055 43.0215Z" fill="#2C7BE5"/>
</svg>
