<svg width="24" height="24" viewBox="0 0 24 24" fill="none" xmlns="http://www.w3.org/2000/svg">
<path d="M9.06142 9.47101C9.06142 9.38707 9.06142 9.32348 9.06142 9.2599C9.06142 8.75407 9.0582 8.24824 9.06249 7.74241C9.0682 7.01225 9.54569 6.54143 10.276 6.54036C10.6496 6.53964 11.0228 6.54036 11.416 6.54036C11.416 7.16764 11.416 7.77742 11.416 8.39827C11.8078 8.39827 12.1799 8.39827 12.5785 8.39827C12.5785 7.78456 12.5785 7.1705 12.5785 6.57429C13.0906 6.57429 13.5813 6.52928 14.0599 6.5868C14.5581 6.64645 14.9195 7.1162 14.9316 7.61953C14.9448 8.16679 14.9373 8.71442 14.9384 9.26204C14.9384 9.32562 14.9384 9.38921 14.9384 9.46673C15.9659 9.46673 16.9694 9.46673 18.0037 9.46673C18.0037 9.66141 18.0069 9.84288 18.0026 10.0244C17.998 10.2244 17.9862 10.4241 17.9776 10.6241C17.7769 10.6309 17.5766 10.6391 17.3758 10.6445C17.2705 10.6473 17.1648 10.6448 17.0419 10.6448C17.0419 11.2982 17.0419 11.9323 17.0419 12.5789C13.6781 12.5789 10.3321 12.5789 6.9679 12.5789C6.9679 11.9448 6.9679 11.3107 6.9679 10.6448C6.70469 10.6448 6.4572 10.6345 6.21149 10.6484C6.0415 10.6581 5.98435 10.6077 5.99185 10.433C6.00578 10.1197 5.99578 9.80537 5.99578 9.47137C7.0229 9.47101 8.03109 9.47101 9.06142 9.47101Z" fill="#4E606E"/>
<path d="M4.35872 18.2971C4.35872 18.9348 4.35872 19.541 4.35872 20.1769C4.64228 20.1769 4.91371 20.1769 5.18548 20.1769C5.52726 20.1769 5.52726 20.1769 5.52726 19.84C5.52726 19.3349 5.52726 18.8298 5.52726 18.2971C5.69404 18.2971 5.84618 18.2954 5.99832 18.2975C6.30724 18.3021 6.62116 18.2761 6.92437 18.3214C7.48328 18.4047 7.8697 18.8491 7.88184 19.4238C7.8997 20.2626 7.88684 21.1021 7.88649 21.9412C7.88649 21.9576 7.87792 21.974 7.87077 22.0001C5.92082 22.0001 3.9723 22.0001 2.00842 22.0001C2.00557 21.9422 2.00057 21.8851 2.00057 21.8279C2.00021 21.0481 1.99949 20.2687 2.00057 19.4888C2.00128 18.7976 2.50091 18.3 3.19625 18.2975C3.57517 18.2957 3.95444 18.2971 4.35872 18.2971Z" fill="#627185"/>
<path d="M18.4708 18.297C18.4708 18.8728 18.4758 19.4201 18.4676 19.967C18.4651 20.1238 18.4986 20.1888 18.6722 20.181C18.9854 20.1663 19.3 20.1767 19.6336 20.1767C19.6336 19.5469 19.6336 18.9371 19.6336 18.3113C19.7029 18.3055 19.7536 18.2977 19.8047 18.2977C20.1497 18.2966 20.495 18.2948 20.84 18.2977C21.4878 18.3038 21.9953 18.8099 21.9975 19.4551C22 20.2528 21.9982 21.0501 21.9982 21.8478C21.9982 21.8942 21.9982 21.941 21.9982 21.9989C20.0368 21.9989 18.0879 21.9989 16.1098 21.9989C16.1098 21.9389 16.1098 21.8763 16.1098 21.8138C16.1098 21.0579 16.1087 20.3021 16.1101 19.5462C16.1119 18.7789 16.594 18.2977 17.3594 18.297C17.7208 18.2966 18.0822 18.297 18.4708 18.297Z" fill="#627185"/>
<path d="M12.5806 18.324C13.0788 18.324 13.557 18.2804 14.0241 18.3354C14.5501 18.3976 14.9248 18.8666 14.9319 19.3953C14.9434 20.2576 14.9351 21.12 14.9351 21.9959C12.982 21.9959 11.0345 21.9959 9.07207 21.9959C9.0685 21.9405 9.06207 21.8834 9.06207 21.8262C9.06136 21.0646 9.08065 20.3026 9.05636 19.5418C9.03172 18.7619 9.66563 18.2543 10.3074 18.2925C10.6681 18.314 11.031 18.2965 11.4167 18.2965C11.4167 18.9259 11.4167 19.541 11.4167 20.1658C11.8127 20.1658 12.1845 20.1658 12.5809 20.1658C12.5806 19.5439 12.5806 18.9291 12.5806 18.324Z" fill="#627185"/>
<path d="M3.53125 15.3998C3.5016 14.9858 3.57803 14.5589 3.91016 14.2192C4.3148 13.8055 4.80478 13.654 5.36156 13.8334C5.92047 14.0134 6.26153 14.4099 6.33332 14.9954C6.36974 15.2937 6.36867 15.6041 6.3326 15.9028C6.24153 16.6583 5.59441 17.168 4.82693 17.1198C4.12373 17.0755 3.5516 16.469 3.5316 15.7452C3.52875 15.6445 3.53125 15.543 3.53125 15.3998Z" fill="#627185"/>
<path d="M20.4649 15.4561C20.4959 15.9026 20.4195 16.3341 20.0813 16.6792C19.6735 17.0954 19.181 17.2279 18.6274 17.0518C18.0724 16.8757 17.7381 16.4799 17.666 15.9037C17.6274 15.594 17.6306 15.271 17.6696 14.961C17.7592 14.2465 18.4063 13.7303 19.1267 13.7643C19.8395 13.7979 20.4266 14.3837 20.4641 15.1014C20.4699 15.2142 20.4649 15.3278 20.4649 15.4561Z" fill="#627185"/>
<path d="M10.5576 3.66791C10.5965 3.42322 10.6037 3.1678 10.6805 2.93525C10.8869 2.31154 11.5547 1.91645 12.1851 2.01504C12.869 2.12185 13.3761 2.65947 13.3997 3.33248C13.4108 3.65184 13.4208 3.9812 13.3572 4.29091C13.2161 4.97928 12.5519 5.43224 11.8569 5.36115C11.1683 5.29042 10.6283 4.72279 10.594 4.03014C10.5883 3.91154 10.5933 3.79223 10.5933 3.67327C10.5815 3.67149 10.5698 3.6697 10.5576 3.66791Z" fill="#4E606E"/>
<path d="M13.4043 15.4489C13.4446 15.9633 13.335 16.4259 12.9275 16.7728C12.4836 17.1504 11.9772 17.2318 11.4447 17.0057C10.9247 16.7849 10.629 16.3727 10.6004 15.8054C10.5836 15.4754 10.579 15.1324 10.6475 14.8124C10.79 14.1486 11.4711 13.6939 12.1346 13.7682C12.8339 13.8464 13.3685 14.4037 13.4035 15.0946C13.4096 15.2132 13.4043 15.3325 13.4043 15.4489Z" fill="#627185"/>
</svg>
