<svg width="24" height="24" viewBox="0 0 24 24" fill="none" xmlns="http://www.w3.org/2000/svg">
<path d="M9.30847 20.1413C9.34681 19.7419 9.40744 19.38 9.40861 19.0177C9.40979 18.664 9.35033 18.3104 9.3159 17.943C11.0801 18.6871 12.8506 18.7255 14.6129 17.963C15.9828 17.3703 17.0273 16.4024 17.7322 15.0891C19.1412 12.4644 18.6057 9.25911 16.4393 7.2369C14.305 5.24519 11.0574 4.915 8.59965 6.45054C7.1824 7.33627 6.21813 8.57995 5.75185 10.1894C5.28595 11.797 5.44633 13.3603 6.16885 14.9099C6.07144 14.8978 6.00494 14.8931 5.94 14.8809C5.34032 14.7718 4.74494 14.7976 4.15739 14.9537C4.01343 14.9921 3.94146 14.9713 3.90234 14.8215C3.84444 14.6012 3.76347 14.3868 3.70831 14.1658C3.67663 14.039 3.6156 13.9706 3.4916 13.9248C3.04526 13.7609 2.60479 13.5817 2.15923 13.4162C2.04462 13.3736 1.99885 13.3157 2.00002 13.1893C2.0055 12.394 2.00472 11.5982 2.0008 10.8025C2.00002 10.6859 2.03992 10.6296 2.14984 10.5889C2.60166 10.4218 3.04878 10.2411 3.50099 10.0744C3.61756 10.0314 3.67624 9.968 3.70675 9.84712C3.8996 9.07759 4.2012 8.35109 4.60725 7.66998C4.67414 7.5577 4.68118 7.46732 4.62485 7.34605C4.42496 6.91492 4.24306 6.47519 4.04434 6.04328C3.99309 5.93218 3.99622 5.86293 4.08698 5.77373C4.65263 5.21585 5.21475 4.65289 5.77336 4.0864C5.86099 3.99759 5.93062 3.98703 6.04288 4.03867C6.48062 4.24054 6.92461 4.42833 7.36234 4.62902C7.46835 4.67753 7.54933 4.67636 7.65142 4.61611C8.34499 4.20572 9.08198 3.89901 9.86277 3.69479C9.93984 3.67444 10.0282 3.5919 10.0591 3.51678C10.2426 3.07118 10.4151 2.62089 10.5802 2.16825C10.6256 2.04345 10.687 1.99885 10.8204 2.00002C11.6094 2.00589 12.3984 2.0055 13.1874 2.00041C13.3107 1.99963 13.3732 2.03836 13.4167 2.15534C13.5864 2.61346 13.7617 3.06962 13.9467 3.52148C13.9753 3.59151 14.057 3.66819 14.129 3.68775C14.9208 3.89979 15.6687 4.21276 16.3795 4.62081C16.444 4.65797 16.5563 4.65954 16.6267 4.6302C17.0769 4.44163 17.5241 4.24406 17.9673 4.03867C18.0823 3.98546 18.1496 4.00307 18.236 4.0907C18.7946 4.6568 19.3571 5.21937 19.9236 5.77804C20.0065 5.8598 20.0206 5.92396 19.9713 6.03037C19.7691 6.46815 19.5801 6.91179 19.3779 7.34918C19.3262 7.46106 19.3239 7.54674 19.3896 7.65628C19.7953 8.33036 20.0945 9.05098 20.2885 9.81269C20.3273 9.96409 20.4008 10.0384 20.5448 10.0901C20.9798 10.2462 21.4073 10.4226 21.8415 10.5822C21.9593 10.6253 21.9996 10.6871 21.9988 10.8111C21.9937 11.6002 21.9921 12.3893 22 13.1784C22.0015 13.3247 21.9436 13.383 21.8177 13.4295C21.3717 13.5946 20.9273 13.764 20.4881 13.9455C20.4129 13.9764 20.3316 14.0653 20.3105 14.1427C20.0961 14.9267 19.7914 15.6708 19.383 16.3742C19.3435 16.4419 19.3466 16.5632 19.3787 16.6391C19.568 17.0894 19.7698 17.5346 19.9725 17.979C20.0163 18.0753 20.0112 18.1375 19.931 18.2165C19.3556 18.7845 18.7837 19.3561 18.2161 19.932C18.1367 20.0126 18.0741 20.0165 17.9786 19.9731C17.5342 19.7704 17.0856 19.5772 16.642 19.3722C16.5348 19.3225 16.4538 19.3276 16.3533 19.3878C15.6667 19.7986 14.9333 20.0994 14.1599 20.2997C14.0398 20.3306 13.9733 20.3858 13.9295 20.5036C13.7648 20.9496 13.5849 21.3901 13.4214 21.8364C13.3748 21.9632 13.3071 22.0004 13.1769 21.9996C12.3945 21.9941 11.6121 21.9933 10.8294 22C10.6878 22.0012 10.6228 21.9534 10.5751 21.8224C10.4194 21.394 10.2414 20.9734 10.0908 20.5435C10.0357 20.3866 9.94883 20.3154 9.79354 20.2829C9.62298 20.2473 9.4579 20.1863 9.30847 20.1413Z" fill="#627185"/>
<path d="M8.0646 4.38142C8.32321 4.68825 8.53938 4.98473 8.79743 5.23899C9.04933 5.48724 9.34364 5.69216 9.63023 5.92455C7.86433 6.66468 6.59837 7.90301 5.91042 9.69569C5.37561 11.0892 5.33657 12.5127 5.78192 13.9351C6.67176 16.7781 9.3368 18.6377 12.2973 18.5043C15.2136 18.3725 17.7214 16.2829 18.3435 13.4524C18.7021 11.82 18.4879 10.261 17.664 8.80185C16.8412 7.34437 15.6119 6.36535 13.9992 5.79759C14.076 5.73647 14.1259 5.69223 14.18 5.65432C14.6775 5.30216 15.0755 4.85865 15.375 4.3296C15.4483 4.19991 15.5135 4.16298 15.6479 4.23985C15.8458 4.35256 16.0556 4.44468 16.2522 4.55989C16.3649 4.62592 16.4565 4.63021 16.576 4.57362C17.0054 4.36935 17.4415 4.17995 17.8715 3.97733C17.9821 3.92526 18.0555 3.93306 18.145 4.0223C18.7095 4.5826 19.2787 5.13871 19.85 5.69259C19.9339 5.77358 19.9462 5.84151 19.8984 5.94852C19.7017 6.38823 19.5181 6.83418 19.3208 7.2739C19.27 7.3873 19.2743 7.47357 19.3393 7.57994C19.7543 8.25608 20.0624 8.97982 20.2651 9.74645C20.2985 9.8728 20.3582 9.94105 20.4842 9.98564C20.9321 10.1444 21.3736 10.322 21.8213 10.4822C21.9365 10.5233 21.9838 10.574 21.984 10.7012C21.987 11.4957 21.996 12.2912 22.01 13.0866C22.0122 13.2114 21.971 13.2685 21.8556 13.3126C21.4051 13.4842 20.9604 13.6701 20.5107 13.8425C20.4019 13.8843 20.3461 13.943 20.3177 14.0581C20.1258 14.8408 19.8294 15.582 19.4291 16.2828C19.3897 16.3521 19.3869 16.473 19.4189 16.5476C19.609 16.9905 19.8101 17.4287 20.0181 17.8634C20.0755 17.9831 20.0644 18.0582 19.9702 18.1527C19.4141 18.7124 18.8624 19.2765 18.3141 19.8438C18.2284 19.9324 18.157 19.9501 18.043 19.8993C17.5969 19.7001 17.1483 19.5062 16.696 19.3223C16.626 19.2937 16.514 19.2985 16.4497 19.3363C15.7443 19.7537 14.9974 20.0692 14.2086 20.2917C14.1369 20.3118 14.0572 20.3909 14.0289 20.4618C13.8487 20.9154 13.6771 21.3731 13.5138 21.8335C13.4714 21.9529 13.4117 21.9887 13.2886 21.9892C12.4933 21.9923 11.6978 22.0007 10.9024 22.0147C10.7859 22.0167 10.7302 21.9819 10.6887 21.8722C10.5173 21.4215 10.3325 20.9761 10.1614 20.5256C10.1176 20.4104 10.058 20.3488 9.93374 20.3192C9.16828 20.1375 8.44399 19.8472 7.76396 19.453C7.62868 19.3747 7.52412 19.3753 7.38652 19.442C6.97067 19.6437 6.54549 19.8258 6.12767 20.0244C6.01455 20.0784 5.94219 20.064 5.85412 19.9766C5.29381 19.421 4.73104 18.8679 4.1617 18.3214C4.05605 18.2202 4.0549 18.1381 4.10975 18.0155C4.30374 17.5813 4.49357 17.1453 4.67117 16.7044C4.70162 16.6291 4.69508 16.5088 4.65451 16.4395C4.24424 15.7379 3.9257 14.9996 3.70875 14.2157C3.68803 14.1401 3.59918 14.0575 3.5225 14.0273C3.06829 13.8476 2.60895 13.6804 2.14962 13.5143C2.0502 13.4783 2.0093 13.4311 2.00893 13.3185C2.00556 12.51 1.99721 11.7015 1.98278 10.893C1.98074 10.7799 2.02173 10.7324 2.11953 10.6946C2.57521 10.5188 3.0272 10.3334 3.48401 10.1598C3.59449 10.118 3.6475 10.0566 3.67478 9.94257C3.86151 9.16463 4.15963 8.43005 4.55752 7.7373C4.61944 7.62986 4.62655 7.54376 4.57305 7.43007C4.36956 7.00039 4.18066 6.56364 3.97608 6.13453C3.91807 6.01259 3.93885 5.93824 4.03054 5.8457C4.58176 5.29047 5.12963 4.73196 5.67246 4.16797C5.77068 4.06596 5.85021 4.05295 5.97725 4.11053C6.39228 4.29896 6.81732 4.46598 7.2299 4.65914C7.38059 4.72947 7.49222 4.71722 7.62407 4.62897C7.76882 4.532 7.92791 4.45673 8.0646 4.38142Z" fill="#627185"/>
<path d="M12.002 11C10.8958 11.0004 10.0004 10.1074 10 9.00278C9.99963 7.90079 10.9003 6.99889 12.0006 7C13.106 7.00111 14 7.89597 14 9.0013C14 10.11 13.1105 10.9996 12.002 11Z" fill="#627185"/>
<path d="M11 15.9994C10.6389 15.9994 10.3264 15.9994 10.0136 15.9994C9.47791 15.9994 8.94191 16.0012 8.40625 15.9986C8.07322 15.9968 7.93768 15.775 8.02667 15.3636C8.37818 13.7362 9.18561 12.6471 10.4267 12.0751C10.4832 12.0489 10.5424 12.0319 10.6303 12C10.603 12.1345 10.5869 12.2314 10.5636 12.3249C10.4342 12.8441 10.3066 13.3637 10.172 13.8807C10.0512 14.3449 10.1139 14.7484 10.3801 15.1078C10.5824 15.3811 10.7717 15.6702 11 15.9994Z" fill="#627185"/>
<path d="M13 15.987C13.2248 15.663 13.4201 15.37 13.625 15.0884C13.878 14.7408 13.9484 14.3542 13.8285 13.9017C13.6861 13.3643 13.5562 12.8221 13.4218 12.2812C13.4019 12.2011 13.3871 12.1189 13.3616 12C13.7219 12.1119 14.0285 12.282 14.3132 12.5077C15.1605 13.1797 15.7253 14.1238 15.9746 15.3621C16.0591 15.7823 15.933 15.9979 15.5957 15.9988C14.7831 16.001 13.9704 15.9996 13.1578 15.9992C13.1186 15.9988 13.0791 15.9931 13 15.987Z" fill="#627185"/>
<path d="M12.8736 14.1813C12.6312 14.4133 12.406 14.6598 12.1695 14.8972C12.0305 15.0365 11.9727 15.0336 11.8333 14.8921C11.5936 14.6493 11.3596 14.4017 11.1143 14.1639C10.9945 14.0478 10.9745 13.9323 11.0282 13.785C11.2229 13.2475 11.4057 12.7065 11.6009 12.169C11.6281 12.0945 11.6449 12.0398 11.659 12H12.3414C12.3639 12.038 12.3827 12.0843 12.3995 12.1368C12.5743 12.6793 12.7686 13.2171 12.9658 13.7539C13.0271 13.9204 13.0115 14.0496 12.8736 14.1813Z" fill="#627185"/>
</svg>
