<svg width="24" height="24" viewBox="0 0 24 24" fill="none" xmlns="http://www.w3.org/2000/svg">
<path d="M8.64355 7.99001C8.7725 7.51795 8.87845 7.05855 9.02372 6.61214C9.49851 5.15198 9.98863 3.69648 10.4701 2.23832C10.5021 2.14104 10.553 2.10007 10.6567 2.08674C11.5539 1.97214 12.4499 1.96848 13.3465 2.09141C13.4448 2.10473 13.5051 2.13571 13.5381 2.23799C14.0858 3.93668 14.6382 5.6337 15.185 7.33273C15.2523 7.54227 15.2913 7.76115 15.3469 7.99001C13.1122 7.99001 10.8996 7.99001 8.64355 7.99001Z" fill="#627185"/>
<path d="M8.46146 9.33244C8.54176 9.33244 8.59674 9.33244 8.65171 9.33244C10.8891 9.33244 13.1264 9.33377 15.3634 9.3291C15.509 9.32877 15.5617 9.36608 15.5793 9.51566C15.6893 10.4548 15.7342 11.3962 15.7119 12.341C15.7106 12.396 15.7066 12.4506 15.7023 12.5319C15.4717 12.456 15.2541 12.385 15.0369 12.3131C14.1163 12.0069 13.192 11.7117 12.2774 11.3893C11.7987 11.2203 11.3975 11.5282 11.3522 11.8936C11.3359 12.0249 11.3652 12.1701 11.4065 12.2984C11.6457 13.0426 11.8949 13.7835 12.1402 14.5258C12.1522 14.5618 12.1602 14.5991 12.1742 14.6517C10.9347 14.6517 9.70725 14.6517 8.46113 14.6517C8.23356 12.8857 8.23756 11.1174 8.46146 9.33244Z" fill="#627185"/>
<path d="M7.11506 14.6661C7.03043 14.6661 6.97612 14.6661 6.92148 14.6661C5.46179 14.6661 4.00177 14.6641 2.54208 14.6694C2.39881 14.6701 2.3465 14.6278 2.31152 14.4869C1.89137 12.8049 1.89304 11.1265 2.33584 9.45012C2.34817 9.40348 2.41614 9.33785 2.45812 9.33785C3.99011 9.33318 5.52177 9.33518 7.05376 9.33685C7.06375 9.33685 7.07375 9.34418 7.10907 9.35784C6.90915 11.1125 6.90349 12.8765 7.11506 14.6661Z" fill="#627185"/>
<path d="M8.65234 15.9986C8.73031 15.9986 8.78462 15.9986 8.83859 15.9986C10.0487 15.9986 11.2589 15.9989 12.4693 15.9976C12.5686 15.9976 12.6366 16.0012 12.6779 16.1258C13.2756 17.9368 13.881 19.7454 14.4841 21.5547C14.4944 21.5853 14.4998 21.6177 14.5141 21.6773C14.3002 21.7273 14.0939 21.7839 13.8847 21.8229C12.8182 22.0221 11.7463 22.0537 10.6698 21.9125C10.5745 21.8998 10.5089 21.8788 10.4745 21.7726C9.93544 20.1119 9.39002 18.4535 8.85226 16.7924C8.77062 16.5409 8.72165 16.2787 8.65234 15.9986Z" fill="#627185"/>
<path d="M16.8984 9.3325C16.9784 9.3325 17.033 9.3325 17.0877 9.3325C18.5427 9.3325 19.9977 9.33417 21.4528 9.32984C21.591 9.3295 21.6503 9.36148 21.6867 9.50807C22.0348 10.9129 22.1025 12.3264 21.8399 13.752C21.7959 13.9918 21.7383 14.229 21.6857 14.4672C21.6823 14.4819 21.6673 14.4939 21.6483 14.5205C21.4108 14.4422 21.1699 14.3636 20.9297 14.2833C19.6779 13.8646 18.4268 13.4441 17.174 13.0287C17.0664 12.9931 17.0334 12.9444 17.0324 12.8298C17.0254 12.0083 17.0171 11.1868 16.9931 10.3659C16.9834 10.0291 16.9328 9.69329 16.8984 9.3325Z" fill="#627185"/>
<path d="M9.00598 2.45654C8.81773 3.02422 8.62648 3.56157 8.46156 4.10693C8.09039 5.33289 7.72955 6.56151 7.3727 7.79181C7.32706 7.94938 7.26742 8.00602 7.09283 8.00502C5.74909 7.99569 4.40568 7.99969 3.06194 7.99969C3.0013 7.99969 2.94066 7.99969 2.8457 7.99969C3.24353 7.07189 3.76463 6.24969 4.40601 5.50379C5.6478 4.06029 7.17646 3.04787 9.00598 2.45654Z" fill="#627185"/>
<path d="M21.1583 8.00037C21.0726 8.00037 21.0233 8.00037 20.9737 8.00037C19.608 8.00037 18.2426 7.99771 16.8768 8.00404C16.7252 8.0047 16.6859 7.95373 16.6596 7.81281C16.3274 6.02351 15.833 4.28384 15.052 2.63346C15.033 2.59348 15.017 2.55217 15.0017 2.51086C14.9987 2.50287 15.006 2.49121 15.0137 2.46289C16.3058 2.87066 17.4629 3.51595 18.4888 4.39511C19.6436 5.38488 20.5279 6.57719 21.1583 8.00037Z" fill="#627185"/>
<path d="M9.00035 21.5486C6.14828 20.5798 4.11185 18.7405 2.83008 15.9985C2.92437 15.9985 2.97768 15.9985 3.03099 15.9985C4.39639 15.9985 5.76145 16.0008 7.12685 15.9951C7.27412 15.9945 7.31776 16.0381 7.34375 16.1837C7.66727 17.9806 8.17272 19.7223 8.95904 21.376C8.9757 21.411 8.98969 21.447 9.00302 21.4833C9.00668 21.4923 9.00268 21.504 9.00035 21.5486Z" fill="#627185"/>
<path d="M13.5253 13.213C13.6866 13.2643 13.8718 13.3213 14.0557 13.3826C15.6437 13.912 17.2317 14.442 18.8193 14.9713C18.9376 15.011 19.0499 15.0566 19.0882 15.1932C19.1295 15.3415 19.0655 15.4627 18.8889 15.5473C18.2535 15.8512 17.6185 16.155 16.9801 16.4528C16.7372 16.5661 16.5656 16.738 16.4523 16.9809C16.1568 17.6142 15.8529 18.2435 15.5557 18.8758C15.4944 19.0064 15.4158 19.1056 15.2589 19.0986C15.0933 19.0913 15.0263 18.9787 14.9787 18.8358C14.4036 17.1048 13.8252 15.3751 13.2488 13.6448C13.1701 13.4082 13.2891 13.207 13.5253 13.213Z" fill="#4E606E"/>
</svg>
