<svg width="24" height="24" viewBox="0 0 24 24" fill="none" xmlns="http://www.w3.org/2000/svg">
<path d="M19.5321 20.1843C16.1953 20.1843 12.8589 20.1843 9.52214 20.1839C9.50102 20.0562 9.46546 19.9316 9.42137 19.81C10.053 19.4963 10.3742 18.8644 10.2631 18.1449C10.2431 18.0173 10.2234 17.8892 10.2038 17.7615C10.1886 17.6634 10.1734 17.5649 10.1582 17.4668C10.0745 16.9228 10.0082 16.4928 9.64699 16.1374C9.3947 15.8889 9.11574 15.79 8.79121 15.7335C8.86308 15.0353 8.50225 14.4375 7.82837 14.1552C7.82652 14.1545 7.82466 14.1537 7.82281 14.153L7.79651 14.1424C7.76094 14.1276 7.72575 14.1132 7.69018 14.0988C7.55645 14.0454 7.42271 13.9946 7.29379 13.9461C7.23673 13.9245 7.18005 13.9029 7.12337 13.8813C6.9863 13.8287 6.88146 13.7885 6.78217 13.7544C6.60361 13.693 6.38948 13.6305 6.14979 13.6305C5.77636 13.6305 5.44553 13.7768 5.16694 14.0651C5.11507 14.1185 5.06691 14.1746 5.01949 14.2352C4.9617 14.1962 4.90428 14.1613 4.84649 14.1306C4.68941 13.0918 4.53233 12.053 4.37562 11.0142C4.30561 10.5497 4.59605 10.1565 5.04839 10.1004C5.09062 10.0951 5.13175 10.0849 5.19954 10.0716C5.1699 9.88368 5.14471 9.71661 5.1173 9.54953C4.99171 8.7763 5.42441 8.25121 6.18943 8.25083C7.45494 8.25045 8.72045 8.25538 9.98596 8.24856C10.4579 8.24628 10.834 8.42738 11.1333 8.79372C11.4497 9.18129 11.7723 9.56393 12.0858 9.95377C12.1684 10.0564 12.2573 10.0932 12.3866 10.0928C14.3493 10.089 16.3124 10.0867 18.2755 10.0958C18.4656 10.0966 18.6682 10.1451 18.8412 10.2254C19.0553 10.325 19.1513 10.5421 19.1854 10.7778C19.3965 12.2371 19.6051 13.6968 19.8166 15.1562C20.0089 16.4848 20.2008 17.8131 20.3986 19.1409C20.4939 19.7793 20.1638 20.1839 19.5321 20.1843Z" fill="#627185"/>
<path d="M17.9377 3.21604C15.0999 3.21604 12.2873 3.21604 9.45143 3.21604C9.45143 4.6068 9.45143 5.99189 9.45143 7.38985C9.01798 7.38985 8.60751 7.38985 8.18703 7.38985C8.18221 7.33416 8.1748 7.28567 8.1748 7.2368C8.17406 5.78466 8.17258 4.33289 8.17592 2.88075C8.17703 2.42803 8.41079 2.11699 8.80904 2.02076C8.88017 2.00371 8.95575 2.00068 9.0291 2.00068C12.1214 2.0003 15.214 1.99992 18.3067 2.00068C18.7864 2.00068 19.1113 2.31551 19.1121 2.79476C19.1154 4.85268 19.1136 6.9106 19.1132 8.96891C19.1132 8.99997 19.1087 9.03104 19.1039 9.09734C18.8842 9.09734 18.6653 9.09961 18.4467 9.09658C18.287 9.09431 18.0607 9.14735 17.9859 9.06286C17.8999 8.96588 17.9392 8.74425 17.9388 8.57679C17.9366 6.87878 17.9373 5.18039 17.9373 3.48237C17.9377 3.40054 17.9377 3.31909 17.9377 3.21604Z" fill="#4E606E"/>
<path d="M20.9551 16.9195C20.5573 14.2403 20.0971 11.5765 19.8975 8.86472C20.3961 8.86472 20.8962 8.83517 21.3912 8.8742C21.7817 8.90488 22.0502 9.32389 21.9921 9.73646C21.8091 11.0409 21.6183 12.3437 21.4308 13.6474C21.2863 14.6517 21.143 15.6564 20.9985 16.6607C20.9859 16.7471 20.9696 16.8331 20.9551 16.9195Z" fill="#627185"/>
<path d="M13.6635 4.54111C14.4597 4.54111 15.2554 4.53846 16.0516 4.54263C16.369 4.54452 16.5947 4.72978 16.6743 5.034C16.7466 5.30867 16.6369 5.61213 16.3887 5.74889C16.2798 5.80875 16.1434 5.84285 16.0193 5.84323C14.446 5.84929 12.8726 5.84967 11.2988 5.84588C10.8839 5.84474 10.6165 5.57576 10.6202 5.18744C10.6239 4.80063 10.8976 4.54225 11.3122 4.54149C12.0961 4.5396 12.8796 4.54111 13.6635 4.54111Z" fill="#4E606E"/>
<path d="M10.6445 7.4765C10.7034 7.18857 10.8794 7.00218 11.1202 6.95709C11.1925 6.94345 11.2673 6.93891 11.3406 6.93891C12.8825 6.93777 14.424 6.93891 15.9659 6.93701C16.2067 6.93663 16.4175 6.99384 16.5657 7.20486C16.7154 7.41816 16.7439 7.64585 16.6294 7.88187C16.516 8.11562 16.3275 8.24898 16.0696 8.24936C14.6822 8.25239 13.2945 8.25163 11.9071 8.24822C11.8523 8.24822 11.7804 8.22587 11.7452 8.18723C11.4433 7.85043 11.0906 7.59697 10.6445 7.4765Z" fill="#4E606E"/>
<path d="M9.27482 18.3053C9.23963 18.0795 9.20517 17.8533 9.17035 17.6268C9.03958 16.7797 9.03958 16.7797 8.21862 16.6903C7.95893 16.6619 7.78666 16.505 7.74554 16.2732C7.73479 16.2148 7.73294 16.1512 7.74035 16.0841C7.75443 15.9485 7.76554 15.8117 7.78925 15.6772C7.84001 15.381 7.69775 15.2063 7.44917 15.1021C7.40804 15.0851 7.36729 15.0684 7.32617 15.0517C7.14242 14.9782 6.95719 14.91 6.77232 14.8392C6.65192 14.793 6.54967 14.7536 6.46261 14.7237C6.33147 14.6786 6.23256 14.6536 6.14957 14.6536C5.94026 14.6536 5.83134 14.8146 5.55683 15.2196C5.44457 15.3863 5.29676 15.4707 5.13857 15.4707C5.10856 15.4707 5.07781 15.4677 5.04743 15.4613C4.96037 15.4439 4.87146 15.401 4.78514 15.3328C4.6929 15.2605 4.60176 15.1862 4.50729 15.1165C4.37874 15.0218 4.26797 14.9741 4.15757 14.9741C4.04384 14.9741 3.93159 15.0252 3.80119 15.1283C3.62484 15.2684 3.45332 15.4147 3.2792 15.5579C2.62977 16.0917 2.62829 16.0974 2.97542 16.8755C3.09656 17.1472 2.99024 17.4521 2.73202 17.5681C2.60125 17.6268 2.46862 17.6813 2.34007 17.7435C2.0637 17.8749 1.96923 18.0458 2.0085 18.3568C2.03851 18.5932 2.07963 18.8278 2.11557 19.063C2.23893 19.8594 2.23893 19.8594 3.02617 19.9529C3.40664 19.998 3.57854 20.2166 3.53927 20.6031C3.52074 20.7834 3.50407 20.9649 3.47962 21.2244C3.58187 21.3183 3.69153 21.4615 3.8349 21.5392C4.04643 21.6532 4.28242 21.7207 4.50729 21.8086C4.81145 21.9283 4.99483 22.0003 5.13486 22.0003C5.34825 22.0003 5.46124 21.8332 5.7465 21.4134C5.85023 21.2604 6.00361 21.18 6.16143 21.18C6.2696 21.18 6.37963 21.2172 6.47854 21.2941C6.57783 21.3721 6.67415 21.4547 6.77492 21.5309C6.90125 21.6263 7.01276 21.6741 7.1239 21.6741C7.23874 21.6741 7.35247 21.6233 7.48028 21.5218C7.657 21.3812 7.83001 21.2376 8.00412 21.094C8.45609 20.7209 8.64614 20.6262 8.49055 20.184C8.45906 20.0946 8.41349 19.9912 8.3531 19.8681C8.34014 19.8419 8.3268 19.8154 8.31272 19.7874C8.16305 19.4926 8.28679 19.2059 8.59205 19.0664C8.71394 19.0107 8.83656 18.9569 8.95919 18.9016C9.21407 18.7865 9.31817 18.5864 9.27482 18.3053ZM6.5293 19.274C6.34184 19.4593 6.09919 19.5889 5.82615 19.6302C5.79763 19.6343 5.76873 19.6374 5.74021 19.6396C5.70946 19.6419 5.67908 19.643 5.6487 19.643C5.03002 19.643 4.46691 19.1665 4.37096 18.5247C4.27242 17.8704 4.68141 17.2389 5.28861 17.057C5.34418 17.0403 5.40086 17.0275 5.45939 17.0187C5.51978 17.0096 5.58053 17.0055 5.64055 17.0055C6.18514 17.0055 6.67823 17.3722 6.85716 17.9026C6.88421 17.9818 6.90421 18.0655 6.91569 18.1519C6.97423 18.577 6.81641 18.9907 6.5293 19.274Z" fill="#4E606E"/>
</svg>
