<svg width="24" height="24" viewBox="0 0 24 24" fill="none" xmlns="http://www.w3.org/2000/svg">
<g clip-path="url(#clip0_396_1686)">
<path d="M11.9983 18.3496C9.53759 18.3496 7.07693 18.3503 4.61587 18.3492C3.87316 18.3488 3.2948 18.0013 3.03463 17.4053C2.77018 16.7995 2.93571 16.1232 3.48057 15.6676C4.09866 15.151 4.60575 14.5549 4.97886 13.8563C5.43532 13.0012 5.64524 12.0914 5.64641 11.1345C5.64758 10.2984 5.63784 9.46184 5.65264 8.62606C5.69704 6.10163 7.51664 3.7894 10.0439 3.04095C10.3407 2.95325 10.6456 2.88859 10.9498 2.82764C11.06 2.80534 11.1052 2.77078 11.1025 2.66078C11.0962 2.40065 11.0966 2.14051 11.1017 1.88037C11.1118 1.37422 11.4962 1.00074 12.0029 1C12.5112 0.999258 12.8979 1.37014 12.9092 1.87591C12.9151 2.13605 12.9143 2.39619 12.9088 2.65632C12.9065 2.76186 12.9408 2.80609 13.0564 2.82652C15.7282 3.2944 17.6993 5.11572 18.2457 7.64609C18.3353 8.06045 18.3493 8.49376 18.3602 8.9189C18.384 9.829 18.3482 10.741 18.3996 11.6492C18.479 13.0588 19.0819 14.2643 20.1027 15.2811C20.2328 15.4104 20.3746 15.5293 20.514 15.6497C21.0557 16.1183 21.2349 16.7579 20.9934 17.367C20.7555 17.9664 20.1627 18.347 19.4394 18.3484C17.6541 18.3522 15.8684 18.3496 14.0831 18.3496C13.3879 18.3496 12.6931 18.3496 11.9983 18.3496Z" fill="#4E606E"/>
<path d="M2.0028 9.13658C2.09043 7.32678 2.60725 5.64036 3.56573 4.07806C4.04984 3.2891 4.63444 2.57224 5.31172 1.92562C5.57656 1.67255 5.89593 1.58299 6.25774 1.69633C6.618 1.8093 6.8252 2.05755 6.87972 2.41282C6.92568 2.7116 6.80066 2.95762 6.58529 3.16647C6.06885 3.66667 5.61356 4.21296 5.22916 4.81201C4.51175 5.93097 4.06036 7.13985 3.90418 8.44425C3.86017 8.81215 3.84109 9.18378 3.82707 9.55391C3.80837 10.0433 3.43059 10.4276 2.93986 10.4369C2.43433 10.4465 2.03201 10.0812 2.00396 9.58178C1.99579 9.43388 2.0028 9.28486 2.0028 9.13658Z" fill="#627185"/>
<path d="M21.9911 9.07286C21.9911 9.32928 22.0141 9.51732 21.9868 9.69868C21.9175 10.1595 21.5039 10.4664 21.0248 10.4356C20.5617 10.4059 20.1917 10.0264 20.1878 9.56489C20.1738 7.78148 19.6893 6.1259 18.6557 4.63792C18.2888 4.10985 17.8327 3.63714 17.4051 3.14883C17.217 2.93366 17.0896 2.7066 17.1293 2.42343C17.1792 2.06778 17.3841 1.81657 17.7424 1.69951C18.1018 1.58207 18.4247 1.66569 18.6907 1.91765C19.2543 2.4513 19.7489 3.03958 20.1836 3.67356C21.0992 5.00955 21.9147 6.89218 21.9911 9.07286Z" fill="#627185"/>
<path d="M8.69531 19.4053C10.9013 19.4053 13.1064 19.4053 15.3124 19.4053C15.1959 20.4585 14.0143 21.929 12.1448 21.9977C10.1827 22.0694 8.84993 20.587 8.69531 19.4053Z" fill="#4E606E"/>
</g>
<defs>
<clipPath id="clip0_396_1686">
<rect width="20" height="21" fill="white" transform="translate(2 1)"/>
</clipPath>
</defs>
</svg>
