<svg width="24" height="24" viewBox="0 0 24 24" fill="none" xmlns="http://www.w3.org/2000/svg">
<path d="M10.2501 2.0098C10.2501 2.13344 10.2501 2.22536 10.2501 2.31681C10.2501 4.0049 10.2497 5.69252 10.2501 7.38061C10.2501 7.93305 10.4655 8.17194 10.9629 8.1724C12.4698 8.17287 13.9762 8.1724 15.4831 8.1724C15.5643 8.1724 15.6456 8.1724 15.738 8.1724C15.738 8.87321 15.738 9.54695 15.738 10.2534C15.6551 10.2534 15.5739 10.2534 15.4927 10.2534C14.4166 10.2534 13.3401 10.2468 12.264 10.2557C11.3591 10.2632 10.6563 10.8842 10.485 11.8169C10.4534 11.9904 10.448 12.1724 10.4475 12.3502C10.4442 13.4312 10.4442 14.5123 10.4463 15.5938C10.4488 16.862 11.1933 17.6911 12.3289 17.6921C13.3842 17.6935 14.4399 17.6925 15.4952 17.6925C15.5706 17.6925 15.646 17.6925 15.7364 17.6925C15.7414 17.7732 15.7489 17.8404 15.7489 17.9076C15.7497 19.0199 15.7501 20.1323 15.7493 21.2446C15.7489 21.7434 15.5143 22.0005 15.0644 22C10.9537 21.9963 6.84348 21.9925 2.73281 21.9883C2.21289 21.9879 2 21.7504 2 21.1714C2 15.0498 2 8.92873 2 2.80719C2 2.23889 2.21705 1.99907 2.71906 2C5.13539 2.00467 7.55171 2.007 9.96803 2.0098C10.0505 2.0098 10.133 2.0098 10.2501 2.0098ZM6.23981 16.5886C5.62948 16.5886 5.01915 16.5835 4.40882 16.5905C4.04221 16.5947 3.7885 16.8755 3.79058 17.2516C3.79266 17.6197 4.03763 17.9002 4.39633 17.902C5.62407 17.9095 6.85181 17.9062 8.07955 17.9034C8.28536 17.903 8.4595 17.8129 8.57532 17.6151C8.69946 17.4032 8.7128 17.176 8.61281 16.9502C8.50324 16.7038 8.3116 16.5905 8.07122 16.5891C7.46047 16.5867 6.85014 16.5891 6.23981 16.5886ZM6.22732 8.72577C5.63782 8.72577 5.04832 8.72483 4.45882 8.72623C4.05096 8.72717 3.79141 8.98005 3.79058 9.37292C3.78975 9.76951 4.06137 10.0355 4.47173 10.0355C5.65073 10.0364 6.82931 10.0364 8.00831 10.0355C8.41034 10.035 8.67072 9.77697 8.67405 9.38178C8.67738 8.98052 8.4245 8.7267 8.01623 8.72577C7.42006 8.72437 6.82348 8.72577 6.22732 8.72577ZM6.22482 15.2724C6.82806 15.2724 7.43131 15.2738 8.03456 15.2719C8.42617 15.2705 8.67572 15.0134 8.67363 14.6196C8.67155 14.2328 8.41242 13.9641 8.03081 13.9636C6.83098 13.9617 5.63157 13.9617 4.43174 13.9636C4.05804 13.9641 3.78975 14.2445 3.78975 14.6234C3.78975 15.0101 4.04638 15.2705 4.43507 15.2719C5.03207 15.2738 5.62865 15.2724 6.22482 15.2724ZM6.24898 6.09658C5.64573 6.09658 5.04207 6.09798 4.43882 6.09565C4.2001 6.09472 4.00305 6.1787 3.87473 6.41573C3.62769 6.87251 3.92056 7.40581 4.42882 7.40814C5.62865 7.41328 6.82848 7.41141 8.02831 7.40908C8.41742 7.40814 8.67155 7.14686 8.67405 6.75726C8.67655 6.36347 8.42742 6.10032 8.03831 6.09752C7.44173 6.09378 6.84514 6.09658 6.24898 6.09658ZM6.23856 12.653C6.83473 12.653 7.43089 12.6539 8.02706 12.6525C8.41575 12.6516 8.67113 12.394 8.67405 12.0054C8.67655 11.6139 8.42242 11.3461 8.03789 11.3456C6.83848 11.3438 5.63907 11.3438 4.43965 11.3456C4.05721 11.3461 3.79225 11.6139 3.78975 11.9937C3.78725 12.3842 4.05387 12.6525 4.44965 12.653C5.04623 12.6539 5.6424 12.6534 6.23856 12.653Z" fill="#627185"/>
<path d="M17.1812 11.5453C17.1812 11.0844 17.1865 10.6585 17.1796 10.2327C17.1746 9.9321 17.2663 9.69726 17.5104 9.56726C17.7632 9.43306 17.9863 9.50808 18.1885 9.71776C19.3763 10.9488 20.5682 12.1757 21.7547 13.4082C22.0859 13.7525 22.0802 14.1435 21.7452 14.4906C20.5677 15.7114 19.3882 16.9299 18.2079 18.148C17.9637 18.4 17.7319 18.4522 17.4985 18.3143C17.2844 18.188 17.1808 17.983 17.1812 17.709C17.182 17.2678 17.1812 16.8265 17.1812 16.3521C17.0863 16.3521 17.0069 16.3521 16.9276 16.3521C15.4415 16.3521 13.9554 16.3521 12.4692 16.3521C11.9588 16.3521 11.7508 16.114 11.7504 15.5302C11.75 14.4505 11.7496 13.3709 11.7508 12.2917C11.7512 11.7936 11.9678 11.5462 12.4059 11.5457C13.9056 11.5443 15.4057 11.5453 16.9054 11.5453C16.9868 11.5453 17.0678 11.5453 17.1812 11.5453Z" fill="#4E606E"/>
<path d="M11.5 7C11.5 5.34303 11.5 3.70942 11.5 2C11.6587 2.10776 11.8032 2.16498 11.9008 2.27894C13.1029 3.68224 14.2997 5.09174 15.4916 6.50744C15.5936 6.62855 15.6491 6.80355 15.7499 7C14.2944 7 12.9045 7 11.5 7Z" fill="#627185"/>
</svg>
