<svg width="24" height="24" viewBox="0 0 24 24" fill="none" xmlns="http://www.w3.org/2000/svg">
<path d="M14.8741 19.6544C14.3601 19.1256 13.8366 18.5889 13.3304 18.0699C12.6587 17.3815 11.9642 16.6697 11.2822 15.9669C10.8228 15.4935 10.7264 14.9857 10.7264 14.6435C10.7268 14.2986 10.8249 13.7866 11.2925 13.3058C12.3508 12.2175 13.4836 11.0557 14.8563 9.65089C15.103 9.39813 15.3683 9.23661 15.6477 9.16866V8.20513H15.3944C13.8974 8.20513 12.4005 8.20559 10.9039 8.20513C10.4098 8.20513 10.1958 7.96634 10.1958 7.41522C10.1954 5.73161 10.1958 4.04752 10.1958 2.36391V2.05763H9.91561C7.51518 2.05437 5.11476 2.05204 2.71433 2.04785C2.21562 2.04692 2 2.28571 2 2.85266V21.1732C2 21.7508 2.21149 21.9878 2.72841 21.9882C6.81203 21.992 10.8952 21.9962 14.9789 21.9999C15.4254 22.0003 15.6584 21.7434 15.6588 21.2463C15.6592 20.8706 15.6592 20.4945 15.6592 20.1189C15.4254 20.0658 15.149 19.9369 14.8741 19.6544ZM3.8624 6.45309C3.98987 6.21663 4.18522 6.13284 4.42236 6.13377C5.02205 6.1361 5.62133 6.13424 6.22061 6.13424C6.81327 6.13424 7.40592 6.13145 7.99817 6.13564C8.38513 6.13796 8.63262 6.40095 8.63014 6.79381C8.62724 7.18202 8.37479 7.44268 7.98865 7.44361C6.79671 7.44594 5.60436 7.4478 4.41243 7.44268C3.90792 7.44082 3.61656 6.90879 3.8624 6.45309ZM7.98741 12.6751C7.39516 12.6765 6.80292 12.6755 6.21068 12.6755C5.61843 12.6755 5.02619 12.6765 4.43395 12.6751C4.04078 12.6746 3.7759 12.4069 3.77838 12.0173C3.78087 11.6385 4.04409 11.3713 4.42402 11.3708C5.61554 11.3694 6.80706 11.3689 7.99858 11.3713C8.38017 11.3717 8.63262 11.6389 8.63014 12.0295C8.62766 12.4172 8.37396 12.6741 7.98741 12.6751ZM8.63014 14.637C8.6318 15.0304 8.38389 15.2868 7.99486 15.2882C7.39558 15.2901 6.7963 15.2887 6.19702 15.2887C5.60436 15.2887 5.01212 15.2901 4.41946 15.2882C4.03374 15.2868 3.77838 15.0271 3.77838 14.6412C3.77838 14.2633 4.04491 13.9835 4.41615 13.983C5.60809 13.9807 6.79961 13.9812 7.99155 13.983C8.37065 13.9835 8.62807 14.2512 8.63014 14.637ZM7.96878 10.0638C6.79754 10.0647 5.6263 10.0647 4.45547 10.0638C4.0474 10.0638 3.77756 9.79844 3.77838 9.40279C3.77921 9.01086 4.03746 8.75857 4.44264 8.75764C5.02826 8.75625 5.61347 8.75718 6.19909 8.75718C6.79175 8.75718 7.38399 8.75625 7.97665 8.75764C8.38224 8.75857 8.63304 9.01179 8.63014 9.4121C8.62683 9.80635 8.36775 10.0638 7.96878 10.0638ZM8.53164 17.6263C8.41659 17.8241 8.24359 17.9135 8.03914 17.914C6.81948 17.9168 5.59981 17.92 4.38015 17.9126C4.02381 17.9102 3.78045 17.6305 3.77838 17.2632C3.77632 16.8881 4.02836 16.6078 4.39256 16.6037C4.99888 16.5967 5.60519 16.6018 6.21151 16.6018C6.81782 16.6018 7.42413 16.5995 8.03086 16.6032C8.26966 16.6041 8.46004 16.7172 8.56889 16.963C8.66863 17.1883 8.65539 17.415 8.53164 17.6263Z" fill="#627185"/>
<path d="M21.9992 16.2926C21.9988 16.7902 21.7807 17.0374 21.3395 17.0378C20.6285 17.0383 19.9175 17.0388 19.2065 17.0388C18.4325 17.0388 17.6586 17.0383 16.8851 17.0383H16.5312C16.5312 17.4987 16.5258 17.9241 16.5329 18.3495C16.5378 18.6498 16.4456 18.8844 16.1997 19.0142C16.1128 19.0599 16.0292 19.0813 15.9489 19.0813C15.8479 19.0813 15.7515 19.0473 15.6596 18.9854C15.6108 18.9523 15.5632 18.9118 15.5168 18.8639C14.3208 17.6341 13.1206 16.409 11.9257 15.1773C11.5917 14.8334 11.5979 14.4428 11.9352 14.096C13.121 12.8765 14.3088 11.6588 15.4974 10.4426C15.5479 10.3904 15.5984 10.3471 15.648 10.3122C15.7527 10.2387 15.8558 10.2019 15.958 10.2019C16.0429 10.2019 16.1273 10.227 16.2117 10.2764C16.4273 10.4025 16.5316 10.6073 16.5312 10.881C16.5304 11.3218 16.5308 11.7626 16.5308 12.236H19.3517C19.9932 12.236 20.6347 12.236 21.2758 12.2365C21.7898 12.2365 21.9996 12.4743 21.9996 13.0576C22.0001 14.1361 22.0005 15.2141 21.9992 16.2926Z" fill="#4E606E"/>
<path d="M11.3672 6.88095C11.3672 5.26343 11.3672 3.66872 11.3672 2C11.5294 2.1052 11.6772 2.16105 11.7769 2.2723C13.0057 3.64219 14.2291 5.01813 15.4475 6.40011C15.5518 6.51834 15.6085 6.68917 15.7115 6.88095C14.2241 6.88095 12.8033 6.88095 11.3672 6.88095Z" fill="#627185"/>
</svg>
