<svg width="24" height="24" viewBox="0 0 24 24" fill="none" xmlns="http://www.w3.org/2000/svg">
<path d="M15.8938 10.2801C15.8938 10.4599 15.8938 10.6105 15.8938 10.7611C15.8934 12.4652 15.8934 14.1693 15.8921 15.8735C15.8917 16.448 15.5325 16.8102 14.9562 16.8106C12.9709 16.8124 10.9861 16.8124 9.00078 16.8106C8.42411 16.8102 8.06619 16.448 8.06576 15.8726C8.06532 13.3053 8.06532 10.7384 8.06576 8.17114C8.06576 7.59482 8.42367 7.23397 8.99991 7.23267C10.2098 7.23049 11.4197 7.2318 12.6295 7.23223C12.693 7.23223 12.7565 7.23963 12.8392 7.24486C12.8431 7.33235 12.8496 7.40983 12.8496 7.48687C12.8505 8.23382 12.8492 8.98076 12.8505 9.72771C12.8513 10.1312 12.9988 10.2788 13.401 10.2792C14.2195 10.2805 15.0375 10.2801 15.8938 10.2801ZM11.1091 15.0673C11.5145 15.0673 11.9202 15.0691 12.3255 15.0669C12.6495 15.0651 12.8422 14.9041 12.8457 14.6394C12.8492 14.3722 12.6565 14.202 12.3373 14.2011C11.5188 14.1989 10.7008 14.1989 9.88231 14.2011C9.56657 14.202 9.36696 14.377 9.37044 14.639C9.37392 14.9002 9.57223 15.0656 9.89231 15.0673C10.2981 15.0691 10.7038 15.0673 11.1091 15.0673ZM11.0983 13.3284C11.5114 13.3284 11.9246 13.3301 12.3377 13.3279C12.6517 13.3262 12.8483 13.1534 12.8457 12.887C12.8431 12.6258 12.6556 12.46 12.3503 12.4591C11.524 12.4569 10.6977 12.4569 9.87187 12.4591C9.57223 12.46 9.37522 12.6315 9.37131 12.8857C9.36696 13.1442 9.5744 13.3262 9.88144 13.3279C10.2868 13.3297 10.6925 13.3284 11.0983 13.3284ZM11.1218 10.7154C10.7086 10.7154 10.2955 10.7141 9.88231 10.7158C9.57353 10.7171 9.36783 10.8969 9.37087 11.1563C9.37435 11.4114 9.57005 11.5837 9.87013 11.5846C10.6964 11.5868 11.5227 11.5868 12.349 11.5846C12.6556 11.5837 12.8426 11.4188 12.8457 11.1576C12.8492 10.8899 12.6543 10.7175 12.3395 10.7158C11.9333 10.7141 11.5275 10.7154 11.1218 10.7154Z" fill="#4E606E"/>
<path d="M4.28376 5.62427C4.04196 5.40445 3.80886 5.19247 3.52704 4.93652C4.58688 4.81638 5.57279 4.70451 6.58783 4.5896C6.47737 5.60598 6.37038 6.58885 6.26383 7.57172C6.24644 7.5826 6.22904 7.59348 6.21208 7.60393C6.04204 7.39499 5.87243 7.18606 5.69891 6.97277C3.89627 9.03078 3.013 12.8865 5.06222 16.2304C6.3095 18.2657 8.12648 19.5294 10.4693 19.9781C12.802 20.4247 14.9326 19.8824 16.8831 18.4777C16.8709 18.8921 16.7365 19.2834 17.0079 19.6229C17.271 19.952 17.6215 20.0225 18.0647 19.9272C15.0348 22.3652 9.93825 22.9925 5.92679 19.9437C4.84651 19.1228 3.97325 18.1125 3.3022 16.9303C2.63551 15.7559 2.22715 14.4944 2.06928 13.1555C1.91011 11.8079 2.02622 10.4803 2.40719 9.17573C2.78555 7.87859 3.41267 6.71291 4.28376 5.62427Z" fill="#627185"/>
<path d="M7.36974 5.34694C7.40062 5.12451 7.43019 4.95345 7.44715 4.78151C7.5076 4.17124 7.13664 3.75816 6.52735 3.75076C6.49256 3.75033 6.45777 3.74684 6.41602 3.7229C7.58327 2.89804 8.88056 2.38049 10.284 2.14849C12.8172 1.73018 15.1935 2.19158 17.3523 3.58492C19.7873 5.15629 21.3033 7.38885 21.8261 10.2456C22.3475 13.0941 21.686 15.6945 19.9738 18.0911C20.2178 18.3131 20.4614 18.5343 20.7532 18.7993C19.6929 18.9143 18.7057 19.0218 17.6911 19.1319C17.8055 18.112 17.9155 17.1292 18.0255 16.1459C18.0442 16.1319 18.0629 16.118 18.0821 16.1045C18.236 16.3021 18.39 16.4993 18.5509 16.7061C20.2939 14.41 20.861 10.5629 18.6435 7.37318C17.3767 5.55109 15.6258 4.42762 13.4461 4.02804C11.2655 3.62932 9.24805 4.09637 7.36974 5.34694Z" fill="#627185"/>
<path d="M13.7305 9.39924C13.7305 8.8312 13.7305 8.28536 13.7305 7.74561C14.2823 8.30494 14.8303 8.86036 15.3622 9.39924C14.8529 9.39924 14.2997 9.39924 13.7305 9.39924Z" fill="#4E606E"/>
</svg>
