<svg width="24" height="24" viewBox="0 0 24 24" fill="none" xmlns="http://www.w3.org/2000/svg">
<path d="M14.1056 12.1535C13.9163 12.3535 13.7138 12.5307 13.5573 12.7421C13.3784 12.9839 13.2255 13.2485 13.0916 13.5182C13.0266 13.6486 12.9591 13.7139 12.8177 13.7486C11.5612 14.0532 10.7541 14.8315 10.4209 16.0811C10.3544 16.3304 10.3369 16.5983 10.3334 16.8579C10.3227 17.6612 10.3294 18.4644 10.3294 19.268C10.3294 19.3384 10.3294 19.4084 10.3294 19.5005C10.2505 19.5005 10.1869 19.5005 10.1237 19.5005C7.65441 19.5005 5.18474 19.5005 2.71542 19.5005C2.24613 19.5005 2.00041 19.2548 2.00041 18.7866C2.00006 17.8465 1.9997 16.9062 2.00041 15.9661C2.0022 14.0143 3.40864 12.3603 5.33652 12.0474C5.5176 12.0182 5.70331 12.0032 5.88689 12.0028C8.26692 11.9999 10.6473 11.9967 13.0273 12.0053C13.3455 12.0064 13.6638 12.0717 13.982 12.1107C14.0252 12.1153 14.0663 12.1392 14.1056 12.1535Z" fill="#627185"/>
<path d="M9.48897 10.3289C7.18538 10.3206 5.31357 8.4413 5.32821 6.15123C5.3425 3.82974 7.22252 1.99039 9.57112 2.00004C11.8072 2.00897 13.6747 3.90974 13.6694 6.17088C13.6644 8.47059 11.7879 10.3371 9.48897 10.3289Z" fill="#627185"/>
<path d="M12.0085 16.9846C12.086 17.0203 12.1499 17.046 12.211 17.0778C13.6714 17.84 15.1336 18.5986 16.5893 19.3693C16.8761 19.5211 17.1282 19.5197 17.4136 19.369C18.87 18.5989 20.3322 17.84 21.7926 17.0775C21.8497 17.0475 21.909 17.021 21.9858 16.9839C21.9908 17.0467 21.9983 17.096 21.9983 17.1453C21.999 18.2761 22.0004 19.4068 21.9983 20.5376C21.9969 21.3526 21.3504 21.9987 20.5343 21.999C18.1775 22.0008 15.8211 22.0008 13.4642 21.999C12.6485 21.9983 12.0024 21.3544 11.9999 20.5372C11.9964 19.4065 11.9989 18.2757 11.9992 17.145C11.9992 17.0992 12.0042 17.0532 12.0085 16.9846Z" fill="#4E606E"/>
<path d="M12.4229 15.7757C12.7257 15.46 13.0911 15.3332 13.5054 15.3289C13.8264 15.3254 14.1475 15.3282 14.4989 15.3282C14.4989 15.115 14.4975 14.91 14.4993 14.7046C14.505 14.0535 14.9279 13.4867 15.55 13.311C15.6854 13.2728 15.8304 13.2535 15.9715 13.2521C16.6558 13.246 17.3401 13.2475 18.0243 13.25C18.8551 13.2532 19.4933 13.8903 19.499 14.7193C19.5004 14.9143 19.4994 15.1097 19.4994 15.3275C19.834 15.3275 20.1529 15.3261 20.4722 15.3279C20.8201 15.3297 21.1437 15.4122 21.4215 15.6329C21.4722 15.6732 21.5194 15.7175 21.5844 15.7743C21.3919 15.8772 21.2155 15.9736 21.0372 16.0665C19.7462 16.7401 18.4536 17.4119 17.1643 18.089C17.0468 18.1508 16.959 18.1533 16.839 18.0901C15.424 17.3447 14.0054 16.6061 12.5875 15.8654C12.535 15.839 12.4843 15.8093 12.4229 15.7757ZM18.2479 15.3207C18.2479 15.1061 18.2522 14.9111 18.2465 14.7161C18.2426 14.5836 18.1651 14.5028 18.0326 14.5021C17.3436 14.4989 16.655 14.4993 15.9661 14.5018C15.8425 14.5021 15.759 14.5736 15.7532 14.6968C15.744 14.9021 15.7507 15.1082 15.7507 15.3207C16.5897 15.3207 17.4072 15.3207 18.2479 15.3207Z" fill="#4E606E"/>
</svg>
