<svg width="40" height="40" viewBox="0 0 40 40" fill="none" xmlns="http://www.w3.org/2000/svg">
<path d="M40 20C40 31.0457 31.0457 40 20 40C8.95431 40 0 31.0457 0 20C0 8.95431 8.95431 0 20 0C31.0457 0 40 8.95431 40 20Z" fill="#9868F8"/>
<path d="M30.4 17.9749V16.5026C30.4 16.1105 30.4913 15.7237 30.6667 15.373C31.0161 14.4994 31.13 13.5494 30.9969 12.618L30.9333 12.173H18.4L8.8 27.6396L17.8667 30.573L23.7333 22.8396H29.3333H30.6527C30.8373 22.8396 31.0193 22.7967 31.1843 22.7141C31.3693 22.6216 31.527 22.4824 31.6418 22.3103L31.7501 22.1478C31.9131 21.9034 32 21.6162 32 21.3225C32 20.928 31.8433 20.5496 31.5643 20.2706L31.2 19.9063C30.6878 19.3941 30.4 18.6993 30.4 17.9749Z" fill="#FFDDCC"/>
<path fill-rule="evenodd" clip-rule="evenodd" d="M4.54492 32.6958C5.5453 30.5932 6.74765 28.5987 8.31811 26.6993C8.60241 26.3554 9.07617 26.2388 9.49311 26.3977L18.8185 29.9502C19.566 30.2349 20.1498 30.8392 20.3866 31.6031C21.2421 34.3631 21.8378 37.0325 22.1737 39.8832C21.4596 39.9605 20.7341 40.0001 19.9994 40.0001C13.7741 40.0001 8.213 37.1558 4.54492 32.6958Z" fill="#FFD240"/>
<path d="M29.5987 22.5729C28.2639 21.7728 24.0001 22.0394 23.7334 21.7729C22.1335 20.1733 24.3993 14.1737 25.5987 12.1729C35.7334 15.3729 35.7332 6.57295 26.3987 7.10627C16.1614 2.90642 8.24956 9.81717 13.0915 21.2256C13.2351 21.564 13.5519 21.8023 13.9168 21.8466C15.0379 21.9829 17.3971 22.2422 17.5987 22.0395C17.8639 21.7728 18.6668 19.9063 18.132 19.6395C12.3246 16.7427 20.6326 10.9965 21.5227 16.4794C21.6311 17.1467 21.4797 17.8339 21.1713 18.4355C20.0018 20.7177 18.1875 22.8104 18.932 25.7729C19.2001 26.8396 23.5201 28.9196 25.8668 28.7063C28.2135 28.4929 30.9335 23.3729 29.5987 22.5729Z" fill="#4E1E30"/>
<path d="M27.734 17.773C27.734 18.2148 28.0922 18.573 28.534 18.573C28.9758 18.573 29.334 18.2148 29.334 17.773C29.334 17.3311 28.9758 16.973 28.534 16.973C28.0922 16.973 27.734 17.3311 27.734 17.773Z" fill="#4A1827"/>
<path d="M30.4004 15.3729C30.4004 15.0784 30.1616 14.8396 29.8671 14.8396H27.2004C26.9058 14.8396 26.6671 15.0784 26.6671 15.3729C26.6671 15.6675 26.9058 15.9063 27.2004 15.9063H29.8671C30.1616 15.9063 30.4004 15.6675 30.4004 15.3729Z" fill="#5B2C3E"/>
</svg>
