<svg width="22" height="22" viewBox="0 0 22 22" fill="none" xmlns="http://www.w3.org/2000/svg">
<path d="M17.8748 14.6537C17.2581 13.9401 16.1042 12.8666 16.1042 9.35001C16.1042 6.67907 14.3652 4.54095 12.0204 4.01639V3.30001C12.0204 2.69261 11.5633 2.20001 10.9996 2.20001C10.4359 2.20001 9.97882 2.69261 9.97882 3.30001V4.01639C7.63401 4.54095 5.89504 6.67907 5.89504 9.35001C5.89504 12.8666 4.74114 13.9401 4.12446 14.6537C3.93294 14.8754 3.84804 15.1405 3.84963 15.4C3.85314 15.9638 4.26395 16.5 4.87425 16.5H17.125C17.7353 16.5 18.1464 15.9638 18.1496 15.4C18.1512 15.1405 18.0663 14.8751 17.8748 14.6537ZM6.00516 14.85C6.68249 13.8885 7.42302 12.2949 7.42654 9.36995C7.42654 9.36307 7.42462 9.35689 7.42462 9.35001C7.42462 7.22357 9.02507 5.50001 10.9996 5.50001C12.9742 5.50001 14.5746 7.22357 14.5746 9.35001C14.5746 9.35689 14.5727 9.36307 14.5727 9.36995C14.5762 12.2953 15.3167 13.8889 15.9941 14.85H6.00516ZM10.9996 19.8C12.127 19.8 13.0415 18.8152 13.0415 17.6H8.95772C8.95772 18.8152 9.87221 19.8 10.9996 19.8Z" fill="#3F434A"/>
<path d="M15.9502 8.20001C17.7451 8.20001 19.2002 6.74494 19.2002 4.95001C19.2002 3.15509 17.7451 1.70001 15.9502 1.70001C14.1553 1.70001 12.7002 3.15509 12.7002 4.95001C12.7002 6.74494 14.1553 8.20001 15.9502 8.20001Z" fill="#FD7972" stroke="white"/>
</svg>
