<svg width="60" height="60" viewBox="0 0 60 60" fill="none" xmlns="http://www.w3.org/2000/svg">
<path d="M37.1112 27.8044C35.2276 26.7635 33.2251 25.9704 31.2424 25.1475C30.0924 24.6717 28.992 24.1165 28.0205 23.3433C26.1071 21.8166 26.4739 19.3382 28.7144 18.3567C29.3489 18.0792 30.0131 17.9899 30.6872 17.9503C33.2846 17.8115 35.7531 18.2873 38.1026 19.4175C39.2724 19.9826 39.659 19.8041 40.0556 18.5848C40.4719 17.296 40.8189 15.9874 41.2055 14.6887C41.4633 13.8163 41.1461 13.2413 40.3232 12.8745C38.8164 12.2103 37.2698 11.7345 35.644 11.4767C33.5225 11.1496 33.5225 11.1396 33.5126 9.00822C33.5027 6.00441 33.5027 6.00441 30.4889 6.00441C30.0527 6.00441 29.6165 5.99449 29.1804 6.00441C27.7726 6.04406 27.5347 6.2919 27.495 7.70954C27.4752 8.34401 27.495 8.97848 27.4851 9.62287C27.4752 11.5064 27.4653 11.4767 25.661 12.131C21.299 13.7172 18.6025 16.6913 18.3151 21.4498C18.0573 25.6631 20.2581 28.5083 23.718 30.5802C25.8494 31.859 28.2088 32.6125 30.4691 33.6138C31.3514 34.0004 32.1941 34.4465 32.9277 35.0611C35.0988 36.8555 34.7022 39.8395 32.1247 40.9696C30.7467 41.5744 29.2894 41.7231 27.7924 41.5347C25.4826 41.2472 23.2719 40.6425 21.19 39.5619C19.9706 38.9274 19.6137 39.096 19.1974 40.4145C18.8405 41.5545 18.5232 42.7045 18.206 43.8545C17.7797 45.401 17.9383 45.7678 19.4155 46.4915C21.299 47.4036 23.3115 47.8695 25.3636 48.1966C26.9696 48.4544 27.0192 48.5238 27.039 50.1893C27.0489 50.9427 27.0489 51.7061 27.0588 52.4595C27.0688 53.4112 27.5248 53.9664 28.5062 53.9862C29.6165 54.006 30.7368 54.006 31.8471 53.9763C32.7592 53.9564 33.2251 53.4608 33.2251 52.5388C33.2251 51.5078 33.2747 50.4669 33.235 49.4358C33.1854 48.385 33.6415 47.8497 34.6527 47.5721C36.9823 46.9376 38.9651 45.6885 40.4918 43.8248C44.7348 38.6697 43.1189 31.1254 37.1112 27.8044Z" fill="#FF965D"/>
</svg>
