<svg width="26" height="20" viewBox="0 0 26 20" fill="none" xmlns="http://www.w3.org/2000/svg">
<path fill-rule="evenodd" clip-rule="evenodd" d="M16.7605 9.75503C17.1509 9.48146 17.7555 9.50325 18.111 9.8037C18.4665 10.1041 18.4382 10.5695 18.0478 10.8431L12.9918 14.3861L7.93577 10.8431C7.54537 10.5695 7.51706 10.1041 7.87254 9.8037C8.22801 9.50325 8.83266 9.48146 9.22306 9.75503L12.0358 11.726V2.73574C12.0358 2.3294 12.4638 2 12.9918 2C13.5198 2 13.9478 2.3294 13.9478 2.73574V11.726L16.7605 9.75503ZM4.48864 14.3633C4.48864 13.9617 4.06555 13.6361 3.54364 13.6361C3.02173 13.6361 2.59863 13.9617 2.59863 14.3633V15.333C2.59863 16.8058 4.14998 17.9997 6.06366 17.9997H19.9237C21.8374 17.9997 23.3888 16.8058 23.3888 15.333V14.3633C23.3888 13.9617 22.9657 13.6361 22.4438 13.6361C21.9218 13.6361 21.4988 13.9617 21.4988 14.3633V15.333C21.4988 16.0025 20.7936 16.5451 19.9237 16.5451H6.06366C5.1938 16.5451 4.48864 16.0025 4.48864 15.333V14.3633Z" fill="#3F434A"/>
</svg>
