<svg width="16" height="7" viewBox="0 0 16 7" fill="none" xmlns="http://www.w3.org/2000/svg">
<path fill-rule="evenodd" clip-rule="evenodd" d="M15.1076 5.20224C12.9902 6.34827 10.5687 6.99966 8.00005 6.99966C5.43138 6.99966 3.00998 6.34831 0.892578 5.20233C0.895116 5.19484 0.897665 5.18736 0.900227 5.17989C0.946845 5.04278 0.997864 4.90706 1.05287 4.7727V4.77119C1.10664 4.63684 1.16605 4.50537 1.2282 4.37528C1.4756 3.85368 1.78377 3.36577 2.14159 2.91898C2.23207 2.80732 2.32407 2.69841 2.41868 2.59389C2.4653 2.54013 2.5148 2.48788 2.5643 2.43562L2.56431 2.43561C2.61382 2.38473 2.66332 2.33385 2.7142 2.28297C2.96723 2.0298 3.23869 1.79809 3.52431 1.58452C3.66719 1.4785 3.81131 1.37949 3.9612 1.28336C4.0389 1.234 4.11673 1.18586 4.19581 1.13925C4.26938 1.09538 4.34432 1.05288 4.41927 1.0119C4.42216 1.00902 4.42491 1.01053 4.42491 1.01053V1.00902C4.48569 0.975051 4.5451 0.941223 4.6045 0.905744C4.78121 0.798344 4.95091 0.679529 5.10919 0.549438L5.11208 0.552326C5.84449 1.30165 6.8639 1.76687 7.99497 1.76976H8.00638C9.13745 1.76976 10.161 1.30317 10.8963 0.553839L10.8977 0.552326C10.998 0.635798 11.1027 0.713633 11.2101 0.785692C11.2214 0.79408 11.2313 0.801094 11.2426 0.808245C11.2892 0.839384 11.3371 0.869251 11.385 0.899119L11.3981 0.907257C11.456 0.942598 11.5155 0.976564 11.5748 1.00902C11.5815 1.01097 11.5869 1.01417 11.5923 1.01736C11.5949 1.01889 11.5975 1.02042 11.6002 1.02181C11.6667 1.05866 11.7346 1.09675 11.7996 1.13622C11.8563 1.17019 11.9128 1.20415 11.968 1.2395C12.0258 1.27484 12.0839 1.31155 12.1404 1.35253C12.2578 1.42748 12.3722 1.50958 12.4839 1.59442H12.4868C12.6295 1.70183 12.7695 1.81363 12.9039 1.93079C13.0396 2.04685 13.1697 2.16842 13.2955 2.29425C14.107 3.10235 14.7335 4.09396 15.1076 5.20224Z" fill="#FF965D"/>
</svg>
