<svg width="20" height="13" viewBox="0 0 20 13" fill="none" xmlns="http://www.w3.org/2000/svg">
<path fill-rule="evenodd" clip-rule="evenodd" d="M19.1477 9.87403C16.6129 11.8325 13.4382 12.9998 9.99971 12.9998C6.56108 12.9998 3.38637 11.8325 0.851562 9.87396C0.948431 9.45716 1.04053 9.04083 1.12522 8.65798C1.31763 7.78816 1.47183 7.0911 1.55697 6.95366C2.6274 5.22531 3.9562 4.61068 5.12433 4.07037C6.584 3.39521 7.7928 2.83608 7.93314 0.364965C7.93314 0.364965 9.04507 1.21674 9.95756 1.2086C10.87 1.20045 12.0649 0.308716 12.0649 0.308716C12.2059 2.78644 13.4186 3.35939 14.8818 4.05071C16.0481 4.60171 17.3735 5.22791 18.4423 6.95366C18.5274 7.09092 18.6814 7.78731 18.8737 8.65645C18.9585 9.03975 19.0507 9.45666 19.1477 9.87403Z" fill="#FFD7A3"/>
</svg>
