<svg width="16" height="11" viewBox="0 0 16 11" fill="none" xmlns="http://www.w3.org/2000/svg">
<path fill-rule="evenodd" clip-rule="evenodd" d="M15.1083 9.20211C12.9908 10.3482 10.5693 10.9996 8.00051 10.9996C5.43205 10.9996 3.01083 10.3484 0.893555 9.20258C0.896058 9.1952 0.898573 9.18782 0.901099 9.18045C0.947717 9.04334 0.998598 8.90762 1.05388 8.77326V8.77175C1.10765 8.6374 1.16692 8.50593 1.22908 8.37598C1.47647 7.85424 1.78478 7.36633 2.14246 6.91968C2.23294 6.80788 2.32481 6.69897 2.41955 6.59446C2.4636 6.54366 2.51022 6.49433 2.55698 6.44486L2.56518 6.43617C2.61455 6.38529 2.6642 6.33441 2.71494 6.28353C2.96811 6.03036 3.23943 5.79865 3.52519 5.58508C3.66793 5.47906 3.81218 5.38005 3.96207 5.28406C4.11197 5.18931 4.26461 5.09869 4.42014 5.01398C4.42303 5.01123 4.42578 5.01123 4.42578 5.01123C4.48656 4.97864 4.54597 4.9433 4.60538 4.90658C4.78208 4.80056 4.95178 4.68312 5.11295 4.55316C5.79585 4.01025 6.3246 3.28059 6.62576 2.44366C6.80536 1.9431 6.90286 1.40445 6.90286 0.841736L7.9957 0.847374L9.11976 0.85315C9.11976 1.40872 9.21451 1.94173 9.38984 2.43665C9.68674 3.27646 10.2141 4.00887 10.897 4.55454C10.9988 4.63801 11.1021 4.71433 11.2108 4.78653C11.2222 4.79492 11.232 4.80193 11.2434 4.80908C11.2943 4.84305 11.3452 4.87688 11.399 4.90809C11.4568 4.94344 11.5163 4.97878 11.5757 5.01137C11.5856 5.01412 11.5941 5.01838 11.6011 5.02402C11.7256 5.09333 11.8485 5.16539 11.9687 5.24033C12.0267 5.27567 12.0846 5.31239 12.1411 5.35337C12.2586 5.42832 12.373 5.51041 12.4848 5.59526C12.4848 5.5959 12.4851 5.59624 12.4854 5.59642C12.4858 5.59664 12.4862 5.59664 12.4862 5.59664H12.4875C12.6304 5.70266 12.7689 5.81584 12.9046 5.93176C13.0403 6.04783 13.1704 6.16925 13.2963 6.29522C14.1076 7.10294 14.7341 8.09423 15.1083 9.20211Z" fill="#F0C290"/>
</svg>
