<svg width="80" height="118" viewBox="0 0 80 118" fill="none" xmlns="http://www.w3.org/2000/svg">
<path d="M73.7121 105.022L26.8601 78.0941C23.3867 76.0928 20.5723 70.7449 20.5723 66.142V34.4552C20.5723 29.8523 23.3867 27.7843 26.8601 29.73L73.7121 56.6582C77.1855 58.6595 79.9999 64.0073 79.9999 68.6103V100.297C79.9999 104.9 77.1855 107.012 73.7121 105.022Z" fill="#E8A30A"/>
<path d="M57.1484 117.654L78.0782 105.191L65.3907 76.5391L45.6895 86.2341L57.1484 117.654Z" fill="#E8A30A"/>
<path d="M2.55664 41.4606L23.2072 29.1973L28.3783 67.3771L2.55664 41.4606Z" fill="#E8A30A"/>
<path d="M53.1845 117.253L6.27672 90.3249C2.80331 88.3347 0 82.9869 0 78.384V46.675C0 42.072 2.80331 40.0041 6.27672 41.9497L53.1845 68.8891C56.6467 70.8792 59.4612 76.2271 59.4612 80.83V112.517C59.4612 117.12 56.6467 119.243 53.1845 117.253Z" fill="#F9CB07"/>
<path d="M25.5977 41.0269V16.9561C25.5977 7.18318 32.4886 3.22511 40.9879 8.06152C49.4871 12.9424 56.3781 24.8277 56.3781 34.5895V58.6603" stroke="#CC8B09" stroke-width="10.46" stroke-miterlimit="10"/>
<path d="M25.3864 45.118C29.1552 45.118 32.2104 43.3608 32.2104 41.1933C32.2104 39.0257 29.1552 37.2686 25.3864 37.2686C21.6177 37.2686 18.5625 39.0257 18.5625 41.1933C18.5625 43.3608 21.6177 45.118 25.3864 45.118Z" fill="#CC8B09"/>
<path d="M56.3786 61.5067C60.1474 61.5067 63.2026 59.7495 63.2026 57.5819C63.2026 55.4144 60.1474 53.6572 56.3786 53.6572C52.6099 53.6572 49.5547 55.4144 49.5547 57.5819C49.5547 59.7495 52.6099 61.5067 56.3786 61.5067Z" fill="#CC8B09"/>
</svg>
